0
SECTION
  2
HEADER
  9
$EXTMAX
 10
   31.2000
 20
   12.8000
  9
$EXTMIN
 10
   -0.8000
 20
   -1.8000
  9
$LIMMAX
 10
   31.2000
 20
   12.8000
  9
$LIMMIN
 10
   -0.8000
 20
   -1.8000
  0
ENDSEC
0
SECTION
  2
TABLES
  0
TABLE
  2
LTYPE
 70
     1
  0
LTYPE
  2
CONTINUOUS
 70
    64
  3
Solid line
 72
   65
 73
    0
 40
0.0
  0
ENDTAB
  0
TABLE
  2
LAYER
 70
       2
  0
LAYER
  2
251
 70
    0
 62
251
  6
CONTINUOUS
  0
LAYER
  2
1
 70
    0
 62
1
  6
CONTINUOUS
  0
ENDTAB
  0
ENDSEC
0
SECTION
  2
ENTITIES
  0
LINE
  8
251
 62
11
 10
     24.0000
 20
     12.0000
 30
      0.0000
 11
     24.0000
 21
      0.0000
 31
      0.0000
  0
LINE
  8
251
 62
11
 10
     24.0000
 20
      0.0000
 30
      0.0000
 11
     14.3839
 21
      0.0000
 31
      0.0000
  0
LINE
  8
251
 62
11
 10
     14.3839
 20
      0.0000
 30
      0.0000
 11
     14.3839
 21
     12.0000
 31
      0.0000
  0
LINE
  8
251
 62
11
 10
     14.3839
 20
     12.0000
 30
      0.0000
 11
     24.0000
 21
     12.0000
 31
      0.0000
  0
LINE
  8
251
 62
9
 10
      0.0000
 20
      0.0000
 30
      0.0000
 11
      0.0000
 21
     12.0000
 31
      0.0000
  0
LINE
  8
251
 62
9
 10
      0.0000
 20
     12.0000
 30
      0.0000
 11
     24.0000
 21
     12.0000
 31
      0.0000
  0
LINE
  8
251
 62
9
 10
     24.0000
 20
     12.0000
 30
      0.0000
 11
     24.0000
 21
      0.0000
 31
      0.0000
  0
LINE
  8
251
 62
9
 10
     24.0000
 20
      0.0000
 30
      0.0000
 11
      0.0000
 21
      0.0000
 31
      0.0000
  0
TEXT
  8
251
 62
12
 10
      5.9919
 20
     -0.6000
 30
      0.0000
 40
      0.4000
 1
14.384
  0
POLYLINE
  8
251
 62
12
 10
      0.0000
 20
      0.0000
 30
      0.0000
 66
  1
 70
  0
  0
VERTEX
  8
251
 62
12
 10
      5.7919
 20
     -0.4000
 30
      0.0000
  0
VERTEX
  8
251
 62
12
 10
      0.0000
 20
     -0.4000
 30
      0.0000
  0
VERTEX
  8
251
 62
12
 10
      0.4000
 20
     -0.6000
 30
      0.0000
  0
VERTEX
  8
251
 62
12
 10
      0.4000
 20
     -0.2000
 30
      0.0000
  0
VERTEX
  8
251
 62
12
 10
      0.0000
 20
     -0.4000
 30
      0.0000
  0
VERTEX
  8
251
 62
12
 10
      0.0000
 20
     -0.8000
 30
      0.0000
  0
VERTEX
  8
251
 62
12
 10
      0.0000
 20
      0.0000
 30
      0.0000
  0
SEQEND
  8
251
 62
12
  0
POLYLINE
  8
251
 62
12
 10
      0.0000
 20
      0.0000
 30
      0.0000
 66
  1
 70
  0
  0
VERTEX
  8
251
 62
12
 10
      8.5919
 20
     -0.4000
 30
      0.0000
  0
VERTEX
  8
251
 62
12
 10
     14.3839
 20
     -0.4000
 30
      0.0000
  0
VERTEX
  8
251
 62
12
 10
     13.9839
 20
     -0.2000
 30
      0.0000
  0
VERTEX
  8
251
 62
12
 10
     13.9839
 20
     -0.6000
 30
      0.0000
  0
VERTEX
  8
251
 62
12
 10
     14.3839
 20
     -0.4000
 30
      0.0000
  0
VERTEX
  8
251
 62
12
 10
     14.3839
 20
      0.0000
 30
      0.0000
  0
VERTEX
  8
251
 62
12
 10
     14.3839
 20
     -0.8000
 30
      0.0000
  0
SEQEND
  8
251
 62
12
  0
TEXT
  8
251
 62
12
 10
     10.8000
 20
     12.2000
 30
      0.0000
 40
      0.4000
 1
24.000
  0
POLYLINE
  8
251
 62
12
 10
      0.0000
 20
      0.0000
 30
      0.0000
 66
  1
 70
  0
  0
VERTEX
  8
251
 62
12
 10
     10.6000
 20
     12.4000
 30
      0.0000
  0
VERTEX
  8
251
 62
12
 10
      0.0000
 20
     12.4000
 30
      0.0000
  0
VERTEX
  8
251
 62
12
 10
      0.4000
 20
     12.2000
 30
      0.0000
  0
VERTEX
  8
251
 62
12
 10
      0.4000
 20
     12.6000
 30
      0.0000
  0
VERTEX
  8
251
 62
12
 10
      0.0000
 20
     12.4000
 30
      0.0000
  0
VERTEX
  8
251
 62
12
 10
      0.0000
 20
     12.0000
 30
      0.0000
  0
VERTEX
  8
251
 62
12
 10
      0.0000
 20
     12.8000
 30
      0.0000
  0
SEQEND
  8
251
 62
12
  0
POLYLINE
  8
251
 62
12
 10
      0.0000
 20
      0.0000
 30
      0.0000
 66
  1
 70
  0
  0
VERTEX
  8
251
 62
12
 10
     13.4000
 20
     12.4000
 30
      0.0000
  0
VERTEX
  8
251
 62
12
 10
     24.0000
 20
     12.4000
 30
      0.0000
  0
VERTEX
  8
251
 62
12
 10
     23.6000
 20
     12.6000
 30
      0.0000
  0
VERTEX
  8
251
 62
12
 10
     23.6000
 20
     12.2000
 30
      0.0000
  0
VERTEX
  8
251
 62
12
 10
     24.0000
 20
     12.4000
 30
      0.0000
  0
VERTEX
  8
251
 62
12
 10
     24.0000
 20
     12.8000
 30
      0.0000
  0
VERTEX
  8
251
 62
12
 10
     24.0000
 20
     12.0000
 30
      0.0000
  0
SEQEND
  8
251
 62
12
  0
TEXT
  8
251
 62
12
 10
     -0.2000
 20
      4.8000
 30
      0.0000
 40
      0.4000
 1
12.000
 50
     90.0000
  0
POLYLINE
  8
251
 62
12
 10
      0.0000
 20
      0.0000
 30
      0.0000
 66
  1
 70
  0
  0
VERTEX
  8
251
 62
12
 10
     -0.4000
 20
      4.6000
 30
      0.0000
  0
VERTEX
  8
251
 62
12
 10
     -0.4000
 20
      0.0000
 30
      0.0000
  0
VERTEX
  8
251
 62
12
 10
     -0.2000
 20
      0.4000
 30
      0.0000
  0
VERTEX
  8
251
 62
12
 10
     -0.6000
 20
      0.4000
 30
      0.0000
  0
VERTEX
  8
251
 62
12
 10
     -0.4000
 20
      0.0000
 30
      0.0000
  0
VERTEX
  8
251
 62
12
 10
      0.0000
 20
      0.0000
 30
      0.0000
  0
VERTEX
  8
251
 62
12
 10
     -0.8000
 20
      0.0000
 30
      0.0000
  0
SEQEND
  8
251
 62
12
  0
POLYLINE
  8
251
 62
12
 10
      0.0000
 20
      0.0000
 30
      0.0000
 66
  1
 70
  0
  0
VERTEX
  8
251
 62
12
 10
     -0.4000
 20
      7.4000
 30
      0.0000
  0
VERTEX
  8
251
 62
12
 10
     -0.4000
 20
     12.0000
 30
      0.0000
  0
VERTEX
  8
251
 62
12
 10
     -0.6000
 20
     11.6000
 30
      0.0000
  0
VERTEX
  8
251
 62
12
 10
     -0.2000
 20
     11.6000
 30
      0.0000
  0
VERTEX
  8
251
 62
12
 10
     -0.4000
 20
     12.0000
 30
      0.0000
  0
VERTEX
  8
251
 62
12
 10
     -0.8000
 20
     12.0000
 30
      0.0000
  0
VERTEX
  8
251
 62
12
 10
      0.0000
 20
     12.0000
 30
      0.0000
  0
SEQEND
  8
251
 62
12
  0
CIRCLE
  8
1
 62
7
 10
      0.9661
 20
      1.1765
 30
      0.0000
 40
      0.0820
  0
CIRCLE
  8
1
 62
7
 10
      1.7209
 20
      0.4821
 30
      0.0000
 40
      0.0825
  0
CIRCLE
  8
1
 62
7
 10
      2.0388
 20
      3.9961
 30
      0.0000
 40
      0.0860
  0
CIRCLE
  8
1
 62
7
 10
      1.0219
 20
      2.2739
 30
      0.0000
 40
      0.0860
  0
LINE
  8
1
 62
7
 10
      0.5850
 20
      2.6747
 30
      0.0000
 11
      1.3540
 21
      3.4039
 31
      0.0000
  0
ARC
  8
1
 62
7
 10
      0.6659
 20
      4.1295
 30
      0.0000
 40
      1.0000
 50
 313.4761
 51
 329.4394
  0
LINE
  8
1
 62
7
 10
      1.5270
 20
      3.6211
 30
      0.0000
 11
      1.8235
 21
      4.1232
 31
      0.0000
  0
ARC
  8
1
 62
7
 10
      2.0388
 20
      3.9961
 30
      0.0000
 40
      0.2500
 50
 355.5000
 51
 149.4395
  0
LINE
  8
1
 62
7
 10
      2.2880
 20
      3.9765
 30
      0.0000
 11
      2.0163
 21
      0.5236
 31
      0.0000
  0
ARC
  8
1
 62
7
 10
      1.8913
 20
      0.5259
 30
      0.0000
 40
      0.1250
 50
 329.6613
 51
 358.9677
  0
LINE
  8
1
 62
7
 10
      1.9992
 20
      0.4627
 30
      0.0000
 11
      1.9366
 21
      0.3558
 31
      0.0000
  0
ARC
  8
1
 62
7
 10
      1.7209
 20
      0.4821
 30
      0.0000
 40
      0.2500
 50
 239.4395
 51
 329.6613
  0
LINE
  8
1
 62
7
 10
      1.5937
 20
      0.2668
 30
      0.0000
 11
      1.5272
 21
      0.3061
 31
      0.0000
  0
ARC
  8
1
 62
7
 10
      2.6365
 20
      2.1848
 30
      0.0000
 40
      2.1817
 50
 173.0759
 51
 239.4395
  0
ARC
  8
1
 62
7
 10
      0.8430
 20
      2.4026
 30
      0.0000
 40
      0.3750
 50
 133.4761
 51
 173.0760
  0
TEXT
  8
251
 62
13
 10
      0.9227
 20
      2.7804
 30
      0.0000
 40
      0.3000
 1
1
  0
CIRCLE
  8
1
 62
7
 10
      1.0509
 20
      4.5225
 30
      0.0000
 40
      0.0825
  0
LINE
  8
1
 62
7
 10
      1.0605
 20
      7.5878
 30
      0.0000
 11
      1.0194
 21
      8.1098
 31
      0.0000
  0
LINE
  8
1
 62
7
 10
      1.0194
 20
      8.1098
 30
      0.0000
 11
      0.7001
 21
      7.8112
 31
      0.0000
  0
LINE
  8
1
 62
7
 10
      0.7001
 20
      7.8112
 30
      0.0000
 11
      1.0605
 21
      7.5878
 31
      0.0000
  0
LINE
  8
1
 62
7
 10
      0.5335
 20
      7.9145
 30
      0.0000
 11
      0.8506
 21
      8.2111
 31
      0.0000
  0
LINE
  8
1
 62
7
 10
      0.8506
 20
      8.2111
 30
      0.0000
 11
      0.4933
 21
      8.4255
 31
      0.0000
  0
LINE
  8
1
 62
7
 10
      0.4933
 20
      8.4255
 30
      0.0000
 11
      0.5335
 21
      7.9145
 31
      0.0000
  0
LINE
  8
1
 62
7
 10
      1.0004
 20
      8.3512
 30
      0.0000
 11
      0.9602
 21
      8.8621
 31
      0.0000
  0
LINE
  8
1
 62
7
 10
      0.9602
 20
      8.8621
 30
      0.0000
 11
      0.6430
 21
      8.5656
 31
      0.0000
  0
LINE
  8
1
 62
7
 10
      0.6430
 20
      8.5656
 30
      0.0000
 11
      1.0004
 21
      8.3512
 31
      0.0000
  0
LINE
  8
1
 62
7
 10
      0.4743
 20
      8.6668
 30
      0.0000
 11
      0.7914
 21
      8.9634
 31
      0.0000
  0
LINE
  8
1
 62
7
 10
      0.7914
 20
      8.9634
 30
      0.0000
 11
      0.4340
 21
      9.1778
 31
      0.0000
  0
LINE
  8
1
 62
7
 10
      0.4340
 20
      9.1778
 30
      0.0000
 11
      0.4743
 21
      8.6668
 31
      0.0000
  0
LINE
  8
1
 62
7
 10
      0.5847
 20
      5.9878
 30
      0.0000
 11
      0.5328
 21
      5.3011
 31
      0.0000
  0
LINE
  8
1
 62
7
 10
      0.5328
 20
      5.3011
 30
      0.0000
 11
      1.3352
 21
      5.9835
 31
      0.0000
  0
LINE
  8
1
 62
7
 10
      1.3352
 20
      5.9835
 30
      0.0000
 11
      0.5847
 21
      5.9878
 31
      0.0000
  0
LINE
  8
1
 62
7
 10
      1.4328
 20
      5.4518
 30
      0.0000
 11
      0.8484
 21
      4.9548
 31
      0.0000
  0
LINE
  8
1
 62
7
 10
      0.8484
 20
      4.9548
 30
      0.0000
 11
      1.2410
 21
      4.7296
 31
      0.0000
  0
LINE
  8
1
 62
7
 10
      1.2410
 20
      4.7296
 30
      0.0000
 11
      1.4328
 21
      5.4518
 31
      0.0000
  0
LINE
  8
1
 62
7
 10
      1.0894
 20
      4.1795
 30
      0.0000
 11
      0.4752
 21
      4.5381
 31
      0.0000
  0
LINE
  8
1
 62
7
 10
      0.4752
 20
      4.5381
 30
      0.0000
 11
      0.4301
 21
      3.9419
 31
      0.0000
  0
ARC
  8
1
 62
7
 10
      0.0478
 20
      6.0359
 30
      0.0000
 40
      2.1287
 50
 280.3466
 51
 299.2959
  0
LINE
  8
1
 62
7
 10
      1.9979
 20
      5.6537
 30
      0.0000
 11
      1.7654
 21
      4.7785
 31
      0.0000
  0
ARC
  8
1
 62
7
 10
      0.0478
 20
      6.0359
 30
      0.0000
 40
      2.1287
 50
 323.7911
 51
 329.2018
  0
ARC
  8
1
 62
7
 10
      1.3098
 20
      5.2837
 30
      0.0000
 40
      0.6595
 50
 329.2017
 51
 345.7079
  0
ARC
  8
1
 62
7
 10
      0.2982
 20
      5.5414
 30
      0.0000
 40
      1.7034
 50
 345.7079
 51
   3.7794
  0
LINE
  8
1
 62
7
 10
      0.6561
 20
      7.5030
 30
      0.0000
 11
      0.6776
 21
      7.2306
 31
      0.0000
  0
ARC
  8
1
 62
7
 10
     -0.1603
 20
      7.1647
 30
      0.0000
 40
      0.8405
 50
 347.3264
 51
   4.5000
  0
LINE
  8
1
 62
7
 10
      0.6597
 20
      6.9803
 30
      0.0000
 11
      0.6191
 21
      6.4437
 31
      0.0000
  0
LINE
  8
1
 62
7
 10
      0.6191
 20
      6.4437
 30
      0.0000
 11
      1.7470
 21
      6.4372
 31
      0.0000
  0
ARC
  8
1
 62
7
 10
      0.2982
 20
      5.5414
 30
      0.0000
 40
      1.7034
 50
  31.7304
 51
  57.0033
  0
ARC
  8
1
 62
7
 10
      1.4538
 20
      7.3759
 30
      0.0000
 40
      0.4655
 50
 190.3360
 51
 240.6844
  0
LINE
  8
1
 62
7
 10
      0.9958
 20
      7.2924
 30
      0.0000
 11
      0.6561
 21
      7.5030
 31
      0.0000
  0
CIRCLE
  8
1
 62
7
 10
      0.6194
 20
     10.0055
 30
      0.0000
 40
      0.0825
  0
ARC
  8
1
 62
7
 10
      1.6759
 20
      9.3355
 30
      0.0000
 40
      0.5594
 50
  30.6044
 51
 157.8975
  0
LINE
  8
1
 62
7
 10
      1.1576
 20
      9.5460
 30
      0.0000
 11
      1.3292
 21
      7.3661
 31
      0.0000
  0
ARC
  8
1
 62
7
 10
      1.4538
 20
      7.3759
 30
      0.0000
 40
      0.1250
 50
 184.4997
 51
 241.0989
  0
ARC
  8
1
 62
7
 10
      1.2725
 20
      7.0476
 30
      0.0000
 40
      0.2500
 50
  57.1027
 51
  61.0991
  0
ARC
  8
1
 62
7
 10
      0.2982
 20
      5.5414
 30
      0.0000
 40
      2.0439
 50
 345.7079
 51
  57.1024
  0
ARC
  8
1
 62
7
 10
      1.3098
 20
      5.2837
 30
      0.0000
 40
      1.0000
 50
 329.2017
 51
 345.7079
  0
ARC
  8
1
 62
7
 10
      0.0478
 20
      6.0359
 30
      0.0000
 40
      2.4692
 50
 277.3392
 51
 329.2017
  0
ARC
  8
1
 62
7
 10
      0.3313
 20
      3.8350
 30
      0.0000
 40
      0.2500
 50
 175.6794
 51
 277.3393
  0
LINE
  8
1
 62
7
 10
      0.0820
 20
      3.8538
 30
      0.0000
 11
      0.3207
 21
      7.0127
 31
      0.0000
  0
ARC
  8
1
 62
7
 10
      0.5700
 20
      6.9939
 30
      0.0000
 40
      0.2500
 50
 166.8359
 51
 175.6794
  0
ARC
  8
1
 62
7
 10
     -0.1603
 20
      7.1647
 30
      0.0000
 40
      0.5000
 50
 346.8359
 51
   4.5000
  0
LINE
  8
1
 62
7
 10
      0.3381
 20
      7.2039
 30
      0.0000
 11
      0.0717
 21
     10.5890
 31
      0.0000
  0
ARC
  8
1
 62
7
 10
      0.1963
 20
     10.5988
 30
      0.0000
 40
      0.1250
 50
  94.5000
 51
 184.5001
  0
LINE
  8
1
 62
7
 10
      0.1865
 20
     10.7234
 30
      0.0000
 11
      1.0588
 21
     10.7921
 31
      0.0000
  0
ARC
  8
1
 62
7
 10
      1.1579
 20
      9.5327
 30
      0.0000
 40
      1.2633
 50
   7.9942
 51
  94.5000
  0
ARC
  8
1
 62
7
 10
      2.2743
 20
      9.6895
 30
      0.0000
 40
      0.1359
 50
 210.6042
 51
   7.9944
  0
TEXT
  8
251
 62
13
 10
      1.4733
 20
      9.8929
 30
      0.0000
 40
      0.3000
 1
2
  0
CIRCLE
  8
1
 62
7
 10
      3.1705
 20
      2.6617
 30
      0.0000
 40
      0.0825
  0
LINE
  8
1
 62
7
 10
      3.1800
 20
      5.7270
 30
      0.0000
 11
      3.1389
 21
      6.2491
 31
      0.0000
  0
LINE
  8
1
 62
7
 10
      3.1389
 20
      6.2491
 30
      0.0000
 11
      2.8196
 21
      5.9505
 31
      0.0000
  0
LINE
  8
1
 62
7
 10
      2.8196
 20
      5.9505
 30
      0.0000
 11
      3.1800
 21
      5.7270
 31
      0.0000
  0
LINE
  8
1
 62
7
 10
      2.6530
 20
      6.0538
 30
      0.0000
 11
      2.9702
 21
      6.3503
 31
      0.0000
  0
LINE
  8
1
 62
7
 10
      2.9702
 20
      6.3503
 30
      0.0000
 11
      2.6128
 21
      6.5647
 31
      0.0000
  0
LINE
  8
1
 62
7
 10
      2.6128
 20
      6.5647
 30
      0.0000
 11
      2.6530
 21
      6.0538
 31
      0.0000
  0
LINE
  8
1
 62
7
 10
      3.1199
 20
      6.4904
 30
      0.0000
 11
      3.0797
 21
      7.0014
 31
      0.0000
  0
LINE
  8
1
 62
7
 10
      3.0797
 20
      7.0014
 30
      0.0000
 11
      2.7626
 21
      6.7048
 31
      0.0000
  0
LINE
  8
1
 62
7
 10
      2.7626
 20
      6.7048
 30
      0.0000
 11
      3.1199
 21
      6.4904
 31
      0.0000
  0
LINE
  8
1
 62
7
 10
      2.5938
 20
      6.8060
 30
      0.0000
 11
      2.9110
 21
      7.1026
 31
      0.0000
  0
LINE
  8
1
 62
7
 10
      2.9110
 20
      7.1026
 30
      0.0000
 11
      2.5536
 21
      7.3170
 31
      0.0000
  0
LINE
  8
1
 62
7
 10
      2.5536
 20
      7.3170
 30
      0.0000
 11
      2.5938
 21
      6.8060
 31
      0.0000
  0
LINE
  8
1
 62
7
 10
      2.7043
 20
      4.1271
 30
      0.0000
 11
      2.6524
 21
      3.4404
 31
      0.0000
  0
LINE
  8
1
 62
7
 10
      2.6524
 20
      3.4404
 30
      0.0000
 11
      3.4548
 21
      4.1228
 31
      0.0000
  0
LINE
  8
1
 62
7
 10
      3.4548
 20
      4.1228
 30
      0.0000
 11
      2.7043
 21
      4.1271
 31
      0.0000
  0
LINE
  8
1
 62
7
 10
      3.5524
 20
      3.5910
 30
      0.0000
 11
      2.9680
 21
      3.0940
 31
      0.0000
  0
LINE
  8
1
 62
7
 10
      2.9680
 20
      3.0940
 30
      0.0000
 11
      3.3605
 21
      2.8688
 31
      0.0000
  0
LINE
  8
1
 62
7
 10
      3.3605
 20
      2.8688
 30
      0.0000
 11
      3.5524
 21
      3.5910
 31
      0.0000
  0
LINE
  8
1
 62
7
 10
      3.2090
 20
      2.3188
 30
      0.0000
 11
      2.5948
 21
      2.6774
 31
      0.0000
  0
LINE
  8
1
 62
7
 10
      2.5948
 20
      2.6774
 30
      0.0000
 11
      2.5497
 21
      2.0811
 31
      0.0000
  0
ARC
  8
1
 62
7
 10
      2.1674
 20
      4.1752
 30
      0.0000
 40
      2.1287
 50
 280.3466
 51
 299.2958
  0
LINE
  8
1
 62
7
 10
      4.1175
 20
      3.7929
 30
      0.0000
 11
      3.8849
 21
      2.9177
 31
      0.0000
  0
ARC
  8
1
 62
7
 10
      2.1674
 20
      4.1752
 30
      0.0000
 40
      2.1287
 50
 323.7912
 51
 329.2018
  0
ARC
  8
1
 62
7
 10
      3.4294
 20
      3.4229
 30
      0.0000
 40
      0.6595
 50
 329.2017
 51
 345.7079
  0
ARC
  8
1
 62
7
 10
      2.4178
 20
      3.6806
 30
      0.0000
 40
      1.7034
 50
 345.7079
 51
   3.7794
  0
LINE
  8
1
 62
7
 10
      2.7757
 20
      5.6422
 30
      0.0000
 11
      2.7971
 21
      5.3699
 31
      0.0000
  0
ARC
  8
1
 62
7
 10
      1.9592
 20
      5.3039
 30
      0.0000
 40
      0.8405
 50
 347.3264
 51
   4.5000
  0
LINE
  8
1
 62
7
 10
      2.7793
 20
      5.1195
 30
      0.0000
 11
      2.7387
 21
      4.5829
 31
      0.0000
  0
LINE
  8
1
 62
7
 10
      2.7387
 20
      4.5829
 30
      0.0000
 11
      3.8666
 21
      4.5765
 31
      0.0000
  0
ARC
  8
1
 62
7
 10
      2.4178
 20
      3.6806
 30
      0.0000
 40
      1.7034
 50
  31.7304
 51
  57.0033
  0
ARC
  8
1
 62
7
 10
      3.5734
 20
      5.5151
 30
      0.0000
 40
      0.4655
 50
 190.3361
 51
 240.6844
  0
LINE
  8
1
 62
7
 10
      3.1154
 20
      5.4316
 30
      0.0000
 11
      2.7757
 21
      5.6422
 31
      0.0000
  0
CIRCLE
  8
1
 62
7
 10
      2.7390
 20
      8.1448
 30
      0.0000
 40
      0.0825
  0
ARC
  8
1
 62
7
 10
      3.7954
 20
      7.4747
 30
      0.0000
 40
      0.5594
 50
  30.6044
 51
 157.8975
  0
LINE
  8
1
 62
7
 10
      3.2772
 20
      7.6852
 30
      0.0000
 11
      3.4487
 21
      5.5053
 31
      0.0000
  0
ARC
  8
1
 62
7
 10
      3.5734
 20
      5.5151
 30
      0.0000
 40
      0.1250
 50
 184.4999
 51
 241.0991
  0
ARC
  8
1
 62
7
 10
      3.3921
 20
      5.1868
 30
      0.0000
 40
      0.2500
 50
  57.1027
 51
  61.0991
  0
ARC
  8
1
 62
7
 10
      2.4178
 20
      3.6806
 30
      0.0000
 40
      2.0439
 50
 345.7079
 51
  57.1024
  0
ARC
  8
1
 62
7
 10
      3.4294
 20
      3.4229
 30
      0.0000
 40
      1.0000
 50
 329.2017
 51
 345.7079
  0
ARC
  8
1
 62
7
 10
      2.1674
 20
      4.1752
 30
      0.0000
 40
      2.4692
 50
 277.3392
 51
 329.2017
  0
ARC
  8
1
 62
7
 10
      2.4509
 20
      1.9742
 30
      0.0000
 40
      0.2500
 50
 175.6794
 51
 277.3393
  0
LINE
  8
1
 62
7
 10
      2.2016
 20
      1.9930
 30
      0.0000
 11
      2.4402
 21
      5.1519
 31
      0.0000
  0
ARC
  8
1
 62
7
 10
      2.6895
 20
      5.1331
 30
      0.0000
 40
      0.2500
 50
 166.8359
 51
 175.6794
  0
ARC
  8
1
 62
7
 10
      1.9592
 20
      5.3039
 30
      0.0000
 40
      0.5000
 50
 346.8359
 51
   4.5000
  0
LINE
  8
1
 62
7
 10
      2.4577
 20
      5.3431
 30
      0.0000
 11
      2.1913
 21
      8.7282
 31
      0.0000
  0
ARC
  8
1
 62
7
 10
      2.3159
 20
      8.7380
 30
      0.0000
 40
      0.1250
 50
  94.5000
 51
 184.4997
  0
LINE
  8
1
 62
7
 10
      2.3061
 20
      8.8626
 30
      0.0000
 11
      3.1784
 21
      8.9313
 31
      0.0000
  0
ARC
  8
1
 62
7
 10
      3.2775
 20
      7.6719
 30
      0.0000
 40
      1.2633
 50
   7.9942
 51
  94.5000
  0
ARC
  8
1
 62
7
 10
      4.3939
 20
      7.8287
 30
      0.0000
 40
      0.1359
 50
 210.6045
 51
   7.9942
  0
TEXT
  8
251
 62
13
 10
      3.5929
 20
      8.0321
 30
      0.0000
 40
      0.3000
 1
2
  0
CIRCLE
  8
1
 62
7
 10
      3.8806
 20
     10.7076
 30
      0.0000
 40
      0.0820
  0
CIRCLE
  8
1
 62
7
 10
      4.5137
 20
     11.5145
 30
      0.0000
 40
      0.0825
  0
CIRCLE
  8
1
 62
7
 10
      0.9856
 20
     11.5557
 30
      0.0000
 40
      0.0860
  0
CIRCLE
  8
1
 62
7
 10
      2.7822
 20
     10.6771
 30
      0.0000
 40
      0.0860
  0
LINE
  8
1
 62
7
 10
      2.4170
 20
     10.2100
 30
      0.0000
 11
      1.6297
 21
     10.9195
 31
      0.0000
  0
ARC
  8
1
 62
7
 10
      0.9602
 20
     10.1766
 30
      0.0000
 40
      1.0000
 50
  47.9761
 51
  63.9394
  0
LINE
  8
1
 62
7
 10
      1.3996
 20
     11.0750
 30
      0.0000
 11
      0.8758
 21
     11.3311
 31
      0.0000
  0
ARC
  8
1
 62
7
 10
      0.9856
 20
     11.5557
 30
      0.0000
 40
      0.2500
 50
  90.0000
 51
 243.9394
  0
LINE
  8
1
 62
7
 10
      0.9856
 20
     11.8057
 30
      0.0000
 11
      4.4491
 21
     11.8057
 31
      0.0000
  0
ARC
  8
1
 62
7
 10
      4.4567
 20
     11.6809
 30
      0.0000
 40
      0.1250
 50
  64.1612
 51
  93.4677
  0
LINE
  8
1
 62
7
 10
      4.5112
 20
     11.7934
 30
      0.0000
 11
      4.6226
 21
     11.7395
 31
      0.0000
  0
ARC
  8
1
 62
7
 10
      4.5137
 20
     11.5145
 30
      0.0000
 40
      0.2500
 50
 333.9395
 51
  64.1613
  0
LINE
  8
1
 62
7
 10
      4.7382
 20
     11.4046
 30
      0.0000
 11
      4.7043
 21
     11.3352
 31
      0.0000
  0
ARC
  8
1
 62
7
 10
      2.7444
 20
     12.2937
 30
      0.0000
 40
      2.1817
 50
 267.5760
 51
 333.9395
  0
ARC
  8
1
 62
7
 10
      2.6680
 20
     10.4886
 30
      0.0000
 40
      0.3750
 50
 227.9762
 51
 267.5760
  0
TEXT
  8
251
 62
13
 10
      1.9737
 20
     10.5262
 30
      0.0000
 40
      0.3000
 1
1
  0
CIRCLE
  8
1
 62
7
 10
      5.3061
 20
      1.0131
 30
      0.0000
 40
      0.0825
  0
LINE
  8
1
 62
7
 10
      5.3156
 20
      4.0784
 30
      0.0000
 11
      5.2746
 21
      4.6005
 31
      0.0000
  0
LINE
  8
1
 62
7
 10
      5.2746
 20
      4.6005
 30
      0.0000
 11
      4.9553
 21
      4.3019
 31
      0.0000
  0
LINE
  8
1
 62
7
 10
      4.9553
 20
      4.3019
 30
      0.0000
 11
      5.3156
 21
      4.0784
 31
      0.0000
  0
LINE
  8
1
 62
7
 10
      4.7887
 20
      4.4052
 30
      0.0000
 11
      5.1058
 21
      4.7018
 31
      0.0000
  0
LINE
  8
1
 62
7
 10
      5.1058
 20
      4.7018
 30
      0.0000
 11
      4.7484
 21
      4.9161
 31
      0.0000
  0
LINE
  8
1
 62
7
 10
      4.7484
 20
      4.9161
 30
      0.0000
 11
      4.7887
 21
      4.4052
 31
      0.0000
  0
LINE
  8
1
 62
7
 10
      5.2556
 20
      4.8418
 30
      0.0000
 11
      5.2154
 21
      5.3528
 31
      0.0000
  0
LINE
  8
1
 62
7
 10
      5.2154
 20
      5.3528
 30
      0.0000
 11
      4.8982
 21
      5.0562
 31
      0.0000
  0
LINE
  8
1
 62
7
 10
      4.8982
 20
      5.0562
 30
      0.0000
 11
      5.2556
 21
      4.8418
 31
      0.0000
  0
LINE
  8
1
 62
7
 10
      4.7295
 20
      5.1575
 30
      0.0000
 11
      5.0466
 21
      5.4541
 31
      0.0000
  0
LINE
  8
1
 62
7
 10
      5.0466
 20
      5.4541
 30
      0.0000
 11
      4.6892
 21
      5.6684
 31
      0.0000
  0
LINE
  8
1
 62
7
 10
      4.6892
 20
      5.6684
 30
      0.0000
 11
      4.7295
 21
      5.1575
 31
      0.0000
  0
LINE
  8
1
 62
7
 10
      4.8399
 20
      2.4785
 30
      0.0000
 11
      4.7880
 21
      1.7918
 31
      0.0000
  0
LINE
  8
1
 62
7
 10
      4.7880
 20
      1.7918
 30
      0.0000
 11
      5.5904
 21
      2.4742
 31
      0.0000
  0
LINE
  8
1
 62
7
 10
      5.5904
 20
      2.4742
 30
      0.0000
 11
      4.8399
 21
      2.4785
 31
      0.0000
  0
LINE
  8
1
 62
7
 10
      5.6880
 20
      1.9424
 30
      0.0000
 11
      5.1036
 21
      1.4454
 31
      0.0000
  0
LINE
  8
1
 62
7
 10
      5.1036
 20
      1.4454
 30
      0.0000
 11
      5.4961
 21
      1.2202
 31
      0.0000
  0
LINE
  8
1
 62
7
 10
      5.4961
 20
      1.2202
 30
      0.0000
 11
      5.6880
 21
      1.9424
 31
      0.0000
  0
LINE
  8
1
 62
7
 10
      5.3446
 20
      0.6702
 30
      0.0000
 11
      4.7304
 21
      1.0288
 31
      0.0000
  0
LINE
  8
1
 62
7
 10
      4.7304
 20
      1.0288
 30
      0.0000
 11
      4.6853
 21
      0.4326
 31
      0.0000
  0
ARC
  8
1
 62
7
 10
      4.3030
 20
      2.5266
 30
      0.0000
 40
      2.1287
 50
 280.3466
 51
 299.2958
  0
LINE
  8
1
 62
7
 10
      6.2531
 20
      2.1443
 30
      0.0000
 11
      6.0206
 21
      1.2691
 31
      0.0000
  0
ARC
  8
1
 62
7
 10
      4.3030
 20
      2.5266
 30
      0.0000
 40
      2.1287
 50
 323.7912
 51
 329.2018
  0
ARC
  8
1
 62
7
 10
      5.5650
 20
      1.7744
 30
      0.0000
 40
      0.6595
 50
 329.2017
 51
 345.7079
  0
ARC
  8
1
 62
7
 10
      4.5534
 20
      2.0321
 30
      0.0000
 40
      1.7034
 50
 345.7079
 51
   3.7794
  0
LINE
  8
1
 62
7
 10
      4.9113
 20
      3.9937
 30
      0.0000
 11
      4.9328
 21
      3.7213
 31
      0.0000
  0
ARC
  8
1
 62
7
 10
      4.0949
 20
      3.6554
 30
      0.0000
 40
      0.8405
 50
 347.3264
 51
   4.5000
  0
LINE
  8
1
 62
7
 10
      4.9149
 20
      3.4710
 30
      0.0000
 11
      4.8743
 21
      2.9343
 31
      0.0000
  0
LINE
  8
1
 62
7
 10
      4.8743
 20
      2.9343
 30
      0.0000
 11
      6.0022
 21
      2.9279
 31
      0.0000
  0
ARC
  8
1
 62
7
 10
      4.5534
 20
      2.0321
 30
      0.0000
 40
      1.7034
 50
  31.7304
 51
  57.0033
  0
ARC
  8
1
 62
7
 10
      5.7090
 20
      3.8665
 30
      0.0000
 40
      0.4655
 50
 190.3361
 51
 240.6843
  0
LINE
  8
1
 62
7
 10
      5.2510
 20
      3.7830
 30
      0.0000
 11
      4.9113
 21
      3.9937
 31
      0.0000
  0
CIRCLE
  8
1
 62
7
 10
      4.8746
 20
      6.4962
 30
      0.0000
 40
      0.0825
  0
ARC
  8
1
 62
7
 10
      5.9310
 20
      5.8262
 30
      0.0000
 40
      0.5594
 50
  30.6044
 51
 157.8974
  0
LINE
  8
1
 62
7
 10
      5.4128
 20
      6.0366
 30
      0.0000
 11
      5.5844
 21
      3.8567
 31
      0.0000
  0
ARC
  8
1
 62
7
 10
      5.7090
 20
      3.8665
 30
      0.0000
 40
      0.1250
 50
 184.5000
 51
 241.0989
  0
ARC
  8
1
 62
7
 10
      5.5277
 20
      3.5383
 30
      0.0000
 40
      0.2500
 50
  57.1026
 51
  61.0992
  0
ARC
  8
1
 62
7
 10
      4.5534
 20
      2.0321
 30
      0.0000
 40
      2.0439
 50
 345.7079
 51
  57.1024
  0
ARC
  8
1
 62
7
 10
      5.5650
 20
      1.7744
 30
      0.0000
 40
      1.0000
 50
 329.2017
 51
 345.7079
  0
ARC
  8
1
 62
7
 10
      4.3030
 20
      2.5266
 30
      0.0000
 40
      2.4692
 50
 277.3392
 51
 329.2017
  0
ARC
  8
1
 62
7
 10
      4.5865
 20
      0.3256
 30
      0.0000
 40
      0.2500
 50
 175.6794
 51
 277.3392
  0
LINE
  8
1
 62
7
 10
      4.3372
 20
      0.3445
 30
      0.0000
 11
      4.5759
 21
      3.5034
 31
      0.0000
  0
ARC
  8
1
 62
7
 10
      4.8252
 20
      3.4845
 30
      0.0000
 40
      0.2500
 50
 166.8358
 51
 175.6794
  0
ARC
  8
1
 62
7
 10
      4.0949
 20
      3.6554
 30
      0.0000
 40
      0.5000
 50
 346.8359
 51
   4.5000
  0
LINE
  8
1
 62
7
 10
      4.5933
 20
      3.6946
 30
      0.0000
 11
      4.3269
 21
      7.0797
 31
      0.0000
  0
ARC
  8
1
 62
7
 10
      4.4515
 20
      7.0895
 30
      0.0000
 40
      0.1250
 50
  94.4999
 51
 184.4999
  0
LINE
  8
1
 62
7
 10
      4.4417
 20
      7.2141
 30
      0.0000
 11
      5.3140
 21
      7.2827
 31
      0.0000
  0
ARC
  8
1
 62
7
 10
      5.4131
 20
      6.0234
 30
      0.0000
 40
      1.2633
 50
   7.9942
 51
  94.5000
  0
ARC
  8
1
 62
7
 10
      6.5295
 20
      6.1801
 30
      0.0000
 40
      0.1359
 50
 210.6045
 51
   7.9942
  0
TEXT
  8
251
 62
13
 10
      5.7285
 20
      6.3836
 30
      0.0000
 40
      0.3000
 1
2
  0
LINE
  8
1
 62
7
 10
     12.8740
 20
      0.3125
 30
      0.0000
 11
     10.8115
 21
      0.3125
 31
      0.0000
  0
LINE
  8
1
 62
7
 10
     10.8115
 20
      0.3125
 30
      0.0000
 11
     10.7490
 21
      0.1875
 31
      0.0000
  0
LINE
  8
1
 62
7
 10
     10.7490
 20
      0.1875
 30
      0.0000
 11
     12.8115
 21
      0.1875
 31
      0.0000
  0
LINE
  8
1
 62
7
 10
     12.8115
 20
      0.1875
 30
      0.0000
 11
     12.8740
 21
      0.3125
 31
      0.0000
  0
LINE
  8
1
 62
7
 10
     11.3365
 20
      1.1750
 30
      0.0000
 11
     13.0850
 21
      0.3008
 31
      0.0000
  0
LINE
  8
1
 62
7
 10
     13.0850
 20
      0.3008
 30
      0.0000
 11
     13.3975
 21
      0.4258
 31
      0.0000
  0
LINE
  8
1
 62
7
 10
     13.3975
 20
      0.4258
 30
      0.0000
 11
     10.9990
 21
      1.6250
 31
      0.0000
  0
LINE
  8
1
 62
7
 10
     10.9990
 20
      1.6250
 30
      0.0000
 11
     10.6865
 21
      1.5000
 31
      0.0000
  0
LINE
  8
1
 62
7
 10
     10.6865
 20
      1.5000
 30
      0.0000
 11
     11.1865
 21
      1.2500
 31
      0.0000
  0
ARC
  8
1
 62
7
 10
     11.1865
 20
      1.0625
 30
      0.0000
 40
      0.1875
 50
  36.8700
 51
  90.0000
  0
LINE
  8
1
 62
7
 10
     13.3115
 20
      0.1875
 30
      0.0000
 11
     13.8740
 21
      0.1875
 31
      0.0000
  0
LINE
  8
1
 62
7
 10
     13.8740
 20
      0.1875
 30
      0.0000
 11
     13.6240
 21
      0.3125
 31
      0.0000
  0
LINE
  8
1
 62
7
 10
     13.6240
 20
      0.3125
 30
      0.0000
 11
     13.3115
 21
      0.1875
 31
      0.0000
  0
LINE
  8
1
 62
7
 10
     13.8740
 20
      1.2500
 30
      0.0000
 11
     13.6133
 21
      1.2500
 31
      0.0000
  0
ARC
  8
1
 62
7
 10
     13.4365
 20
      1.3125
 30
      0.0000
 40
      0.1875
 50
 199.4713
 51
 340.5289
  0
LINE
  8
1
 62
7
 10
     13.2598
 20
      1.2500
 30
      0.0000
 11
     12.6222
 21
      1.2500
 31
      0.0000
  0
ARC
  8
1
 62
7
 10
     12.4455
 20
      1.3125
 30
      0.0000
 40
      0.1875
 50
 199.4713
 51
 340.5289
  0
LINE
  8
1
 62
7
 10
     12.2687
 20
      1.2500
 30
      0.0000
 11
     12.1240
 21
      1.2500
 31
      0.0000
  0
LINE
  8
1
 62
7
 10
     12.1240
 20
      1.2500
 30
      0.0000
 11
     13.5643
 21
      0.5298
 31
      0.0000
  0
LINE
  8
1
 62
7
 10
     13.5643
 20
      0.5298
 30
      0.0000
 11
     13.8740
 21
      0.5298
 31
      0.0000
  0
LINE
  8
1
 62
7
 10
     13.8740
 20
      0.5298
 30
      0.0000
 11
     13.8740
 21
      1.2500
 31
      0.0000
  0
LINE
  8
1
 62
7
 10
     10.6240
 20
      1.8125
 30
      0.0000
 11
     10.3115
 21
      1.6875
 31
      0.0000
  0
LINE
  8
1
 62
7
 10
     10.3115
 20
      1.6875
 30
      0.0000
 11
     10.4990
 21
      1.5937
 31
      0.0000
  0
LINE
  8
1
 62
7
 10
     10.4990
 20
      1.5937
 30
      0.0000
 11
     10.8115
 21
      1.7188
 31
      0.0000
  0
LINE
  8
1
 62
7
 10
     10.8115
 20
      1.7188
 30
      0.0000
 11
     10.6240
 21
      1.8125
 31
      0.0000
  0
LINE
  8
1
 62
7
 10
     10.0757
 20
      0.9113
 30
      0.0000
 11
      9.5615
 21
      0.5000
 31
      0.0000
  0
LINE
  8
1
 62
7
 10
      9.5615
 20
      0.5000
 30
      0.0000
 11
     10.9990
 21
      0.9765
 31
      0.0000
  0
LINE
  8
1
 62
7
 10
     10.9990
 20
      0.9765
 30
      0.0000
 11
     10.4990
 21
      1.2500
 31
      0.0000
  0
LINE
  8
1
 62
7
 10
     10.4990
 20
      1.2500
 30
      0.0000
 11
     10.3584
 21
      1.1375
 31
      0.0000
  0
ARC
  8
1
 62
7
 10
     10.1865
 20
      1.0625
 30
      0.0000
 40
      0.1875
 50
 233.7469
 51
  23.5727
  0
CIRCLE
  8
1
 62
7
 10
     10.1865
 20
      1.0625
 30
      0.0000
 40
      0.0860
  0
LINE
  8
1
 62
7
 10
      9.1156
 20
      1.3681
 30
      0.0000
 11
      9.1381
 21
      1.3719
 31
      0.0000
  0
LINE
  8
1
 62
7
 10
      9.1381
 20
      1.3719
 30
      0.0000
 11
      9.9994
 21
      1.0737
 31
      0.0000
  0
ARC
  8
1
 62
7
 10
     10.1865
 20
      1.0625
 30
      0.0000
 40
      0.1875
 50
 115.9756
 51
 176.5752
  0
LINE
  8
1
 62
7
 10
     10.1044
 20
      1.2311
 30
      0.0000
 11
     10.1878
 21
      1.4202
 31
      0.0000
  0
LINE
  8
1
 62
7
 10
     10.1878
 20
      1.4202
 30
      0.0000
 11
      9.1381
 21
      1.7836
 31
      0.0000
  0
LINE
  8
1
 62
7
 10
      9.1381
 20
      1.7836
 30
      0.0000
 11
      8.2490
 21
      1.6719
 31
      0.0000
  0
LINE
  8
1
 62
7
 10
      8.2490
 20
      1.6719
 30
      0.0000
 11
      7.8740
 21
      1.3719
 31
      0.0000
  0
LINE
  8
1
 62
7
 10
      7.8740
 20
      1.3719
 30
      0.0000
 11
      7.9909
 21
      1.2258
 31
      0.0000
  0
ARC
  8
1
 62
7
 10
      8.0397
 20
      1.2648
 30
      0.0000
 40
      0.0625
 50
 218.6598
 51
 305.9675
  0
ARC
  8
1
 62
7
 10
      8.1865
 20
      1.0625
 30
      0.0000
 40
      0.1875
 50
  37.0489
 51
 125.9677
  0
ARC
  8
1
 62
7
 10
      8.3861
 20
      1.2131
 30
      0.0000
 40
      0.0625
 50
 217.0492
 51
 308.6605
  0
LINE
  8
1
 62
7
 10
      8.4251
 20
      1.1643
 30
      0.0000
 11
      8.5653
 21
      1.2765
 31
      0.0000
  0
LINE
  8
1
 62
7
 10
      8.5653
 20
      1.2765
 30
      0.0000
 11
      8.7491
 21
      1.3071
 31
      0.0000
  0
ARC
  8
1
 62
7
 10
      8.9365
 20
      1.3125
 30
      0.0000
 40
      0.1875
 50
  17.2564
 51
 181.6503
  0
LINE
  8
1
 62
7
 10
     10.4365
 20
      1.9062
 30
      0.0000
 11
      9.8740
 21
      1.9062
 31
      0.0000
  0
LINE
  8
1
 62
7
 10
      9.8740
 20
      1.9062
 30
      0.0000
 11
     10.1240
 21
      1.7812
 31
      0.0000
  0
LINE
  8
1
 62
7
 10
     10.1240
 20
      1.7812
 30
      0.0000
 11
     10.4365
 21
      1.9062
 31
      0.0000
  0
CIRCLE
  8
1
 62
7
 10
     11.1865
 20
      1.0625
 30
      0.0000
 40
      0.0860
  0
CIRCLE
  8
1
 62
7
 10
      7.6865
 20
      1.0630
 30
      0.0000
 40
      0.0860
  0
CIRCLE
  8
1
 62
7
 10
     13.4365
 20
      1.3125
 30
      0.0000
 40
      0.0860
  0
CIRCLE
  8
1
 62
7
 10
     12.4455
 20
      1.3125
 30
      0.0000
 40
      0.0860
  0
CIRCLE
  8
1
 62
7
 10
      8.9365
 20
      1.3125
 30
      0.0000
 40
      0.0825
  0
POINT
  8
1
 62
7
 10
      8.1903
 20
      0.9766
 30
      0.0000
  0
POINT
  8
1
 62
7
 10
      8.1903
 20
      0.9765
 30
      0.0000
  0
CIRCLE
  8
1
 62
7
 10
      8.1865
 20
      1.0625
 30
      0.0000
 40
      0.0860
  0
LINE
  8
1
 62
7
 10
      6.6865
 20
      2.1250
 30
      0.0000
 11
     13.9365
 21
      2.1250
 31
      0.0000
  0
ARC
  8
1
 62
7
 10
     13.9365
 20
      1.7500
 30
      0.0000
 40
      0.3750
 50
   0.0000
 51
  90.0000
  0
LINE
  8
1
 62
7
 10
     14.3115
 20
      1.7500
 30
      0.0000
 11
     14.3115
 21
      0.5625
 31
      0.0000
  0
LINE
  8
1
 62
7
 10
     14.3115
 20
      0.5625
 30
      0.0000
 11
     13.8740
 21
      0.0625
 31
      0.0000
  0
LINE
  8
1
 62
7
 10
     13.8740
 20
      0.0625
 30
      0.0000
 11
      6.6865
 21
      0.0625
 31
      0.0000
  0
LINE
  8
1
 62
7
 10
      6.6865
 20
      0.0625
 30
      0.0000
 11
      6.6865
 21
      0.1875
 31
      0.0000
  0
LINE
  8
1
 62
7
 10
      6.6865
 20
      0.1875
 30
      0.0000
 11
      7.2041
 21
      0.1875
 31
      0.0000
  0
LINE
  8
1
 62
7
 10
      7.2041
 20
      0.1875
 30
      0.0000
 11
      7.8740
 21
      0.7235
 31
      0.0000
  0
LINE
  8
1
 62
7
 10
      7.8740
 20
      0.7235
 30
      0.0000
 11
      7.7899
 21
      0.8286
 31
      0.0000
  0
ARC
  8
1
 62
7
 10
      7.6923
 20
      0.7506
 30
      0.0000
 40
      0.1250
 50
  38.6598
 51
  91.0540
  0
ARC
  8
1
 62
7
 10
      7.6865
 20
      1.0630
 30
      0.0000
 40
      0.1875
 50
 181.7357
 51
 271.0541
  0
LINE
  8
1
 62
7
 10
      7.4991
 20
      1.0573
 30
      0.0000
 11
      6.6865
 21
      0.4073
 31
      0.0000
  0
LINE
  8
1
 62
7
 10
      6.6865
 20
      0.4073
 30
      0.0000
 11
      6.6865
 21
      1.1058
 31
      0.0000
  0
LINE
  8
1
 62
7
 10
      6.6865
 20
      1.1058
 30
      0.0000
 11
      7.3074
 21
      1.6025
 31
      0.0000
  0
LINE
  8
1
 62
7
 10
      7.3074
 20
      1.6025
 30
      0.0000
 11
      6.6865
 21
      1.6025
 31
      0.0000
  0
LINE
  8
1
 62
7
 10
      6.6865
 20
      1.6025
 30
      0.0000
 11
      6.6865
 21
      2.1250
 31
      0.0000
  0
TEXT
  8
251
 62
13
 10
     10.1615
 20
      1.8250
 30
      0.0000
 40
      0.3000
 1
3
  0
LINE
  8
1
 62
7
 10
     12.8740
 20
      2.4375
 30
      0.0000
 11
     10.8115
 21
      2.4375
 31
      0.0000
  0
LINE
  8
1
 62
7
 10
     10.8115
 20
      2.4375
 30
      0.0000
 11
     10.7490
 21
      2.3125
 31
      0.0000
  0
LINE
  8
1
 62
7
 10
     10.7490
 20
      2.3125
 30
      0.0000
 11
     12.8115
 21
      2.3125
 31
      0.0000
  0
LINE
  8
1
 62
7
 10
     12.8115
 20
      2.3125
 30
      0.0000
 11
     12.8740
 21
      2.4375
 31
      0.0000
  0
LINE
  8
1
 62
7
 10
     11.3365
 20
      3.3000
 30
      0.0000
 11
     13.0850
 21
      2.4258
 31
      0.0000
  0
LINE
  8
1
 62
7
 10
     13.0850
 20
      2.4258
 30
      0.0000
 11
     13.3975
 21
      2.5508
 31
      0.0000
  0
LINE
  8
1
 62
7
 10
     13.3975
 20
      2.5508
 30
      0.0000
 11
     10.9990
 21
      3.7500
 31
      0.0000
  0
LINE
  8
1
 62
7
 10
     10.9990
 20
      3.7500
 30
      0.0000
 11
     10.6865
 21
      3.6250
 31
      0.0000
  0
LINE
  8
1
 62
7
 10
     10.6865
 20
      3.6250
 30
      0.0000
 11
     11.1865
 21
      3.3750
 31
      0.0000
  0
ARC
  8
1
 62
7
 10
     11.1865
 20
      3.1875
 30
      0.0000
 40
      0.1875
 50
  36.8700
 51
  90.0000
  0
LINE
  8
1
 62
7
 10
     13.3115
 20
      2.3125
 30
      0.0000
 11
     13.8740
 21
      2.3125
 31
      0.0000
  0
LINE
  8
1
 62
7
 10
     13.8740
 20
      2.3125
 30
      0.0000
 11
     13.6240
 21
      2.4375
 31
      0.0000
  0
LINE
  8
1
 62
7
 10
     13.6240
 20
      2.4375
 30
      0.0000
 11
     13.3115
 21
      2.3125
 31
      0.0000
  0
LINE
  8
1
 62
7
 10
     13.8740
 20
      3.3750
 30
      0.0000
 11
     13.6133
 21
      3.3750
 31
      0.0000
  0
ARC
  8
1
 62
7
 10
     13.4365
 20
      3.4375
 30
      0.0000
 40
      0.1875
 50
 199.4714
 51
 340.5288
  0
LINE
  8
1
 62
7
 10
     13.2598
 20
      3.3750
 30
      0.0000
 11
     12.6222
 21
      3.3750
 31
      0.0000
  0
ARC
  8
1
 62
7
 10
     12.4455
 20
      3.4375
 30
      0.0000
 40
      0.1875
 50
 199.4714
 51
 340.5288
  0
LINE
  8
1
 62
7
 10
     12.2687
 20
      3.3750
 30
      0.0000
 11
     12.1240
 21
      3.3750
 31
      0.0000
  0
LINE
  8
1
 62
7
 10
     12.1240
 20
      3.3750
 30
      0.0000
 11
     13.5643
 21
      2.6548
 31
      0.0000
  0
LINE
  8
1
 62
7
 10
     13.5643
 20
      2.6548
 30
      0.0000
 11
     13.8740
 21
      2.6548
 31
      0.0000
  0
LINE
  8
1
 62
7
 10
     13.8740
 20
      2.6548
 30
      0.0000
 11
     13.8740
 21
      3.3750
 31
      0.0000
  0
LINE
  8
1
 62
7
 10
     10.6240
 20
      3.9375
 30
      0.0000
 11
     10.3115
 21
      3.8125
 31
      0.0000
  0
LINE
  8
1
 62
7
 10
     10.3115
 20
      3.8125
 30
      0.0000
 11
     10.4990
 21
      3.7187
 31
      0.0000
  0
LINE
  8
1
 62
7
 10
     10.4990
 20
      3.7187
 30
      0.0000
 11
     10.8115
 21
      3.8438
 31
      0.0000
  0
LINE
  8
1
 62
7
 10
     10.8115
 20
      3.8438
 30
      0.0000
 11
     10.6240
 21
      3.9375
 31
      0.0000
  0
LINE
  8
1
 62
7
 10
     10.0757
 20
      3.0363
 30
      0.0000
 11
      9.5615
 21
      2.6250
 31
      0.0000
  0
LINE
  8
1
 62
7
 10
      9.5615
 20
      2.6250
 30
      0.0000
 11
     10.9990
 21
      3.1015
 31
      0.0000
  0
LINE
  8
1
 62
7
 10
     10.9990
 20
      3.1015
 30
      0.0000
 11
     10.4990
 21
      3.3750
 31
      0.0000
  0
LINE
  8
1
 62
7
 10
     10.4990
 20
      3.3750
 30
      0.0000
 11
     10.3584
 21
      3.2625
 31
      0.0000
  0
ARC
  8
1
 62
7
 10
     10.1865
 20
      3.1875
 30
      0.0000
 40
      0.1875
 50
 233.7469
 51
  23.5727
  0
CIRCLE
  8
1
 62
7
 10
     10.1865
 20
      3.1875
 30
      0.0000
 40
      0.0860
  0
LINE
  8
1
 62
7
 10
      9.1156
 20
      3.4931
 30
      0.0000
 11
      9.1381
 21
      3.4969
 31
      0.0000
  0
LINE
  8
1
 62
7
 10
      9.1381
 20
      3.4969
 30
      0.0000
 11
      9.9994
 21
      3.1987
 31
      0.0000
  0
ARC
  8
1
 62
7
 10
     10.1865
 20
      3.1875
 30
      0.0000
 40
      0.1875
 50
 115.9756
 51
 176.5751
  0
LINE
  8
1
 62
7
 10
     10.1044
 20
      3.3561
 30
      0.0000
 11
     10.1878
 21
      3.5452
 31
      0.0000
  0
LINE
  8
1
 62
7
 10
     10.1878
 20
      3.5452
 30
      0.0000
 11
      9.1381
 21
      3.9086
 31
      0.0000
  0
LINE
  8
1
 62
7
 10
      9.1381
 20
      3.9086
 30
      0.0000
 11
      8.2490
 21
      3.7969
 31
      0.0000
  0
LINE
  8
1
 62
7
 10
      8.2490
 20
      3.7969
 30
      0.0000
 11
      7.8740
 21
      3.4969
 31
      0.0000
  0
LINE
  8
1
 62
7
 10
      7.8740
 20
      3.4969
 30
      0.0000
 11
      7.9909
 21
      3.3508
 31
      0.0000
  0
ARC
  8
1
 62
7
 10
      8.0397
 20
      3.3898
 30
      0.0000
 40
      0.0625
 50
 218.6598
 51
 305.9674
  0
ARC
  8
1
 62
7
 10
      8.1865
 20
      3.1875
 30
      0.0000
 40
      0.1875
 50
  37.0489
 51
 125.9677
  0
ARC
  8
1
 62
7
 10
      8.3861
 20
      3.3381
 30
      0.0000
 40
      0.0625
 50
 217.0491
 51
 308.6605
  0
LINE
  8
1
 62
7
 10
      8.4251
 20
      3.2893
 30
      0.0000
 11
      8.5653
 21
      3.4015
 31
      0.0000
  0
LINE
  8
1
 62
7
 10
      8.5653
 20
      3.4015
 30
      0.0000
 11
      8.7491
 21
      3.4321
 31
      0.0000
  0
ARC
  8
1
 62
7
 10
      8.9365
 20
      3.4375
 30
      0.0000
 40
      0.1875
 50
  17.2564
 51
 181.6504
  0
LINE
  8
1
 62
7
 10
     10.4365
 20
      4.0312
 30
      0.0000
 11
      9.8740
 21
      4.0312
 31
      0.0000
  0
LINE
  8
1
 62
7
 10
      9.8740
 20
      4.0312
 30
      0.0000
 11
     10.1240
 21
      3.9062
 31
      0.0000
  0
LINE
  8
1
 62
7
 10
     10.1240
 20
      3.9062
 30
      0.0000
 11
     10.4365
 21
      4.0312
 31
      0.0000
  0
CIRCLE
  8
1
 62
7
 10
     11.1865
 20
      3.1875
 30
      0.0000
 40
      0.0860
  0
CIRCLE
  8
1
 62
7
 10
      7.6865
 20
      3.1880
 30
      0.0000
 40
      0.0860
  0
CIRCLE
  8
1
 62
7
 10
     13.4365
 20
      3.4375
 30
      0.0000
 40
      0.0860
  0
CIRCLE
  8
1
 62
7
 10
     12.4455
 20
      3.4375
 30
      0.0000
 40
      0.0860
  0
CIRCLE
  8
1
 62
7
 10
      8.9365
 20
      3.4375
 30
      0.0000
 40
      0.0825
  0
POINT
  8
1
 62
7
 10
      8.1903
 20
      3.1016
 30
      0.0000
  0
POINT
  8
1
 62
7
 10
      8.1903
 20
      3.1015
 30
      0.0000
  0
CIRCLE
  8
1
 62
7
 10
      8.1865
 20
      3.1875
 30
      0.0000
 40
      0.0860
  0
LINE
  8
1
 62
7
 10
      6.6865
 20
      4.2500
 30
      0.0000
 11
     13.9365
 21
      4.2500
 31
      0.0000
  0
ARC
  8
1
 62
7
 10
     13.9365
 20
      3.8750
 30
      0.0000
 40
      0.3750
 50
   0.0000
 51
  90.0000
  0
LINE
  8
1
 62
7
 10
     14.3115
 20
      3.8750
 30
      0.0000
 11
     14.3115
 21
      2.6875
 31
      0.0000
  0
LINE
  8
1
 62
7
 10
     14.3115
 20
      2.6875
 30
      0.0000
 11
     13.8740
 21
      2.1875
 31
      0.0000
  0
LINE
  8
1
 62
7
 10
     13.8740
 20
      2.1875
 30
      0.0000
 11
      6.6865
 21
      2.1875
 31
      0.0000
  0
LINE
  8
1
 62
7
 10
      6.6865
 20
      2.1875
 30
      0.0000
 11
      6.6865
 21
      2.3125
 31
      0.0000
  0
LINE
  8
1
 62
7
 10
      6.6865
 20
      2.3125
 30
      0.0000
 11
      7.2041
 21
      2.3125
 31
      0.0000
  0
LINE
  8
1
 62
7
 10
      7.2041
 20
      2.3125
 30
      0.0000
 11
      7.8740
 21
      2.8485
 31
      0.0000
  0
LINE
  8
1
 62
7
 10
      7.8740
 20
      2.8485
 30
      0.0000
 11
      7.7899
 21
      2.9536
 31
      0.0000
  0
ARC
  8
1
 62
7
 10
      7.6923
 20
      2.8756
 30
      0.0000
 40
      0.1250
 50
  38.6598
 51
  91.0540
  0
ARC
  8
1
 62
7
 10
      7.6865
 20
      3.1880
 30
      0.0000
 40
      0.1875
 50
 181.7357
 51
 271.0541
  0
LINE
  8
1
 62
7
 10
      7.4991
 20
      3.1823
 30
      0.0000
 11
      6.6865
 21
      2.5323
 31
      0.0000
  0
LINE
  8
1
 62
7
 10
      6.6865
 20
      2.5323
 30
      0.0000
 11
      6.6865
 21
      3.2308
 31
      0.0000
  0
LINE
  8
1
 62
7
 10
      6.6865
 20
      3.2308
 30
      0.0000
 11
      7.3074
 21
      3.7275
 31
      0.0000
  0
LINE
  8
1
 62
7
 10
      7.3074
 20
      3.7275
 30
      0.0000
 11
      6.6865
 21
      3.7275
 31
      0.0000
  0
LINE
  8
1
 62
7
 10
      6.6865
 20
      3.7275
 30
      0.0000
 11
      6.6865
 21
      4.2500
 31
      0.0000
  0
TEXT
  8
251
 62
13
 10
     10.1615
 20
      3.9500
 30
      0.0000
 40
      0.3000
 1
3
  0
LINE
  8
1
 62
7
 10
      8.1240
 20
      6.1250
 30
      0.0000
 11
     10.1865
 21
      6.1250
 31
      0.0000
  0
LINE
  8
1
 62
7
 10
     10.1865
 20
      6.1250
 30
      0.0000
 11
     10.2490
 21
      6.2500
 31
      0.0000
  0
LINE
  8
1
 62
7
 10
     10.2490
 20
      6.2500
 30
      0.0000
 11
      8.1865
 21
      6.2500
 31
      0.0000
  0
LINE
  8
1
 62
7
 10
      8.1865
 20
      6.2500
 30
      0.0000
 11
      8.1240
 21
      6.1250
 31
      0.0000
  0
LINE
  8
1
 62
7
 10
      9.6615
 20
      5.2625
 30
      0.0000
 11
      7.9131
 21
      6.1367
 31
      0.0000
  0
LINE
  8
1
 62
7
 10
      7.9131
 20
      6.1367
 30
      0.0000
 11
      7.6006
 21
      6.0117
 31
      0.0000
  0
LINE
  8
1
 62
7
 10
      7.6006
 20
      6.0117
 30
      0.0000
 11
      9.9990
 21
      4.8125
 31
      0.0000
  0
LINE
  8
1
 62
7
 10
      9.9990
 20
      4.8125
 30
      0.0000
 11
     10.3115
 21
      4.9375
 31
      0.0000
  0
LINE
  8
1
 62
7
 10
     10.3115
 20
      4.9375
 30
      0.0000
 11
      9.8115
 21
      5.1875
 31
      0.0000
  0
ARC
  8
1
 62
7
 10
      9.8115
 20
      5.3750
 30
      0.0000
 40
      0.1875
 50
 216.8699
 51
 270.0000
  0
LINE
  8
1
 62
7
 10
      7.6865
 20
      6.2500
 30
      0.0000
 11
      7.1240
 21
      6.2500
 31
      0.0000
  0
LINE
  8
1
 62
7
 10
      7.1240
 20
      6.2500
 30
      0.0000
 11
      7.3740
 21
      6.1250
 31
      0.0000
  0
LINE
  8
1
 62
7
 10
      7.3740
 20
      6.1250
 30
      0.0000
 11
      7.6865
 21
      6.2500
 31
      0.0000
  0
LINE
  8
1
 62
7
 10
      7.1240
 20
      5.1875
 30
      0.0000
 11
      7.3848
 21
      5.1875
 31
      0.0000
  0
ARC
  8
1
 62
7
 10
      7.5615
 20
      5.1250
 30
      0.0000
 40
      0.1875
 50
  19.4713
 51
 160.5288
  0
LINE
  8
1
 62
7
 10
      7.7383
 20
      5.1875
 30
      0.0000
 11
      8.3758
 21
      5.1875
 31
      0.0000
  0
ARC
  8
1
 62
7
 10
      8.5526
 20
      5.1250
 30
      0.0000
 40
      0.1875
 50
  19.4713
 51
 160.5288
  0
LINE
  8
1
 62
7
 10
      8.7294
 20
      5.1875
 30
      0.0000
 11
      8.8740
 21
      5.1875
 31
      0.0000
  0
LINE
  8
1
 62
7
 10
      8.8740
 20
      5.1875
 30
      0.0000
 11
      7.4337
 21
      5.9077
 31
      0.0000
  0
LINE
  8
1
 62
7
 10
      7.4337
 20
      5.9077
 30
      0.0000
 11
      7.1240
 21
      5.9077
 31
      0.0000
  0
LINE
  8
1
 62
7
 10
      7.1240
 20
      5.9077
 30
      0.0000
 11
      7.1240
 21
      5.1875
 31
      0.0000
  0
LINE
  8
1
 62
7
 10
     10.3740
 20
      4.6250
 30
      0.0000
 11
     10.6865
 21
      4.7500
 31
      0.0000
  0
LINE
  8
1
 62
7
 10
     10.6865
 20
      4.7500
 30
      0.0000
 11
     10.4990
 21
      4.8437
 31
      0.0000
  0
LINE
  8
1
 62
7
 10
     10.4990
 20
      4.8437
 30
      0.0000
 11
     10.1865
 21
      4.7187
 31
      0.0000
  0
LINE
  8
1
 62
7
 10
     10.1865
 20
      4.7187
 30
      0.0000
 11
     10.3740
 21
      4.6250
 31
      0.0000
  0
LINE
  8
1
 62
7
 10
     10.9224
 20
      5.5262
 30
      0.0000
 11
     11.4365
 21
      5.9375
 31
      0.0000
  0
LINE
  8
1
 62
7
 10
     11.4365
 20
      5.9375
 30
      0.0000
 11
      9.9990
 21
      5.4610
 31
      0.0000
  0
LINE
  8
1
 62
7
 10
      9.9990
 20
      5.4610
 30
      0.0000
 11
     10.4990
 21
      5.1875
 31
      0.0000
  0
LINE
  8
1
 62
7
 10
     10.4990
 20
      5.1875
 30
      0.0000
 11
     10.6397
 21
      5.3000
 31
      0.0000
  0
ARC
  8
1
 62
7
 10
     10.8115
 20
      5.3750
 30
      0.0000
 40
      0.1875
 50
  53.7471
 51
 203.5726
  0
CIRCLE
  8
1
 62
7
 10
     10.8115
 20
      5.3750
 30
      0.0000
 40
      0.0860
  0
LINE
  8
1
 62
7
 10
     11.8825
 20
      5.0694
 30
      0.0000
 11
     11.8599
 21
      5.0656
 31
      0.0000
  0
LINE
  8
1
 62
7
 10
     11.8599
 20
      5.0656
 30
      0.0000
 11
     10.9987
 21
      5.3638
 31
      0.0000
  0
ARC
  8
1
 62
7
 10
     10.8115
 20
      5.3750
 30
      0.0000
 40
      0.1875
 50
 295.9753
 51
 356.5751
  0
LINE
  8
1
 62
7
 10
     10.8937
 20
      5.2064
 30
      0.0000
 11
     10.8102
 21
      5.0173
 31
      0.0000
  0
LINE
  8
1
 62
7
 10
     10.8102
 20
      5.0173
 30
      0.0000
 11
     11.8599
 21
      4.6539
 31
      0.0000
  0
LINE
  8
1
 62
7
 10
     11.8599
 20
      4.6539
 30
      0.0000
 11
     12.7490
 21
      4.7656
 31
      0.0000
  0
LINE
  8
1
 62
7
 10
     12.7490
 20
      4.7656
 30
      0.0000
 11
     13.1240
 21
      5.0656
 31
      0.0000
  0
LINE
  8
1
 62
7
 10
     13.1240
 20
      5.0656
 30
      0.0000
 11
     13.0072
 21
      5.2117
 31
      0.0000
  0
ARC
  8
1
 62
7
 10
     12.9584
 20
      5.1727
 30
      0.0000
 40
      0.0625
 50
  38.6596
 51
 125.9673
  0
ARC
  8
1
 62
7
 10
     12.8115
 20
      5.3750
 30
      0.0000
 40
      0.1875
 50
 217.0491
 51
 305.9679
  0
ARC
  8
1
 62
7
 10
     12.6120
 20
      5.2244
 30
      0.0000
 40
      0.0625
 50
  37.0486
 51
 128.6598
  0
LINE
  8
1
 62
7
 10
     12.5730
 20
      5.2732
 30
      0.0000
 11
     12.4327
 21
      5.1610
 31
      0.0000
  0
LINE
  8
1
 62
7
 10
     12.4327
 20
      5.1610
 30
      0.0000
 11
     12.2490
 21
      5.1304
 31
      0.0000
  0
ARC
  8
1
 62
7
 10
     12.0615
 20
      5.1250
 30
      0.0000
 40
      0.1875
 50
 197.2565
 51
   1.6503
  0
LINE
  8
1
 62
7
 10
     10.5615
 20
      4.5312
 30
      0.0000
 11
     11.1240
 21
      4.5312
 31
      0.0000
  0
LINE
  8
1
 62
7
 10
     11.1240
 20
      4.5312
 30
      0.0000
 11
     10.8740
 21
      4.6562
 31
      0.0000
  0
LINE
  8
1
 62
7
 10
     10.8740
 20
      4.6562
 30
      0.0000
 11
     10.5615
 21
      4.5312
 31
      0.0000
  0
CIRCLE
  8
1
 62
7
 10
      9.8115
 20
      5.3750
 30
      0.0000
 40
      0.0860
  0
CIRCLE
  8
1
 62
7
 10
     13.3115
 20
      5.3745
 30
      0.0000
 40
      0.0860
  0
CIRCLE
  8
1
 62
7
 10
      7.5615
 20
      5.1250
 30
      0.0000
 40
      0.0860
  0
CIRCLE
  8
1
 62
7
 10
      8.5526
 20
      5.1250
 30
      0.0000
 40
      0.0860
  0
CIRCLE
  8
1
 62
7
 10
     12.0615
 20
      5.1250
 30
      0.0000
 40
      0.0825
  0
POINT
  8
1
 62
7
 10
     12.8078
 20
      5.4609
 30
      0.0000
  0
POINT
  8
1
 62
7
 10
     12.8077
 20
      5.4610
 30
      0.0000
  0
CIRCLE
  8
1
 62
7
 10
     12.8115
 20
      5.3750
 30
      0.0000
 40
      0.0860
  0
LINE
  8
1
 62
7
 10
     14.3115
 20
      4.3125
 30
      0.0000
 11
      7.0615
 21
      4.3125
 31
      0.0000
  0
ARC
  8
1
 62
7
 10
      7.0615
 20
      4.6875
 30
      0.0000
 40
      0.3750
 50
 180.0000
 51
 270.0000
  0
LINE
  8
1
 62
7
 10
      6.6865
 20
      4.6875
 30
      0.0000
 11
      6.6865
 21
      5.8750
 31
      0.0000
  0
LINE
  8
1
 62
7
 10
      6.6865
 20
      5.8750
 30
      0.0000
 11
      7.1240
 21
      6.3750
 31
      0.0000
  0
LINE
  8
1
 62
7
 10
      7.1240
 20
      6.3750
 30
      0.0000
 11
     14.3115
 21
      6.3750
 31
      0.0000
  0
LINE
  8
1
 62
7
 10
     14.3115
 20
      6.3750
 30
      0.0000
 11
     14.3115
 21
      6.2500
 31
      0.0000
  0
LINE
  8
1
 62
7
 10
     14.3115
 20
      6.2500
 30
      0.0000
 11
     13.7940
 21
      6.2500
 31
      0.0000
  0
LINE
  8
1
 62
7
 10
     13.7940
 20
      6.2500
 30
      0.0000
 11
     13.1240
 21
      5.7140
 31
      0.0000
  0
LINE
  8
1
 62
7
 10
     13.1240
 20
      5.7140
 30
      0.0000
 11
     13.2082
 21
      5.6089
 31
      0.0000
  0
ARC
  8
1
 62
7
 10
     13.3058
 20
      5.6869
 30
      0.0000
 40
      0.1250
 50
 218.6599
 51
 271.0544
  0
ARC
  8
1
 62
7
 10
     13.3115
 20
      5.3745
 30
      0.0000
 40
      0.1875
 50
   1.7355
 51
  91.0541
  0
LINE
  8
1
 62
7
 10
     13.4989
 20
      5.3802
 30
      0.0000
 11
     14.3115
 21
      6.0302
 31
      0.0000
  0
LINE
  8
1
 62
7
 10
     14.3115
 20
      6.0302
 30
      0.0000
 11
     14.3115
 21
      5.3317
 31
      0.0000
  0
LINE
  8
1
 62
7
 10
     14.3115
 20
      5.3317
 30
      0.0000
 11
     13.6907
 21
      4.8350
 31
      0.0000
  0
LINE
  8
1
 62
7
 10
     13.6907
 20
      4.8350
 30
      0.0000
 11
     14.3115
 21
      4.8350
 31
      0.0000
  0
LINE
  8
1
 62
7
 10
     14.3115
 20
      4.8350
 30
      0.0000
 11
     14.3115
 21
      4.3125
 31
      0.0000
  0
TEXT
  8
251
 62
13
 10
     10.5365
 20
      4.3125
 30
      0.0000
 40
      0.3000
 1
3
  0
LINE
  8
1
 62
7
 10
      8.1240
 20
      8.2500
 30
      0.0000
 11
     10.1865
 21
      8.2500
 31
      0.0000
  0
LINE
  8
1
 62
7
 10
     10.1865
 20
      8.2500
 30
      0.0000
 11
     10.2490
 21
      8.3750
 31
      0.0000
  0
LINE
  8
1
 62
7
 10
     10.2490
 20
      8.3750
 30
      0.0000
 11
      8.1865
 21
      8.3750
 31
      0.0000
  0
LINE
  8
1
 62
7
 10
      8.1865
 20
      8.3750
 30
      0.0000
 11
      8.1240
 21
      8.2500
 31
      0.0000
  0
LINE
  8
1
 62
7
 10
      9.6615
 20
      7.3875
 30
      0.0000
 11
      7.9131
 21
      8.2617
 31
      0.0000
  0
LINE
  8
1
 62
7
 10
      7.9131
 20
      8.2617
 30
      0.0000
 11
      7.6006
 21
      8.1367
 31
      0.0000
  0
LINE
  8
1
 62
7
 10
      7.6006
 20
      8.1367
 30
      0.0000
 11
      9.9990
 21
      6.9375
 31
      0.0000
  0
LINE
  8
1
 62
7
 10
      9.9990
 20
      6.9375
 30
      0.0000
 11
     10.3115
 21
      7.0625
 31
      0.0000
  0
LINE
  8
1
 62
7
 10
     10.3115
 20
      7.0625
 30
      0.0000
 11
      9.8115
 21
      7.3125
 31
      0.0000
  0
ARC
  8
1
 62
7
 10
      9.8115
 20
      7.5000
 30
      0.0000
 40
      0.1875
 50
 216.8700
 51
 270.0000
  0
LINE
  8
1
 62
7
 10
      7.6865
 20
      8.3750
 30
      0.0000
 11
      7.1240
 21
      8.3750
 31
      0.0000
  0
LINE
  8
1
 62
7
 10
      7.1240
 20
      8.3750
 30
      0.0000
 11
      7.3740
 21
      8.2500
 31
      0.0000
  0
LINE
  8
1
 62
7
 10
      7.3740
 20
      8.2500
 30
      0.0000
 11
      7.6865
 21
      8.3750
 31
      0.0000
  0
LINE
  8
1
 62
7
 10
      7.1240
 20
      7.3125
 30
      0.0000
 11
      7.3848
 21
      7.3125
 31
      0.0000
  0
ARC
  8
1
 62
7
 10
      7.5615
 20
      7.2500
 30
      0.0000
 40
      0.1875
 50
  19.4714
 51
 160.5287
  0
LINE
  8
1
 62
7
 10
      7.7383
 20
      7.3125
 30
      0.0000
 11
      8.3758
 21
      7.3125
 31
      0.0000
  0
ARC
  8
1
 62
7
 10
      8.5526
 20
      7.2500
 30
      0.0000
 40
      0.1875
 50
  19.4714
 51
 160.5287
  0
LINE
  8
1
 62
7
 10
      8.7294
 20
      7.3125
 30
      0.0000
 11
      8.8740
 21
      7.3125
 31
      0.0000
  0
LINE
  8
1
 62
7
 10
      8.8740
 20
      7.3125
 30
      0.0000
 11
      7.4337
 21
      8.0327
 31
      0.0000
  0
LINE
  8
1
 62
7
 10
      7.4337
 20
      8.0327
 30
      0.0000
 11
      7.1240
 21
      8.0327
 31
      0.0000
  0
LINE
  8
1
 62
7
 10
      7.1240
 20
      8.0327
 30
      0.0000
 11
      7.1240
 21
      7.3125
 31
      0.0000
  0
LINE
  8
1
 62
7
 10
     10.3740
 20
      6.7500
 30
      0.0000
 11
     10.6865
 21
      6.8750
 31
      0.0000
  0
LINE
  8
1
 62
7
 10
     10.6865
 20
      6.8750
 30
      0.0000
 11
     10.4990
 21
      6.9687
 31
      0.0000
  0
LINE
  8
1
 62
7
 10
     10.4990
 20
      6.9687
 30
      0.0000
 11
     10.1865
 21
      6.8437
 31
      0.0000
  0
LINE
  8
1
 62
7
 10
     10.1865
 20
      6.8437
 30
      0.0000
 11
     10.3740
 21
      6.7500
 31
      0.0000
  0
LINE
  8
1
 62
7
 10
     10.9224
 20
      7.6512
 30
      0.0000
 11
     11.4365
 21
      8.0625
 31
      0.0000
  0
LINE
  8
1
 62
7
 10
     11.4365
 20
      8.0625
 30
      0.0000
 11
      9.9990
 21
      7.5860
 31
      0.0000
  0
LINE
  8
1
 62
7
 10
      9.9990
 20
      7.5860
 30
      0.0000
 11
     10.4990
 21
      7.3125
 31
      0.0000
  0
LINE
  8
1
 62
7
 10
     10.4990
 20
      7.3125
 30
      0.0000
 11
     10.6397
 21
      7.4250
 31
      0.0000
  0
ARC
  8
1
 62
7
 10
     10.8115
 20
      7.5000
 30
      0.0000
 40
      0.1875
 50
  53.7471
 51
 203.5726
  0
CIRCLE
  8
1
 62
7
 10
     10.8115
 20
      7.5000
 30
      0.0000
 40
      0.0860
  0
LINE
  8
1
 62
7
 10
     11.8825
 20
      7.1944
 30
      0.0000
 11
     11.8599
 21
      7.1906
 31
      0.0000
  0
LINE
  8
1
 62
7
 10
     11.8599
 20
      7.1906
 30
      0.0000
 11
     10.9987
 21
      7.4888
 31
      0.0000
  0
ARC
  8
1
 62
7
 10
     10.8115
 20
      7.5000
 30
      0.0000
 40
      0.1875
 50
 295.9753
 51
 356.5751
  0
LINE
  8
1
 62
7
 10
     10.8937
 20
      7.3314
 30
      0.0000
 11
     10.8102
 21
      7.1423
 31
      0.0000
  0
LINE
  8
1
 62
7
 10
     10.8102
 20
      7.1423
 30
      0.0000
 11
     11.8599
 21
      6.7789
 31
      0.0000
  0
LINE
  8
1
 62
7
 10
     11.8599
 20
      6.7789
 30
      0.0000
 11
     12.7490
 21
      6.8906
 31
      0.0000
  0
LINE
  8
1
 62
7
 10
     12.7490
 20
      6.8906
 30
      0.0000
 11
     13.1240
 21
      7.1906
 31
      0.0000
  0
LINE
  8
1
 62
7
 10
     13.1240
 20
      7.1906
 30
      0.0000
 11
     13.0072
 21
      7.3367
 31
      0.0000
  0
ARC
  8
1
 62
7
 10
     12.9584
 20
      7.2977
 30
      0.0000
 40
      0.0625
 50
  38.6596
 51
 125.9673
  0
ARC
  8
1
 62
7
 10
     12.8115
 20
      7.5000
 30
      0.0000
 40
      0.1875
 50
 217.0491
 51
 305.9679
  0
ARC
  8
1
 62
7
 10
     12.6120
 20
      7.3494
 30
      0.0000
 40
      0.0625
 50
  37.0489
 51
 128.6595
  0
LINE
  8
1
 62
7
 10
     12.5730
 20
      7.3982
 30
      0.0000
 11
     12.4327
 21
      7.2860
 31
      0.0000
  0
LINE
  8
1
 62
7
 10
     12.4327
 20
      7.2860
 30
      0.0000
 11
     12.2490
 21
      7.2554
 31
      0.0000
  0
ARC
  8
1
 62
7
 10
     12.0615
 20
      7.2500
 30
      0.0000
 40
      0.1875
 50
 197.2564
 51
   1.6504
  0
LINE
  8
1
 62
7
 10
     10.5615
 20
      6.6562
 30
      0.0000
 11
     11.1240
 21
      6.6562
 31
      0.0000
  0
LINE
  8
1
 62
7
 10
     11.1240
 20
      6.6562
 30
      0.0000
 11
     10.8740
 21
      6.7812
 31
      0.0000
  0
LINE
  8
1
 62
7
 10
     10.8740
 20
      6.7812
 30
      0.0000
 11
     10.5615
 21
      6.6562
 31
      0.0000
  0
CIRCLE
  8
1
 62
7
 10
      9.8115
 20
      7.5000
 30
      0.0000
 40
      0.0860
  0
CIRCLE
  8
1
 62
7
 10
     13.3115
 20
      7.4995
 30
      0.0000
 40
      0.0860
  0
CIRCLE
  8
1
 62
7
 10
      7.5615
 20
      7.2500
 30
      0.0000
 40
      0.0860
  0
CIRCLE
  8
1
 62
7
 10
      8.5526
 20
      7.2500
 30
      0.0000
 40
      0.0860
  0
CIRCLE
  8
1
 62
7
 10
     12.0615
 20
      7.2500
 30
      0.0000
 40
      0.0825
  0
POINT
  8
1
 62
7
 10
     12.8078
 20
      7.5859
 30
      0.0000
  0
POINT
  8
1
 62
7
 10
     12.8077
 20
      7.5860
 30
      0.0000
  0
CIRCLE
  8
1
 62
7
 10
     12.8115
 20
      7.5000
 30
      0.0000
 40
      0.0860
  0
LINE
  8
1
 62
7
 10
     14.3115
 20
      6.4375
 30
      0.0000
 11
      7.0615
 21
      6.4375
 31
      0.0000
  0
ARC
  8
1
 62
7
 10
      7.0615
 20
      6.8125
 30
      0.0000
 40
      0.3750
 50
 180.0000
 51
 270.0000
  0
LINE
  8
1
 62
7
 10
      6.6865
 20
      6.8125
 30
      0.0000
 11
      6.6865
 21
      8.0000
 31
      0.0000
  0
LINE
  8
1
 62
7
 10
      6.6865
 20
      8.0000
 30
      0.0000
 11
      7.1240
 21
      8.5000
 31
      0.0000
  0
LINE
  8
1
 62
7
 10
      7.1240
 20
      8.5000
 30
      0.0000
 11
     14.3115
 21
      8.5000
 31
      0.0000
  0
LINE
  8
1
 62
7
 10
     14.3115
 20
      8.5000
 30
      0.0000
 11
     14.3115
 21
      8.3750
 31
      0.0000
  0
LINE
  8
1
 62
7
 10
     14.3115
 20
      8.3750
 30
      0.0000
 11
     13.7940
 21
      8.3750
 31
      0.0000
  0
LINE
  8
1
 62
7
 10
     13.7940
 20
      8.3750
 30
      0.0000
 11
     13.1240
 21
      7.8390
 31
      0.0000
  0
LINE
  8
1
 62
7
 10
     13.1240
 20
      7.8390
 30
      0.0000
 11
     13.2082
 21
      7.7339
 31
      0.0000
  0
ARC
  8
1
 62
7
 10
     13.3058
 20
      7.8119
 30
      0.0000
 40
      0.1250
 50
 218.6599
 51
 271.0544
  0
ARC
  8
1
 62
7
 10
     13.3115
 20
      7.4995
 30
      0.0000
 40
      0.1875
 50
   1.7357
 51
  91.0541
  0
LINE
  8
1
 62
7
 10
     13.4989
 20
      7.5052
 30
      0.0000
 11
     14.3115
 21
      8.1552
 31
      0.0000
  0
LINE
  8
1
 62
7
 10
     14.3115
 20
      8.1552
 30
      0.0000
 11
     14.3115
 21
      7.4567
 31
      0.0000
  0
LINE
  8
1
 62
7
 10
     14.3115
 20
      7.4567
 30
      0.0000
 11
     13.6907
 21
      6.9600
 31
      0.0000
  0
LINE
  8
1
 62
7
 10
     13.6907
 20
      6.9600
 30
      0.0000
 11
     14.3115
 21
      6.9600
 31
      0.0000
  0
LINE
  8
1
 62
7
 10
     14.3115
 20
      6.9600
 30
      0.0000
 11
     14.3115
 21
      6.4375
 31
      0.0000
  0
TEXT
  8
251
 62
13
 10
     10.5365
 20
      6.4375
 30
      0.0000
 40
      0.3000
 1
3
  0
CIRCLE
  8
1
 62
7
 10
     10.6111
 20
      9.5163
 30
      0.0000
 40
      0.0825
  0
LINE
  8
1
 62
7
 10
      7.5483
 20
      9.3922
 30
      0.0000
 11
      7.0285
 21
      9.3283
 31
      0.0000
  0
LINE
  8
1
 62
7
 10
      7.0285
 20
      9.3283
 30
      0.0000
 11
      7.3407
 21
      9.0224
 31
      0.0000
  0
LINE
  8
1
 62
7
 10
      7.3407
 20
      9.0224
 30
      0.0000
 11
      7.5483
 21
      9.3922
 31
      0.0000
  0
LINE
  8
1
 62
7
 10
      7.2448
 20
      8.8514
 30
      0.0000
 11
      6.9347
 21
      9.1553
 31
      0.0000
  0
LINE
  8
1
 62
7
 10
      6.9347
 20
      9.1553
 30
      0.0000
 11
      6.7361
 21
      8.7890
 31
      0.0000
  0
LINE
  8
1
 62
7
 10
      6.7361
 20
      8.7890
 30
      0.0000
 11
      7.2448
 21
      8.8514
 31
      0.0000
  0
LINE
  8
1
 62
7
 10
      6.7882
 20
      9.2988
 30
      0.0000
 11
      6.2795
 21
      9.2364
 31
      0.0000
  0
LINE
  8
1
 62
7
 10
      6.2795
 20
      9.2364
 30
      0.0000
 11
      6.5896
 21
      8.9325
 31
      0.0000
  0
LINE
  8
1
 62
7
 10
      6.5896
 20
      8.9325
 30
      0.0000
 11
      6.7882
 21
      9.2988
 31
      0.0000
  0
LINE
  8
1
 62
7
 10
      6.4958
 20
      8.7595
 30
      0.0000
 11
      6.1857
 21
      9.0633
 31
      0.0000
  0
LINE
  8
1
 62
7
 10
      6.1857
 20
      9.0633
 30
      0.0000
 11
      5.9871
 21
      8.6970
 31
      0.0000
  0
LINE
  8
1
 62
7
 10
      5.9871
 20
      8.6970
 30
      0.0000
 11
      6.4958
 21
      8.7595
 31
      0.0000
  0
LINE
  8
1
 62
7
 10
      9.1674
 20
      8.9867
 30
      0.0000
 11
      9.8557
 21
      8.9648
 31
      0.0000
  0
LINE
  8
1
 62
7
 10
      9.8557
 20
      8.9648
 30
      0.0000
 11
      9.1390
 21
      9.7367
 31
      0.0000
  0
LINE
  8
1
 62
7
 10
      9.1390
 20
      9.7367
 30
      0.0000
 11
      9.1674
 21
      8.9867
 31
      0.0000
  0
LINE
  8
1
 62
7
 10
      9.6660
 20
      9.8574
 30
      0.0000
 11
     10.1880
 21
      9.2952
 31
      0.0000
  0
LINE
  8
1
 62
7
 10
     10.1880
 20
      9.2952
 30
      0.0000
 11
     10.3959
 21
      9.6972
 31
      0.0000
  0
LINE
  8
1
 62
7
 10
     10.3959
 20
      9.6972
 30
      0.0000
 11
      9.6660
 21
      9.8574
 31
      0.0000
  0
LINE
  8
1
 62
7
 10
     10.9520
 20
      9.5698
 30
      0.0000
 11
     10.6205
 21
      8.9405
 31
      0.0000
  0
LINE
  8
1
 62
7
 10
     10.6205
 20
      8.9405
 30
      0.0000
 11
     11.2182
 21
      8.9215
 31
      0.0000
  0
ARC
  8
1
 62
7
 10
      9.1428
 20
      8.4482
 30
      0.0000
 40
      2.1287
 50
  12.8466
 51
  31.7959
  0
LINE
  8
1
 62
7
 10
      9.4396
 20
     10.4131
 30
      0.0000
 11
     10.3241
 21
     10.2189
 31
      0.0000
  0
ARC
  8
1
 62
7
 10
      9.1428
 20
      8.4482
 30
      0.0000
 40
      2.1287
 50
  56.2912
 51
  61.7018
  0
ARC
  8
1
 62
7
 10
      9.8393
 20
      9.7418
 30
      0.0000
 40
      0.6595
 50
  61.7018
 51
  78.2079
  0
ARC
  8
1
 62
7
 10
      9.6259
 20
      8.7199
 30
      0.0000
 40
      1.7034
 50
  78.2080
 51
  96.2794
  0
LINE
  8
1
 62
7
 10
      7.6506
 20
      8.9919
 30
      0.0000
 11
      7.9218
 21
      9.0252
 31
      0.0000
  0
ARC
  8
1
 62
7
 10
      8.0242
 20
      8.1910
 30
      0.0000
 40
      0.8405
 50
  79.8265
 51
  97.0000
  0
LINE
  8
1
 62
7
 10
      8.1727
 20
      9.0183
 30
      0.0000
 11
      8.7105
 21
      9.0012
 31
      0.0000
  0
LINE
  8
1
 62
7
 10
      8.7105
 20
      9.0012
 30
      0.0000
 11
      8.6678
 21
     10.1282
 31
      0.0000
  0
ARC
  8
1
 62
7
 10
      9.6259
 20
      8.7199
 30
      0.0000
 40
      1.7034
 50
 124.2304
 51
 149.5033
  0
ARC
  8
1
 62
7
 10
      7.7428
 20
      9.7944
 30
      0.0000
 40
      0.4655
 50
 282.8360
 51
 333.1843
  0
LINE
  8
1
 62
7
 10
      7.8462
 20
      9.3405
 30
      0.0000
 11
      7.6506
 21
      8.9919
 31
      0.0000
  0
CIRCLE
  8
1
 62
7
 10
      5.1521
 20
      8.8460
 30
      0.0000
 40
      0.0825
  0
ARC
  8
1
 62
7
 10
      5.7754
 20
      9.9307
 30
      0.0000
 40
      0.5594
 50
 123.1043
 51
 250.3975
  0
LINE
  8
1
 62
7
 10
      5.5877
 20
      9.4038
 30
      0.0000
 11
      7.7580
 21
      9.6703
 31
      0.0000
  0
ARC
  8
1
 62
7
 10
      7.7428
 20
      9.7944
 30
      0.0000
 40
      0.1250
 50
 276.9999
 51
 333.5990
  0
ARC
  8
1
 62
7
 10
      8.0787
 20
      9.6276
 30
      0.0000
 40
      0.2500
 50
 149.6027
 51
 153.5992
  0
ARC
  8
1
 62
7
 10
      9.6259
 20
      8.7199
 30
      0.0000
 40
      2.0439
 50
  78.2080
 51
 149.6024
  0
ARC
  8
1
 62
7
 10
      9.8393
 20
      9.7418
 30
      0.0000
 40
      1.0000
 50
  61.7017
 51
  78.2079
  0
ARC
  8
1
 62
7
 10
      9.1428
 20
      8.4482
 30
      0.0000
 40
      2.4692
 50
   9.8392
 51
  61.7017
  0
ARC
  8
1
 62
7
 10
     11.3293
 20
      8.8274
 30
      0.0000
 40
      0.2500
 50
 268.1795
 51
   9.8392
  0
LINE
  8
1
 62
7
 10
     11.3214
 20
      8.5775
 30
      0.0000
 11
      8.1550
 21
      8.6782
 31
      0.0000
  0
ARC
  8
1
 62
7
 10
      8.1630
 20
      8.9280
 30
      0.0000
 40
      0.2500
 50
 259.3359
 51
 268.1793
  0
ARC
  8
1
 62
7
 10
      8.0242
 20
      8.1910
 30
      0.0000
 40
      0.5000
 50
  79.3358
 51
  96.9999
  0
LINE
  8
1
 62
7
 10
      7.9633
 20
      8.6873
 30
      0.0000
 11
      4.5930
 21
      8.2735
 31
      0.0000
  0
ARC
  8
1
 62
7
 10
      4.5778
 20
      8.3975
 30
      0.0000
 40
      0.1250
 50
 187.0002
 51
 277.0001
  0
LINE
  8
1
 62
7
 10
      4.4537
 20
      8.3823
 30
      0.0000
 11
      4.3471
 21
      9.2508
 31
      0.0000
  0
ARC
  8
1
 62
7
 10
      5.6009
 20
      9.4047
 30
      0.0000
 40
      1.2633
 50
 100.4942
 51
 187.0000
  0
ARC
  8
1
 62
7
 10
      5.3956
 20
     10.5132
 30
      0.0000
 40
      0.1359
 50
 303.1042
 51
 100.4942
  0
TEXT
  8
251
 62
13
 10
      4.9209
 20
      9.6974
 30
      0.0000
 40
      0.3000
 1
2
  0
CIRCLE
  8
1
 62
7
 10
      7.9452
 20
     10.3956
 30
      0.0000
 40
      0.0820
  0
CIRCLE
  8
1
 62
7
 10
      8.5782
 20
     11.2025
 30
      0.0000
 40
      0.0825
  0
CIRCLE
  8
1
 62
7
 10
      5.0502
 20
     11.2438
 30
      0.0000
 40
      0.0860
  0
CIRCLE
  8
1
 62
7
 10
      6.8468
 20
     10.3651
 30
      0.0000
 40
      0.0860
  0
LINE
  8
1
 62
7
 10
      6.4815
 20
      9.8981
 30
      0.0000
 11
      5.6943
 21
     10.6076
 31
      0.0000
  0
ARC
  8
1
 62
7
 10
      5.0248
 20
      9.8647
 30
      0.0000
 40
      1.0000
 50
  47.9761
 51
  63.9394
  0
LINE
  8
1
 62
7
 10
      5.4641
 20
     10.7630
 30
      0.0000
 11
      4.9403
 21
     11.0192
 31
      0.0000
  0
ARC
  8
1
 62
7
 10
      5.0502
 20
     11.2438
 30
      0.0000
 40
      0.2500
 50
  90.0000
 51
 243.9394
  0
LINE
  8
1
 62
7
 10
      5.0502
 20
     11.4938
 30
      0.0000
 11
      8.5137
 21
     11.4938
 31
      0.0000
  0
ARC
  8
1
 62
7
 10
      8.5213
 20
     11.3690
 30
      0.0000
 40
      0.1250
 50
  64.1612
 51
  93.4682
  0
LINE
  8
1
 62
7
 10
      8.5757
 20
     11.4815
 30
      0.0000
 11
      8.6872
 21
     11.4275
 31
      0.0000
  0
ARC
  8
1
 62
7
 10
      8.5782
 20
     11.2025
 30
      0.0000
 40
      0.2500
 50
 333.9394
 51
  64.1614
  0
LINE
  8
1
 62
7
 10
      8.8028
 20
     11.0927
 30
      0.0000
 11
      8.7689
 21
     11.0233
 31
      0.0000
  0
ARC
  8
1
 62
7
 10
      6.8090
 20
     11.9818
 30
      0.0000
 40
      2.1817
 50
 267.5760
 51
 333.9395
  0
ARC
  8
1
 62
7
 10
      6.7326
 20
     10.1767
 30
      0.0000
 40
      0.3750
 50
 227.9762
 51
 267.5760
  0
TEXT
  8
251
 62
13
 10
      6.0383
 20
     10.2143
 30
      0.0000
 40
      0.3000
 1
1
  0
CIRCLE
  8
1
 62
7
 10
     13.3813
 20
      9.9178
 30
      0.0000
 40
      0.0820
  0
CIRCLE
  8
1
 62
7
 10
     14.0421
 20
     10.7022
 30
      0.0000
 40
      0.0825
  0
CIRCLE
  8
1
 62
7
 10
     10.5176
 20
     10.8665
 30
      0.0000
 40
      0.0860
  0
CIRCLE
  8
1
 62
7
 10
     12.2825
 20
      9.9257
 30
      0.0000
 40
      0.0860
  0
LINE
  8
1
 62
7
 10
     11.9011
 20
      9.4717
 30
      0.0000
 11
     11.1391
 21
     10.2082
 31
      0.0000
  0
ARC
  8
1
 62
7
 10
     10.4441
 20
      9.4891
 30
      0.0000
 40
      1.0000
 50
  45.9761
 51
  61.9394
  0
LINE
  8
1
 62
7
 10
     10.9145
 20
     10.3716
 30
      0.0000
 11
     10.4000
 21
     10.6459
 31
      0.0000
  0
ARC
  8
1
 62
7
 10
     10.5176
 20
     10.8665
 30
      0.0000
 40
      0.2500
 50
  87.9999
 51
 241.9395
  0
LINE
  8
1
 62
7
 10
     10.5263
 20
     11.1164
 30
      0.0000
 11
     13.9877
 21
     10.9955
 31
      0.0000
  0
ARC
  8
1
 62
7
 10
     13.9909
 20
     10.8705
 30
      0.0000
 40
      0.1250
 50
  62.1612
 51
  91.4676
  0
LINE
  8
1
 62
7
 10
     14.0493
 20
     10.9810
 30
      0.0000
 11
     14.1588
 21
     10.9232
 31
      0.0000
  0
ARC
  8
1
 62
7
 10
     14.0421
 20
     10.7022
 30
      0.0000
 40
      0.2500
 50
 331.9395
 51
  62.1614
  0
LINE
  8
1
 62
7
 10
     14.2627
 20
     10.5846
 30
      0.0000
 11
     14.2264
 21
     10.5164
 31
      0.0000
  0
ARC
  8
1
 62
7
 10
     12.3011
 20
     11.5427
 30
      0.0000
 40
      2.1817
 50
 265.5760
 51
 331.9395
  0
ARC
  8
1
 62
7
 10
     12.1617
 20
      9.7413
 30
      0.0000
 40
      0.3750
 50
 225.9761
 51
 265.5759
  0
TEXT
  8
251
 62
13
 10
     11.4744
 20
      9.7978
 30
      0.0000
 40
      0.3000
 1
1
  0
TEXT
  8
251
 62
13
 10
     -0.8000
 20
     -1.2000
 30
      0.0000
 40
      0.3200
 1
1)sled_front(4)
  0
TEXT
  8
251
 62
13
 10
     15.5200
 20
     -1.2000
 30
      0.0000
 40
      0.3200
 1
2)sled(4)
  0
TEXT
  8
251
 62
13
 10
     -0.8000
 20
     -1.8000
 30
      0.0000
 40
      0.3200
 1
3)sideplate(4)
  0
ENDSEC
  0
EOF
