0
SECTION
  2
HEADER
  9
$EXTMAX
 10
   31.8400
 20
   12.8000
  9
$EXTMIN
 10
   -0.8000
 20
   -1.8000
  9
$LIMMAX
 10
   31.8400
 20
   12.8000
  9
$LIMMIN
 10
   -0.8000
 20
   -1.8000
  0
ENDSEC
0
SECTION
  2
TABLES
  0
TABLE
  2
LTYPE
 70
     1
  0
LTYPE
  2
CONTINUOUS
 70
    64
  3
Solid line
 72
   65
 73
    0
 40
0.0
  0
ENDTAB
  0
TABLE
  2
LAYER
 70
       2
  0
LAYER
  2
251
 70
    0
 62
251
  6
CONTINUOUS
  0
LAYER
  2
1
 70
    0
 62
1
  6
CONTINUOUS
  0
ENDTAB
  0
ENDSEC
0
SECTION
  2
ENTITIES
  0
LINE
  8
251
 62
11
 10
     24.0000
 20
     12.0000
 30
      0.0000
 11
     24.0000
 21
      0.0000
 31
      0.0000
  0
LINE
  8
251
 62
11
 10
     24.0000
 20
      0.0000
 30
      0.0000
 11
     15.4567
 21
      0.0000
 31
      0.0000
  0
LINE
  8
251
 62
11
 10
     15.4567
 20
      0.0000
 30
      0.0000
 11
     15.4567
 21
     12.0000
 31
      0.0000
  0
LINE
  8
251
 62
11
 10
     15.4567
 20
     12.0000
 30
      0.0000
 11
     24.0000
 21
     12.0000
 31
      0.0000
  0
LINE
  8
251
 62
9
 10
      0.0000
 20
      0.0000
 30
      0.0000
 11
      0.0000
 21
     12.0000
 31
      0.0000
  0
LINE
  8
251
 62
9
 10
      0.0000
 20
     12.0000
 30
      0.0000
 11
     24.0000
 21
     12.0000
 31
      0.0000
  0
LINE
  8
251
 62
9
 10
     24.0000
 20
     12.0000
 30
      0.0000
 11
     24.0000
 21
      0.0000
 31
      0.0000
  0
LINE
  8
251
 62
9
 10
     24.0000
 20
      0.0000
 30
      0.0000
 11
      0.0000
 21
      0.0000
 31
      0.0000
  0
TEXT
  8
251
 62
12
 10
      6.5283
 20
     -0.6000
 30
      0.0000
 40
      0.4000
 1
15.457
  0
POLYLINE
  8
251
 62
12
 10
      0.0000
 20
      0.0000
 30
      0.0000
 66
  1
 70
  0
  0
VERTEX
  8
251
 62
12
 10
      6.3283
 20
     -0.4000
 30
      0.0000
  0
VERTEX
  8
251
 62
12
 10
      0.0000
 20
     -0.4000
 30
      0.0000
  0
VERTEX
  8
251
 62
12
 10
      0.4000
 20
     -0.6000
 30
      0.0000
  0
VERTEX
  8
251
 62
12
 10
      0.4000
 20
     -0.2000
 30
      0.0000
  0
VERTEX
  8
251
 62
12
 10
      0.0000
 20
     -0.4000
 30
      0.0000
  0
VERTEX
  8
251
 62
12
 10
      0.0000
 20
     -0.8000
 30
      0.0000
  0
VERTEX
  8
251
 62
12
 10
      0.0000
 20
      0.0000
 30
      0.0000
  0
SEQEND
  8
251
 62
12
  0
POLYLINE
  8
251
 62
12
 10
      0.0000
 20
      0.0000
 30
      0.0000
 66
  1
 70
  0
  0
VERTEX
  8
251
 62
12
 10
      9.1283
 20
     -0.4000
 30
      0.0000
  0
VERTEX
  8
251
 62
12
 10
     15.4567
 20
     -0.4000
 30
      0.0000
  0
VERTEX
  8
251
 62
12
 10
     15.0567
 20
     -0.2000
 30
      0.0000
  0
VERTEX
  8
251
 62
12
 10
     15.0567
 20
     -0.6000
 30
      0.0000
  0
VERTEX
  8
251
 62
12
 10
     15.4567
 20
     -0.4000
 30
      0.0000
  0
VERTEX
  8
251
 62
12
 10
     15.4567
 20
      0.0000
 30
      0.0000
  0
VERTEX
  8
251
 62
12
 10
     15.4567
 20
     -0.8000
 30
      0.0000
  0
SEQEND
  8
251
 62
12
  0
TEXT
  8
251
 62
12
 10
     10.8000
 20
     12.2000
 30
      0.0000
 40
      0.4000
 1
24.000
  0
POLYLINE
  8
251
 62
12
 10
      0.0000
 20
      0.0000
 30
      0.0000
 66
  1
 70
  0
  0
VERTEX
  8
251
 62
12
 10
     10.6000
 20
     12.4000
 30
      0.0000
  0
VERTEX
  8
251
 62
12
 10
      0.0000
 20
     12.4000
 30
      0.0000
  0
VERTEX
  8
251
 62
12
 10
      0.4000
 20
     12.2000
 30
      0.0000
  0
VERTEX
  8
251
 62
12
 10
      0.4000
 20
     12.6000
 30
      0.0000
  0
VERTEX
  8
251
 62
12
 10
      0.0000
 20
     12.4000
 30
      0.0000
  0
VERTEX
  8
251
 62
12
 10
      0.0000
 20
     12.0000
 30
      0.0000
  0
VERTEX
  8
251
 62
12
 10
      0.0000
 20
     12.8000
 30
      0.0000
  0
SEQEND
  8
251
 62
12
  0
POLYLINE
  8
251
 62
12
 10
      0.0000
 20
      0.0000
 30
      0.0000
 66
  1
 70
  0
  0
VERTEX
  8
251
 62
12
 10
     13.4000
 20
     12.4000
 30
      0.0000
  0
VERTEX
  8
251
 62
12
 10
     24.0000
 20
     12.4000
 30
      0.0000
  0
VERTEX
  8
251
 62
12
 10
     23.6000
 20
     12.6000
 30
      0.0000
  0
VERTEX
  8
251
 62
12
 10
     23.6000
 20
     12.2000
 30
      0.0000
  0
VERTEX
  8
251
 62
12
 10
     24.0000
 20
     12.4000
 30
      0.0000
  0
VERTEX
  8
251
 62
12
 10
     24.0000
 20
     12.8000
 30
      0.0000
  0
VERTEX
  8
251
 62
12
 10
     24.0000
 20
     12.0000
 30
      0.0000
  0
SEQEND
  8
251
 62
12
  0
TEXT
  8
251
 62
12
 10
     -0.2000
 20
      4.8000
 30
      0.0000
 40
      0.4000
 1
12.000
 50
     90.0000
  0
POLYLINE
  8
251
 62
12
 10
      0.0000
 20
      0.0000
 30
      0.0000
 66
  1
 70
  0
  0
VERTEX
  8
251
 62
12
 10
     -0.4000
 20
      4.6000
 30
      0.0000
  0
VERTEX
  8
251
 62
12
 10
     -0.4000
 20
      0.0000
 30
      0.0000
  0
VERTEX
  8
251
 62
12
 10
     -0.2000
 20
      0.4000
 30
      0.0000
  0
VERTEX
  8
251
 62
12
 10
     -0.6000
 20
      0.4000
 30
      0.0000
  0
VERTEX
  8
251
 62
12
 10
     -0.4000
 20
      0.0000
 30
      0.0000
  0
VERTEX
  8
251
 62
12
 10
      0.0000
 20
      0.0000
 30
      0.0000
  0
VERTEX
  8
251
 62
12
 10
     -0.8000
 20
      0.0000
 30
      0.0000
  0
SEQEND
  8
251
 62
12
  0
POLYLINE
  8
251
 62
12
 10
      0.0000
 20
      0.0000
 30
      0.0000
 66
  1
 70
  0
  0
VERTEX
  8
251
 62
12
 10
     -0.4000
 20
      7.4000
 30
      0.0000
  0
VERTEX
  8
251
 62
12
 10
     -0.4000
 20
     12.0000
 30
      0.0000
  0
VERTEX
  8
251
 62
12
 10
     -0.6000
 20
     11.6000
 30
      0.0000
  0
VERTEX
  8
251
 62
12
 10
     -0.2000
 20
     11.6000
 30
      0.0000
  0
VERTEX
  8
251
 62
12
 10
     -0.4000
 20
     12.0000
 30
      0.0000
  0
VERTEX
  8
251
 62
12
 10
     -0.8000
 20
     12.0000
 30
      0.0000
  0
VERTEX
  8
251
 62
12
 10
      0.0000
 20
     12.0000
 30
      0.0000
  0
SEQEND
  8
251
 62
12
  0
CIRCLE
  8
1
 62
7
 10
      0.2513
 20
      1.1109
 30
      0.0000
 40
      0.0885
  0
CIRCLE
  8
1
 62
7
 10
      0.2513
 20
      1.1109
 30
      0.0000
 40
      0.1875
  0
TEXT
  8
251
 62
13
 10
      0.1013
 20
      0.9984
 30
      0.0000
 40
      0.3000
 1
1
  0
CIRCLE
  8
1
 62
7
 10
      0.4285
 20
      0.5320
 30
      0.0000
 40
      0.0885
  0
CIRCLE
  8
1
 62
7
 10
      0.4285
 20
      0.5320
 30
      0.0000
 40
      0.1875
  0
TEXT
  8
251
 62
13
 10
      0.2785
 20
      0.4195
 30
      0.0000
 40
      0.3000
 1
1
  0
CIRCLE
  8
1
 62
7
 10
      0.6524
 20
      0.9092
 30
      0.0000
 40
      0.0885
  0
CIRCLE
  8
1
 62
7
 10
      0.6524
 20
      0.9092
 30
      0.0000
 40
      0.1875
  0
TEXT
  8
251
 62
13
 10
      0.5024
 20
      0.7967
 30
      0.0000
 40
      0.3000
 1
1
  0
CIRCLE
  8
1
 62
7
 10
      0.5230
 20
      1.4548
 30
      0.0000
 40
      0.0885
  0
CIRCLE
  8
1
 62
7
 10
      0.5230
 20
      1.4548
 30
      0.0000
 40
      0.1875
  0
TEXT
  8
251
 62
13
 10
      0.3730
 20
      1.3423
 30
      0.0000
 40
      0.3000
 1
1
  0
CIRCLE
  8
1
 62
7
 10
      0.4610
 20
      1.9433
 30
      0.0000
 40
      0.0885
  0
CIRCLE
  8
1
 62
7
 10
      0.4610
 20
      1.9433
 30
      0.0000
 40
      0.1875
  0
TEXT
  8
251
 62
13
 10
      0.3110
 20
      1.8308
 30
      0.0000
 40
      0.3000
 1
1
  0
CIRCLE
  8
1
 62
7
 10
      0.3640
 20
      2.5782
 30
      0.0000
 40
      0.0885
  0
CIRCLE
  8
1
 62
7
 10
      0.3640
 20
      2.5782
 30
      0.0000
 40
      0.1875
  0
TEXT
  8
251
 62
13
 10
      0.2140
 20
      2.4657
 30
      0.0000
 40
      0.3000
 1
1
  0
CIRCLE
  8
1
 62
7
 10
      0.3789
 20
      3.1774
 30
      0.0000
 40
      0.0885
  0
CIRCLE
  8
1
 62
7
 10
      0.3789
 20
      3.1774
 30
      0.0000
 40
      0.1875
  0
TEXT
  8
251
 62
13
 10
      0.2289
 20
      3.0649
 30
      0.0000
 40
      0.3000
 1
1
  0
CIRCLE
  8
1
 62
7
 10
      0.4317
 20
      3.7687
 30
      0.0000
 40
      0.0885
  0
CIRCLE
  8
1
 62
7
 10
      0.4317
 20
      3.7687
 30
      0.0000
 40
      0.1875
  0
TEXT
  8
251
 62
13
 10
      0.2817
 20
      3.6562
 30
      0.0000
 40
      0.3000
 1
1
  0
CIRCLE
  8
1
 62
7
 10
      0.4288
 20
      4.2305
 30
      0.0000
 40
      0.0885
  0
CIRCLE
  8
1
 62
7
 10
      0.4288
 20
      4.2305
 30
      0.0000
 40
      0.1875
  0
TEXT
  8
251
 62
13
 10
      0.2788
 20
      4.1180
 30
      0.0000
 40
      0.3000
 1
1
  0
CIRCLE
  8
1
 62
7
 10
      0.8719
 20
      0.4178
 30
      0.0000
 40
      0.0885
  0
CIRCLE
  8
1
 62
7
 10
      0.8719
 20
      0.4178
 30
      0.0000
 40
      0.1875
  0
TEXT
  8
251
 62
13
 10
      0.7219
 20
      0.3053
 30
      0.0000
 40
      0.3000
 1
1
  0
CIRCLE
  8
1
 62
7
 10
      0.9257
 20
      1.2495
 30
      0.0000
 40
      0.0885
  0
CIRCLE
  8
1
 62
7
 10
      0.9257
 20
      1.2495
 30
      0.0000
 40
      0.1875
  0
TEXT
  8
251
 62
13
 10
      0.7757
 20
      1.1370
 30
      0.0000
 40
      0.3000
 1
1
  0
CIRCLE
  8
1
 62
7
 10
      1.1066
 20
      0.7858
 30
      0.0000
 40
      0.0885
  0
CIRCLE
  8
1
 62
7
 10
      1.1066
 20
      0.7858
 30
      0.0000
 40
      0.1875
  0
TEXT
  8
251
 62
13
 10
      0.9566
 20
      0.6733
 30
      0.0000
 40
      0.3000
 1
1
  0
CIRCLE
  8
1
 62
7
 10
      0.9448
 20
      1.7442
 30
      0.0000
 40
      0.0885
  0
CIRCLE
  8
1
 62
7
 10
      0.9448
 20
      1.7442
 30
      0.0000
 40
      0.2500
  0
TEXT
  8
251
 62
13
 10
      0.7948
 20
      1.6942
 30
      0.0000
 40
      0.3000
 1
2
  0
CIRCLE
  8
1
 62
7
 10
      0.8028
 20
      2.3069
 30
      0.0000
 40
      0.0885
  0
CIRCLE
  8
1
 62
7
 10
      0.8028
 20
      2.3069
 30
      0.0000
 40
      0.2500
  0
TEXT
  8
251
 62
13
 10
      0.6528
 20
      2.2569
 30
      0.0000
 40
      0.3000
 1
2
  0
CIRCLE
  8
1
 62
7
 10
      0.7794
 20
      2.8699
 30
      0.0000
 40
      0.0885
  0
CIRCLE
  8
1
 62
7
 10
      0.7794
 20
      2.8699
 30
      0.0000
 40
      0.2500
  0
TEXT
  8
251
 62
13
 10
      0.6294
 20
      2.8199
 30
      0.0000
 40
      0.3000
 1
2
  0
CIRCLE
  8
1
 62
7
 10
      0.8221
 20
      3.4303
 30
      0.0000
 40
      0.0885
  0
CIRCLE
  8
1
 62
7
 10
      0.8221
 20
      3.4303
 30
      0.0000
 40
      0.2500
  0
TEXT
  8
251
 62
13
 10
      0.6721
 20
      3.3803
 30
      0.0000
 40
      0.3000
 1
2
  0
CIRCLE
  8
1
 62
7
 10
      0.8920
 20
      3.9887
 30
      0.0000
 40
      0.0885
  0
CIRCLE
  8
1
 62
7
 10
      0.8920
 20
      3.9887
 30
      0.0000
 40
      0.2500
  0
TEXT
  8
251
 62
13
 10
      0.7420
 20
      3.9387
 30
      0.0000
 40
      0.3000
 1
2
  0
CIRCLE
  8
1
 62
7
 10
      0.9685
 20
      4.9824
 30
      0.0000
 40
      0.0885
  0
CIRCLE
  8
1
 62
7
 10
      0.9685
 20
      4.9824
 30
      0.0000
 40
      0.1875
  0
TEXT
  8
251
 62
13
 10
      0.8185
 20
      4.8699
 30
      0.0000
 40
      0.3000
 1
1
  0
CIRCLE
  8
1
 62
7
 10
      1.3174
 20
      0.3092
 30
      0.0000
 40
      0.0885
  0
CIRCLE
  8
1
 62
7
 10
      1.3174
 20
      0.3092
 30
      0.0000
 40
      0.1875
  0
TEXT
  8
251
 62
13
 10
      1.1674
 20
      0.1967
 30
      0.0000
 40
      0.3000
 1
1
  0
CIRCLE
  8
1
 62
7
 10
      1.5574
 20
      0.6739
 30
      0.0000
 40
      0.0885
  0
CIRCLE
  8
1
 62
7
 10
      1.5574
 20
      0.6739
 30
      0.0000
 40
      0.1875
  0
TEXT
  8
251
 62
13
 10
      1.4074
 20
      0.5614
 30
      0.0000
 40
      0.3000
 1
1
  0
CIRCLE
  8
1
 62
7
 10
      1.4264
 20
      1.1693
 30
      0.0000
 40
      0.0885
  0
CIRCLE
  8
1
 62
7
 10
      1.4264
 20
      1.1693
 30
      0.0000
 40
      0.2500
  0
TEXT
  8
251
 62
13
 10
      1.2764
 20
      1.1193
 30
      0.0000
 40
      0.3000
 1
2
  0
CIRCLE
  8
1
 62
7
 10
      1.5052
 20
      1.7353
 30
      0.0000
 40
      0.0885
  0
CIRCLE
  8
1
 62
7
 10
      1.5052
 20
      1.7353
 30
      0.0000
 40
      0.2500
  0
TEXT
  8
251
 62
13
 10
      1.3552
 20
      1.6853
 30
      0.0000
 40
      0.3000
 1
2
  0
CIRCLE
  8
1
 62
7
 10
      1.3648
 20
      2.2874
 30
      0.0000
 40
      0.0885
  0
CIRCLE
  8
1
 62
7
 10
      1.3648
 20
      2.2874
 30
      0.0000
 40
      0.2500
  0
TEXT
  8
251
 62
13
 10
      1.2148
 20
      2.2374
 30
      0.0000
 40
      0.3000
 1
2
  0
CIRCLE
  8
1
 62
7
 10
      1.3417
 20
      2.8592
 30
      0.0000
 40
      0.0885
  0
CIRCLE
  8
1
 62
7
 10
      1.3417
 20
      2.8592
 30
      0.0000
 40
      0.2500
  0
TEXT
  8
251
 62
13
 10
      1.1917
 20
      2.8092
 30
      0.0000
 40
      0.3000
 1
2
  0
CIRCLE
  8
1
 62
7
 10
      1.3842
 20
      3.4209
 30
      0.0000
 40
      0.0885
  0
CIRCLE
  8
1
 62
7
 10
      1.3842
 20
      3.4209
 30
      0.0000
 40
      0.2500
  0
TEXT
  8
251
 62
13
 10
      1.2342
 20
      3.3709
 30
      0.0000
 40
      0.3000
 1
2
  0
CIRCLE
  8
1
 62
7
 10
      1.4549
 20
      3.9822
 30
      0.0000
 40
      0.0885
  0
CIRCLE
  8
1
 62
7
 10
      1.4549
 20
      3.9822
 30
      0.0000
 40
      0.2500
  0
TEXT
  8
251
 62
13
 10
      1.3049
 20
      3.9322
 30
      0.0000
 40
      0.3000
 1
2
  0
CIRCLE
  8
1
 62
7
 10
      1.7773
 20
      0.2659
 30
      0.0000
 40
      0.0885
  0
CIRCLE
  8
1
 62
7
 10
      1.7773
 20
      0.2659
 30
      0.0000
 40
      0.1875
  0
TEXT
  8
251
 62
13
 10
      1.6273
 20
      0.1534
 30
      0.0000
 40
      0.3000
 1
1
  0
CIRCLE
  8
1
 62
7
 10
      1.9919
 20
      0.6674
 30
      0.0000
 40
      0.0885
  0
CIRCLE
  8
1
 62
7
 10
      1.9919
 20
      0.6674
 30
      0.0000
 40
      0.1875
  0
TEXT
  8
251
 62
13
 10
      1.8419
 20
      0.5549
 30
      0.0000
 40
      0.3000
 1
1
  0
CIRCLE
  8
1
 62
7
 10
      1.9891
 20
      1.1610
 30
      0.0000
 40
      0.0885
  0
CIRCLE
  8
1
 62
7
 10
      1.9891
 20
      1.1610
 30
      0.0000
 40
      0.2500
  0
TEXT
  8
251
 62
13
 10
      1.8391
 20
      1.1110
 30
      0.0000
 40
      0.3000
 1
2
  0
CIRCLE
  8
1
 62
7
 10
      2.2376
 20
      0.2942
 30
      0.0000
 40
      0.0885
  0
CIRCLE
  8
1
 62
7
 10
      2.2376
 20
      0.2942
 30
      0.0000
 40
      0.1875
  0
TEXT
  8
251
 62
13
 10
      2.0876
 20
      0.1817
 30
      0.0000
 40
      0.3000
 1
1
  0
CIRCLE
  8
1
 62
7
 10
      2.0723
 20
      1.7427
 30
      0.0000
 40
      0.0885
  0
CIRCLE
  8
1
 62
7
 10
      2.0723
 20
      1.7427
 30
      0.0000
 40
      0.2500
  0
TEXT
  8
251
 62
13
 10
      1.9223
 20
      1.6927
 30
      0.0000
 40
      0.3000
 1
2
  0
CIRCLE
  8
1
 62
7
 10
      1.9303
 20
      2.2880
 30
      0.0000
 40
      0.0885
  0
CIRCLE
  8
1
 62
7
 10
      1.9303
 20
      2.2880
 30
      0.0000
 40
      0.2500
  0
TEXT
  8
251
 62
13
 10
      1.7803
 20
      2.2380
 30
      0.0000
 40
      0.3000
 1
2
  0
CIRCLE
  8
1
 62
7
 10
      1.9035
 20
      2.8509
 30
      0.0000
 40
      0.0885
  0
CIRCLE
  8
1
 62
7
 10
      1.9035
 20
      2.8509
 30
      0.0000
 40
      0.2500
  0
TEXT
  8
251
 62
13
 10
      1.7535
 20
      2.8009
 30
      0.0000
 40
      0.3000
 1
2
  0
CIRCLE
  8
1
 62
7
 10
      1.9467
 20
      3.4191
 30
      0.0000
 40
      0.0885
  0
CIRCLE
  8
1
 62
7
 10
      1.9467
 20
      3.4191
 30
      0.0000
 40
      0.2500
  0
TEXT
  8
251
 62
13
 10
      1.7967
 20
      3.3691
 30
      0.0000
 40
      0.3000
 1
2
  0
CIRCLE
  8
1
 62
7
 10
      2.0152
 20
      3.9899
 30
      0.0000
 40
      0.0885
  0
CIRCLE
  8
1
 62
7
 10
      2.0152
 20
      3.9899
 30
      0.0000
 40
      0.2500
  0
TEXT
  8
251
 62
13
 10
      1.8652
 20
      3.9399
 30
      0.0000
 40
      0.3000
 1
2
  0
LINE
  8
1
 62
7
 10
      0.4792
 20
      5.7324
 30
      0.0000
 11
      0.4792
 21
      7.7949
 31
      0.0000
  0
LINE
  8
1
 62
7
 10
      0.4792
 20
      7.7949
 30
      0.0000
 11
      0.3542
 21
      7.8574
 31
      0.0000
  0
LINE
  8
1
 62
7
 10
      0.3542
 20
      7.8574
 30
      0.0000
 11
      0.3542
 21
      5.7949
 31
      0.0000
  0
LINE
  8
1
 62
7
 10
      0.3542
 20
      5.7949
 30
      0.0000
 11
      0.4792
 21
      5.7324
 31
      0.0000
  0
LINE
  8
1
 62
7
 10
      1.3417
 20
      7.2699
 30
      0.0000
 11
      0.4675
 21
      5.5215
 31
      0.0000
  0
LINE
  8
1
 62
7
 10
      0.4675
 20
      5.5215
 30
      0.0000
 11
      0.5925
 21
      5.2090
 31
      0.0000
  0
LINE
  8
1
 62
7
 10
      0.5925
 20
      5.2090
 30
      0.0000
 11
      1.7917
 21
      7.6074
 31
      0.0000
  0
LINE
  8
1
 62
7
 10
      1.7917
 20
      7.6074
 30
      0.0000
 11
      1.6667
 21
      7.9199
 31
      0.0000
  0
LINE
  8
1
 62
7
 10
      1.6667
 20
      7.9199
 30
      0.0000
 11
      1.4167
 21
      7.4199
 31
      0.0000
  0
ARC
  8
1
 62
7
 10
      1.2292
 20
      7.4199
 30
      0.0000
 40
      0.1875
 50
 306.8698
 51
 360.0000
  0
LINE
  8
1
 62
7
 10
      0.3542
 20
      5.2949
 30
      0.0000
 11
      0.3542
 21
      4.7324
 31
      0.0000
  0
LINE
  8
1
 62
7
 10
      0.3542
 20
      4.7324
 30
      0.0000
 11
      0.4792
 21
      4.9824
 31
      0.0000
  0
LINE
  8
1
 62
7
 10
      0.4792
 20
      4.9824
 30
      0.0000
 11
      0.3542
 21
      5.2949
 31
      0.0000
  0
LINE
  8
1
 62
7
 10
      1.4167
 20
      4.7324
 30
      0.0000
 11
      1.4167
 21
      4.9931
 31
      0.0000
  0
ARC
  8
1
 62
7
 10
      1.4792
 20
      5.1699
 30
      0.0000
 40
      0.1875
 50
 109.4712
 51
 250.5289
  0
LINE
  8
1
 62
7
 10
      1.4167
 20
      5.3467
 30
      0.0000
 11
      1.4167
 21
      6.4824
 31
      0.0000
  0
LINE
  8
1
 62
7
 10
      1.4167
 20
      6.4824
 30
      0.0000
 11
      0.6966
 21
      5.0421
 31
      0.0000
  0
LINE
  8
1
 62
7
 10
      0.6966
 20
      5.0421
 30
      0.0000
 11
      0.6966
 21
      4.7324
 31
      0.0000
  0
LINE
  8
1
 62
7
 10
      0.6966
 20
      4.7324
 30
      0.0000
 11
      1.4167
 21
      4.7324
 31
      0.0000
  0
LINE
  8
1
 62
7
 10
      1.9792
 20
      7.9824
 30
      0.0000
 11
      1.8542
 21
      8.2949
 31
      0.0000
  0
LINE
  8
1
 62
7
 10
      1.8542
 20
      8.2949
 30
      0.0000
 11
      1.7605
 21
      8.1074
 31
      0.0000
  0
LINE
  8
1
 62
7
 10
      1.7605
 20
      8.1074
 30
      0.0000
 11
      1.8855
 21
      7.7949
 31
      0.0000
  0
LINE
  8
1
 62
7
 10
      1.8855
 20
      7.7949
 30
      0.0000
 11
      1.9792
 21
      7.9824
 31
      0.0000
  0
LINE
  8
1
 62
7
 10
      1.0780
 20
      8.5308
 30
      0.0000
 11
      0.6667
 21
      9.0449
 31
      0.0000
  0
LINE
  8
1
 62
7
 10
      0.6667
 20
      9.0449
 30
      0.0000
 11
      1.1432
 21
      7.6074
 31
      0.0000
  0
LINE
  8
1
 62
7
 10
      1.1432
 20
      7.6074
 30
      0.0000
 11
      1.4167
 21
      8.1074
 31
      0.0000
  0
LINE
  8
1
 62
7
 10
      1.4167
 20
      8.1074
 30
      0.0000
 11
      1.3042
 21
      8.2481
 31
      0.0000
  0
ARC
  8
1
 62
7
 10
      1.2292
 20
      8.4199
 30
      0.0000
 40
      0.1875
 50
 143.7469
 51
 293.5725
  0
CIRCLE
  8
1
 62
7
 10
      1.2292
 20
      8.4199
 30
      0.0000
 40
      0.0860
  0
ARC
  8
1
 62
7
 10
      1.3799
 20
     10.2204
 30
      0.0000
 40
      0.0625
 50
 127.0492
 51
 218.6605
  0
LINE
  8
1
 62
7
 10
      1.3311
 20
     10.1813
 30
      0.0000
 11
      1.4432
 21
     10.0411
 31
      0.0000
  0
LINE
  8
1
 62
7
 10
      1.4432
 20
     10.0411
 30
      0.0000
 11
      1.5386
 21
      9.4683
 31
      0.0000
  0
LINE
  8
1
 62
7
 10
      1.5386
 20
      9.4683
 30
      0.0000
 11
      1.2404
 21
      8.6071
 31
      0.0000
  0
ARC
  8
1
 62
7
 10
      1.2292
 20
      8.4199
 30
      0.0000
 40
      0.1875
 50
  25.9753
 51
  86.5751
  0
LINE
  8
1
 62
7
 10
      1.3978
 20
      8.5020
 30
      0.0000
 11
      1.5870
 21
      8.4186
 31
      0.0000
  0
LINE
  8
1
 62
7
 10
      1.5870
 20
      8.4186
 30
      0.0000
 11
      1.9504
 21
      9.4683
 31
      0.0000
  0
LINE
  8
1
 62
7
 10
      1.9504
 20
      9.4683
 30
      0.0000
 11
      1.8386
 21
     10.3574
 31
      0.0000
  0
LINE
  8
1
 62
7
 10
      1.8386
 20
     10.3574
 30
      0.0000
 11
      1.5386
 21
     10.7324
 31
      0.0000
  0
LINE
  8
1
 62
7
 10
      1.5386
 20
     10.7324
 30
      0.0000
 11
      1.3925
 21
     10.6156
 31
      0.0000
  0
ARC
  8
1
 62
7
 10
      1.4316
 20
     10.5668
 30
      0.0000
 40
      0.0625
 50
 128.6592
 51
 215.9668
  0
ARC
  8
1
 62
7
 10
      1.2292
 20
     10.4199
 30
      0.0000
 40
      0.1875
 50
 307.0488
 51
  35.9677
  0
LINE
  8
1
 62
7
 10
      2.0730
 20
      8.1699
 30
      0.0000
 11
      2.0730
 21
      8.7324
 31
      0.0000
  0
LINE
  8
1
 62
7
 10
      2.0730
 20
      8.7324
 30
      0.0000
 11
      1.9480
 21
      8.4824
 31
      0.0000
  0
LINE
  8
1
 62
7
 10
      1.9480
 20
      8.4824
 30
      0.0000
 11
      2.0730
 21
      8.1699
 31
      0.0000
  0
CIRCLE
  8
1
 62
7
 10
      1.2292
 20
      7.4199
 30
      0.0000
 40
      0.0860
  0
CIRCLE
  8
1
 62
7
 10
      1.2297
 20
     10.9199
 30
      0.0000
 40
      0.0860
  0
CIRCLE
  8
1
 62
7
 10
      1.4792
 20
      5.1699
 30
      0.0000
 40
      0.0860
  0
POINT
  8
1
 62
7
 10
      1.1433
 20
     10.4162
 30
      0.0000
  0
POINT
  8
1
 62
7
 10
      1.1432
 20
     10.4161
 30
      0.0000
  0
CIRCLE
  8
1
 62
7
 10
      1.2292
 20
     10.4199
 30
      0.0000
 40
      0.0860
  0
LINE
  8
1
 62
7
 10
      1.7692
 20
     11.9199
 30
      0.0000
 11
      2.2917
 21
     11.9199
 31
      0.0000
  0
LINE
  8
1
 62
7
 10
      2.2917
 20
     11.9199
 30
      0.0000
 11
      2.2917
 21
      4.6699
 31
      0.0000
  0
ARC
  8
1
 62
7
 10
      1.9167
 20
      4.6699
 30
      0.0000
 40
      0.3750
 50
 270.0000
 51
 360.0000
  0
LINE
  8
1
 62
7
 10
      1.9167
 20
      4.2949
 30
      0.0000
 11
      0.7292
 21
      4.2949
 31
      0.0000
  0
LINE
  8
1
 62
7
 10
      0.7292
 20
      4.2949
 30
      0.0000
 11
      0.2292
 21
      4.7324
 31
      0.0000
  0
LINE
  8
1
 62
7
 10
      0.2292
 20
      4.7324
 30
      0.0000
 11
      0.2292
 21
     11.9199
 31
      0.0000
  0
LINE
  8
1
 62
7
 10
      0.2292
 20
     11.9199
 30
      0.0000
 11
      0.3542
 21
     11.9199
 31
      0.0000
  0
LINE
  8
1
 62
7
 10
      0.3542
 20
     11.9199
 30
      0.0000
 11
      0.3542
 21
     11.4024
 31
      0.0000
  0
LINE
  8
1
 62
7
 10
      0.3542
 20
     11.4024
 30
      0.0000
 11
      0.8902
 21
     10.7324
 31
      0.0000
  0
LINE
  8
1
 62
7
 10
      0.8902
 20
     10.7324
 30
      0.0000
 11
      0.9954
 21
     10.8166
 31
      0.0000
  0
ARC
  8
1
 62
7
 10
      0.9173
 20
     10.9142
 30
      0.0000
 40
      0.1250
 50
 308.6601
 51
   1.0544
  0
ARC
  8
1
 62
7
 10
      1.2297
 20
     10.9199
 30
      0.0000
 40
      0.1875
 50
  91.7357
 51
 181.0544
  0
LINE
  8
1
 62
7
 10
      1.2241
 20
     11.1073
 30
      0.0000
 11
      0.5740
 21
     11.9199
 31
      0.0000
  0
LINE
  8
1
 62
7
 10
      0.5740
 20
     11.9199
 30
      0.0000
 11
      1.2725
 21
     11.9199
 31
      0.0000
  0
LINE
  8
1
 62
7
 10
      1.2725
 20
     11.9199
 30
      0.0000
 11
      1.7692
 21
     11.2990
 31
      0.0000
  0
LINE
  8
1
 62
7
 10
      1.7692
 20
     11.2990
 30
      0.0000
 11
      1.7692
 21
     11.9199
 31
      0.0000
  0
TEXT
  8
251
 62
13
 10
      1.8805
 20
     11.6199
 30
      0.0000
 40
      0.3000
 1
3
  0
CIRCLE
  8
1
 62
7
 10
      2.6962
 20
      0.2583
 30
      0.0000
 40
      0.0885
  0
CIRCLE
  8
1
 62
7
 10
      2.6962
 20
      0.2583
 30
      0.0000
 40
      0.1875
  0
TEXT
  8
251
 62
13
 10
      2.5462
 20
      0.1458
 30
      0.0000
 40
      0.3000
 1
1
  0
CIRCLE
  8
1
 62
7
 10
      2.4974
 20
      0.7494
 30
      0.0000
 40
      0.0885
  0
CIRCLE
  8
1
 62
7
 10
      2.4974
 20
      0.7494
 30
      0.0000
 40
      0.2500
  0
TEXT
  8
251
 62
13
 10
      2.3474
 20
      0.6994
 30
      0.0000
 40
      0.3000
 1
2
  0
CIRCLE
  8
1
 62
7
 10
      2.5475
 20
      1.3094
 30
      0.0000
 40
      0.0885
  0
CIRCLE
  8
1
 62
7
 10
      2.5475
 20
      1.3094
 30
      0.0000
 40
      0.2500
  0
TEXT
  8
251
 62
13
 10
      2.3975
 20
      1.2594
 30
      0.0000
 40
      0.3000
 1
2
  0
CIRCLE
  8
1
 62
7
 10
      2.6204
 20
      1.8722
 30
      0.0000
 40
      0.0885
  0
CIRCLE
  8
1
 62
7
 10
      2.6204
 20
      1.8722
 30
      0.0000
 40
      0.2500
  0
TEXT
  8
251
 62
13
 10
      2.4704
 20
      1.8222
 30
      0.0000
 40
      0.3000
 1
2
  0
CIRCLE
  8
1
 62
7
 10
      2.4937
 20
      2.4410
 30
      0.0000
 40
      0.0885
  0
CIRCLE
  8
1
 62
7
 10
      2.4937
 20
      2.4410
 30
      0.0000
 40
      0.2500
  0
TEXT
  8
251
 62
13
 10
      2.3437
 20
      2.3910
 30
      0.0000
 40
      0.3000
 1
2
  0
CIRCLE
  8
1
 62
7
 10
      2.4627
 20
      3.0064
 30
      0.0000
 40
      0.0885
  0
CIRCLE
  8
1
 62
7
 10
      2.4627
 20
      3.0064
 30
      0.0000
 40
      0.2500
  0
TEXT
  8
251
 62
13
 10
      2.3127
 20
      2.9564
 30
      0.0000
 40
      0.3000
 1
2
  0
CIRCLE
  8
1
 62
7
 10
      2.5009
 20
      3.5647
 30
      0.0000
 40
      0.0885
  0
CIRCLE
  8
1
 62
7
 10
      2.5009
 20
      3.5647
 30
      0.0000
 40
      0.2500
  0
TEXT
  8
251
 62
13
 10
      2.3509
 20
      3.5147
 30
      0.0000
 40
      0.3000
 1
2
  0
CIRCLE
  8
1
 62
7
 10
      2.5693
 20
      4.1293
 30
      0.0000
 40
      0.0885
  0
CIRCLE
  8
1
 62
7
 10
      2.5693
 20
      4.1293
 30
      0.0000
 40
      0.2500
  0
TEXT
  8
251
 62
13
 10
      2.4193
 20
      4.0793
 30
      0.0000
 40
      0.3000
 1
2
  0
CIRCLE
  8
1
 62
7
 10
      3.0508
 20
      0.6109
 30
      0.0000
 40
      0.0885
  0
CIRCLE
  8
1
 62
7
 10
      3.0508
 20
      0.6109
 30
      0.0000
 40
      0.2500
  0
TEXT
  8
251
 62
13
 10
      2.9008
 20
      0.5609
 30
      0.0000
 40
      0.3000
 1
2
  0
CIRCLE
  8
1
 62
7
 10
      3.1091
 20
      1.1729
 30
      0.0000
 40
      0.0885
  0
CIRCLE
  8
1
 62
7
 10
      3.1091
 20
      1.1729
 30
      0.0000
 40
      0.2500
  0
TEXT
  8
251
 62
13
 10
      2.9591
 20
      1.1229
 30
      0.0000
 40
      0.3000
 1
2
  0
CIRCLE
  8
1
 62
7
 10
      3.1931
 20
      1.7441
 30
      0.0000
 40
      0.0885
  0
CIRCLE
  8
1
 62
7
 10
      3.1931
 20
      1.7441
 30
      0.0000
 40
      0.2500
  0
TEXT
  8
251
 62
13
 10
      3.0431
 20
      1.6941
 30
      0.0000
 40
      0.3000
 1
2
  0
CIRCLE
  8
1
 62
7
 10
      3.0457
 20
      2.3073
 30
      0.0000
 40
      0.0885
  0
CIRCLE
  8
1
 62
7
 10
      3.0457
 20
      2.3073
 30
      0.0000
 40
      0.2500
  0
TEXT
  8
251
 62
13
 10
      2.8957
 20
      2.2573
 30
      0.0000
 40
      0.3000
 1
2
  0
CIRCLE
  8
1
 62
7
 10
      3.0213
 20
      2.8709
 30
      0.0000
 40
      0.0885
  0
CIRCLE
  8
1
 62
7
 10
      3.0213
 20
      2.8709
 30
      0.0000
 40
      0.2500
  0
TEXT
  8
251
 62
13
 10
      2.8713
 20
      2.8209
 30
      0.0000
 40
      0.3000
 1
2
  0
CIRCLE
  8
1
 62
7
 10
      3.0559
 20
      3.4313
 30
      0.0000
 40
      0.0885
  0
CIRCLE
  8
1
 62
7
 10
      3.0559
 20
      3.4313
 30
      0.0000
 40
      0.2500
  0
TEXT
  8
251
 62
13
 10
      2.9059
 20
      3.3813
 30
      0.0000
 40
      0.3000
 1
2
  0
CIRCLE
  8
1
 62
7
 10
      3.1331
 20
      3.9837
 30
      0.0000
 40
      0.0885
  0
CIRCLE
  8
1
 62
7
 10
      3.1331
 20
      3.9837
 30
      0.0000
 40
      0.2500
  0
TEXT
  8
251
 62
13
 10
      2.9831
 20
      3.9337
 30
      0.0000
 40
      0.3000
 1
2
  0
CIRCLE
  8
1
 62
7
 10
      3.0935
 20
      4.9824
 30
      0.0000
 40
      0.0885
  0
CIRCLE
  8
1
 62
7
 10
      3.0935
 20
      4.9824
 30
      0.0000
 40
      0.1875
  0
TEXT
  8
251
 62
13
 10
      2.9435
 20
      4.8699
 30
      0.0000
 40
      0.3000
 1
1
  0
CIRCLE
  8
1
 62
7
 10
      3.6118
 20
      0.6096
 30
      0.0000
 40
      0.0885
  0
CIRCLE
  8
1
 62
7
 10
      3.6118
 20
      0.6096
 30
      0.0000
 40
      0.2500
  0
TEXT
  8
251
 62
13
 10
      3.4618
 20
      0.5596
 30
      0.0000
 40
      0.3000
 1
2
  0
CIRCLE
  8
1
 62
7
 10
      3.6717
 20
      1.1688
 30
      0.0000
 40
      0.0885
  0
CIRCLE
  8
1
 62
7
 10
      3.6717
 20
      1.1688
 30
      0.0000
 40
      0.2500
  0
TEXT
  8
251
 62
13
 10
      3.5217
 20
      1.1188
 30
      0.0000
 40
      0.3000
 1
2
  0
CIRCLE
  8
1
 62
7
 10
      3.7548
 20
      1.7350
 30
      0.0000
 40
      0.0885
  0
CIRCLE
  8
1
 62
7
 10
      3.7548
 20
      1.7350
 30
      0.0000
 40
      0.2500
  0
TEXT
  8
251
 62
13
 10
      3.6048
 20
      1.6850
 30
      0.0000
 40
      0.3000
 1
2
  0
CIRCLE
  8
1
 62
7
 10
      3.6056
 20
      2.3011
 30
      0.0000
 40
      0.0885
  0
CIRCLE
  8
1
 62
7
 10
      3.6056
 20
      2.3011
 30
      0.0000
 40
      0.2500
  0
TEXT
  8
251
 62
13
 10
      3.4556
 20
      2.2511
 30
      0.0000
 40
      0.3000
 1
2
  0
CIRCLE
  8
1
 62
7
 10
      3.5837
 20
      2.8664
 30
      0.0000
 40
      0.0885
  0
CIRCLE
  8
1
 62
7
 10
      3.5837
 20
      2.8664
 30
      0.0000
 40
      0.2500
  0
TEXT
  8
251
 62
13
 10
      3.4337
 20
      2.8164
 30
      0.0000
 40
      0.3000
 1
2
  0
CIRCLE
  8
1
 62
7
 10
      3.6201
 20
      3.4278
 30
      0.0000
 40
      0.0885
  0
CIRCLE
  8
1
 62
7
 10
      3.6201
 20
      3.4278
 30
      0.0000
 40
      0.2500
  0
TEXT
  8
251
 62
13
 10
      3.4701
 20
      3.3778
 30
      0.0000
 40
      0.3000
 1
2
  0
CIRCLE
  8
1
 62
7
 10
      3.6911
 20
      3.9829
 30
      0.0000
 40
      0.0885
  0
CIRCLE
  8
1
 62
7
 10
      3.6911
 20
      3.9829
 30
      0.0000
 40
      0.2500
  0
TEXT
  8
251
 62
13
 10
      3.5411
 20
      3.9329
 30
      0.0000
 40
      0.3000
 1
2
  0
CIRCLE
  8
1
 62
7
 10
      4.1756
 20
      0.6052
 30
      0.0000
 40
      0.0885
  0
CIRCLE
  8
1
 62
7
 10
      4.1756
 20
      0.6052
 30
      0.0000
 40
      0.2500
  0
TEXT
  8
251
 62
13
 10
      4.0256
 20
      0.5552
 30
      0.0000
 40
      0.3000
 1
2
  0
CIRCLE
  8
1
 62
7
 10
      4.2343
 20
      1.1608
 30
      0.0000
 40
      0.0885
  0
CIRCLE
  8
1
 62
7
 10
      4.2343
 20
      1.1608
 30
      0.0000
 40
      0.2500
  0
TEXT
  8
251
 62
13
 10
      4.0843
 20
      1.1108
 30
      0.0000
 40
      0.3000
 1
2
  0
CIRCLE
  8
1
 62
7
 10
      4.3202
 20
      1.7232
 30
      0.0000
 40
      0.0885
  0
CIRCLE
  8
1
 62
7
 10
      4.3202
 20
      1.7232
 30
      0.0000
 40
      0.2500
  0
TEXT
  8
251
 62
13
 10
      4.1702
 20
      1.6732
 30
      0.0000
 40
      0.3000
 1
2
  0
CIRCLE
  8
1
 62
7
 10
      4.1708
 20
      2.2942
 30
      0.0000
 40
      0.0885
  0
CIRCLE
  8
1
 62
7
 10
      4.1708
 20
      2.2942
 30
      0.0000
 40
      0.2500
  0
TEXT
  8
251
 62
13
 10
      4.0208
 20
      2.2442
 30
      0.0000
 40
      0.3000
 1
2
  0
CIRCLE
  8
1
 62
7
 10
      4.1452
 20
      2.8622
 30
      0.0000
 40
      0.0885
  0
CIRCLE
  8
1
 62
7
 10
      4.1452
 20
      2.8622
 30
      0.0000
 40
      0.2500
  0
TEXT
  8
251
 62
13
 10
      3.9952
 20
      2.8122
 30
      0.0000
 40
      0.3000
 1
2
  0
CIRCLE
  8
1
 62
7
 10
      4.1829
 20
      3.4229
 30
      0.0000
 40
      0.0885
  0
CIRCLE
  8
1
 62
7
 10
      4.1829
 20
      3.4229
 30
      0.0000
 40
      0.2500
  0
TEXT
  8
251
 62
13
 10
      4.0329
 20
      3.3729
 30
      0.0000
 40
      0.3000
 1
2
  0
CIRCLE
  8
1
 62
7
 10
      4.2487
 20
      3.9858
 30
      0.0000
 40
      0.0885
  0
CIRCLE
  8
1
 62
7
 10
      4.2487
 20
      3.9858
 30
      0.0000
 40
      0.2500
  0
TEXT
  8
251
 62
13
 10
      4.0987
 20
      3.9358
 30
      0.0000
 40
      0.3000
 1
2
  0
LINE
  8
1
 62
7
 10
      2.6042
 20
      5.7324
 30
      0.0000
 11
      2.6042
 21
      7.7949
 31
      0.0000
  0
LINE
  8
1
 62
7
 10
      2.6042
 20
      7.7949
 30
      0.0000
 11
      2.4792
 21
      7.8574
 31
      0.0000
  0
LINE
  8
1
 62
7
 10
      2.4792
 20
      7.8574
 30
      0.0000
 11
      2.4792
 21
      5.7949
 31
      0.0000
  0
LINE
  8
1
 62
7
 10
      2.4792
 20
      5.7949
 30
      0.0000
 11
      2.6042
 21
      5.7324
 31
      0.0000
  0
LINE
  8
1
 62
7
 10
      3.4667
 20
      7.2699
 30
      0.0000
 11
      2.5925
 21
      5.5215
 31
      0.0000
  0
LINE
  8
1
 62
7
 10
      2.5925
 20
      5.5215
 30
      0.0000
 11
      2.7175
 21
      5.2090
 31
      0.0000
  0
LINE
  8
1
 62
7
 10
      2.7175
 20
      5.2090
 30
      0.0000
 11
      3.9167
 21
      7.6074
 31
      0.0000
  0
LINE
  8
1
 62
7
 10
      3.9167
 20
      7.6074
 30
      0.0000
 11
      3.7917
 21
      7.9199
 31
      0.0000
  0
LINE
  8
1
 62
7
 10
      3.7917
 20
      7.9199
 30
      0.0000
 11
      3.5417
 21
      7.4199
 31
      0.0000
  0
ARC
  8
1
 62
7
 10
      3.3542
 20
      7.4199
 30
      0.0000
 40
      0.1875
 50
 306.8698
 51
 360.0000
  0
LINE
  8
1
 62
7
 10
      2.4792
 20
      5.2949
 30
      0.0000
 11
      2.4792
 21
      4.7324
 31
      0.0000
  0
LINE
  8
1
 62
7
 10
      2.4792
 20
      4.7324
 30
      0.0000
 11
      2.6042
 21
      4.9824
 31
      0.0000
  0
LINE
  8
1
 62
7
 10
      2.6042
 20
      4.9824
 30
      0.0000
 11
      2.4792
 21
      5.2949
 31
      0.0000
  0
LINE
  8
1
 62
7
 10
      3.5417
 20
      4.7324
 30
      0.0000
 11
      3.5417
 21
      4.9931
 31
      0.0000
  0
ARC
  8
1
 62
7
 10
      3.6042
 20
      5.1699
 30
      0.0000
 40
      0.1875
 50
 109.4713
 51
 250.5289
  0
LINE
  8
1
 62
7
 10
      3.5417
 20
      5.3467
 30
      0.0000
 11
      3.5417
 21
      6.4824
 31
      0.0000
  0
LINE
  8
1
 62
7
 10
      3.5417
 20
      6.4824
 30
      0.0000
 11
      2.8216
 21
      5.0421
 31
      0.0000
  0
LINE
  8
1
 62
7
 10
      2.8216
 20
      5.0421
 30
      0.0000
 11
      2.8216
 21
      4.7324
 31
      0.0000
  0
LINE
  8
1
 62
7
 10
      2.8216
 20
      4.7324
 30
      0.0000
 11
      3.5417
 21
      4.7324
 31
      0.0000
  0
LINE
  8
1
 62
7
 10
      4.1042
 20
      7.9824
 30
      0.0000
 11
      3.9792
 21
      8.2949
 31
      0.0000
  0
LINE
  8
1
 62
7
 10
      3.9792
 20
      8.2949
 30
      0.0000
 11
      3.8855
 21
      8.1074
 31
      0.0000
  0
LINE
  8
1
 62
7
 10
      3.8855
 20
      8.1074
 30
      0.0000
 11
      4.0105
 21
      7.7949
 31
      0.0000
  0
LINE
  8
1
 62
7
 10
      4.0105
 20
      7.7949
 30
      0.0000
 11
      4.1042
 21
      7.9824
 31
      0.0000
  0
LINE
  8
1
 62
7
 10
      3.2030
 20
      8.5308
 30
      0.0000
 11
      2.7917
 21
      9.0449
 31
      0.0000
  0
LINE
  8
1
 62
7
 10
      2.7917
 20
      9.0449
 30
      0.0000
 11
      3.2682
 21
      7.6074
 31
      0.0000
  0
LINE
  8
1
 62
7
 10
      3.2682
 20
      7.6074
 30
      0.0000
 11
      3.5417
 21
      8.1074
 31
      0.0000
  0
LINE
  8
1
 62
7
 10
      3.5417
 20
      8.1074
 30
      0.0000
 11
      3.4292
 21
      8.2481
 31
      0.0000
  0
ARC
  8
1
 62
7
 10
      3.3542
 20
      8.4199
 30
      0.0000
 40
      0.1875
 50
 143.7469
 51
 293.5724
  0
CIRCLE
  8
1
 62
7
 10
      3.3542
 20
      8.4199
 30
      0.0000
 40
      0.0860
  0
ARC
  8
1
 62
7
 10
      3.5049
 20
     10.2204
 30
      0.0000
 40
      0.0625
 50
 127.0491
 51
 218.6604
  0
LINE
  8
1
 62
7
 10
      3.4561
 20
     10.1813
 30
      0.0000
 11
      3.5682
 21
     10.0411
 31
      0.0000
  0
LINE
  8
1
 62
7
 10
      3.5682
 20
     10.0411
 30
      0.0000
 11
      3.6636
 21
      9.4683
 31
      0.0000
  0
LINE
  8
1
 62
7
 10
      3.6636
 20
      9.4683
 30
      0.0000
 11
      3.3654
 21
      8.6071
 31
      0.0000
  0
ARC
  8
1
 62
7
 10
      3.3542
 20
      8.4199
 30
      0.0000
 40
      0.1875
 50
  25.9753
 51
  86.5751
  0
LINE
  8
1
 62
7
 10
      3.5228
 20
      8.5020
 30
      0.0000
 11
      3.7120
 21
      8.4186
 31
      0.0000
  0
LINE
  8
1
 62
7
 10
      3.7120
 20
      8.4186
 30
      0.0000
 11
      4.0754
 21
      9.4683
 31
      0.0000
  0
LINE
  8
1
 62
7
 10
      4.0754
 20
      9.4683
 30
      0.0000
 11
      3.9636
 21
     10.3574
 31
      0.0000
  0
LINE
  8
1
 62
7
 10
      3.9636
 20
     10.3574
 30
      0.0000
 11
      3.6636
 21
     10.7324
 31
      0.0000
  0
LINE
  8
1
 62
7
 10
      3.6636
 20
     10.7324
 30
      0.0000
 11
      3.5175
 21
     10.6156
 31
      0.0000
  0
ARC
  8
1
 62
7
 10
      3.5566
 20
     10.5668
 30
      0.0000
 40
      0.0625
 50
 128.6591
 51
 215.9668
  0
ARC
  8
1
 62
7
 10
      3.3542
 20
     10.4199
 30
      0.0000
 40
      0.1875
 50
 307.0488
 51
  35.9677
  0
LINE
  8
1
 62
7
 10
      4.1980
 20
      8.1699
 30
      0.0000
 11
      4.1980
 21
      8.7324
 31
      0.0000
  0
LINE
  8
1
 62
7
 10
      4.1980
 20
      8.7324
 30
      0.0000
 11
      4.0730
 21
      8.4824
 31
      0.0000
  0
LINE
  8
1
 62
7
 10
      4.0730
 20
      8.4824
 30
      0.0000
 11
      4.1980
 21
      8.1699
 31
      0.0000
  0
CIRCLE
  8
1
 62
7
 10
      3.3542
 20
      7.4199
 30
      0.0000
 40
      0.0860
  0
CIRCLE
  8
1
 62
7
 10
      3.3547
 20
     10.9199
 30
      0.0000
 40
      0.0860
  0
CIRCLE
  8
1
 62
7
 10
      3.6042
 20
      5.1699
 30
      0.0000
 40
      0.0860
  0
POINT
  8
1
 62
7
 10
      3.2683
 20
     10.4162
 30
      0.0000
  0
POINT
  8
1
 62
7
 10
      3.2682
 20
     10.4161
 30
      0.0000
  0
CIRCLE
  8
1
 62
7
 10
      3.3542
 20
     10.4199
 30
      0.0000
 40
      0.0860
  0
LINE
  8
1
 62
7
 10
      3.8942
 20
     11.9199
 30
      0.0000
 11
      4.4167
 21
     11.9199
 31
      0.0000
  0
LINE
  8
1
 62
7
 10
      4.4167
 20
     11.9199
 30
      0.0000
 11
      4.4167
 21
      4.6699
 31
      0.0000
  0
ARC
  8
1
 62
7
 10
      4.0417
 20
      4.6699
 30
      0.0000
 40
      0.3750
 50
 270.0000
 51
 360.0000
  0
LINE
  8
1
 62
7
 10
      4.0417
 20
      4.2949
 30
      0.0000
 11
      2.8542
 21
      4.2949
 31
      0.0000
  0
LINE
  8
1
 62
7
 10
      2.8542
 20
      4.2949
 30
      0.0000
 11
      2.3542
 21
      4.7324
 31
      0.0000
  0
LINE
  8
1
 62
7
 10
      2.3542
 20
      4.7324
 30
      0.0000
 11
      2.3542
 21
     11.9199
 31
      0.0000
  0
LINE
  8
1
 62
7
 10
      2.3542
 20
     11.9199
 30
      0.0000
 11
      2.4792
 21
     11.9199
 31
      0.0000
  0
LINE
  8
1
 62
7
 10
      2.4792
 20
     11.9199
 30
      0.0000
 11
      2.4792
 21
     11.4024
 31
      0.0000
  0
LINE
  8
1
 62
7
 10
      2.4792
 20
     11.4024
 30
      0.0000
 11
      3.0152
 21
     10.7324
 31
      0.0000
  0
LINE
  8
1
 62
7
 10
      3.0152
 20
     10.7324
 30
      0.0000
 11
      3.1204
 21
     10.8166
 31
      0.0000
  0
ARC
  8
1
 62
7
 10
      3.0423
 20
     10.9142
 30
      0.0000
 40
      0.1250
 50
 308.6601
 51
   1.0544
  0
ARC
  8
1
 62
7
 10
      3.3547
 20
     10.9199
 30
      0.0000
 40
      0.1875
 50
  91.7357
 51
 181.0544
  0
LINE
  8
1
 62
7
 10
      3.3491
 20
     11.1073
 30
      0.0000
 11
      2.6990
 21
     11.9199
 31
      0.0000
  0
LINE
  8
1
 62
7
 10
      2.6990
 20
     11.9199
 30
      0.0000
 11
      3.3975
 21
     11.9199
 31
      0.0000
  0
LINE
  8
1
 62
7
 10
      3.3975
 20
     11.9199
 30
      0.0000
 11
      3.8942
 21
     11.2990
 31
      0.0000
  0
LINE
  8
1
 62
7
 10
      3.8942
 20
     11.2990
 30
      0.0000
 11
      3.8942
 21
     11.9199
 31
      0.0000
  0
TEXT
  8
251
 62
13
 10
      4.0055
 20
     11.6199
 30
      0.0000
 40
      0.3000
 1
3
  0
CIRCLE
  8
1
 62
7
 10
      4.7224
 20
      2.1158
 30
      0.0000
 40
      0.0885
  0
CIRCLE
  8
1
 62
7
 10
      4.7224
 20
      2.1158
 30
      0.0000
 40
      0.2500
  0
TEXT
  8
251
 62
13
 10
      4.5724
 20
      2.0658
 30
      0.0000
 40
      0.3000
 1
2
  0
CIRCLE
  8
1
 62
7
 10
      4.6880
 20
      2.6822
 30
      0.0000
 40
      0.0885
  0
CIRCLE
  8
1
 62
7
 10
      4.6880
 20
      2.6822
 30
      0.0000
 40
      0.2500
  0
TEXT
  8
251
 62
13
 10
      4.5380
 20
      2.6322
 30
      0.0000
 40
      0.3000
 1
2
  0
CIRCLE
  8
1
 62
7
 10
      5.2502
 20
      2.6413
 30
      0.0000
 40
      0.0885
  0
CIRCLE
  8
1
 62
7
 10
      5.2502
 20
      2.6413
 30
      0.0000
 40
      0.2500
  0
TEXT
  8
251
 62
13
 10
      5.1002
 20
      2.5913
 30
      0.0000
 40
      0.3000
 1
2
  0
CIRCLE
  8
1
 62
7
 10
      7.1806
 20
      0.4068
 30
      0.0000
 40
      0.0885
  0
CIRCLE
  8
1
 62
7
 10
      7.1806
 20
      0.4068
 30
      0.0000
 40
      0.1875
  0
TEXT
  8
251
 62
13
 10
      7.0306
 20
      0.2943
 30
      0.0000
 40
      0.3000
 1
1
  0
CIRCLE
  8
1
 62
7
 10
      7.5947
 20
      0.2632
 30
      0.0000
 40
      0.0885
  0
CIRCLE
  8
1
 62
7
 10
      7.5947
 20
      0.2632
 30
      0.0000
 40
      0.1875
  0
TEXT
  8
251
 62
13
 10
      7.4447
 20
      0.1507
 30
      0.0000
 40
      0.3000
 1
1
  0
CIRCLE
  8
1
 62
7
 10
      6.1917
 20
      2.5679
 30
      0.0000
 40
      0.0825
  0
CIRCLE
  8
1
 62
7
 10
     12.1706
 20
      2.0558
 30
      0.0000
 40
      0.0860
  0
CIRCLE
  8
1
 62
7
 10
      6.0784
 20
      0.9469
 30
      0.0000
 40
      0.0825
  0
CIRCLE
  8
1
 62
7
 10
      4.6719
 20
      0.5440
 30
      0.0000
 40
      0.0825
  0
LINE
  8
1
 62
7
 10
      9.2763
 20
      0.9850
 30
      0.0000
 11
      9.2894
 21
      1.1721
 31
      0.0000
  0
LINE
  8
1
 62
7
 10
      9.2894
 20
      1.1721
 30
      0.0000
 11
      7.5245
 21
      1.2955
 31
      0.0000
  0
LINE
  8
1
 62
7
 10
      7.5245
 20
      1.2955
 30
      0.0000
 11
      7.6553
 21
      1.0984
 31
      0.0000
  0
LINE
  8
1
 62
7
 10
      7.6553
 20
      1.0984
 30
      0.0000
 11
      9.2763
 21
      0.9850
 31
      0.0000
  0
LINE
  8
1
 62
7
 10
      6.9010
 20
      1.3391
 30
      0.0000
 11
      5.2992
 21
      1.4511
 31
      0.0000
  0
LINE
  8
1
 62
7
 10
      5.2992
 20
      1.4511
 30
      0.0000
 11
      5.2861
 21
      1.2640
 31
      0.0000
  0
LINE
  8
1
 62
7
 10
      5.2861
 20
      1.2640
 30
      0.0000
 11
      7.0318
 21
      1.1420
 31
      0.0000
  0
LINE
  8
1
 62
7
 10
      7.0318
 20
      1.1420
 30
      0.0000
 11
      6.9010
 21
      1.3391
 31
      0.0000
  0
LINE
  8
1
 62
7
 10
      7.0885
 20
      1.9524
 30
      0.0000
 11
      7.3941
 21
      1.4919
 31
      0.0000
  0
LINE
  8
1
 62
7
 10
      7.3941
 20
      1.4919
 30
      0.0000
 11
     10.5494
 21
      1.2713
 31
      0.0000
  0
LINE
  8
1
 62
7
 10
     10.5494
 20
      1.2713
 30
      0.0000
 11
     10.7049
 21
      1.5638
 31
      0.0000
  0
LINE
  8
1
 62
7
 10
     10.7049
 20
      1.5638
 30
      0.0000
 11
     10.4232
 21
      1.7192
 31
      0.0000
  0
LINE
  8
1
 62
7
 10
     10.4232
 20
      1.7192
 30
      0.0000
 11
      7.0885
 21
      1.9524
 31
      0.0000
  0
ARC
  8
1
 62
7
 10
      5.9591
 20
      1.4762
 30
      0.0000
 40
      0.5755
 50
 101.7895
 51
 164.3980
  0
LINE
  8
1
 62
7
 10
      5.4048
 20
      1.6310
 30
      0.0000
 11
      6.4194
 21
      1.5601
 31
      0.0000
  0
LINE
  8
1
 62
7
 10
      6.4194
 20
      1.5601
 30
      0.0000
 11
      6.1137
 21
      2.0206
 31
      0.0000
  0
LINE
  8
1
 62
7
 10
      6.1137
 20
      2.0206
 30
      0.0000
 11
      5.8415
 21
      2.0396
 31
      0.0000
  0
CIRCLE
  8
1
 62
7
 10
     10.7792
 20
      0.9731
 30
      0.0000
 40
      0.0825
  0
CIRCLE
  8
1
 62
7
 10
      9.5322
 20
      1.0603
 30
      0.0000
 40
      0.0825
  0
CIRCLE
  8
1
 62
7
 10
      7.2007
 20
      0.8686
 30
      0.0000
 40
      0.0825
  0
CIRCLE
  8
1
 62
7
 10
      6.5510
 20
      0.5379
 30
      0.0000
 40
      0.0825
  0
CIRCLE
  8
1
 62
7
 10
      6.6840
 20
      2.4395
 30
      0.0000
 40
      0.0860
  0
LINE
  8
1
 62
7
 10
     12.2517
 20
      0.7104
 30
      0.0000
 11
     11.0987
 21
      1.3465
 31
      0.0000
  0
LINE
  8
1
 62
7
 10
     11.0987
 20
      1.3465
 30
      0.0000
 11
     10.9779
 21
      1.1276
 31
      0.0000
  0
LINE
  8
1
 62
7
 10
     10.9779
 20
      1.1276
 30
      0.0000
 11
     12.0893
 21
      0.5144
 31
      0.0000
  0
ARC
  8
1
 62
7
 10
     11.6014
 20
      1.0840
 30
      0.0000
 40
      0.7500
 50
 269.8140
 51
 310.5838
  0
LINE
  8
1
 62
7
 10
     11.5990
 20
      0.3340
 30
      0.0000
 11
      8.1039
 21
      0.3454
 31
      0.0000
  0
LINE
  8
1
 62
7
 10
      8.1039
 20
      0.3454
 30
      0.0000
 11
      7.3427
 21
      0.6463
 31
      0.0000
  0
ARC
  8
1
 62
7
 10
      7.1513
 20
      0.1621
 30
      0.0000
 40
      0.5207
 50
  68.4254
 51
 147.9525
  0
ARC
  8
1
 62
7
 10
      6.5510
 20
      0.5379
 30
      0.0000
 40
      0.1875
 50
 269.8138
 51
 327.9525
  0
LINE
  8
1
 62
7
 10
      6.5504
 20
      0.3504
 30
      0.0000
 11
      4.6712
 21
      0.3565
 31
      0.0000
  0
ARC
  8
1
 62
7
 10
      4.6719
 20
      0.5440
 30
      0.0000
 40
      0.1875
 50
 176.0865
 51
 269.8139
  0
ARC
  8
1
 62
7
 10
      7.0595
 20
      0.3807
 30
      0.0000
 40
      2.5808
 50
 109.2384
 51
 176.0865
  0
LINE
  8
1
 62
7
 10
      6.2092
 20
      2.8173
 30
      0.0000
 11
     12.1946
 21
      2.3988
 31
      0.0000
  0
ARC
  8
1
 62
7
 10
     12.1771
 20
      2.1494
 30
      0.0000
 40
      0.2500
 50
 356.0000
 51
  85.9998
  0
LINE
  8
1
 62
7
 10
     12.4265
 20
      2.1319
 30
      0.0000
 11
     12.4162
 21
      1.9851
 31
      0.0000
  0
LINE
  8
1
 62
7
 10
     12.4162
 20
      1.9851
 30
      0.0000
 11
     11.7622
 21
      1.5329
 31
      0.0000
  0
LINE
  8
1
 62
7
 10
     11.7622
 20
      1.5329
 30
      0.0000
 11
     12.3816
 21
      1.4896
 31
      0.0000
  0
LINE
  8
1
 62
7
 10
     12.3816
 20
      1.4896
 30
      0.0000
 11
     12.3496
 21
      1.0317
 31
      0.0000
  0
ARC
  8
1
 62
7
 10
     11.6014
 20
      1.0840
 30
      0.0000
 40
      0.7500
 50
 330.1188
 51
 356.0000
  0
TEXT
  8
251
 62
13
 10
     11.5977
 20
      1.0098
 30
      0.0000
 40
      0.3000
 1
4
  0
CIRCLE
  8
1
 62
7
 10
     11.6650
 20
      2.7473
 30
      0.0000
 40
      0.0885
  0
CIRCLE
  8
1
 62
7
 10
     11.6650
 20
      2.7473
 30
      0.0000
 40
      0.2500
  0
TEXT
  8
251
 62
13
 10
     11.5150
 20
      2.6973
 30
      0.0000
 40
      0.3000
 1
2
  0
CIRCLE
  8
1
 62
7
 10
     12.0758
 20
      3.1504
 30
      0.0000
 40
      0.0885
  0
CIRCLE
  8
1
 62
7
 10
     12.0758
 20
      3.1504
 30
      0.0000
 40
      0.2500
  0
TEXT
  8
251
 62
13
 10
     11.9258
 20
      3.1004
 30
      0.0000
 40
      0.3000
 1
2
  0
CIRCLE
  8
1
 62
7
 10
     10.7212
 20
      2.8150
 30
      0.0000
 40
      0.0825
  0
CIRCLE
  8
1
 62
7
 10
      4.7424
 20
      3.3271
 30
      0.0000
 40
      0.0860
  0
CIRCLE
  8
1
 62
7
 10
     10.8346
 20
      4.4361
 30
      0.0000
 40
      0.0825
  0
CIRCLE
  8
1
 62
7
 10
     12.2411
 20
      4.8390
 30
      0.0000
 40
      0.0825
  0
LINE
  8
1
 62
7
 10
      7.6366
 20
      4.3979
 30
      0.0000
 11
      7.6236
 21
      4.2109
 31
      0.0000
  0
LINE
  8
1
 62
7
 10
      7.6236
 20
      4.2109
 30
      0.0000
 11
      9.3885
 21
      4.0875
 31
      0.0000
  0
LINE
  8
1
 62
7
 10
      9.3885
 20
      4.0875
 30
      0.0000
 11
      9.2577
 21
      4.2846
 31
      0.0000
  0
LINE
  8
1
 62
7
 10
      9.2577
 20
      4.2846
 30
      0.0000
 11
      7.6366
 21
      4.3979
 31
      0.0000
  0
LINE
  8
1
 62
7
 10
     10.0120
 20
      4.0439
 30
      0.0000
 11
     11.6138
 21
      3.9319
 31
      0.0000
  0
LINE
  8
1
 62
7
 10
     11.6138
 20
      3.9319
 30
      0.0000
 11
     11.6269
 21
      4.1189
 31
      0.0000
  0
LINE
  8
1
 62
7
 10
     11.6269
 20
      4.1189
 30
      0.0000
 11
      9.8812
 21
      4.2410
 31
      0.0000
  0
LINE
  8
1
 62
7
 10
      9.8812
 20
      4.2410
 30
      0.0000
 11
     10.0120
 21
      4.0439
 31
      0.0000
  0
LINE
  8
1
 62
7
 10
      9.8245
 20
      3.4306
 30
      0.0000
 11
      9.5188
 21
      3.8911
 31
      0.0000
  0
LINE
  8
1
 62
7
 10
      9.5188
 20
      3.8911
 30
      0.0000
 11
      6.3636
 21
      4.1117
 31
      0.0000
  0
LINE
  8
1
 62
7
 10
      6.3636
 20
      4.1117
 30
      0.0000
 11
      6.2081
 21
      3.8192
 31
      0.0000
  0
LINE
  8
1
 62
7
 10
      6.2081
 20
      3.8192
 30
      0.0000
 11
      6.4898
 21
      3.6637
 31
      0.0000
  0
LINE
  8
1
 62
7
 10
      6.4898
 20
      3.6637
 30
      0.0000
 11
      9.8245
 21
      3.4306
 31
      0.0000
  0
ARC
  8
1
 62
7
 10
     10.9539
 20
      3.9068
 30
      0.0000
 40
      0.5755
 50
 281.7896
 51
 344.3980
  0
LINE
  8
1
 62
7
 10
     11.5082
 20
      3.7520
 30
      0.0000
 11
     10.4936
 21
      3.8229
 31
      0.0000
  0
LINE
  8
1
 62
7
 10
     10.4936
 20
      3.8229
 30
      0.0000
 11
     10.7993
 21
      3.3624
 31
      0.0000
  0
LINE
  8
1
 62
7
 10
     10.7993
 20
      3.3624
 30
      0.0000
 11
     11.0714
 21
      3.3434
 31
      0.0000
  0
CIRCLE
  8
1
 62
7
 10
      6.1338
 20
      4.4098
 30
      0.0000
 40
      0.0825
  0
CIRCLE
  8
1
 62
7
 10
      7.3808
 20
      4.3226
 30
      0.0000
 40
      0.0825
  0
CIRCLE
  8
1
 62
7
 10
      9.7123
 20
      4.5144
 30
      0.0000
 40
      0.0825
  0
CIRCLE
  8
1
 62
7
 10
     10.3620
 20
      4.8451
 30
      0.0000
 40
      0.0825
  0
CIRCLE
  8
1
 62
7
 10
     10.2290
 20
      2.9434
 30
      0.0000
 40
      0.0860
  0
LINE
  8
1
 62
7
 10
      4.6613
 20
      4.6726
 30
      0.0000
 11
      5.8143
 21
      4.0364
 31
      0.0000
  0
LINE
  8
1
 62
7
 10
      5.8143
 20
      4.0364
 30
      0.0000
 11
      5.9351
 21
      4.2553
 31
      0.0000
  0
LINE
  8
1
 62
7
 10
      5.9351
 20
      4.2553
 30
      0.0000
 11
      4.8237
 21
      4.8685
 31
      0.0000
  0
ARC
  8
1
 62
7
 10
      5.3116
 20
      4.2989
 30
      0.0000
 40
      0.7500
 50
  89.8140
 51
 130.5837
  0
LINE
  8
1
 62
7
 10
      5.3140
 20
      5.0489
 30
      0.0000
 11
      8.8091
 21
      5.0376
 31
      0.0000
  0
LINE
  8
1
 62
7
 10
      8.8091
 20
      5.0376
 30
      0.0000
 11
      9.5703
 21
      4.7366
 31
      0.0000
  0
ARC
  8
1
 62
7
 10
      9.7617
 20
      5.2208
 30
      0.0000
 40
      0.5207
 50
 248.4254
 51
 327.9524
  0
ARC
  8
1
 62
7
 10
     10.3620
 20
      4.8451
 30
      0.0000
 40
      0.1875
 50
  89.8138
 51
 147.9525
  0
LINE
  8
1
 62
7
 10
     10.3626
 20
      5.0326
 30
      0.0000
 11
     12.2417
 21
      5.0265
 31
      0.0000
  0
ARC
  8
1
 62
7
 10
     12.2411
 20
      4.8390
 30
      0.0000
 40
      0.1875
 50
 356.0865
 51
  89.8135
  0
ARC
  8
1
 62
7
 10
      9.8534
 20
      5.0023
 30
      0.0000
 40
      2.5808
 50
 289.2384
 51
 356.0865
  0
LINE
  8
1
 62
7
 10
     10.7038
 20
      2.5657
 30
      0.0000
 11
      4.7184
 21
      2.9842
 31
      0.0000
  0
ARC
  8
1
 62
7
 10
      4.7359
 20
      3.2336
 30
      0.0000
 40
      0.2500
 50
 176.0000
 51
 266.0000
  0
LINE
  8
1
 62
7
 10
      4.4865
 20
      3.2510
 30
      0.0000
 11
      4.4967
 21
      3.3979
 31
      0.0000
  0
LINE
  8
1
 62
7
 10
      4.4967
 20
      3.3979
 30
      0.0000
 11
      5.1507
 21
      3.8501
 31
      0.0000
  0
LINE
  8
1
 62
7
 10
      5.1507
 20
      3.8501
 30
      0.0000
 11
      4.5314
 21
      3.8934
 31
      0.0000
  0
LINE
  8
1
 62
7
 10
      4.5314
 20
      3.8934
 30
      0.0000
 11
      4.5634
 21
      4.3513
 31
      0.0000
  0
ARC
  8
1
 62
7
 10
      5.3116
 20
      4.2989
 30
      0.0000
 40
      0.7500
 50
 150.1188
 51
 176.0000
  0
TEXT
  8
251
 62
13
 10
      5.0153
 20
      4.0732
 30
      0.0000
 40
      0.3000
 1
4
  0
CIRCLE
  8
1
 62
7
 10
      4.8387
 20
      6.9916
 30
      0.0000
 40
      0.0885
  0
CIRCLE
  8
1
 62
7
 10
      4.8387
 20
      6.9916
 30
      0.0000
 40
      0.2500
  0
TEXT
  8
251
 62
13
 10
      4.6887
 20
      6.9416
 30
      0.0000
 40
      0.3000
 1
2
  0
CIRCLE
  8
1
 62
7
 10
      5.2502
 20
      7.3983
 30
      0.0000
 40
      0.0885
  0
CIRCLE
  8
1
 62
7
 10
      5.2502
 20
      7.3983
 30
      0.0000
 40
      0.2500
  0
TEXT
  8
251
 62
13
 10
      5.1002
 20
      7.3483
 30
      0.0000
 40
      0.3000
 1
2
  0
CIRCLE
  8
1
 62
7
 10
      6.1917
 20
      7.3249
 30
      0.0000
 40
      0.0825
  0
CIRCLE
  8
1
 62
7
 10
     12.1706
 20
      6.8129
 30
      0.0000
 40
      0.0860
  0
CIRCLE
  8
1
 62
7
 10
      6.0784
 20
      5.7039
 30
      0.0000
 40
      0.0825
  0
CIRCLE
  8
1
 62
7
 10
      4.6719
 20
      5.3010
 30
      0.0000
 40
      0.0825
  0
LINE
  8
1
 62
7
 10
      9.2763
 20
      5.7420
 30
      0.0000
 11
      9.2894
 21
      5.9291
 31
      0.0000
  0
LINE
  8
1
 62
7
 10
      9.2894
 20
      5.9291
 30
      0.0000
 11
      7.5245
 21
      6.0525
 31
      0.0000
  0
LINE
  8
1
 62
7
 10
      7.5245
 20
      6.0525
 30
      0.0000
 11
      7.6553
 21
      5.8554
 31
      0.0000
  0
LINE
  8
1
 62
7
 10
      7.6553
 20
      5.8554
 30
      0.0000
 11
      9.2763
 21
      5.7420
 31
      0.0000
  0
LINE
  8
1
 62
7
 10
      6.9010
 20
      6.0961
 30
      0.0000
 11
      5.2992
 21
      6.2081
 31
      0.0000
  0
LINE
  8
1
 62
7
 10
      5.2992
 20
      6.2081
 30
      0.0000
 11
      5.2861
 21
      6.0211
 31
      0.0000
  0
LINE
  8
1
 62
7
 10
      5.2861
 20
      6.0211
 30
      0.0000
 11
      7.0318
 21
      5.8990
 31
      0.0000
  0
LINE
  8
1
 62
7
 10
      7.0318
 20
      5.8990
 30
      0.0000
 11
      6.9010
 21
      6.0961
 31
      0.0000
  0
LINE
  8
1
 62
7
 10
      7.0885
 20
      6.7094
 30
      0.0000
 11
      7.3941
 21
      6.2489
 31
      0.0000
  0
LINE
  8
1
 62
7
 10
      7.3941
 20
      6.2489
 30
      0.0000
 11
     10.5494
 21
      6.0283
 31
      0.0000
  0
LINE
  8
1
 62
7
 10
     10.5494
 20
      6.0283
 30
      0.0000
 11
     10.7049
 21
      6.3208
 31
      0.0000
  0
LINE
  8
1
 62
7
 10
     10.7049
 20
      6.3208
 30
      0.0000
 11
     10.4232
 21
      6.4762
 31
      0.0000
  0
LINE
  8
1
 62
7
 10
     10.4232
 20
      6.4762
 30
      0.0000
 11
      7.0885
 21
      6.7094
 31
      0.0000
  0
ARC
  8
1
 62
7
 10
      5.9591
 20
      6.2332
 30
      0.0000
 40
      0.5755
 50
 101.7894
 51
 164.3980
  0
LINE
  8
1
 62
7
 10
      5.4048
 20
      6.3880
 30
      0.0000
 11
      6.4194
 21
      6.3171
 31
      0.0000
  0
LINE
  8
1
 62
7
 10
      6.4194
 20
      6.3171
 30
      0.0000
 11
      6.1137
 21
      6.7776
 31
      0.0000
  0
LINE
  8
1
 62
7
 10
      6.1137
 20
      6.7776
 30
      0.0000
 11
      5.8415
 21
      6.7966
 31
      0.0000
  0
CIRCLE
  8
1
 62
7
 10
     10.7792
 20
      5.7302
 30
      0.0000
 40
      0.0825
  0
CIRCLE
  8
1
 62
7
 10
      9.5322
 20
      5.8174
 30
      0.0000
 40
      0.0825
  0
CIRCLE
  8
1
 62
7
 10
      7.2007
 20
      5.6256
 30
      0.0000
 40
      0.0825
  0
CIRCLE
  8
1
 62
7
 10
      6.5510
 20
      5.2949
 30
      0.0000
 40
      0.0825
  0
CIRCLE
  8
1
 62
7
 10
      6.6840
 20
      7.1965
 30
      0.0000
 40
      0.0860
  0
LINE
  8
1
 62
7
 10
     12.2517
 20
      5.4674
 30
      0.0000
 11
     11.0987
 21
      6.1035
 31
      0.0000
  0
LINE
  8
1
 62
7
 10
     11.0987
 20
      6.1035
 30
      0.0000
 11
     10.9779
 21
      5.8846
 31
      0.0000
  0
LINE
  8
1
 62
7
 10
     10.9779
 20
      5.8846
 30
      0.0000
 11
     12.0893
 21
      5.2714
 31
      0.0000
  0
ARC
  8
1
 62
7
 10
     11.6014
 20
      5.8410
 30
      0.0000
 40
      0.7500
 50
 269.8140
 51
 310.5838
  0
LINE
  8
1
 62
7
 10
     11.5990
 20
      5.0910
 30
      0.0000
 11
      8.1039
 21
      5.1024
 31
      0.0000
  0
LINE
  8
1
 62
7
 10
      8.1039
 20
      5.1024
 30
      0.0000
 11
      7.3427
 21
      5.4033
 31
      0.0000
  0
ARC
  8
1
 62
7
 10
      7.1513
 20
      4.9191
 30
      0.0000
 40
      0.5207
 50
  68.4254
 51
 147.9525
  0
ARC
  8
1
 62
7
 10
      6.5510
 20
      5.2949
 30
      0.0000
 40
      0.1875
 50
 269.8138
 51
 327.9525
  0
LINE
  8
1
 62
7
 10
      6.5504
 20
      5.1074
 30
      0.0000
 11
      4.6712
 21
      5.1135
 31
      0.0000
  0
ARC
  8
1
 62
7
 10
      4.6719
 20
      5.3010
 30
      0.0000
 40
      0.1875
 50
 176.0865
 51
 269.8139
  0
ARC
  8
1
 62
7
 10
      7.0595
 20
      5.1377
 30
      0.0000
 40
      2.5808
 50
 109.2384
 51
 176.0865
  0
LINE
  8
1
 62
7
 10
      6.2092
 20
      7.5743
 30
      0.0000
 11
     12.1946
 21
      7.1558
 31
      0.0000
  0
ARC
  8
1
 62
7
 10
     12.1771
 20
      6.9064
 30
      0.0000
 40
      0.2500
 50
 356.0001
 51
  85.9998
  0
LINE
  8
1
 62
7
 10
     12.4265
 20
      6.8890
 30
      0.0000
 11
     12.4162
 21
      6.7421
 31
      0.0000
  0
LINE
  8
1
 62
7
 10
     12.4162
 20
      6.7421
 30
      0.0000
 11
     11.7622
 21
      6.2899
 31
      0.0000
  0
LINE
  8
1
 62
7
 10
     11.7622
 20
      6.2899
 30
      0.0000
 11
     12.3816
 21
      6.2466
 31
      0.0000
  0
LINE
  8
1
 62
7
 10
     12.3816
 20
      6.2466
 30
      0.0000
 11
     12.3496
 21
      5.7887
 31
      0.0000
  0
ARC
  8
1
 62
7
 10
     11.6014
 20
      5.8410
 30
      0.0000
 40
      0.7500
 50
 330.1188
 51
 356.0000
  0
TEXT
  8
251
 62
13
 10
     11.5977
 20
      5.7668
 30
      0.0000
 40
      0.3000
 1
4
  0
CIRCLE
  8
1
 62
7
 10
     11.6627
 20
      7.4987
 30
      0.0000
 40
      0.0885
  0
CIRCLE
  8
1
 62
7
 10
     11.6627
 20
      7.4987
 30
      0.0000
 40
      0.2500
  0
TEXT
  8
251
 62
13
 10
     11.5127
 20
      7.4487
 30
      0.0000
 40
      0.3000
 1
2
  0
CIRCLE
  8
1
 62
7
 10
     12.0772
 20
      7.8778
 30
      0.0000
 40
      0.0885
  0
CIRCLE
  8
1
 62
7
 10
     12.0772
 20
      7.8778
 30
      0.0000
 40
      0.2500
  0
TEXT
  8
251
 62
13
 10
     11.9272
 20
      7.8278
 30
      0.0000
 40
      0.3000
 1
2
  0
CIRCLE
  8
1
 62
7
 10
     10.7212
 20
      7.5721
 30
      0.0000
 40
      0.0825
  0
CIRCLE
  8
1
 62
7
 10
      4.7424
 20
      8.0841
 30
      0.0000
 40
      0.0860
  0
CIRCLE
  8
1
 62
7
 10
     10.8346
 20
      9.1931
 30
      0.0000
 40
      0.0825
  0
CIRCLE
  8
1
 62
7
 10
     12.2411
 20
      9.5960
 30
      0.0000
 40
      0.0825
  0
LINE
  8
1
 62
7
 10
      7.6366
 20
      9.1550
 30
      0.0000
 11
      7.6236
 21
      8.9679
 31
      0.0000
  0
LINE
  8
1
 62
7
 10
      7.6236
 20
      8.9679
 30
      0.0000
 11
      9.3885
 21
      8.8445
 31
      0.0000
  0
LINE
  8
1
 62
7
 10
      9.3885
 20
      8.8445
 30
      0.0000
 11
      9.2577
 21
      9.0416
 31
      0.0000
  0
LINE
  8
1
 62
7
 10
      9.2577
 20
      9.0416
 30
      0.0000
 11
      7.6366
 21
      9.1550
 31
      0.0000
  0
LINE
  8
1
 62
7
 10
     10.0120
 20
      8.8009
 30
      0.0000
 11
     11.6138
 21
      8.6889
 31
      0.0000
  0
LINE
  8
1
 62
7
 10
     11.6138
 20
      8.6889
 30
      0.0000
 11
     11.6269
 21
      8.8759
 31
      0.0000
  0
LINE
  8
1
 62
7
 10
     11.6269
 20
      8.8759
 30
      0.0000
 11
      9.8812
 21
      8.9980
 31
      0.0000
  0
LINE
  8
1
 62
7
 10
      9.8812
 20
      8.9980
 30
      0.0000
 11
     10.0120
 21
      8.8009
 31
      0.0000
  0
LINE
  8
1
 62
7
 10
      9.8245
 20
      8.1876
 30
      0.0000
 11
      9.5188
 21
      8.6481
 31
      0.0000
  0
LINE
  8
1
 62
7
 10
      9.5188
 20
      8.6481
 30
      0.0000
 11
      6.3636
 21
      8.8687
 31
      0.0000
  0
LINE
  8
1
 62
7
 10
      6.3636
 20
      8.8687
 30
      0.0000
 11
      6.2081
 21
      8.5762
 31
      0.0000
  0
LINE
  8
1
 62
7
 10
      6.2081
 20
      8.5762
 30
      0.0000
 11
      6.4898
 21
      8.4208
 31
      0.0000
  0
LINE
  8
1
 62
7
 10
      6.4898
 20
      8.4208
 30
      0.0000
 11
      9.8245
 21
      8.1876
 31
      0.0000
  0
ARC
  8
1
 62
7
 10
     10.9539
 20
      8.6638
 30
      0.0000
 40
      0.5755
 50
 281.7896
 51
 344.3980
  0
LINE
  8
1
 62
7
 10
     11.5082
 20
      8.5090
 30
      0.0000
 11
     10.4936
 21
      8.5799
 31
      0.0000
  0
LINE
  8
1
 62
7
 10
     10.4936
 20
      8.5799
 30
      0.0000
 11
     10.7993
 21
      8.1194
 31
      0.0000
  0
LINE
  8
1
 62
7
 10
     10.7993
 20
      8.1194
 30
      0.0000
 11
     11.0714
 21
      8.1004
 31
      0.0000
  0
CIRCLE
  8
1
 62
7
 10
      6.1338
 20
      9.1668
 30
      0.0000
 40
      0.0825
  0
CIRCLE
  8
1
 62
7
 10
      7.3808
 20
      9.0796
 30
      0.0000
 40
      0.0825
  0
CIRCLE
  8
1
 62
7
 10
      9.7123
 20
      9.2714
 30
      0.0000
 40
      0.0825
  0
CIRCLE
  8
1
 62
7
 10
     10.3620
 20
      9.6021
 30
      0.0000
 40
      0.0825
  0
CIRCLE
  8
1
 62
7
 10
     10.2290
 20
      7.7005
 30
      0.0000
 40
      0.0860
  0
LINE
  8
1
 62
7
 10
      4.6613
 20
      9.4296
 30
      0.0000
 11
      5.8143
 21
      8.7935
 31
      0.0000
  0
LINE
  8
1
 62
7
 10
      5.8143
 20
      8.7935
 30
      0.0000
 11
      5.9351
 21
      9.0124
 31
      0.0000
  0
LINE
  8
1
 62
7
 10
      5.9351
 20
      9.0124
 30
      0.0000
 11
      4.8237
 21
      9.6256
 31
      0.0000
  0
ARC
  8
1
 62
7
 10
      5.3116
 20
      9.0560
 30
      0.0000
 40
      0.7500
 50
  89.8140
 51
 130.5837
  0
LINE
  8
1
 62
7
 10
      5.3140
 20
      9.8060
 30
      0.0000
 11
      8.8091
 21
      9.7946
 31
      0.0000
  0
LINE
  8
1
 62
7
 10
      8.8091
 20
      9.7946
 30
      0.0000
 11
      9.5703
 21
      9.4937
 31
      0.0000
  0
ARC
  8
1
 62
7
 10
      9.7617
 20
      9.9778
 30
      0.0000
 40
      0.5207
 50
 248.4254
 51
 327.9524
  0
ARC
  8
1
 62
7
 10
     10.3620
 20
      9.6021
 30
      0.0000
 40
      0.1875
 50
  89.8138
 51
 147.9525
  0
LINE
  8
1
 62
7
 10
     10.3626
 20
      9.7896
 30
      0.0000
 11
     12.2417
 21
      9.7835
 31
      0.0000
  0
ARC
  8
1
 62
7
 10
     12.2411
 20
      9.5960
 30
      0.0000
 40
      0.1875
 50
 356.0867
 51
  89.8135
  0
ARC
  8
1
 62
7
 10
      9.8534
 20
      9.7593
 30
      0.0000
 40
      2.5808
 50
 289.2384
 51
 356.0865
  0
LINE
  8
1
 62
7
 10
     10.7038
 20
      7.3227
 30
      0.0000
 11
      4.7184
 21
      7.7412
 31
      0.0000
  0
ARC
  8
1
 62
7
 10
      4.7359
 20
      7.9906
 30
      0.0000
 40
      0.2500
 50
 176.0000
 51
 266.0000
  0
LINE
  8
1
 62
7
 10
      4.4865
 20
      8.0080
 30
      0.0000
 11
      4.4967
 21
      8.1549
 31
      0.0000
  0
LINE
  8
1
 62
7
 10
      4.4967
 20
      8.1549
 30
      0.0000
 11
      5.1507
 21
      8.6071
 31
      0.0000
  0
LINE
  8
1
 62
7
 10
      5.1507
 20
      8.6071
 30
      0.0000
 11
      4.5314
 21
      8.6504
 31
      0.0000
  0
LINE
  8
1
 62
7
 10
      4.5314
 20
      8.6504
 30
      0.0000
 11
      4.5634
 21
      9.1083
 31
      0.0000
  0
ARC
  8
1
 62
7
 10
      5.3116
 20
      9.0560
 30
      0.0000
 40
      0.7500
 50
 150.1188
 51
 176.0000
  0
TEXT
  8
251
 62
13
 10
      5.0153
 20
      8.8302
 30
      0.0000
 40
      0.3000
 1
4
  0
CIRCLE
  8
1
 62
7
 10
      4.6718
 20
      9.8147
 30
      0.0000
 40
      0.0885
  0
CIRCLE
  8
1
 62
7
 10
      4.6718
 20
      9.8147
 30
      0.0000
 40
      0.1875
  0
TEXT
  8
251
 62
13
 10
      4.5218
 20
      9.7022
 30
      0.0000
 40
      0.3000
 1
1
  0
CIRCLE
  8
1
 62
7
 10
      4.6597
 20
     11.6289
 30
      0.0000
 40
      0.0885
  0
CIRCLE
  8
1
 62
7
 10
      4.6597
 20
     11.6289
 30
      0.0000
 40
      0.1875
  0
TEXT
  8
251
 62
13
 10
      4.5097
 20
     11.5164
 30
      0.0000
 40
      0.3000
 1
1
  0
CIRCLE
  8
1
 62
7
 10
      5.5104
 20
     11.0826
 30
      0.0000
 40
      0.0885
  0
CIRCLE
  8
1
 62
7
 10
      5.5104
 20
     11.0826
 30
      0.0000
 40
      0.1875
  0
TEXT
  8
251
 62
13
 10
      5.3604
 20
     10.9701
 30
      0.0000
 40
      0.3000
 1
1
  0
LINE
  8
1
 62
7
 10
      6.2462
 20
     11.6699
 30
      0.0000
 11
      8.3087
 21
     11.6699
 31
      0.0000
  0
LINE
  8
1
 62
7
 10
      8.3087
 20
     11.6699
 30
      0.0000
 11
      8.3712
 21
     11.7949
 31
      0.0000
  0
LINE
  8
1
 62
7
 10
      8.3712
 20
     11.7949
 30
      0.0000
 11
      6.3087
 21
     11.7949
 31
      0.0000
  0
LINE
  8
1
 62
7
 10
      6.3087
 20
     11.7949
 30
      0.0000
 11
      6.2462
 21
     11.6699
 31
      0.0000
  0
LINE
  8
1
 62
7
 10
      7.7837
 20
     10.8074
 30
      0.0000
 11
      6.0353
 21
     11.6816
 31
      0.0000
  0
LINE
  8
1
 62
7
 10
      6.0353
 20
     11.6816
 30
      0.0000
 11
      5.7228
 21
     11.5566
 31
      0.0000
  0
LINE
  8
1
 62
7
 10
      5.7228
 20
     11.5566
 30
      0.0000
 11
      8.1212
 21
     10.3574
 31
      0.0000
  0
LINE
  8
1
 62
7
 10
      8.1212
 20
     10.3574
 30
      0.0000
 11
      8.4337
 21
     10.4824
 31
      0.0000
  0
LINE
  8
1
 62
7
 10
      8.4337
 20
     10.4824
 30
      0.0000
 11
      7.9337
 21
     10.7324
 31
      0.0000
  0
ARC
  8
1
 62
7
 10
      7.9337
 20
     10.9199
 30
      0.0000
 40
      0.1875
 50
 216.8698
 51
 270.0000
  0
LINE
  8
1
 62
7
 10
      5.8087
 20
     11.7949
 30
      0.0000
 11
      5.2462
 21
     11.7949
 31
      0.0000
  0
LINE
  8
1
 62
7
 10
      5.2462
 20
     11.7949
 30
      0.0000
 11
      5.4962
 21
     11.6699
 31
      0.0000
  0
LINE
  8
1
 62
7
 10
      5.4962
 20
     11.6699
 30
      0.0000
 11
      5.8087
 21
     11.7949
 31
      0.0000
  0
LINE
  8
1
 62
7
 10
      5.2462
 20
     10.7324
 30
      0.0000
 11
      5.5070
 21
     10.7324
 31
      0.0000
  0
ARC
  8
1
 62
7
 10
      5.6837
 20
     10.6699
 30
      0.0000
 40
      0.1875
 50
  19.4713
 51
 160.5288
  0
LINE
  8
1
 62
7
 10
      5.8605
 20
     10.7324
 30
      0.0000
 11
      6.9962
 21
     10.7324
 31
      0.0000
  0
LINE
  8
1
 62
7
 10
      6.9962
 20
     10.7324
 30
      0.0000
 11
      5.5559
 21
     11.4526
 31
      0.0000
  0
LINE
  8
1
 62
7
 10
      5.5559
 20
     11.4526
 30
      0.0000
 11
      5.2462
 21
     11.4526
 31
      0.0000
  0
LINE
  8
1
 62
7
 10
      5.2462
 20
     11.4526
 30
      0.0000
 11
      5.2462
 21
     10.7324
 31
      0.0000
  0
LINE
  8
1
 62
7
 10
      8.4962
 20
     10.1699
 30
      0.0000
 11
      8.8087
 21
     10.2949
 31
      0.0000
  0
LINE
  8
1
 62
7
 10
      8.8087
 20
     10.2949
 30
      0.0000
 11
      8.6212
 21
     10.3887
 31
      0.0000
  0
LINE
  8
1
 62
7
 10
      8.6212
 20
     10.3887
 30
      0.0000
 11
      8.3087
 21
     10.2637
 31
      0.0000
  0
LINE
  8
1
 62
7
 10
      8.3087
 20
     10.2637
 30
      0.0000
 11
      8.4962
 21
     10.1699
 31
      0.0000
  0
LINE
  8
1
 62
7
 10
      9.0446
 20
     11.0711
 30
      0.0000
 11
      9.5587
 21
     11.4824
 31
      0.0000
  0
LINE
  8
1
 62
7
 10
      9.5587
 20
     11.4824
 30
      0.0000
 11
      8.1212
 21
     11.0059
 31
      0.0000
  0
LINE
  8
1
 62
7
 10
      8.1212
 20
     11.0059
 30
      0.0000
 11
      8.6212
 21
     10.7324
 31
      0.0000
  0
LINE
  8
1
 62
7
 10
      8.6212
 20
     10.7324
 30
      0.0000
 11
      8.7619
 21
     10.8449
 31
      0.0000
  0
ARC
  8
1
 62
7
 10
      8.9337
 20
     10.9199
 30
      0.0000
 40
      0.1875
 50
  53.7468
 51
 203.5728
  0
CIRCLE
  8
1
 62
7
 10
      8.9337
 20
     10.9199
 30
      0.0000
 40
      0.0860
  0
ARC
  8
1
 62
7
 10
     10.7342
 20
     10.7693
 30
      0.0000
 40
      0.0625
 50
  37.0498
 51
 128.6605
  0
LINE
  8
1
 62
7
 10
     10.6952
 20
     10.8181
 30
      0.0000
 11
     10.5549
 21
     10.7059
 31
      0.0000
  0
LINE
  8
1
 62
7
 10
     10.5549
 20
     10.7059
 30
      0.0000
 11
      9.9821
 21
     10.6105
 31
      0.0000
  0
LINE
  8
1
 62
7
 10
      9.9821
 20
     10.6105
 30
      0.0000
 11
      9.1209
 21
     10.9087
 31
      0.0000
  0
ARC
  8
1
 62
7
 10
      8.9337
 20
     10.9199
 30
      0.0000
 40
      0.1875
 50
 295.9756
 51
 356.5755
  0
LINE
  8
1
 62
7
 10
      9.0159
 20
     10.7514
 30
      0.0000
 11
      8.9324
 21
     10.5622
 31
      0.0000
  0
LINE
  8
1
 62
7
 10
      8.9324
 20
     10.5622
 30
      0.0000
 11
      9.9821
 21
     10.1988
 31
      0.0000
  0
LINE
  8
1
 62
7
 10
      9.9821
 20
     10.1988
 30
      0.0000
 11
     10.8712
 21
     10.3105
 31
      0.0000
  0
LINE
  8
1
 62
7
 10
     10.8712
 20
     10.3105
 30
      0.0000
 11
     11.2462
 21
     10.6105
 31
      0.0000
  0
LINE
  8
1
 62
7
 10
     11.2462
 20
     10.6105
 30
      0.0000
 11
     11.1294
 21
     10.7566
 31
      0.0000
  0
ARC
  8
1
 62
7
 10
     11.0806
 20
     10.7176
 30
      0.0000
 40
      0.0625
 50
  38.6598
 51
 125.9673
  0
ARC
  8
1
 62
7
 10
     10.9337
 20
     10.9199
 30
      0.0000
 40
      0.1875
 50
 217.0486
 51
 305.9674
  0
LINE
  8
1
 62
7
 10
      8.6837
 20
     10.0762
 30
      0.0000
 11
      9.2462
 21
     10.0762
 31
      0.0000
  0
LINE
  8
1
 62
7
 10
      9.2462
 20
     10.0762
 30
      0.0000
 11
      8.9962
 21
     10.2012
 31
      0.0000
  0
LINE
  8
1
 62
7
 10
      8.9962
 20
     10.2012
 30
      0.0000
 11
      8.6837
 21
     10.0762
 31
      0.0000
  0
CIRCLE
  8
1
 62
7
 10
      7.9337
 20
     10.9199
 30
      0.0000
 40
      0.0860
  0
CIRCLE
  8
1
 62
7
 10
     11.4337
 20
     10.9194
 30
      0.0000
 40
      0.0860
  0
CIRCLE
  8
1
 62
7
 10
      5.6837
 20
     10.6699
 30
      0.0000
 40
      0.0860
  0
POINT
  8
1
 62
7
 10
     10.9300
 20
     11.0058
 30
      0.0000
  0
POINT
  8
1
 62
7
 10
     10.9299
 20
     11.0059
 30
      0.0000
  0
CIRCLE
  8
1
 62
7
 10
     10.9337
 20
     10.9199
 30
      0.0000
 40
      0.0860
  0
LINE
  8
1
 62
7
 10
     12.4337
 20
     10.3799
 30
      0.0000
 11
     12.4337
 21
      9.8574
 31
      0.0000
  0
LINE
  8
1
 62
7
 10
     12.4337
 20
      9.8574
 30
      0.0000
 11
      5.1837
 21
      9.8574
 31
      0.0000
  0
ARC
  8
1
 62
7
 10
      5.1837
 20
     10.2324
 30
      0.0000
 40
      0.3750
 50
 180.0000
 51
 270.0000
  0
LINE
  8
1
 62
7
 10
      4.8087
 20
     10.2324
 30
      0.0000
 11
      4.8087
 21
     11.4199
 31
      0.0000
  0
LINE
  8
1
 62
7
 10
      4.8087
 20
     11.4199
 30
      0.0000
 11
      5.2462
 21
     11.9199
 31
      0.0000
  0
LINE
  8
1
 62
7
 10
      5.2462
 20
     11.9199
 30
      0.0000
 11
     12.4337
 21
     11.9199
 31
      0.0000
  0
LINE
  8
1
 62
7
 10
     12.4337
 20
     11.9199
 30
      0.0000
 11
     12.4337
 21
     11.7949
 31
      0.0000
  0
LINE
  8
1
 62
7
 10
     12.4337
 20
     11.7949
 30
      0.0000
 11
     11.9162
 21
     11.7949
 31
      0.0000
  0
LINE
  8
1
 62
7
 10
     11.9162
 20
     11.7949
 30
      0.0000
 11
     11.2462
 21
     11.2590
 31
      0.0000
  0
LINE
  8
1
 62
7
 10
     11.2462
 20
     11.2590
 30
      0.0000
 11
     11.3304
 21
     11.1538
 31
      0.0000
  0
ARC
  8
1
 62
7
 10
     11.4280
 20
     11.2319
 30
      0.0000
 40
      0.1250
 50
 218.6598
 51
 271.0540
  0
ARC
  8
1
 62
7
 10
     11.4337
 20
     10.9194
 30
      0.0000
 40
      0.1875
 50
   1.7360
 51
  91.0541
  0
LINE
  8
1
 62
7
 10
     11.6211
 20
     10.9251
 30
      0.0000
 11
     12.4337
 21
     11.5752
 31
      0.0000
  0
LINE
  8
1
 62
7
 10
     12.4337
 20
     11.5752
 30
      0.0000
 11
     12.4337
 21
     10.8766
 31
      0.0000
  0
LINE
  8
1
 62
7
 10
     12.4337
 20
     10.8766
 30
      0.0000
 11
     11.8129
 21
     10.3799
 31
      0.0000
  0
LINE
  8
1
 62
7
 10
     11.8129
 20
     10.3799
 30
      0.0000
 11
     12.4337
 21
     10.3799
 31
      0.0000
  0
TEXT
  8
251
 62
13
 10
     12.1337
 20
      9.9687
 30
      0.0000
 40
      0.3000
 1
3
  0
CIRCLE
  8
1
 62
7
 10
     12.3393
 20
      0.4514
 30
      0.0000
 40
      0.0885
  0
CIRCLE
  8
1
 62
7
 10
     12.3393
 20
      0.4514
 30
      0.0000
 40
      0.1875
  0
TEXT
  8
251
 62
13
 10
     12.1893
 20
      0.3389
 30
      0.0000
 40
      0.3000
 1
1
  0
CIRCLE
  8
1
 62
7
 10
     12.6529
 20
      0.8463
 30
      0.0000
 40
      0.0885
  0
CIRCLE
  8
1
 62
7
 10
     12.6529
 20
      0.8463
 30
      0.0000
 40
      0.2500
  0
TEXT
  8
251
 62
13
 10
     12.5029
 20
      0.7963
 30
      0.0000
 40
      0.3000
 1
2
  0
CIRCLE
  8
1
 62
7
 10
     12.6649
 20
      1.4063
 30
      0.0000
 40
      0.0885
  0
CIRCLE
  8
1
 62
7
 10
     12.6649
 20
      1.4063
 30
      0.0000
 40
      0.2500
  0
TEXT
  8
251
 62
13
 10
     12.5149
 20
      1.3563
 30
      0.0000
 40
      0.3000
 1
2
  0
CIRCLE
  8
1
 62
7
 10
     12.7349
 20
      1.9743
 30
      0.0000
 40
      0.0885
  0
CIRCLE
  8
1
 62
7
 10
     12.7349
 20
      1.9743
 30
      0.0000
 40
      0.2500
  0
TEXT
  8
251
 62
13
 10
     12.5849
 20
      1.9243
 30
      0.0000
 40
      0.3000
 1
2
  0
CIRCLE
  8
1
 62
7
 10
     12.5848
 20
      2.5378
 30
      0.0000
 40
      0.0885
  0
CIRCLE
  8
1
 62
7
 10
     12.5848
 20
      2.5378
 30
      0.0000
 40
      0.2500
  0
TEXT
  8
251
 62
13
 10
     12.4348
 20
      2.4878
 30
      0.0000
 40
      0.3000
 1
2
  0
CIRCLE
  8
1
 62
7
 10
     12.6599
 20
      3.1162
 30
      0.0000
 40
      0.0885
  0
CIRCLE
  8
1
 62
7
 10
     12.6599
 20
      3.1162
 30
      0.0000
 40
      0.2500
  0
TEXT
  8
251
 62
13
 10
     12.5099
 20
      3.0662
 30
      0.0000
 40
      0.3000
 1
2
  0
CIRCLE
  8
1
 62
7
 10
     12.4217
 20
      3.6292
 30
      0.0000
 40
      0.0885
  0
CIRCLE
  8
1
 62
7
 10
     12.4217
 20
      3.6292
 30
      0.0000
 40
      0.2500
  0
TEXT
  8
251
 62
13
 10
     12.2717
 20
      3.5792
 30
      0.0000
 40
      0.3000
 1
2
  0
CIRCLE
  8
1
 62
7
 10
     12.6265
 20
      4.1695
 30
      0.0000
 40
      0.0885
  0
CIRCLE
  8
1
 62
7
 10
     12.6265
 20
      4.1695
 30
      0.0000
 40
      0.2500
  0
TEXT
  8
251
 62
13
 10
     12.4765
 20
      4.1195
 30
      0.0000
 40
      0.3000
 1
2
  0
CIRCLE
  8
1
 62
7
 10
     12.9912
 20
      0.4780
 30
      0.0000
 40
      0.0885
  0
CIRCLE
  8
1
 62
7
 10
     12.9912
 20
      0.4780
 30
      0.0000
 40
      0.1875
  0
TEXT
  8
251
 62
13
 10
     12.8412
 20
      0.3655
 30
      0.0000
 40
      0.3000
 1
1
  0
CIRCLE
  8
1
 62
7
 10
     13.2123
 20
      0.9539
 30
      0.0000
 40
      0.0885
  0
CIRCLE
  8
1
 62
7
 10
     13.2123
 20
      0.9539
 30
      0.0000
 40
      0.2500
  0
TEXT
  8
251
 62
13
 10
     13.0623
 20
      0.9039
 30
      0.0000
 40
      0.3000
 1
2
  0
CIRCLE
  8
1
 62
7
 10
     13.2219
 20
      1.5132
 30
      0.0000
 40
      0.0885
  0
CIRCLE
  8
1
 62
7
 10
     13.2219
 20
      1.5132
 30
      0.0000
 40
      0.2500
  0
TEXT
  8
251
 62
13
 10
     13.0719
 20
      1.4632
 30
      0.0000
 40
      0.3000
 1
2
  0
CIRCLE
  8
1
 62
7
 10
     13.4290
 20
      0.4519
 30
      0.0000
 40
      0.0885
  0
CIRCLE
  8
1
 62
7
 10
     13.4290
 20
      0.4519
 30
      0.0000
 40
      0.1875
  0
TEXT
  8
251
 62
13
 10
     13.2790
 20
      0.3394
 30
      0.0000
 40
      0.3000
 1
1
  0
CIRCLE
  8
1
 62
7
 10
     13.2908
 20
      2.0797
 30
      0.0000
 40
      0.0885
  0
CIRCLE
  8
1
 62
7
 10
     13.2908
 20
      2.0797
 30
      0.0000
 40
      0.2500
  0
TEXT
  8
251
 62
13
 10
     13.1408
 20
      2.0297
 30
      0.0000
 40
      0.3000
 1
2
  0
CIRCLE
  8
1
 62
7
 10
     13.1477
 20
      2.6328
 30
      0.0000
 40
      0.0885
  0
CIRCLE
  8
1
 62
7
 10
     13.1477
 20
      2.6328
 30
      0.0000
 40
      0.2500
  0
TEXT
  8
251
 62
13
 10
     12.9977
 20
      2.5828
 30
      0.0000
 40
      0.3000
 1
2
  0
CIRCLE
  8
1
 62
7
 10
     13.2295
 20
      3.2188
 30
      0.0000
 40
      0.0885
  0
CIRCLE
  8
1
 62
7
 10
     13.2295
 20
      3.2188
 30
      0.0000
 40
      0.2500
  0
TEXT
  8
251
 62
13
 10
     13.0795
 20
      3.1688
 30
      0.0000
 40
      0.3000
 1
2
  0
CIRCLE
  8
1
 62
7
 10
     12.9943
 20
      3.7290
 30
      0.0000
 40
      0.0885
  0
CIRCLE
  8
1
 62
7
 10
     12.9943
 20
      3.7290
 30
      0.0000
 40
      0.2500
  0
TEXT
  8
251
 62
13
 10
     12.8443
 20
      3.6790
 30
      0.0000
 40
      0.3000
 1
2
  0
CIRCLE
  8
1
 62
7
 10
     13.2312
 20
      5.0000
 30
      0.0000
 40
      0.0885
  0
CIRCLE
  8
1
 62
7
 10
     13.2312
 20
      5.0000
 30
      0.0000
 40
      0.1875
  0
TEXT
  8
251
 62
13
 10
     13.0812
 20
      4.8875
 30
      0.0000
 40
      0.3000
 1
1
  0
CIRCLE
  8
1
 62
7
 10
     13.7111
 20
      0.7863
 30
      0.0000
 40
      0.0885
  0
CIRCLE
  8
1
 62
7
 10
     13.7111
 20
      0.7863
 30
      0.0000
 40
      0.1875
  0
TEXT
  8
251
 62
13
 10
     13.5611
 20
      0.6738
 30
      0.0000
 40
      0.3000
 1
1
  0
CIRCLE
  8
1
 62
7
 10
     13.6451
 20
      1.2287
 30
      0.0000
 40
      0.0885
  0
CIRCLE
  8
1
 62
7
 10
     13.6451
 20
      1.2287
 30
      0.0000
 40
      0.1875
  0
TEXT
  8
251
 62
13
 10
     13.4951
 20
      1.1162
 30
      0.0000
 40
      0.3000
 1
1
  0
CIRCLE
  8
1
 62
7
 10
     13.9566
 20
      0.4168
 30
      0.0000
 40
      0.0885
  0
CIRCLE
  8
1
 62
7
 10
     13.9566
 20
      0.4168
 30
      0.0000
 40
      0.1875
  0
TEXT
  8
251
 62
13
 10
     13.8066
 20
      0.3043
 30
      0.0000
 40
      0.3000
 1
1
  0
CIRCLE
  8
1
 62
7
 10
     13.7651
 20
      1.7383
 30
      0.0000
 40
      0.0885
  0
CIRCLE
  8
1
 62
7
 10
     13.7651
 20
      1.7383
 30
      0.0000
 40
      0.2500
  0
TEXT
  8
251
 62
13
 10
     13.6151
 20
      1.6883
 30
      0.0000
 40
      0.3000
 1
2
  0
CIRCLE
  8
1
 62
7
 10
     13.8200
 20
      2.3261
 30
      0.0000
 40
      0.0885
  0
CIRCLE
  8
1
 62
7
 10
     13.8200
 20
      2.3261
 30
      0.0000
 40
      0.2500
  0
TEXT
  8
251
 62
13
 10
     13.6700
 20
      2.2761
 30
      0.0000
 40
      0.3000
 1
2
  0
CIRCLE
  8
1
 62
7
 10
     13.6835
 20
      2.8667
 30
      0.0000
 40
      0.0885
  0
CIRCLE
  8
1
 62
7
 10
     13.6835
 20
      2.8667
 30
      0.0000
 40
      0.2500
  0
TEXT
  8
251
 62
13
 10
     13.5335
 20
      2.8167
 30
      0.0000
 40
      0.3000
 1
2
  0
CIRCLE
  8
1
 62
7
 10
     13.5092
 20
      3.9635
 30
      0.0000
 40
      0.0885
  0
CIRCLE
  8
1
 62
7
 10
     13.5092
 20
      3.9635
 30
      0.0000
 40
      0.2500
  0
TEXT
  8
251
 62
13
 10
     13.3592
 20
      3.9135
 30
      0.0000
 40
      0.3000
 1
2
  0
CIRCLE
  8
1
 62
7
 10
     13.7520
 20
      3.4544
 30
      0.0000
 40
      0.0885
  0
CIRCLE
  8
1
 62
7
 10
     13.7520
 20
      3.4544
 30
      0.0000
 40
      0.2500
  0
TEXT
  8
251
 62
13
 10
     13.6020
 20
      3.4044
 30
      0.0000
 40
      0.3000
 1
2
  0
CIRCLE
  8
1
 62
7
 10
     14.1474
 20
      0.9071
 30
      0.0000
 40
      0.0885
  0
CIRCLE
  8
1
 62
7
 10
     14.1474
 20
      0.9071
 30
      0.0000
 40
      0.1875
  0
TEXT
  8
251
 62
13
 10
     13.9974
 20
      0.7946
 30
      0.0000
 40
      0.3000
 1
1
  0
CIRCLE
  8
1
 62
7
 10
     14.0812
 20
      1.3349
 30
      0.0000
 40
      0.0885
  0
CIRCLE
  8
1
 62
7
 10
     14.0812
 20
      1.3349
 30
      0.0000
 40
      0.1875
  0
TEXT
  8
251
 62
13
 10
     13.9312
 20
      1.2224
 30
      0.0000
 40
      0.3000
 1
1
  0
CIRCLE
  8
1
 62
7
 10
     14.3932
 20
      0.5219
 30
      0.0000
 40
      0.0885
  0
CIRCLE
  8
1
 62
7
 10
     14.3932
 20
      0.5219
 30
      0.0000
 40
      0.1875
  0
TEXT
  8
251
 62
13
 10
     14.2432
 20
      0.4094
 30
      0.0000
 40
      0.3000
 1
1
  0
CIRCLE
  8
1
 62
7
 10
     14.2633
 20
      1.7643
 30
      0.0000
 40
      0.0885
  0
CIRCLE
  8
1
 62
7
 10
     14.2633
 20
      1.7643
 30
      0.0000
 40
      0.1875
  0
TEXT
  8
251
 62
13
 10
     14.1133
 20
      1.6518
 30
      0.0000
 40
      0.3000
 1
1
  0
CIRCLE
  8
1
 62
7
 10
     14.3210
 20
      2.2172
 30
      0.0000
 40
      0.0885
  0
CIRCLE
  8
1
 62
7
 10
     14.3210
 20
      2.2172
 30
      0.0000
 40
      0.1875
  0
TEXT
  8
251
 62
13
 10
     14.1710
 20
      2.1047
 30
      0.0000
 40
      0.3000
 1
1
  0
CIRCLE
  8
1
 62
7
 10
     14.2499
 20
      2.7419
 30
      0.0000
 40
      0.0885
  0
CIRCLE
  8
1
 62
7
 10
     14.2499
 20
      2.7419
 30
      0.0000
 40
      0.2500
  0
TEXT
  8
251
 62
13
 10
     14.0999
 20
      2.6919
 30
      0.0000
 40
      0.3000
 1
2
  0
CIRCLE
  8
1
 62
7
 10
     14.2927
 20
      3.3121
 30
      0.0000
 40
      0.0885
  0
CIRCLE
  8
1
 62
7
 10
     14.2927
 20
      3.3121
 30
      0.0000
 40
      0.2500
  0
TEXT
  8
251
 62
13
 10
     14.1427
 20
      3.2621
 30
      0.0000
 40
      0.3000
 1
2
  0
CIRCLE
  8
1
 62
7
 10
     14.0750
 20
      3.9659
 30
      0.0000
 40
      0.0885
  0
CIRCLE
  8
1
 62
7
 10
     14.0750
 20
      3.9659
 30
      0.0000
 40
      0.2500
  0
TEXT
  8
251
 62
13
 10
     13.9250
 20
      3.9159
 30
      0.0000
 40
      0.3000
 1
2
  0
LINE
  8
1
 62
7
 10
     12.7462
 20
      5.7324
 30
      0.0000
 11
     12.7462
 21
      7.7949
 31
      0.0000
  0
LINE
  8
1
 62
7
 10
     12.7462
 20
      7.7949
 30
      0.0000
 11
     12.6212
 21
      7.8574
 31
      0.0000
  0
LINE
  8
1
 62
7
 10
     12.6212
 20
      7.8574
 30
      0.0000
 11
     12.6212
 21
      5.7949
 31
      0.0000
  0
LINE
  8
1
 62
7
 10
     12.6212
 20
      5.7949
 30
      0.0000
 11
     12.7462
 21
      5.7324
 31
      0.0000
  0
LINE
  8
1
 62
7
 10
     13.6087
 20
      7.2699
 30
      0.0000
 11
     12.7345
 21
      5.5215
 31
      0.0000
  0
LINE
  8
1
 62
7
 10
     12.7345
 20
      5.5215
 30
      0.0000
 11
     12.8595
 21
      5.2090
 31
      0.0000
  0
LINE
  8
1
 62
7
 10
     12.8595
 20
      5.2090
 30
      0.0000
 11
     14.0587
 21
      7.6074
 31
      0.0000
  0
LINE
  8
1
 62
7
 10
     14.0587
 20
      7.6074
 30
      0.0000
 11
     13.9337
 21
      7.9199
 31
      0.0000
  0
LINE
  8
1
 62
7
 10
     13.9337
 20
      7.9199
 30
      0.0000
 11
     13.6837
 21
      7.4199
 31
      0.0000
  0
ARC
  8
1
 62
7
 10
     13.4962
 20
      7.4199
 30
      0.0000
 40
      0.1875
 50
 306.8698
 51
 360.0000
  0
LINE
  8
1
 62
7
 10
     12.6212
 20
      5.2949
 30
      0.0000
 11
     12.6212
 21
      4.7324
 31
      0.0000
  0
LINE
  8
1
 62
7
 10
     12.6212
 20
      4.7324
 30
      0.0000
 11
     12.7462
 21
      4.9824
 31
      0.0000
  0
LINE
  8
1
 62
7
 10
     12.7462
 20
      4.9824
 30
      0.0000
 11
     12.6212
 21
      5.2949
 31
      0.0000
  0
LINE
  8
1
 62
7
 10
     13.6837
 20
      4.7324
 30
      0.0000
 11
     13.6837
 21
      4.9931
 31
      0.0000
  0
ARC
  8
1
 62
7
 10
     13.7462
 20
      5.1699
 30
      0.0000
 40
      0.1875
 50
 109.4713
 51
 250.5288
  0
LINE
  8
1
 62
7
 10
     13.6837
 20
      5.3467
 30
      0.0000
 11
     13.6837
 21
      6.4824
 31
      0.0000
  0
LINE
  8
1
 62
7
 10
     13.6837
 20
      6.4824
 30
      0.0000
 11
     12.9636
 21
      5.0421
 31
      0.0000
  0
LINE
  8
1
 62
7
 10
     12.9636
 20
      5.0421
 30
      0.0000
 11
     12.9636
 21
      4.7324
 31
      0.0000
  0
LINE
  8
1
 62
7
 10
     12.9636
 20
      4.7324
 30
      0.0000
 11
     13.6837
 21
      4.7324
 31
      0.0000
  0
LINE
  8
1
 62
7
 10
     14.2462
 20
      7.9824
 30
      0.0000
 11
     14.1212
 21
      8.2949
 31
      0.0000
  0
LINE
  8
1
 62
7
 10
     14.1212
 20
      8.2949
 30
      0.0000
 11
     14.0275
 21
      8.1074
 31
      0.0000
  0
LINE
  8
1
 62
7
 10
     14.0275
 20
      8.1074
 30
      0.0000
 11
     14.1525
 21
      7.7949
 31
      0.0000
  0
LINE
  8
1
 62
7
 10
     14.1525
 20
      7.7949
 30
      0.0000
 11
     14.2462
 21
      7.9824
 31
      0.0000
  0
LINE
  8
1
 62
7
 10
     13.3450
 20
      8.5308
 30
      0.0000
 11
     12.9337
 21
      9.0449
 31
      0.0000
  0
LINE
  8
1
 62
7
 10
     12.9337
 20
      9.0449
 30
      0.0000
 11
     13.4102
 21
      7.6074
 31
      0.0000
  0
LINE
  8
1
 62
7
 10
     13.4102
 20
      7.6074
 30
      0.0000
 11
     13.6837
 21
      8.1074
 31
      0.0000
  0
LINE
  8
1
 62
7
 10
     13.6837
 20
      8.1074
 30
      0.0000
 11
     13.5712
 21
      8.2481
 31
      0.0000
  0
ARC
  8
1
 62
7
 10
     13.4962
 20
      8.4199
 30
      0.0000
 40
      0.1875
 50
 143.7470
 51
 293.5723
  0
CIRCLE
  8
1
 62
7
 10
     13.4962
 20
      8.4199
 30
      0.0000
 40
      0.0860
  0
ARC
  8
1
 62
7
 10
     13.6469
 20
     10.2204
 30
      0.0000
 40
      0.0625
 50
 127.0498
 51
 218.6599
  0
LINE
  8
1
 62
7
 10
     13.5981
 20
     10.1813
 30
      0.0000
 11
     13.7102
 21
     10.0411
 31
      0.0000
  0
LINE
  8
1
 62
7
 10
     13.7102
 20
     10.0411
 30
      0.0000
 11
     13.8056
 21
      9.4683
 31
      0.0000
  0
LINE
  8
1
 62
7
 10
     13.8056
 20
      9.4683
 30
      0.0000
 11
     13.5074
 21
      8.6071
 31
      0.0000
  0
ARC
  8
1
 62
7
 10
     13.4962
 20
      8.4199
 30
      0.0000
 40
      0.1875
 50
  25.9753
 51
  86.5752
  0
LINE
  8
1
 62
7
 10
     13.6648
 20
      8.5020
 30
      0.0000
 11
     13.8540
 21
      8.4186
 31
      0.0000
  0
LINE
  8
1
 62
7
 10
     13.8540
 20
      8.4186
 30
      0.0000
 11
     14.2174
 21
      9.4683
 31
      0.0000
  0
LINE
  8
1
 62
7
 10
     14.2174
 20
      9.4683
 30
      0.0000
 11
     14.1056
 21
     10.3574
 31
      0.0000
  0
LINE
  8
1
 62
7
 10
     14.1056
 20
     10.3574
 30
      0.0000
 11
     13.8056
 21
     10.7324
 31
      0.0000
  0
LINE
  8
1
 62
7
 10
     13.8056
 20
     10.7324
 30
      0.0000
 11
     13.6595
 21
     10.6156
 31
      0.0000
  0
ARC
  8
1
 62
7
 10
     13.6986
 20
     10.5668
 30
      0.0000
 40
      0.0625
 50
 128.6599
 51
 215.9666
  0
ARC
  8
1
 62
7
 10
     13.4962
 20
     10.4199
 30
      0.0000
 40
      0.1875
 50
 307.0488
 51
  35.9677
  0
LINE
  8
1
 62
7
 10
     14.3400
 20
      8.1699
 30
      0.0000
 11
     14.3400
 21
      8.7324
 31
      0.0000
  0
LINE
  8
1
 62
7
 10
     14.3400
 20
      8.7324
 30
      0.0000
 11
     14.2150
 21
      8.4824
 31
      0.0000
  0
LINE
  8
1
 62
7
 10
     14.2150
 20
      8.4824
 30
      0.0000
 11
     14.3400
 21
      8.1699
 31
      0.0000
  0
CIRCLE
  8
1
 62
7
 10
     13.4962
 20
      7.4199
 30
      0.0000
 40
      0.0860
  0
CIRCLE
  8
1
 62
7
 10
     13.4967
 20
     10.9199
 30
      0.0000
 40
      0.0860
  0
CIRCLE
  8
1
 62
7
 10
     13.7462
 20
      5.1699
 30
      0.0000
 40
      0.0860
  0
POINT
  8
1
 62
7
 10
     13.4103
 20
     10.4162
 30
      0.0000
  0
POINT
  8
1
 62
7
 10
     13.4102
 20
     10.4161
 30
      0.0000
  0
CIRCLE
  8
1
 62
7
 10
     13.4962
 20
     10.4199
 30
      0.0000
 40
      0.0860
  0
LINE
  8
1
 62
7
 10
     14.0362
 20
     11.9199
 30
      0.0000
 11
     14.5587
 21
     11.9199
 31
      0.0000
  0
LINE
  8
1
 62
7
 10
     14.5587
 20
     11.9199
 30
      0.0000
 11
     14.5587
 21
      4.6699
 31
      0.0000
  0
ARC
  8
1
 62
7
 10
     14.1837
 20
      4.6699
 30
      0.0000
 40
      0.3750
 50
 270.0000
 51
 360.0000
  0
LINE
  8
1
 62
7
 10
     14.1837
 20
      4.2949
 30
      0.0000
 11
     12.9962
 21
      4.2949
 31
      0.0000
  0
LINE
  8
1
 62
7
 10
     12.9962
 20
      4.2949
 30
      0.0000
 11
     12.4962
 21
      4.7324
 31
      0.0000
  0
LINE
  8
1
 62
7
 10
     12.4962
 20
      4.7324
 30
      0.0000
 11
     12.4962
 21
     11.9199
 31
      0.0000
  0
LINE
  8
1
 62
7
 10
     12.4962
 20
     11.9199
 30
      0.0000
 11
     12.6212
 21
     11.9199
 31
      0.0000
  0
LINE
  8
1
 62
7
 10
     12.6212
 20
     11.9199
 30
      0.0000
 11
     12.6212
 21
     11.4024
 31
      0.0000
  0
LINE
  8
1
 62
7
 10
     12.6212
 20
     11.4024
 30
      0.0000
 11
     13.1572
 21
     10.7324
 31
      0.0000
  0
LINE
  8
1
 62
7
 10
     13.1572
 20
     10.7324
 30
      0.0000
 11
     13.2624
 21
     10.8166
 31
      0.0000
  0
ARC
  8
1
 62
7
 10
     13.1843
 20
     10.9142
 30
      0.0000
 40
      0.1250
 50
 308.6601
 51
   1.0544
  0
ARC
  8
1
 62
7
 10
     13.4967
 20
     10.9199
 30
      0.0000
 40
      0.1875
 50
  91.7357
 51
 181.0544
  0
LINE
  8
1
 62
7
 10
     13.4910
 20
     11.1073
 30
      0.0000
 11
     12.8410
 21
     11.9199
 31
      0.0000
  0
LINE
  8
1
 62
7
 10
     12.8410
 20
     11.9199
 30
      0.0000
 11
     13.5395
 21
     11.9199
 31
      0.0000
  0
LINE
  8
1
 62
7
 10
     13.5395
 20
     11.9199
 30
      0.0000
 11
     14.0362
 21
     11.2990
 31
      0.0000
  0
LINE
  8
1
 62
7
 10
     14.0362
 20
     11.2990
 30
      0.0000
 11
     14.0362
 21
     11.9199
 31
      0.0000
  0
TEXT
  8
251
 62
13
 10
     14.1475
 20
     11.6199
 30
      0.0000
 40
      0.3000
 1
3
  0
CIRCLE
  8
1
 62
7
 10
     14.7394
 20
      0.2500
 30
      0.0000
 40
      0.0885
  0
CIRCLE
  8
1
 62
7
 10
     14.7394
 20
      0.2500
 30
      0.0000
 40
      0.1875
  0
TEXT
  8
251
 62
13
 10
     14.5894
 20
      0.1375
 30
      0.0000
 40
      0.3000
 1
1
  0
CIRCLE
  8
1
 62
7
 10
     14.5806
 20
      0.9629
 30
      0.0000
 40
      0.0885
  0
CIRCLE
  8
1
 62
7
 10
     14.5806
 20
      0.9629
 30
      0.0000
 40
      0.1875
  0
TEXT
  8
251
 62
13
 10
     14.4306
 20
      0.8504
 30
      0.0000
 40
      0.3000
 1
1
  0
CIRCLE
  8
1
 62
7
 10
     14.5168
 20
      1.3991
 30
      0.0000
 40
      0.0885
  0
CIRCLE
  8
1
 62
7
 10
     14.5168
 20
      1.3991
 30
      0.0000
 40
      0.1875
  0
TEXT
  8
251
 62
13
 10
     14.3668
 20
      1.2866
 30
      0.0000
 40
      0.3000
 1
1
  0
CIRCLE
  8
1
 62
7
 10
     14.6788
 20
      1.9569
 30
      0.0000
 40
      0.0885
  0
CIRCLE
  8
1
 62
7
 10
     14.6788
 20
      1.9569
 30
      0.0000
 40
      0.1875
  0
TEXT
  8
251
 62
13
 10
     14.5288
 20
      1.8444
 30
      0.0000
 40
      0.3000
 1
1
  0
CIRCLE
  8
1
 62
7
 10
     14.6868
 20
      2.4750
 30
      0.0000
 40
      0.0885
  0
CIRCLE
  8
1
 62
7
 10
     14.6868
 20
      2.4750
 30
      0.0000
 40
      0.1875
  0
TEXT
  8
251
 62
13
 10
     14.5368
 20
      2.3625
 30
      0.0000
 40
      0.3000
 1
1
  0
CIRCLE
  8
1
 62
7
 10
     14.6897
 20
      2.9817
 30
      0.0000
 40
      0.0885
  0
CIRCLE
  8
1
 62
7
 10
     14.6897
 20
      2.9817
 30
      0.0000
 40
      0.1875
  0
TEXT
  8
251
 62
13
 10
     14.5397
 20
      2.8692
 30
      0.0000
 40
      0.3000
 1
1
  0
CIRCLE
  8
1
 62
7
 10
     14.5510
 20
      3.7684
 30
      0.0000
 40
      0.0885
  0
CIRCLE
  8
1
 62
7
 10
     14.5510
 20
      3.7684
 30
      0.0000
 40
      0.1875
  0
TEXT
  8
251
 62
13
 10
     14.4010
 20
      3.6559
 30
      0.0000
 40
      0.3000
 1
1
  0
CIRCLE
  8
1
 62
7
 10
     14.5984
 20
      4.2024
 30
      0.0000
 40
      0.0885
  0
CIRCLE
  8
1
 62
7
 10
     14.5984
 20
      4.2024
 30
      0.0000
 40
      0.1875
  0
TEXT
  8
251
 62
13
 10
     14.4484
 20
      4.0899
 30
      0.0000
 40
      0.3000
 1
1
  0
CIRCLE
  8
1
 62
7
 10
     14.9123
 20
      0.6783
 30
      0.0000
 40
      0.0885
  0
CIRCLE
  8
1
 62
7
 10
     14.9123
 20
      0.6783
 30
      0.0000
 40
      0.1875
  0
TEXT
  8
251
 62
13
 10
     14.7623
 20
      0.5658
 30
      0.0000
 40
      0.3000
 1
1
  0
CIRCLE
  8
1
 62
7
 10
     15.1769
 20
      0.3127
 30
      0.0000
 40
      0.0885
  0
CIRCLE
  8
1
 62
7
 10
     15.1769
 20
      0.3127
 30
      0.0000
 40
      0.1875
  0
TEXT
  8
251
 62
13
 10
     15.0269
 20
      0.2002
 30
      0.0000
 40
      0.3000
 1
1
  0
CIRCLE
  8
1
 62
7
 10
     15.0107
 20
      1.1355
 30
      0.0000
 40
      0.0885
  0
CIRCLE
  8
1
 62
7
 10
     15.0107
 20
      1.1355
 30
      0.0000
 40
      0.1875
  0
TEXT
  8
251
 62
13
 10
     14.8607
 20
      1.0230
 30
      0.0000
 40
      0.3000
 1
1
  0
CIRCLE
  8
1
 62
7
 10
     14.9327
 20
      1.5816
 30
      0.0000
 40
      0.0885
  0
CIRCLE
  8
1
 62
7
 10
     14.9327
 20
      1.5816
 30
      0.0000
 40
      0.1875
  0
TEXT
  8
251
 62
13
 10
     14.7827
 20
      1.4691
 30
      0.0000
 40
      0.3000
 1
1
  0
CIRCLE
  8
1
 62
7
 10
     14.8116
 20
      3.4104
 30
      0.0000
 40
      0.0885
  0
CIRCLE
  8
1
 62
7
 10
     14.8116
 20
      3.4104
 30
      0.0000
 40
      0.1875
  0
TEXT
  8
251
 62
13
 10
     14.6616
 20
      3.2979
 30
      0.0000
 40
      0.3000
 1
1
  0
CIRCLE
  8
1
 62
7
 10
     15.0631
 20
      2.2107
 30
      0.0000
 40
      0.0885
  0
CIRCLE
  8
1
 62
7
 10
     15.0631
 20
      2.2107
 30
      0.0000
 40
      0.1875
  0
TEXT
  8
251
 62
13
 10
     14.9131
 20
      2.0982
 30
      0.0000
 40
      0.3000
 1
1
  0
CIRCLE
  8
1
 62
7
 10
     15.0677
 20
      2.7326
 30
      0.0000
 40
      0.0885
  0
CIRCLE
  8
1
 62
7
 10
     15.0677
 20
      2.7326
 30
      0.0000
 40
      0.1875
  0
TEXT
  8
251
 62
13
 10
     14.9177
 20
      2.6201
 30
      0.0000
 40
      0.3000
 1
1
  0
CIRCLE
  8
1
 62
7
 10
     14.9672
 20
      3.9447
 30
      0.0000
 40
      0.0885
  0
CIRCLE
  8
1
 62
7
 10
     14.9672
 20
      3.9447
 30
      0.0000
 40
      0.1875
  0
TEXT
  8
251
 62
13
 10
     14.8172
 20
      3.8322
 30
      0.0000
 40
      0.3000
 1
1
  0
CIRCLE
  8
1
 62
7
 10
     14.8052
 20
      4.6258
 30
      0.0000
 40
      0.0885
  0
CIRCLE
  8
1
 62
7
 10
     14.8052
 20
      4.6258
 30
      0.0000
 40
      0.1875
  0
TEXT
  8
251
 62
13
 10
     14.6552
 20
      4.5133
 30
      0.0000
 40
      0.3000
 1
1
  0
CIRCLE
  8
1
 62
7
 10
     14.8056
 20
      5.0635
 30
      0.0000
 40
      0.0885
  0
CIRCLE
  8
1
 62
7
 10
     14.8056
 20
      5.0635
 30
      0.0000
 40
      0.1875
  0
TEXT
  8
251
 62
13
 10
     14.6556
 20
      4.9510
 30
      0.0000
 40
      0.3000
 1
1
  0
CIRCLE
  8
1
 62
7
 10
     14.8060
 20
      5.5013
 30
      0.0000
 40
      0.0885
  0
CIRCLE
  8
1
 62
7
 10
     14.8060
 20
      5.5013
 30
      0.0000
 40
      0.1875
  0
TEXT
  8
251
 62
13
 10
     14.6560
 20
      5.3888
 30
      0.0000
 40
      0.3000
 1
1
  0
CIRCLE
  8
1
 62
7
 10
     14.8087
 20
      5.9387
 30
      0.0000
 40
      0.0885
  0
CIRCLE
  8
1
 62
7
 10
     14.8087
 20
      5.9387
 30
      0.0000
 40
      0.1875
  0
TEXT
  8
251
 62
13
 10
     14.6587
 20
      5.8262
 30
      0.0000
 40
      0.3000
 1
1
  0
CIRCLE
  8
1
 62
7
 10
     14.8087
 20
      6.3762
 30
      0.0000
 40
      0.0885
  0
CIRCLE
  8
1
 62
7
 10
     14.8087
 20
      6.3762
 30
      0.0000
 40
      0.1875
  0
TEXT
  8
251
 62
13
 10
     14.6587
 20
      6.2637
 30
      0.0000
 40
      0.3000
 1
1
  0
CIRCLE
  8
1
 62
7
 10
     14.8087
 20
      6.8137
 30
      0.0000
 40
      0.0885
  0
CIRCLE
  8
1
 62
7
 10
     14.8087
 20
      6.8137
 30
      0.0000
 40
      0.1875
  0
TEXT
  8
251
 62
13
 10
     14.6587
 20
      6.7012
 30
      0.0000
 40
      0.3000
 1
1
  0
CIRCLE
  8
1
 62
7
 10
     14.8087
 20
      7.2512
 30
      0.0000
 40
      0.0885
  0
CIRCLE
  8
1
 62
7
 10
     14.8087
 20
      7.2512
 30
      0.0000
 40
      0.1875
  0
TEXT
  8
251
 62
13
 10
     14.6587
 20
      7.1387
 30
      0.0000
 40
      0.3000
 1
1
  0
CIRCLE
  8
1
 62
7
 10
     14.8087
 20
      7.6887
 30
      0.0000
 40
      0.0885
  0
CIRCLE
  8
1
 62
7
 10
     14.8087
 20
      7.6887
 30
      0.0000
 40
      0.1875
  0
TEXT
  8
251
 62
13
 10
     14.6587
 20
      7.5762
 30
      0.0000
 40
      0.3000
 1
1
  0
CIRCLE
  8
1
 62
7
 10
     14.8087
 20
      8.1262
 30
      0.0000
 40
      0.0885
  0
CIRCLE
  8
1
 62
7
 10
     14.8087
 20
      8.1262
 30
      0.0000
 40
      0.1875
  0
TEXT
  8
251
 62
13
 10
     14.6587
 20
      8.0137
 30
      0.0000
 40
      0.3000
 1
1
  0
CIRCLE
  8
1
 62
7
 10
     14.8087
 20
      8.5637
 30
      0.0000
 40
      0.0885
  0
CIRCLE
  8
1
 62
7
 10
     14.8087
 20
      8.5637
 30
      0.0000
 40
      0.1875
  0
TEXT
  8
251
 62
13
 10
     14.6587
 20
      8.4512
 30
      0.0000
 40
      0.3000
 1
1
  0
CIRCLE
  8
1
 62
7
 10
     14.8087
 20
      9.0012
 30
      0.0000
 40
      0.0885
  0
CIRCLE
  8
1
 62
7
 10
     14.8087
 20
      9.0012
 30
      0.0000
 40
      0.1875
  0
TEXT
  8
251
 62
13
 10
     14.6587
 20
      8.8887
 30
      0.0000
 40
      0.3000
 1
1
  0
CIRCLE
  8
1
 62
7
 10
     14.8087
 20
      9.4387
 30
      0.0000
 40
      0.0885
  0
CIRCLE
  8
1
 62
7
 10
     14.8087
 20
      9.4387
 30
      0.0000
 40
      0.1875
  0
TEXT
  8
251
 62
13
 10
     14.6587
 20
      9.3262
 30
      0.0000
 40
      0.3000
 1
1
  0
CIRCLE
  8
1
 62
7
 10
     14.8087
 20
      9.8762
 30
      0.0000
 40
      0.0885
  0
CIRCLE
  8
1
 62
7
 10
     14.8087
 20
      9.8762
 30
      0.0000
 40
      0.1875
  0
TEXT
  8
251
 62
13
 10
     14.6587
 20
      9.7637
 30
      0.0000
 40
      0.3000
 1
1
  0
CIRCLE
  8
1
 62
7
 10
     14.8036
 20
     10.5943
 30
      0.0000
 40
      0.0885
  0
CIRCLE
  8
1
 62
7
 10
     14.8036
 20
     10.5943
 30
      0.0000
 40
      0.1875
  0
TEXT
  8
251
 62
13
 10
     14.6536
 20
     10.4818
 30
      0.0000
 40
      0.3000
 1
1
  0
CIRCLE
  8
1
 62
7
 10
     14.8028
 20
     11.0328
 30
      0.0000
 40
      0.0885
  0
CIRCLE
  8
1
 62
7
 10
     14.8028
 20
     11.0328
 30
      0.0000
 40
      0.1875
  0
TEXT
  8
251
 62
13
 10
     14.6528
 20
     10.9203
 30
      0.0000
 40
      0.3000
 1
1
  0
CIRCLE
  8
1
 62
7
 10
     14.8020
 20
     11.4714
 30
      0.0000
 40
      0.0885
  0
CIRCLE
  8
1
 62
7
 10
     14.8020
 20
     11.4714
 30
      0.0000
 40
      0.1875
  0
TEXT
  8
251
 62
13
 10
     14.6520
 20
     11.3589
 30
      0.0000
 40
      0.3000
 1
1
  0
CIRCLE
  8
1
 62
7
 10
     15.1922
 20
      3.1692
 30
      0.0000
 40
      0.0885
  0
CIRCLE
  8
1
 62
7
 10
     15.1922
 20
      3.1692
 30
      0.0000
 40
      0.1875
  0
TEXT
  8
251
 62
13
 10
     15.0422
 20
      3.0567
 30
      0.0000
 40
      0.3000
 1
1
  0
CIRCLE
  8
1
 62
7
 10
     15.1569
 20
      4.3651
 30
      0.0000
 40
      0.0885
  0
CIRCLE
  8
1
 62
7
 10
     15.1569
 20
      4.3651
 30
      0.0000
 40
      0.1875
  0
TEXT
  8
251
 62
13
 10
     15.0069
 20
      4.2526
 30
      0.0000
 40
      0.3000
 1
1
  0
CIRCLE
  8
1
 62
7
 10
     15.0672
 20
     10.2365
 30
      0.0000
 40
      0.0885
  0
CIRCLE
  8
1
 62
7
 10
     15.0672
 20
     10.2365
 30
      0.0000
 40
      0.1875
  0
TEXT
  8
251
 62
13
 10
     14.9172
 20
     10.1240
 30
      0.0000
 40
      0.3000
 1
1
  0
CIRCLE
  8
1
 62
7
 10
     15.2034
 20
     10.8204
 30
      0.0000
 40
      0.0885
  0
CIRCLE
  8
1
 62
7
 10
     15.2034
 20
     10.8204
 30
      0.0000
 40
      0.1875
  0
TEXT
  8
251
 62
13
 10
     15.0534
 20
     10.7079
 30
      0.0000
 40
      0.3000
 1
1
  0
CIRCLE
  8
1
 62
7
 10
     15.2016
 20
     11.2579
 30
      0.0000
 40
      0.0885
  0
CIRCLE
  8
1
 62
7
 10
     15.2016
 20
     11.2579
 30
      0.0000
 40
      0.1875
  0
TEXT
  8
251
 62
13
 10
     15.0516
 20
     11.1454
 30
      0.0000
 40
      0.3000
 1
1
  0
CIRCLE
  8
1
 62
7
 10
     15.1625
 20
     11.7311
 30
      0.0000
 40
      0.0885
  0
CIRCLE
  8
1
 62
7
 10
     15.1625
 20
     11.7311
 30
      0.0000
 40
      0.1875
  0
TEXT
  8
251
 62
13
 10
     15.0125
 20
     11.6186
 30
      0.0000
 40
      0.3000
 1
1
  0
TEXT
  8
251
 62
13
 10
     -0.8000
 20
     -1.2000
 30
      0.0000
 40
      0.3200
 1
1)washer_thin(75)
  0
TEXT
  8
251
 62
13
 10
     15.8400
 20
     -1.2000
 30
      0.0000
 40
      0.3200
 1
2)washer_thick(75)
  0
TEXT
  8
251
 62
13
 10
     -0.8000
 20
     -1.8000
 30
      0.0000
 40
      0.3200
 1
3)sideplate(4)
  0
TEXT
  8
251
 62
13
 10
     15.5200
 20
     -1.8000
 30
      0.0000
 40
      0.3200
 1
4)sled(4)
  0
ENDSEC
  0
EOF
