  0
SECTION
  2
HEADER
  9
$ACADVER
  1
AC1027
  9
$ACADMAINTVER
 70
   105
  9
$DWGCODEPAGE
  3
ANSI_1252
  9
$LASTSAVEDBY
  1
avere
  9
$REQUIREDVERSIONS
160
                 0
  9
$INSBASE
 10
0.0
 20
0.0
 30
0.0
  9
$EXTMIN
 10
0.0638
 20
0.0625
 30
0.0
  9
$EXTMAX
 10
15.3909
 20
11.9199
 30
0.0
  9
$LIMMIN
 10
-0.8
 20
-1.8
  9
$LIMMAX
 10
31.84
 20
12.8
  9
$ORTHOMODE
 70
     0
  9
$REGENMODE
 70
     1
  9
$FILLMODE
 70
     1
  9
$QTEXTMODE
 70
     0
  9
$MIRRTEXT
 70
     1
  9
$LTSCALE
 40
1.0
  9
$ATTMODE
 70
     1
  9
$TEXTSIZE
 40
0.2
  9
$TRACEWID
 40
0.05
  9
$TEXTSTYLE
  7
Standard
  9
$CLAYER
  8
0
  9
$CELTYPE
  6
ByLayer
  9
$CECOLOR
 62
   256
  9
$CELTSCALE
 40
1.0
  9
$DISPSILH
 70
     0
  9
$DIMSCALE
 40
1.0
  9
$DIMASZ
 40
0.18
  9
$DIMEXO
 40
0.0625
  9
$DIMDLI
 40
0.38
  9
$DIMRND
 40
0.0
  9
$DIMDLE
 40
0.0
  9
$DIMEXE
 40
0.18
  9
$DIMTP
 40
0.0
  9
$DIMTM
 40
0.0
  9
$DIMTXT
 40
0.18
  9
$DIMCEN
 40
0.09
  9
$DIMTSZ
 40
0.0
  9
$DIMTOL
 70
     0
  9
$DIMLIM
 70
     0
  9
$DIMTIH
 70
     1
  9
$DIMTOH
 70
     1
  9
$DIMSE1
 70
     0
  9
$DIMSE2
 70
     0
  9
$DIMTAD
 70
     0
  9
$DIMZIN
 70
     0
  9
$DIMBLK
  1

  9
$DIMASO
 70
     1
  9
$DIMSHO
 70
     1
  9
$DIMPOST
  1

  9
$DIMAPOST
  1

  9
$DIMALT
 70
     0
  9
$DIMALTD
 70
     2
  9
$DIMALTF
 40
25.4
  9
$DIMLFAC
 40
1.0
  9
$DIMTOFL
 70
     0
  9
$DIMTVP
 40
0.0
  9
$DIMTIX
 70
     0
  9
$DIMSOXD
 70
     0
  9
$DIMSAH
 70
     0
  9
$DIMBLK1
  1

  9
$DIMBLK2
  1

  9
$DIMSTYLE
  2
Standard
  9
$DIMCLRD
 70
     0
  9
$DIMCLRE
 70
     0
  9
$DIMCLRT
 70
     0
  9
$DIMTFAC
 40
1.0
  9
$DIMGAP
 40
0.09
  9
$DIMJUST
 70
     0
  9
$DIMSD1
 70
     0
  9
$DIMSD2
 70
     0
  9
$DIMTOLJ
 70
     1
  9
$DIMTZIN
 70
     0
  9
$DIMALTZ
 70
     0
  9
$DIMALTTZ
 70
     0
  9
$DIMUPT
 70
     0
  9
$DIMDEC
 70
     4
  9
$DIMTDEC
 70
     4
  9
$DIMALTU
 70
     2
  9
$DIMALTTD
 70
     2
  9
$DIMTXSTY
  7
Standard
  9
$DIMAUNIT
 70
     0
  9
$DIMADEC
 70
     0
  9
$DIMALTRND
 40
0.0
  9
$DIMAZIN
 70
     0
  9
$DIMDSEP
 70
    46
  9
$DIMATFIT
 70
     3
  9
$DIMFRAC
 70
     0
  9
$DIMLDRBLK
  1

  9
$DIMLUNIT
 70
     2
  9
$DIMLWD
 70
    -2
  9
$DIMLWE
 70
    -2
  9
$DIMTMOVE
 70
     0
  9
$DIMFXL
 40
1.0
  9
$DIMFXLON
 70
     0
  9
$DIMJOGANG
 40
0.7853981633974483
  9
$DIMTFILL
 70
     0
  9
$DIMTFILLCLR
 70
     0
  9
$DIMARCSYM
 70
     0
  9
$DIMLTYPE
  6

  9
$DIMLTEX1
  6

  9
$DIMLTEX2
  6

  9
$DIMTXTDIRECTION
 70
     0
  9
$LUNITS
 70
     2
  9
$LUPREC
 70
     4
  9
$SKETCHINC
 40
0.1
  9
$FILLETRAD
 40
0.0
  9
$AUNITS
 70
     0
  9
$AUPREC
 70
     0
  9
$MENU
  1
.
  9
$ELEVATION
 40
0.0
  9
$PELEVATION
 40
0.0
  9
$THICKNESS
 40
0.0
  9
$LIMCHECK
 70
     0
  9
$CHAMFERA
 40
0.0
  9
$CHAMFERB
 40
0.0
  9
$CHAMFERC
 40
0.0
  9
$CHAMFERD
 40
0.0
  9
$SKPOLY
 70
     0
  9
$TDCREATE
 40
2460259.919435868
  9
$TDUCREATE
 40
2460260.127769202
  9
$TDUPDATE
 40
2460259.919436273
  9
$TDUUPDATE
 40
2460260.127769607
  9
$TDINDWG
 40
0.0000000116
  9
$TDUSRTIMER
 40
0.0000000116
  9
$USRTIMER
 70
     1
  9
$ANGBASE
 50
0.0
  9
$ANGDIR
 70
     0
  9
$PDMODE
 70
     0
  9
$PDSIZE
 40
0.0
  9
$PLINEWID
 40
0.0
  9
$SPLFRAME
 70
     0
  9
$SPLINETYPE
 70
     6
  9
$SPLINESEGS
 70
     8
  9
$HANDSEED
  5
4C0
  9
$SURFTAB1
 70
     6
  9
$SURFTAB2
 70
     6
  9
$SURFTYPE
 70
     6
  9
$SURFU
 70
     6
  9
$SURFV
 70
     6
  9
$UCSBASE
  2

  9
$UCSNAME
  2

  9
$UCSORG
 10
0.0
 20
0.0
 30
0.0
  9
$UCSXDIR
 10
1.0
 20
0.0
 30
0.0
  9
$UCSYDIR
 10
0.0
 20
1.0
 30
0.0
  9
$UCSORTHOREF
  2

  9
$UCSORTHOVIEW
 70
     0
  9
$UCSORGTOP
 10
0.0
 20
0.0
 30
0.0
  9
$UCSORGBOTTOM
 10
0.0
 20
0.0
 30
0.0
  9
$UCSORGLEFT
 10
0.0
 20
0.0
 30
0.0
  9
$UCSORGRIGHT
 10
0.0
 20
0.0
 30
0.0
  9
$UCSORGFRONT
 10
0.0
 20
0.0
 30
0.0
  9
$UCSORGBACK
 10
0.0
 20
0.0
 30
0.0
  9
$PUCSBASE
  2

  9
$PUCSNAME
  2

  9
$PUCSORG
 10
0.0
 20
0.0
 30
0.0
  9
$PUCSXDIR
 10
1.0
 20
0.0
 30
0.0
  9
$PUCSYDIR
 10
0.0
 20
1.0
 30
0.0
  9
$PUCSORTHOREF
  2

  9
$PUCSORTHOVIEW
 70
     0
  9
$PUCSORGTOP
 10
0.0
 20
0.0
 30
0.0
  9
$PUCSORGBOTTOM
 10
0.0
 20
0.0
 30
0.0
  9
$PUCSORGLEFT
 10
0.0
 20
0.0
 30
0.0
  9
$PUCSORGRIGHT
 10
0.0
 20
0.0
 30
0.0
  9
$PUCSORGFRONT
 10
0.0
 20
0.0
 30
0.0
  9
$PUCSORGBACK
 10
0.0
 20
0.0
 30
0.0
  9
$USERI1
 70
     0
  9
$USERI2
 70
     0
  9
$USERI3
 70
     0
  9
$USERI4
 70
     0
  9
$USERI5
 70
     0
  9
$USERR1
 40
0.0
  9
$USERR2
 40
0.0
  9
$USERR3
 40
0.0
  9
$USERR4
 40
0.0
  9
$USERR5
 40
0.0
  9
$WORLDVIEW
 70
     1
  9
$SHADEDGE
 70
     3
  9
$SHADEDIF
 70
    70
  9
$TILEMODE
 70
     1
  9
$MAXACTVP
 70
    64
  9
$PINSBASE
 10
0.0
 20
0.0
 30
0.0
  9
$PLIMCHECK
 70
     0
  9
$PEXTMIN
 10
1.000000000000000E+20
 20
1.000000000000000E+20
 30
1.000000000000000E+20
  9
$PEXTMAX
 10
-1.000000000000000E+20
 20
-1.000000000000000E+20
 30
-1.000000000000000E+20
  9
$PLIMMIN
 10
-0.25
 20
-0.25
  9
$PLIMMAX
 10
10.75
 20
8.25
  9
$UNITMODE
 70
     0
  9
$VISRETAIN
 70
     1
  9
$PLINEGEN
 70
     0
  9
$PSLTSCALE
 70
     1
  9
$TREEDEPTH
 70
  3020
  9
$CMLSTYLE
  2
Standard
  9
$CMLJUST
 70
     0
  9
$CMLSCALE
 40
1.0
  9
$PROXYGRAPHICS
 70
     1
  9
$MEASUREMENT
 70
     0
  9
$CELWEIGHT
370
    -1
  9
$ENDCAPS
280
     0
  9
$JOINSTYLE
280
     0
  9
$LWDISPLAY
290
     0
  9
$INSUNITS
 70
     0
  9
$HYPERLINKBASE
  1

  9
$STYLESHEET
  1

  9
$XEDIT
290
     1
  9
$CEPSNTYPE
380
     0
  9
$PSTYLEMODE
290
     1
  9
$FINGERPRINTGUID
  2
{1296e35c-3b0a-45ef-9850-71525c748962}
  9
$VERSIONGUID
  2
{FAEB1C32-E019-11D5-929B-00C0DF256EC4}
  9
$EXTNAMES
290
     1
  9
$PSVPSCALE
 40
0.0
  9
$OLESTARTUP
290
     0
  9
$SORTENTS
280
   127
  9
$INDEXCTL
280
     0
  9
$HIDETEXT
280
     1
  9
$XCLIPFRAME
280
     2
  9
$HALOGAP
280
     0
  9
$OBSCOLOR
 70
   257
  9
$OBSLTYPE
280
     0
  9
$INTERSECTIONDISPLAY
280
     0
  9
$INTERSECTIONCOLOR
 70
   257
  9
$DIMASSOC
280
     2
  9
$PROJECTNAME
  1

  9
$CAMERADISPLAY
290
     0
  9
$LENSLENGTH
 40
50.0
  9
$CAMERAHEIGHT
 40
0.0
  9
$STEPSPERSEC
 40
2.0
  9
$STEPSIZE
 40
6.0
  9
$3DDWFPREC
 40
2.0
  9
$PSOLWIDTH
 40
0.25
  9
$PSOLHEIGHT
 40
4.0
  9
$LOFTANG1
 40
1.570796326794897
  9
$LOFTANG2
 40
1.570796326794897
  9
$LOFTMAG1
 40
0.0
  9
$LOFTMAG2
 40
0.0
  9
$LOFTPARAM
 70
     7
  9
$LOFTNORMALS
280
     1
  9
$LATITUDE
 40
37.795
  9
$LONGITUDE
 40
-122.394
  9
$NORTHDIRECTION
 40
0.0
  9
$TIMEZONE
 70
 -8000
  9
$LIGHTGLYPHDISPLAY
280
     1
  9
$TILEMODELIGHTSYNCH
280
     1
  9
$CMATERIAL
347
42E
  9
$SOLIDHIST
280
     0
  9
$SHOWHIST
280
     1
  9
$DWFFRAME
280
     2
  9
$DGNFRAME
280
     2
  9
$REALWORLDSCALE
290
     1
  9
$INTERFERECOLOR
 62
   256
  9
$CSHADOW
280
     0
  9
$SHADOWPLANELOCATION
 40
0.0
  0
ENDSEC
  0
SECTION
  2
CLASSES
  0
CLASS
  1
ACDBDICTIONARYWDFLT
  2
AcDbDictionaryWithDefault
  3
ObjectDBX Classes
 90
        0
 91
        3
280
     0
281
     0
  0
CLASS
  1
VISUALSTYLE
  2
AcDbVisualStyle
  3
ObjectDBX Classes
 90
     4095
 91
        3
280
     0
281
     0
  0
CLASS
  1
MATERIAL
  2
AcDbMaterial
  3
ObjectDBX Classes
 90
     1153
 91
        3
280
     0
281
     0
  0
CLASS
  1
SCALE
  2
AcDbScale
  3
ObjectDBX Classes
 90
     1153
 91
        3
280
     0
281
     0
  0
CLASS
  1
TABLESTYLE
  2
AcDbTableStyle
  3
ObjectDBX Classes
 90
     4095
 91
        3
280
     0
281
     0
  0
CLASS
  1
MLEADERSTYLE
  2
AcDbMLeaderStyle
  3
ACDB_MLEADERSTYLE_CLASS
 90
     4095
 91
        3
280
     0
281
     0
  0
CLASS
  1
SUN
  2
AcDbSun
  3
SCENEOE
 90
     1153
 91
        3
280
     0
281
     0
  0
CLASS
  1
DICTIONARYVAR
  2
AcDbDictionaryVar
  3
ObjectDBX Classes
 90
        0
 91
        3
280
     0
281
     0
  0
CLASS
  1
CELLSTYLEMAP
  2
AcDbCellStyleMap
  3
ObjectDBX Classes
 90
     1152
 91
        3
280
     0
281
     0
  0
ENDSEC
  0
SECTION
  2
TABLES
  0
TABLE
  2
VPORT
  5
3F3
330
0
100
AcDbSymbolTable
 70
     1
  0
VPORT
  5
413
330
3F3
100
AcDbSymbolTableRecord
100
AcDbViewportTableRecord
  2
*Active
 70
     0
 10
0.0
 20
0.0
 11
1.0
 21
1.0
 12
5.836965120460262
 22
3.762716049382714
 13
0.0
 23
0.0
 14
0.5
 24
0.5
 15
0.5
 25
0.5
 16
0.0
 26
0.0
 36
1.0
 17
0.0
 27
0.0
 37
0.0
 40
17.81747572815533
 41
1.466966966966967
 42
50.0
 43
0.0
 44
0.0
 50
0.0
 51
0.0
 71
     0
 72
   100
 73
     1
 74
     3
 75
     0
 76
     0
 77
     0
 78
     0
281
     0
 65
     1
110
0.0
120
0.0
130
0.0
111
1.0
121
0.0
131
0.0
112
0.0
122
1.0
132
0.0
 79
     0
146
0.0
348
419
 60
     3
 61
     5
292
     1
282
     1
141
0.0
142
0.0
 63
   250
361
447
  0
ENDTAB
  0
TABLE
  2
LTYPE
  5
3F0
330
0
100
AcDbSymbolTable
 70
    48
  0
LTYPE
  5
3FE
330
3F0
100
AcDbSymbolTableRecord
100
AcDbLinetypeTableRecord
  2
ByBlock
 70
     0
  3

 72
    65
 73
     0
 40
0.0
  0
LTYPE
  5
3FF
330
3F0
100
AcDbSymbolTableRecord
100
AcDbLinetypeTableRecord
  2
ByLayer
 70
     0
  3

 72
    65
 73
     0
 40
0.0
  0
LTYPE
  5
400
330
3F0
100
AcDbSymbolTableRecord
100
AcDbLinetypeTableRecord
  2
Continuous
 70
     0
  3
Solid line
 72
    65
 73
     0
 40
0.0
  0
LTYPE
  5
482
330
3F0
100
AcDbSymbolTableRecord
100
AcDbLinetypeTableRecord
  2
ACAD_ISO12W100
 70
     0
  3
ISO dash double-dot __ . . __ . . __ . . __ . . 
 72
    65
 73
     6
 40
21.0
 49
12.0
 74
     0
 49
-3.0
 74
     0
 49
0.0
 74
     0
 49
-3.0
 74
     0
 49
0.0
 74
     0
 49
-3.0
 74
     0
  0
LTYPE
  5
483
330
3F0
100
AcDbSymbolTableRecord
100
AcDbLinetypeTableRecord
  2
ACAD_ISO13W100
 70
     0
  3
ISO double-dash double-dot __ __ . . __ __ . . _
 72
    65
 73
     8
 40
36.0
 49
12.0
 74
     0
 49
-3.0
 74
     0
 49
12.0
 74
     0
 49
-3.0
 74
     0
 49
0.0
 74
     0
 49
-3.0
 74
     0
 49
0.0
 74
     0
 49
-3.0
 74
     0
  0
LTYPE
  5
484
330
3F0
100
AcDbSymbolTableRecord
100
AcDbLinetypeTableRecord
  2
ACAD_ISO10W100
 70
     0
  3
ISO dash dot __ . __ . __ . __ . __ . __ . __ . 
 72
    65
 73
     4
 40
18.0
 49
12.0
 74
     0
 49
-3.0
 74
     0
 49
0.0
 74
     0
 49
-3.0
 74
     0
  0
LTYPE
  5
485
330
3F0
100
AcDbSymbolTableRecord
100
AcDbLinetypeTableRecord
  2
ACAD_ISO11W100
 70
     0
  3
ISO double-dash dot __ __ . __ __ . __ __ . __ _
 72
    65
 73
     6
 40
33.0
 49
12.0
 74
     0
 49
-3.0
 74
     0
 49
12.0
 74
     0
 49
-3.0
 74
     0
 49
0.0
 74
     0
 49
-3.0
 74
     0
  0
LTYPE
  5
486
330
3F0
100
AcDbSymbolTableRecord
100
AcDbLinetypeTableRecord
  2
DASHDOT2
 70
     0
  3
Dash dot (.5x) _._._._._._._._._._._._._._._.
 72
    65
 73
     4
 40
0.5
 49
0.25
 74
     0
 49
-0.125
 74
     0
 49
0.0
 74
     0
 49
-0.125
 74
     0
  0
LTYPE
  5
487
330
3F0
100
AcDbSymbolTableRecord
100
AcDbLinetypeTableRecord
  2
DASHDOTX2
 70
     0
  3
Dash dot (2x) ____  .  ____  .  ____  .  ___
 72
    65
 73
     4
 40
2.0
 49
1.0
 74
     0
 49
-0.5
 74
     0
 49
0.0
 74
     0
 49
-0.5
 74
     0
  0
LTYPE
  5
488
330
3F0
100
AcDbSymbolTableRecord
100
AcDbLinetypeTableRecord
  2
CENTERX2
 70
     0
  3
Center (2x) ________  __  ________  __  _____
 72
    65
 73
     4
 40
4.0
 49
2.5
 74
     0
 49
-0.5
 74
     0
 49
0.5
 74
     0
 49
-0.5
 74
     0
  0
LTYPE
  5
489
330
3F0
100
AcDbSymbolTableRecord
100
AcDbLinetypeTableRecord
  2
DASHDOT
 70
     0
  3
Dash dot __ . __ . __ . __ . __ . __ . __ . __
 72
    65
 73
     4
 40
1.0
 49
0.5
 74
     0
 49
-0.25
 74
     0
 49
0.0
 74
     0
 49
-0.25
 74
     0
  0
LTYPE
  5
48A
330
3F0
100
AcDbSymbolTableRecord
100
AcDbLinetypeTableRecord
  2
CENTER
 70
     0
  3
Center ____ _ ____ _ ____ _ ____ _ ____ _ ____
 72
    65
 73
     4
 40
2.0
 49
1.25
 74
     0
 49
-0.25
 74
     0
 49
0.25
 74
     0
 49
-0.25
 74
     0
  0
LTYPE
  5
48B
330
3F0
100
AcDbSymbolTableRecord
100
AcDbLinetypeTableRecord
  2
CENTER2
 70
     0
  3
Center (.5x) ___ _ ___ _ ___ _ ___ _ ___ _ ___
 72
    65
 73
     4
 40
1.125
 49
0.75
 74
     0
 49
-0.125
 74
     0
 49
0.125
 74
     0
 49
-0.125
 74
     0
  0
LTYPE
  5
48C
330
3F0
100
AcDbSymbolTableRecord
100
AcDbLinetypeTableRecord
  2
BORDER2
 70
     0
  3
Border (.5x) __.__.__.__.__.__.__.__.__.__.__.
 72
    65
 73
     6
 40
0.875
 49
0.25
 74
     0
 49
-0.125
 74
     0
 49
0.25
 74
     0
 49
-0.125
 74
     0
 49
0.0
 74
     0
 49
-0.125
 74
     0
  0
LTYPE
  5
48D
330
3F0
100
AcDbSymbolTableRecord
100
AcDbLinetypeTableRecord
  2
BORDERX2
 70
     0
  3
Border (2x) ____  ____  .  ____  ____  .  ___
 72
    65
 73
     6
 40
3.5
 49
1.0
 74
     0
 49
-0.5
 74
     0
 49
1.0
 74
     0
 49
-0.5
 74
     0
 49
0.0
 74
     0
 49
-0.5
 74
     0
  0
LTYPE
  5
48E
330
3F0
100
AcDbSymbolTableRecord
100
AcDbLinetypeTableRecord
  2
DOT
 70
     0
  3
Dot . . . . . . . . . . . . . . . . . . . . . . . .
 72
    65
 73
     2
 40
0.25
 49
0.0
 74
     0
 49
-0.25
 74
     0
  0
LTYPE
  5
48F
330
3F0
100
AcDbSymbolTableRecord
100
AcDbLinetypeTableRecord
  2
DOT2
 70
     0
  3
Dot (.5x) ........................................
 72
    65
 73
     2
 40
0.125
 49
0.0
 74
     0
 49
-0.125
 74
     0
  0
LTYPE
  5
490
330
3F0
100
AcDbSymbolTableRecord
100
AcDbLinetypeTableRecord
  2
DIVIDE2
 70
     0
  3
Divide (.5x) __..__..__..__..__..__..__..__.._
 72
    65
 73
     6
 40
0.625
 49
0.25
 74
     0
 49
-0.125
 74
     0
 49
0.0
 74
     0
 49
-0.125
 74
     0
 49
0.0
 74
     0
 49
-0.125
 74
     0
  0
LTYPE
  5
491
330
3F0
100
AcDbSymbolTableRecord
100
AcDbLinetypeTableRecord
  2
DIVIDEX2
 70
     0
  3
Divide (2x) ________  .  .  ________  .  .  _
 72
    65
 73
     6
 40
2.5
 49
1.0
 74
     0
 49
-0.5
 74
     0
 49
0.0
 74
     0
 49
-0.5
 74
     0
 49
0.0
 74
     0
 49
-0.5
 74
     0
  0
LTYPE
  5
492
330
3F0
100
AcDbSymbolTableRecord
100
AcDbLinetypeTableRecord
  2
DASHEDX2
 70
     0
  3
Dashed (2x) ____  ____  ____  ____  ____  ___
 72
    65
 73
     2
 40
1.5
 49
1.0
 74
     0
 49
-0.5
 74
     0
  0
LTYPE
  5
493
330
3F0
100
AcDbSymbolTableRecord
100
AcDbLinetypeTableRecord
  2
DIVIDE
 70
     0
  3
Divide ____ . . ____ . . ____ . . ____ . . ____
 72
    65
 73
     6
 40
1.25
 49
0.5
 74
     0
 49
-0.25
 74
     0
 49
0.0
 74
     0
 49
-0.25
 74
     0
 49
0.0
 74
     0
 49
-0.25
 74
     0
  0
LTYPE
  5
494
330
3F0
100
AcDbSymbolTableRecord
100
AcDbLinetypeTableRecord
  2
DASHED
 70
     0
  3
Dashed __ __ __ __ __ __ __ __ __ __ __ __ __ _
 72
    65
 73
     2
 40
0.75
 49
0.5
 74
     0
 49
-0.25
 74
     0
  0
LTYPE
  5
495
330
3F0
100
AcDbSymbolTableRecord
100
AcDbLinetypeTableRecord
  2
DASHED2
 70
     0
  3
Dashed (.5x) _ _ _ _ _ _ _ _ _ _ _ _ _ _ _ _ _ 
 72
    65
 73
     2
 40
0.375
 49
0.25
 74
     0
 49
-0.125
 74
     0
  0
LTYPE
  5
496
330
3F0
100
AcDbSymbolTableRecord
100
AcDbLinetypeTableRecord
  2
HIDDEN
 70
     0
  3
Hidden __ __ __ __ __ __ __ __ __ __ __ __ __ __
 72
    65
 73
     2
 40
0.375
 49
0.25
 74
     0
 49
-0.125
 74
     0
  0
LTYPE
  5
497
330
3F0
100
AcDbSymbolTableRecord
100
AcDbLinetypeTableRecord
  2
HIDDEN2
 70
     0
  3
Hidden (.5x) _ _ _ _ _ _ _ _ _ _ _ _ _ _ _ _ _ 
 72
    65
 73
     2
 40
0.1875
 49
0.125
 74
     0
 49
-0.0625
 74
     0
  0
LTYPE
  5
499
330
3F0
100
AcDbSymbolTableRecord
100
AcDbLinetypeTableRecord
  2
FENCELINE2
 70
     0
  3
Fenceline square ----[]-----[]----[]-----[]----[]---
 72
    65
 73
     4
 40
1.45
 49
0.25
 74
     0
 49
-0.1
 74
     2
 75
     0
340
498
 46
0.1
 50
0.0
 44
-0.1
 45
0.0
  9
BOX
 49
-0.1
 74
     0
 49
1.0
 74
     0
  0
LTYPE
  5
49B
330
3F0
100
AcDbSymbolTableRecord
100
AcDbLinetypeTableRecord
  2
GAS_LINE
 70
     0
  3
Gas line ----GAS----GAS----GAS----GAS----GAS----GAS--
 72
    65
 73
     3
 40
0.95
 49
0.5
 74
     0
 49
-0.2
 74
     2
 75
     0
340
49A
 46
0.1
 50
0.0
 44
-0.1
 45
-0.05
  9
GAS
 49
-0.25
 74
     0
  0
LTYPE
  5
49D
330
3F0
100
AcDbSymbolTableRecord
100
AcDbLinetypeTableRecord
  2
DRAINAGE2
 70
     0
  3
Drainage reversed ----<----<----<----
 72
    65
 73
     2
 40
0.4
 49
0.2
 74
     2
 75
     0
340
49C
 46
0.2
 50
0.0
 44
0.0
 45
0.0
  9
RIGHT_ARROW
 49
0.2
 74
     0
  0
LTYPE
  5
49E
330
3F0
100
AcDbSymbolTableRecord
100
AcDbLinetypeTableRecord
  2
FENCELINE1
 70
     0
  3
Fenceline circle ----0-----0----0-----0----0-----0--
 72
    65
 73
     4
 40
1.45
 49
0.25
 74
     0
 49
-0.1
 74
     2
 75
     0
340
498
 46
0.1
 50
0.0
 44
-0.1
 45
0.0
  9
CIRC1
 49
-0.1
 74
     0
 49
1.0
 74
     0
  0
LTYPE
  5
49F
330
3F0
100
AcDbSymbolTableRecord
100
AcDbLinetypeTableRecord
  2
DOTX2
 70
     0
  3
Dot (2x) .  .  .  .  .  .  .  .  .  .  .  .  .  .
 72
    65
 73
     2
 40
0.5
 49
0.0
 74
     0
 49
-0.5
 74
     0
  0
LTYPE
  5
4A0
330
3F0
100
AcDbSymbolTableRecord
100
AcDbLinetypeTableRecord
  2
DRAINAGE
 70
     0
  3
Drainage ---->---->---->----
 72
    65
 73
     2
 40
0.4
 49
0.2
 74
     2
 75
     0
340
49C
 46
0.2
 50
180.0
 44
0.0
 45
0.0
  9
RIGHT_ARROW
 49
0.2
 74
     0
  0
LTYPE
  5
4A1
330
3F0
100
AcDbSymbolTableRecord
100
AcDbLinetypeTableRecord
  2
ZIGZAG
 70
     0
  3
Zig zag /\/\/\/\/\/\/\/\/\/\/\/\/\/\/\/\/\/\/\/\/\/\/\/
 72
    65
 73
     4
 40
0.8001
 49
0.0001
 74
     0
 49
-0.2
 74
     2
 75
     0
340
498
 46
0.2
 50
0.0
 44
-0.2
 45
0.0
  9
ZIG
 49
-0.4
 74
     2
 75
     0
340
498
 46
0.2
 50
180.0
 44
0.2
 45
0.0
  9
ZIG
 49
-0.2
 74
     0
  0
LTYPE
  5
4A2
330
3F0
100
AcDbSymbolTableRecord
100
AcDbLinetypeTableRecord
  2
PHANTOMX2
 70
     0
  3
Phantom (2x) ____________    ____    ____   _
 72
    65
 73
     6
 40
5.0
 49
2.5
 74
     0
 49
-0.5
 74
     0
 49
0.5
 74
     0
 49
-0.5
 74
     0
 49
0.5
 74
     0
 49
-0.5
 74
     0
  0
LTYPE
  5
4A3
330
3F0
100
AcDbSymbolTableRecord
100
AcDbLinetypeTableRecord
  2
TRACKS
 70
     0
  3
Tracks -|-|-|-|-|-|-|-|-|-|-|-|-|-|-|-|-|-|-|-|-|-|-|-|-
 72
    65
 73
     2
 40
0.3
 49
0.15
 74
     2
 75
     0
340
498
 46
0.25
 50
0.0
 44
0.0
 45
0.0
  9
TRACK1
 49
0.15
 74
     0
  0
LTYPE
  5
4A4
330
3F0
100
AcDbSymbolTableRecord
100
AcDbLinetypeTableRecord
  2
PHANTOM
 70
     0
  3
Phantom ______  __  __  ______  __  __  ______ 
 72
    65
 73
     6
 40
2.5
 49
1.25
 74
     0
 49
-0.25
 74
     0
 49
0.25
 74
     0
 49
-0.25
 74
     0
 49
0.25
 74
     0
 49
-0.25
 74
     0
  0
LTYPE
  5
4A5
330
3F0
100
AcDbSymbolTableRecord
100
AcDbLinetypeTableRecord
  2
PHANTOM2
 70
     0
  3
Phantom (.5x) ___ _ _ ___ _ _ ___ _ _ ___ _ _
 72
    65
 73
     6
 40
1.25
 49
0.625
 74
     0
 49
-0.125
 74
     0
 49
0.125
 74
     0
 49
-0.125
 74
     0
 49
0.125
 74
     0
 49
-0.125
 74
     0
  0
LTYPE
  5
4A6
330
3F0
100
AcDbSymbolTableRecord
100
AcDbLinetypeTableRecord
  2
HIDDENX2
 70
     0
  3
Hidden (2x) ____ ____ ____ ____ ____ ____ ____ 
 72
    65
 73
     2
 40
0.75
 49
0.5
 74
     0
 49
-0.25
 74
     0
  0
LTYPE
  5
4A7
330
3F0
100
AcDbSymbolTableRecord
100
AcDbLinetypeTableRecord
  2
HOT_WATER_SUPPLY
 70
     0
  3
Hot water supply ---- HW ---- HW ---- HW ----
 72
    65
 73
     3
 40
0.8999999999999999
 49
0.5
 74
     0
 49
-0.2
 74
     2
 75
     0
340
49A
 46
0.1
 50
0.0
 44
-0.1
 45
-0.05
  9
HW
 49
-0.2
 74
     0
  0
LTYPE
  5
4A8
330
3F0
100
AcDbSymbolTableRecord
100
AcDbLinetypeTableRecord
  2
ACAD_ISO08W100
 70
     0
  3
ISO long-dash short-dash ____ __ ____ __ ____ _
 72
    65
 73
     4
 40
36.0
 49
24.0
 74
     0
 49
-3.0
 74
     0
 49
6.0
 74
     0
 49
-3.0
 74
     0
  0
LTYPE
  5
4A9
330
3F0
100
AcDbSymbolTableRecord
100
AcDbLinetypeTableRecord
  2
ACAD_ISO09W100
 70
     0
  3
ISO long-dash double-short-dash ____ __ __ ____
 72
    65
 73
     6
 40
45.0
 49
24.0
 74
     0
 49
-3.0
 74
     0
 49
6.0
 74
     0
 49
-3.0
 74
     0
 49
6.0
 74
     0
 49
-3.0
 74
     0
  0
LTYPE
  5
4AA
330
3F0
100
AcDbSymbolTableRecord
100
AcDbLinetypeTableRecord
  2
ACAD_ISO06W100
 70
     0
  3
ISO long-dash triple-dot ____ ... ____ ... ____
 72
    65
 73
     8
 40
36.0
 49
24.0
 74
     0
 49
-3.0
 74
     0
 49
0.0
 74
     0
 49
-3.0
 74
     0
 49
0.0
 74
     0
 49
-3.0
 74
     0
 49
0.0
 74
     0
 49
-3.0
 74
     0
  0
LTYPE
  5
4AB
330
3F0
100
AcDbSymbolTableRecord
100
AcDbLinetypeTableRecord
  2
ACAD_ISO07W100
 70
     0
  3
ISO dot . . . . . . . . . . . . . . . . . . . . 
 72
    65
 73
     2
 40
3.0
 49
0.0
 74
     0
 49
-3.0
 74
     0
  0
LTYPE
  5
4AC
330
3F0
100
AcDbSymbolTableRecord
100
AcDbLinetypeTableRecord
  2
ACAD_ISO04W100
 70
     0
  3
ISO long-dash dot ____ . ____ . ____ . ____ . _
 72
    65
 73
     4
 40
30.0
 49
24.0
 74
     0
 49
-3.0
 74
     0
 49
0.0
 74
     0
 49
-3.0
 74
     0
  0
LTYPE
  5
4AD
330
3F0
100
AcDbSymbolTableRecord
100
AcDbLinetypeTableRecord
  2
ACAD_ISO05W100
 70
     0
  3
ISO long-dash double-dot ____ .. ____ .. ____ . 
 72
    65
 73
     6
 40
33.0
 49
24.0
 74
     0
 49
-3.0
 74
     0
 49
0.0
 74
     0
 49
-3.0
 74
     0
 49
0.0
 74
     0
 49
-3.0
 74
     0
  0
LTYPE
  5
4AE
330
3F0
100
AcDbSymbolTableRecord
100
AcDbLinetypeTableRecord
  2
ACAD_ISO02W100
 70
     0
  3
ISO dash __ __ __ __ __ __ __ __ __ __ __ __ __
 72
    65
 73
     2
 40
15.0
 49
12.0
 74
     0
 49
-3.0
 74
     0
  0
LTYPE
  5
4AF
330
3F0
100
AcDbSymbolTableRecord
100
AcDbLinetypeTableRecord
  2
ACAD_ISO03W100
 70
     0
  3
ISO dash space __    __    __    __    __    __
 72
    65
 73
     2
 40
30.0
 49
12.0
 74
     0
 49
-18.0
 74
     0
  0
LTYPE
  5
4B0
330
3F0
100
AcDbSymbolTableRecord
100
AcDbLinetypeTableRecord
  2
BATTING
 70
     0
  3
Batting SSSSSSSSSSSSSSSSSSSSSSSSSSSSSSSSSSSSSSSSSSSSSSS
 72
    65
 73
     4
 40
0.4001
 49
0.0001
 74
     0
 49
-0.1
 74
     2
 75
     0
340
498
 46
0.1
 50
0.0
 44
-0.1
 45
0.0
  9
BAT
 49
-0.2
 74
     2
 75
     0
340
498
 46
0.1
 50
180.0
 44
0.1
 45
0.0
  9
BAT
 49
-0.1
 74
     0
  0
LTYPE
  5
4B1
330
3F0
100
AcDbSymbolTableRecord
100
AcDbLinetypeTableRecord
  2
BORDER
 70
     0
  3
Border __ __ . __ __ . __ __ . __ __ . __ __ .
 72
    65
 73
     6
 40
1.75
 49
0.5
 74
     0
 49
-0.25
 74
     0
 49
0.5
 74
     0
 49
-0.25
 74
     0
 49
0.0
 74
     0
 49
-0.25
 74
     0
  0
LTYPE
  5
4B2
330
3F0
100
AcDbSymbolTableRecord
100
AcDbLinetypeTableRecord
  2
ACAD_ISO14W100
 70
     0
  3
ISO dash triple-dot __ . . . __ . . . __ . . . _
 72
    65
 73
     8
 40
24.0
 49
12.0
 74
     0
 49
-3.0
 74
     0
 49
0.0
 74
     0
 49
-3.0
 74
     0
 49
0.0
 74
     0
 49
-3.0
 74
     0
 49
0.0
 74
     0
 49
-3.0
 74
     0
  0
LTYPE
  5
4B3
330
3F0
100
AcDbSymbolTableRecord
100
AcDbLinetypeTableRecord
  2
ACAD_ISO15W100
 70
     0
  3
ISO double-dash triple-dot __ __ . . . __ __ . .
 72
    65
 73
    10
 40
39.0
 49
12.0
 74
     0
 49
-3.0
 74
     0
 49
12.0
 74
     0
 49
-3.0
 74
     0
 49
0.0
 74
     0
 49
-3.0
 74
     0
 49
0.0
 74
     0
 49
-3.0
 74
     0
 49
0.0
 74
     0
 49
-3.0
 74
     0
  0
ENDTAB
  0
TABLE
  2
LAYER
  5
3EE
330
0
100
AcDbSymbolTable
 70
     2
  0
LAYER
  5
3FB
330
3EE
100
AcDbSymbolTableRecord
100
AcDbLayerTableRecord
  2
0
 70
     0
 62
     7
  6
Continuous
370
    -3
390
3FA
347
430
348
0
  0
LAYER
  5
4B4
330
3EE
100
AcDbSymbolTableRecord
100
AcDbLayerTableRecord
  2
1
 70
     0
 62
     1
  6
Continuous
370
    -3
390
3FA
347
430
348
0
  0
ENDTAB
  0
TABLE
  2
STYLE
  5
3EF
330
0
100
AcDbSymbolTable
 70
     5
  0
STYLE
  5
3FC
330
3EF
100
AcDbSymbolTableRecord
100
AcDbTextStyleTableRecord
  2
Standard
 70
     0
 40
0.0
 41
1.0
 50
0.0
 71
     0
 42
0.2
  3
txt
  4

  0
STYLE
  5
480
330
3EF
100
AcDbSymbolTableRecord
100
AcDbTextStyleTableRecord
  2
QCADDimTextStyle
 70
     0
 40
0.0
 41
1.0
 50
0.0
 71
     0
 42
0.2
  3

  4

  0
STYLE
  5
498
330
3EF
100
AcDbSymbolTableRecord
100
AcDbTextStyleTableRecord
  2
textstyle0
 70
     0
 40
0.0
 41
1.0
 50
0.0
 71
     0
 42
0.2
  3
ltypeshp.shx
  4

  0
STYLE
  5
49A
330
3EF
100
AcDbSymbolTableRecord
100
AcDbTextStyleTableRecord
  2
textstyle1
 70
     0
 40
0.0
 41
1.0
 50
0.0
 71
     0
 42
0.2
  3
STANDARD
  4

  0
STYLE
  5
49C
330
3EF
100
AcDbSymbolTableRecord
100
AcDbTextStyleTableRecord
  2
textstyle2
 70
     0
 40
0.0
 41
1.0
 50
0.0
 71
     0
 42
0.2
  3
qcadshp.shx
  4

  0
ENDTAB
  0
TABLE
  2
VIEW
  5
3F1
330
0
100
AcDbSymbolTable
 70
     0
  0
ENDTAB
  0
TABLE
  2
UCS
  5
3F2
330
0
100
AcDbSymbolTable
 70
     0
  0
ENDTAB
  0
TABLE
  2
APPID
  5
3F4
330
0
100
AcDbSymbolTable
 70
     2
  0
APPID
  5
3FD
330
3F4
100
AcDbSymbolTableRecord
100
AcDbRegAppTableRecord
  2
ACAD
 70
     0
  0
APPID
  5
448
330
3F4
100
AcDbSymbolTableRecord
100
AcDbRegAppTableRecord
  2
QCAD
 70
     0
  0
ENDTAB
  0
TABLE
  2
DIMSTYLE
  5
3F5
330
0
100
AcDbSymbolTable
 70
     2
100
AcDbDimStyleTable
  0
DIMSTYLE
105
411
330
3F5
100
AcDbSymbolTableRecord
100
AcDbDimStyleTableRecord
  2
Standard
 70
     0
178
     0
340
3FC
  0
DIMSTYLE
105
481
330
3F5
100
AcDbSymbolTableRecord
100
AcDbDimStyleTableRecord
  2
QCADDimStyle
 70
     0
178
     0
279
     2
340
480
  0
ENDTAB
  0
TABLE
  2
BLOCK_RECORD
  5
3ED
330
0
100
AcDbSymbolTable
 70
     0
  0
BLOCK_RECORD
  5
409
330
3ED
100
AcDbSymbolTableRecord
100
AcDbBlockTableRecord
  2
*Model_Space
340
40C
 70
     0
280
     1
281
     0
  0
BLOCK_RECORD
  5
405
330
3ED
100
AcDbSymbolTableRecord
100
AcDbBlockTableRecord
  2
*Paper_Space
340
408
 70
     0
280
     1
281
     0
  0
ENDTAB
  0
ENDSEC
  0
SECTION
  2
BLOCKS
  0
BLOCK
  5
40A
330
409
100
AcDbEntity
  8
0
100
AcDbBlockBegin
  2
*Model_Space
 70
     0
 10
0.0
 20
0.0
 30
0.0
  3
*Model_Space
  1

  0
ENDBLK
  5
40B
330
409
100
AcDbEntity
  8
0
100
AcDbBlockEnd
  0
BLOCK
  5
406
330
405
100
AcDbEntity
 67
     1
  8
0
100
AcDbBlockBegin
  2
*Paper_Space
 70
     0
 10
0.0
 20
0.0
 30
0.0
  3
*Paper_Space
  1

  0
ENDBLK
  5
407
330
405
100
AcDbEntity
 67
     1
  8
0
100
AcDbBlockEnd
  0
ENDSEC
  0
SECTION
  2
ENTITIES
  0
CIRCLE
  5
66
330
409
100
AcDbEntity
  8
1
 62
     7
100
AcDbCircle
 10
0.2513
 20
1.1109
 30
0.0
 40
0.0885
  0
CIRCLE
  5
67
330
409
100
AcDbEntity
  8
1
 62
     7
100
AcDbCircle
 10
0.2513
 20
1.1109
 30
0.0
 40
0.1875
  0
CIRCLE
  5
69
330
409
100
AcDbEntity
  8
1
 62
     7
100
AcDbCircle
 10
0.4285
 20
0.532
 30
0.0
 40
0.0885
  0
CIRCLE
  5
6A
330
409
100
AcDbEntity
  8
1
 62
     7
100
AcDbCircle
 10
0.4285
 20
0.532
 30
0.0
 40
0.1875
  0
CIRCLE
  5
6C
330
409
100
AcDbEntity
  8
1
 62
     7
100
AcDbCircle
 10
0.6524
 20
0.9092
 30
0.0
 40
0.0885
  0
CIRCLE
  5
6D
330
409
100
AcDbEntity
  8
1
 62
     7
100
AcDbCircle
 10
0.6524
 20
0.9092
 30
0.0
 40
0.1875
  0
CIRCLE
  5
6F
330
409
100
AcDbEntity
  8
1
 62
     7
100
AcDbCircle
 10
0.523
 20
1.4548
 30
0.0
 40
0.0885
  0
CIRCLE
  5
70
330
409
100
AcDbEntity
  8
1
 62
     7
100
AcDbCircle
 10
0.523
 20
1.4548
 30
0.0
 40
0.1875
  0
CIRCLE
  5
72
330
409
100
AcDbEntity
  8
1
 62
     7
100
AcDbCircle
 10
0.461
 20
1.9433
 30
0.0
 40
0.0885
  0
CIRCLE
  5
73
330
409
100
AcDbEntity
  8
1
 62
     7
100
AcDbCircle
 10
0.461
 20
1.9433
 30
0.0
 40
0.1875
  0
CIRCLE
  5
75
330
409
100
AcDbEntity
  8
1
 62
     7
100
AcDbCircle
 10
0.364
 20
2.5782
 30
0.0
 40
0.0885
  0
CIRCLE
  5
76
330
409
100
AcDbEntity
  8
1
 62
     7
100
AcDbCircle
 10
0.364
 20
2.5782
 30
0.0
 40
0.1875
  0
CIRCLE
  5
78
330
409
100
AcDbEntity
  8
1
 62
     7
100
AcDbCircle
 10
0.3789
 20
3.1774
 30
0.0
 40
0.0885
  0
CIRCLE
  5
79
330
409
100
AcDbEntity
  8
1
 62
     7
100
AcDbCircle
 10
0.3789
 20
3.1774
 30
0.0
 40
0.1875
  0
CIRCLE
  5
7B
330
409
100
AcDbEntity
  8
1
 62
     7
100
AcDbCircle
 10
0.4317
 20
3.7687
 30
0.0
 40
0.0885
  0
CIRCLE
  5
7C
330
409
100
AcDbEntity
  8
1
 62
     7
100
AcDbCircle
 10
0.4317
 20
3.7687
 30
0.0
 40
0.1875
  0
CIRCLE
  5
7E
330
409
100
AcDbEntity
  8
1
 62
     7
100
AcDbCircle
 10
0.4288
 20
4.2305
 30
0.0
 40
0.0885
  0
CIRCLE
  5
7F
330
409
100
AcDbEntity
  8
1
 62
     7
100
AcDbCircle
 10
0.4288
 20
4.2305
 30
0.0
 40
0.1875
  0
CIRCLE
  5
81
330
409
100
AcDbEntity
  8
1
 62
     7
100
AcDbCircle
 10
0.8719
 20
0.4178
 30
0.0
 40
0.0885
  0
CIRCLE
  5
82
330
409
100
AcDbEntity
  8
1
 62
     7
100
AcDbCircle
 10
0.8719
 20
0.4178
 30
0.0
 40
0.1875
  0
CIRCLE
  5
84
330
409
100
AcDbEntity
  8
1
 62
     7
100
AcDbCircle
 10
0.9257
 20
1.2495
 30
0.0
 40
0.0885
  0
CIRCLE
  5
85
330
409
100
AcDbEntity
  8
1
 62
     7
100
AcDbCircle
 10
0.9257
 20
1.2495
 30
0.0
 40
0.1875
  0
CIRCLE
  5
87
330
409
100
AcDbEntity
  8
1
 62
     7
100
AcDbCircle
 10
1.1066
 20
0.7858
 30
0.0
 40
0.0885
  0
CIRCLE
  5
88
330
409
100
AcDbEntity
  8
1
 62
     7
100
AcDbCircle
 10
1.1066
 20
0.7858
 30
0.0
 40
0.1875
  0
CIRCLE
  5
8A
330
409
100
AcDbEntity
  8
1
 62
     7
100
AcDbCircle
 10
0.9448
 20
1.7442
 30
0.0
 40
0.0885
  0
CIRCLE
  5
8B
330
409
100
AcDbEntity
  8
1
 62
     7
100
AcDbCircle
 10
0.9448
 20
1.7442
 30
0.0
 40
0.25
  0
CIRCLE
  5
8D
330
409
100
AcDbEntity
  8
1
 62
     7
100
AcDbCircle
 10
0.8028
 20
2.3069
 30
0.0
 40
0.0885
  0
CIRCLE
  5
8E
330
409
100
AcDbEntity
  8
1
 62
     7
100
AcDbCircle
 10
0.8028
 20
2.3069
 30
0.0
 40
0.25
  0
CIRCLE
  5
90
330
409
100
AcDbEntity
  8
1
 62
     7
100
AcDbCircle
 10
0.7794
 20
2.8699
 30
0.0
 40
0.0885
  0
CIRCLE
  5
91
330
409
100
AcDbEntity
  8
1
 62
     7
100
AcDbCircle
 10
0.7794
 20
2.8699
 30
0.0
 40
0.25
  0
CIRCLE
  5
93
330
409
100
AcDbEntity
  8
1
 62
     7
100
AcDbCircle
 10
0.8221
 20
3.4303
 30
0.0
 40
0.0885
  0
CIRCLE
  5
94
330
409
100
AcDbEntity
  8
1
 62
     7
100
AcDbCircle
 10
0.8221
 20
3.4303
 30
0.0
 40
0.25
  0
CIRCLE
  5
96
330
409
100
AcDbEntity
  8
1
 62
     7
100
AcDbCircle
 10
0.892
 20
3.9887
 30
0.0
 40
0.0885
  0
CIRCLE
  5
97
330
409
100
AcDbEntity
  8
1
 62
     7
100
AcDbCircle
 10
0.892
 20
3.9887
 30
0.0
 40
0.25
  0
CIRCLE
  5
99
330
409
100
AcDbEntity
  8
1
 62
     7
100
AcDbCircle
 10
0.9685
 20
4.9824
 30
0.0
 40
0.0885
  0
CIRCLE
  5
9A
330
409
100
AcDbEntity
  8
1
 62
     7
100
AcDbCircle
 10
0.9685
 20
4.9824
 30
0.0
 40
0.1875
  0
CIRCLE
  5
9C
330
409
100
AcDbEntity
  8
1
 62
     7
100
AcDbCircle
 10
1.3174
 20
0.3092
 30
0.0
 40
0.0885
  0
CIRCLE
  5
9D
330
409
100
AcDbEntity
  8
1
 62
     7
100
AcDbCircle
 10
1.3174
 20
0.3092
 30
0.0
 40
0.1875
  0
CIRCLE
  5
9F
330
409
100
AcDbEntity
  8
1
 62
     7
100
AcDbCircle
 10
1.5574
 20
0.6739
 30
0.0
 40
0.0885
  0
CIRCLE
  5
A0
330
409
100
AcDbEntity
  8
1
 62
     7
100
AcDbCircle
 10
1.5574
 20
0.6739
 30
0.0
 40
0.1875
  0
CIRCLE
  5
A2
330
409
100
AcDbEntity
  8
1
 62
     7
100
AcDbCircle
 10
1.4264
 20
1.1693
 30
0.0
 40
0.0885
  0
CIRCLE
  5
A3
330
409
100
AcDbEntity
  8
1
 62
     7
100
AcDbCircle
 10
1.4264
 20
1.1693
 30
0.0
 40
0.25
  0
CIRCLE
  5
A5
330
409
100
AcDbEntity
  8
1
 62
     7
100
AcDbCircle
 10
1.5052
 20
1.7353
 30
0.0
 40
0.0885
  0
CIRCLE
  5
A6
330
409
100
AcDbEntity
  8
1
 62
     7
100
AcDbCircle
 10
1.5052
 20
1.7353
 30
0.0
 40
0.25
  0
CIRCLE
  5
A8
330
409
100
AcDbEntity
  8
1
 62
     7
100
AcDbCircle
 10
1.3648
 20
2.2874
 30
0.0
 40
0.0885
  0
CIRCLE
  5
A9
330
409
100
AcDbEntity
  8
1
 62
     7
100
AcDbCircle
 10
1.3648
 20
2.2874
 30
0.0
 40
0.25
  0
CIRCLE
  5
AB
330
409
100
AcDbEntity
  8
1
 62
     7
100
AcDbCircle
 10
1.3417
 20
2.8592
 30
0.0
 40
0.0885
  0
CIRCLE
  5
AC
330
409
100
AcDbEntity
  8
1
 62
     7
100
AcDbCircle
 10
1.3417
 20
2.8592
 30
0.0
 40
0.25
  0
CIRCLE
  5
AE
330
409
100
AcDbEntity
  8
1
 62
     7
100
AcDbCircle
 10
1.3842
 20
3.4209
 30
0.0
 40
0.0885
  0
CIRCLE
  5
AF
330
409
100
AcDbEntity
  8
1
 62
     7
100
AcDbCircle
 10
1.3842
 20
3.4209
 30
0.0
 40
0.25
  0
CIRCLE
  5
B1
330
409
100
AcDbEntity
  8
1
 62
     7
100
AcDbCircle
 10
1.4549
 20
3.9822
 30
0.0
 40
0.0885
  0
CIRCLE
  5
B2
330
409
100
AcDbEntity
  8
1
 62
     7
100
AcDbCircle
 10
1.4549
 20
3.9822
 30
0.0
 40
0.25
  0
CIRCLE
  5
B4
330
409
100
AcDbEntity
  8
1
 62
     7
100
AcDbCircle
 10
1.7773
 20
0.2659
 30
0.0
 40
0.0885
  0
CIRCLE
  5
B5
330
409
100
AcDbEntity
  8
1
 62
     7
100
AcDbCircle
 10
1.7773
 20
0.2659
 30
0.0
 40
0.1875
  0
CIRCLE
  5
B7
330
409
100
AcDbEntity
  8
1
 62
     7
100
AcDbCircle
 10
1.9919
 20
0.6674
 30
0.0
 40
0.0885
  0
CIRCLE
  5
B8
330
409
100
AcDbEntity
  8
1
 62
     7
100
AcDbCircle
 10
1.9919
 20
0.6674
 30
0.0
 40
0.1875
  0
CIRCLE
  5
BA
330
409
100
AcDbEntity
  8
1
 62
     7
100
AcDbCircle
 10
1.9891
 20
1.161
 30
0.0
 40
0.0885
  0
CIRCLE
  5
BB
330
409
100
AcDbEntity
  8
1
 62
     7
100
AcDbCircle
 10
1.9891
 20
1.161
 30
0.0
 40
0.25
  0
CIRCLE
  5
BD
330
409
100
AcDbEntity
  8
1
 62
     7
100
AcDbCircle
 10
2.2376
 20
0.2942
 30
0.0
 40
0.0885
  0
CIRCLE
  5
BE
330
409
100
AcDbEntity
  8
1
 62
     7
100
AcDbCircle
 10
2.2376
 20
0.2942
 30
0.0
 40
0.1875
  0
CIRCLE
  5
C0
330
409
100
AcDbEntity
  8
1
 62
     7
100
AcDbCircle
 10
2.0723
 20
1.7427
 30
0.0
 40
0.0885
  0
CIRCLE
  5
C1
330
409
100
AcDbEntity
  8
1
 62
     7
100
AcDbCircle
 10
2.0723
 20
1.7427
 30
0.0
 40
0.25
  0
CIRCLE
  5
C3
330
409
100
AcDbEntity
  8
1
 62
     7
100
AcDbCircle
 10
1.9303
 20
2.288
 30
0.0
 40
0.0885
  0
CIRCLE
  5
C4
330
409
100
AcDbEntity
  8
1
 62
     7
100
AcDbCircle
 10
1.9303
 20
2.288
 30
0.0
 40
0.25
  0
CIRCLE
  5
C6
330
409
100
AcDbEntity
  8
1
 62
     7
100
AcDbCircle
 10
1.9035
 20
2.8509
 30
0.0
 40
0.0885
  0
CIRCLE
  5
C7
330
409
100
AcDbEntity
  8
1
 62
     7
100
AcDbCircle
 10
1.9035
 20
2.8509
 30
0.0
 40
0.25
  0
CIRCLE
  5
C9
330
409
100
AcDbEntity
  8
1
 62
     7
100
AcDbCircle
 10
1.9467
 20
3.4191
 30
0.0
 40
0.0885
  0
CIRCLE
  5
CA
330
409
100
AcDbEntity
  8
1
 62
     7
100
AcDbCircle
 10
1.9467
 20
3.4191
 30
0.0
 40
0.25
  0
CIRCLE
  5
CC
330
409
100
AcDbEntity
  8
1
 62
     7
100
AcDbCircle
 10
2.0152
 20
3.9899
 30
0.0
 40
0.0885
  0
CIRCLE
  5
CD
330
409
100
AcDbEntity
  8
1
 62
     7
100
AcDbCircle
 10
2.0152
 20
3.9899
 30
0.0
 40
0.25
  0
LINE
  5
CF
330
409
100
AcDbEntity
  8
1
 62
     7
100
AcDbLine
 10
0.4792
 20
5.7324
 30
0.0
 11
0.4792
 21
7.7949
 31
0.0
  0
LINE
  5
D0
330
409
100
AcDbEntity
  8
1
 62
     7
100
AcDbLine
 10
0.4792
 20
7.7949
 30
0.0
 11
0.3542
 21
7.8574
 31
0.0
  0
LINE
  5
D1
330
409
100
AcDbEntity
  8
1
 62
     7
100
AcDbLine
 10
0.3542
 20
7.8574
 30
0.0
 11
0.3542
 21
5.7949
 31
0.0
  0
LINE
  5
D2
330
409
100
AcDbEntity
  8
1
 62
     7
100
AcDbLine
 10
0.3542
 20
5.7949
 30
0.0
 11
0.4792
 21
5.7324
 31
0.0
  0
LINE
  5
D3
330
409
100
AcDbEntity
  8
1
 62
     7
100
AcDbLine
 10
1.3417
 20
7.2699
 30
0.0
 11
0.4675
 21
5.5215
 31
0.0
  0
LINE
  5
D4
330
409
100
AcDbEntity
  8
1
 62
     7
100
AcDbLine
 10
0.4675
 20
5.5215
 30
0.0
 11
0.5925
 21
5.209
 31
0.0
  0
LINE
  5
D5
330
409
100
AcDbEntity
  8
1
 62
     7
100
AcDbLine
 10
0.5925
 20
5.209
 30
0.0
 11
1.7917
 21
7.6074
 31
0.0
  0
LINE
  5
D6
330
409
100
AcDbEntity
  8
1
 62
     7
100
AcDbLine
 10
1.7917
 20
7.6074
 30
0.0
 11
1.6667
 21
7.9199
 31
0.0
  0
LINE
  5
D7
330
409
100
AcDbEntity
  8
1
 62
     7
100
AcDbLine
 10
1.6667
 20
7.9199
 30
0.0
 11
1.4167
 21
7.4199
 31
0.0
  0
ARC
  5
D8
330
409
100
AcDbEntity
  8
1
 62
     7
100
AcDbCircle
 10
1.2292
 20
7.4199
 30
0.0
 40
0.1875
100
AcDbArc
 50
306.8698
 51
0.0
  0
LINE
  5
D9
330
409
100
AcDbEntity
  8
1
 62
     7
100
AcDbLine
 10
0.3542
 20
5.2949
 30
0.0
 11
0.3542
 21
4.7324
 31
0.0
  0
LINE
  5
DA
330
409
100
AcDbEntity
  8
1
 62
     7
100
AcDbLine
 10
0.3542
 20
4.7324
 30
0.0
 11
0.4792
 21
4.9824
 31
0.0
  0
LINE
  5
DB
330
409
100
AcDbEntity
  8
1
 62
     7
100
AcDbLine
 10
0.4792
 20
4.9824
 30
0.0
 11
0.3542
 21
5.2949
 31
0.0
  0
LINE
  5
DC
330
409
100
AcDbEntity
  8
1
 62
     7
100
AcDbLine
 10
1.4167
 20
4.7324
 30
0.0
 11
1.4167
 21
4.9931
 31
0.0
  0
ARC
  5
DD
330
409
100
AcDbEntity
  8
1
 62
     7
100
AcDbCircle
 10
1.4792
 20
5.1699
 30
0.0
 40
0.1875
100
AcDbArc
 50
109.4712
 51
250.5289
  0
LINE
  5
DE
330
409
100
AcDbEntity
  8
1
 62
     7
100
AcDbLine
 10
1.4167
 20
5.3467
 30
0.0
 11
1.4167
 21
6.4824
 31
0.0
  0
LINE
  5
DF
330
409
100
AcDbEntity
  8
1
 62
     7
100
AcDbLine
 10
1.4167
 20
6.4824
 30
0.0
 11
0.6966
 21
5.0421
 31
0.0
  0
LINE
  5
E0
330
409
100
AcDbEntity
  8
1
 62
     7
100
AcDbLine
 10
0.6966
 20
5.0421
 30
0.0
 11
0.6966
 21
4.7324
 31
0.0
  0
LINE
  5
E1
330
409
100
AcDbEntity
  8
1
 62
     7
100
AcDbLine
 10
0.6966
 20
4.7324
 30
0.0
 11
1.4167
 21
4.7324
 31
0.0
  0
LINE
  5
E2
330
409
100
AcDbEntity
  8
1
 62
     7
100
AcDbLine
 10
1.9792
 20
7.9824
 30
0.0
 11
1.8542
 21
8.2949
 31
0.0
  0
LINE
  5
E3
330
409
100
AcDbEntity
  8
1
 62
     7
100
AcDbLine
 10
1.8542
 20
8.2949
 30
0.0
 11
1.7605
 21
8.1074
 31
0.0
  0
LINE
  5
E4
330
409
100
AcDbEntity
  8
1
 62
     7
100
AcDbLine
 10
1.7605
 20
8.1074
 30
0.0
 11
1.8855
 21
7.7949
 31
0.0
  0
LINE
  5
E5
330
409
100
AcDbEntity
  8
1
 62
     7
100
AcDbLine
 10
1.8855
 20
7.7949
 30
0.0
 11
1.9792
 21
7.9824
 31
0.0
  0
LINE
  5
E6
330
409
100
AcDbEntity
  8
1
 62
     7
100
AcDbLine
 10
1.078
 20
8.5308
 30
0.0
 11
0.6667
 21
9.0449
 31
0.0
  0
LINE
  5
E7
330
409
100
AcDbEntity
  8
1
 62
     7
100
AcDbLine
 10
0.6667
 20
9.0449
 30
0.0
 11
1.1432
 21
7.6074
 31
0.0
  0
LINE
  5
E8
330
409
100
AcDbEntity
  8
1
 62
     7
100
AcDbLine
 10
1.1432
 20
7.6074
 30
0.0
 11
1.4167
 21
8.1074
 31
0.0
  0
LINE
  5
E9
330
409
100
AcDbEntity
  8
1
 62
     7
100
AcDbLine
 10
1.4167
 20
8.1074
 30
0.0
 11
1.3042
 21
8.2481
 31
0.0
  0
ARC
  5
EA
330
409
100
AcDbEntity
  8
1
 62
     7
100
AcDbCircle
 10
1.2292
 20
8.4199
 30
0.0
 40
0.1875
100
AcDbArc
 50
143.7469
 51
293.5724999999999
  0
CIRCLE
  5
EB
330
409
100
AcDbEntity
  8
1
 62
     7
100
AcDbCircle
 10
1.2292
 20
8.4199
 30
0.0
 40
0.086
  0
ARC
  5
EC
330
409
100
AcDbEntity
  8
1
 62
     7
100
AcDbCircle
 10
1.3799
 20
10.2204
 30
0.0
 40
0.0625
100
AcDbArc
 50
127.0492
 51
218.6605
  0
LINE
  5
ED
330
409
100
AcDbEntity
  8
1
 62
     7
100
AcDbLine
 10
1.3311
 20
10.1813
 30
0.0
 11
1.4432
 21
10.0411
 31
0.0
  0
LINE
  5
EE
330
409
100
AcDbEntity
  8
1
 62
     7
100
AcDbLine
 10
1.4432
 20
10.0411
 30
0.0
 11
1.5386
 21
9.4683
 31
0.0
  0
LINE
  5
EF
330
409
100
AcDbEntity
  8
1
 62
     7
100
AcDbLine
 10
1.5386
 20
9.4683
 30
0.0
 11
1.2404
 21
8.6071
 31
0.0
  0
ARC
  5
F0
330
409
100
AcDbEntity
  8
1
 62
     7
100
AcDbCircle
 10
1.2292
 20
8.4199
 30
0.0
 40
0.1875
100
AcDbArc
 50
25.9753
 51
86.57509999999999
  0
LINE
  5
F1
330
409
100
AcDbEntity
  8
1
 62
     7
100
AcDbLine
 10
1.3978
 20
8.502
 30
0.0
 11
1.587
 21
8.4186
 31
0.0
  0
LINE
  5
F2
330
409
100
AcDbEntity
  8
1
 62
     7
100
AcDbLine
 10
1.587
 20
8.4186
 30
0.0
 11
1.9504
 21
9.4683
 31
0.0
  0
LINE
  5
F3
330
409
100
AcDbEntity
  8
1
 62
     7
100
AcDbLine
 10
1.9504
 20
9.4683
 30
0.0
 11
1.8386
 21
10.3574
 31
0.0
  0
LINE
  5
F4
330
409
100
AcDbEntity
  8
1
 62
     7
100
AcDbLine
 10
1.8386
 20
10.3574
 30
0.0
 11
1.5386
 21
10.7324
 31
0.0
  0
LINE
  5
F5
330
409
100
AcDbEntity
  8
1
 62
     7
100
AcDbLine
 10
1.5386
 20
10.7324
 30
0.0
 11
1.3925
 21
10.6156
 31
0.0
  0
ARC
  5
F6
330
409
100
AcDbEntity
  8
1
 62
     7
100
AcDbCircle
 10
1.4316
 20
10.5668
 30
0.0
 40
0.0625
100
AcDbArc
 50
128.6592
 51
215.9668
  0
ARC
  5
F7
330
409
100
AcDbEntity
  8
1
 62
     7
100
AcDbCircle
 10
1.2292
 20
10.4199
 30
0.0
 40
0.1875
100
AcDbArc
 50
307.0488
 51
35.96769999999999
  0
LINE
  5
F8
330
409
100
AcDbEntity
  8
1
 62
     7
100
AcDbLine
 10
2.073
 20
8.1699
 30
0.0
 11
2.073
 21
8.7324
 31
0.0
  0
LINE
  5
F9
330
409
100
AcDbEntity
  8
1
 62
     7
100
AcDbLine
 10
2.073
 20
8.7324
 30
0.0
 11
1.948
 21
8.4824
 31
0.0
  0
LINE
  5
FA
330
409
100
AcDbEntity
  8
1
 62
     7
100
AcDbLine
 10
1.948
 20
8.4824
 30
0.0
 11
2.073
 21
8.1699
 31
0.0
  0
CIRCLE
  5
FB
330
409
100
AcDbEntity
  8
1
 62
     7
100
AcDbCircle
 10
1.2292
 20
7.4199
 30
0.0
 40
0.086
  0
CIRCLE
  5
FC
330
409
100
AcDbEntity
  8
1
 62
     7
100
AcDbCircle
 10
1.2297
 20
10.9199
 30
0.0
 40
0.086
  0
CIRCLE
  5
FD
330
409
100
AcDbEntity
  8
1
 62
     7
100
AcDbCircle
 10
1.4792
 20
5.1699
 30
0.0
 40
0.086
  0
POINT
  5
FE
330
409
100
AcDbEntity
  8
1
 62
     7
100
AcDbPoint
 10
1.1433
 20
10.4162
 30
0.0
  0
POINT
  5
FF
330
409
100
AcDbEntity
  8
1
 62
     7
100
AcDbPoint
 10
1.1432
 20
10.4161
 30
0.0
  0
CIRCLE
  5
100
330
409
100
AcDbEntity
  8
1
 62
     7
100
AcDbCircle
 10
1.2292
 20
10.4199
 30
0.0
 40
0.086
  0
LINE
  5
101
330
409
100
AcDbEntity
  8
1
 62
     7
100
AcDbLine
 10
1.7692
 20
11.9199
 30
0.0
 11
2.2917
 21
11.9199
 31
0.0
  0
LINE
  5
102
330
409
100
AcDbEntity
  8
1
 62
     7
100
AcDbLine
 10
2.2917
 20
11.9199
 30
0.0
 11
2.2917
 21
4.6699
 31
0.0
  0
ARC
  5
103
330
409
100
AcDbEntity
  8
1
 62
     7
100
AcDbCircle
 10
1.9167
 20
4.6699
 30
0.0
 40
0.375
100
AcDbArc
 50
270.0
 51
0.0
  0
LINE
  5
104
330
409
100
AcDbEntity
  8
1
 62
     7
100
AcDbLine
 10
1.9167
 20
4.2949
 30
0.0
 11
0.7292
 21
4.2949
 31
0.0
  0
LINE
  5
105
330
409
100
AcDbEntity
  8
1
 62
     7
100
AcDbLine
 10
0.7292
 20
4.2949
 30
0.0
 11
0.2292
 21
4.7324
 31
0.0
  0
LINE
  5
106
330
409
100
AcDbEntity
  8
1
 62
     7
100
AcDbLine
 10
0.2292
 20
4.7324
 30
0.0
 11
0.2292
 21
11.9199
 31
0.0
  0
LINE
  5
107
330
409
100
AcDbEntity
  8
1
 62
     7
100
AcDbLine
 10
0.2292
 20
11.9199
 30
0.0
 11
0.3542
 21
11.9199
 31
0.0
  0
LINE
  5
108
330
409
100
AcDbEntity
  8
1
 62
     7
100
AcDbLine
 10
0.3542
 20
11.9199
 30
0.0
 11
0.3542
 21
11.4024
 31
0.0
  0
LINE
  5
109
330
409
100
AcDbEntity
  8
1
 62
     7
100
AcDbLine
 10
0.3542
 20
11.4024
 30
0.0
 11
0.8902
 21
10.7324
 31
0.0
  0
LINE
  5
10A
330
409
100
AcDbEntity
  8
1
 62
     7
100
AcDbLine
 10
0.8902
 20
10.7324
 30
0.0
 11
0.9954
 21
10.8166
 31
0.0
  0
ARC
  5
10B
330
409
100
AcDbEntity
  8
1
 62
     7
100
AcDbCircle
 10
0.9173
 20
10.9142
 30
0.0
 40
0.125
100
AcDbArc
 50
308.6601
 51
1.0544
  0
ARC
  5
10C
330
409
100
AcDbEntity
  8
1
 62
     7
100
AcDbCircle
 10
1.2297
 20
10.9199
 30
0.0
 40
0.1875
100
AcDbArc
 50
91.7357
 51
181.0544
  0
LINE
  5
10D
330
409
100
AcDbEntity
  8
1
 62
     7
100
AcDbLine
 10
1.2241
 20
11.1073
 30
0.0
 11
0.574
 21
11.9199
 31
0.0
  0
LINE
  5
10E
330
409
100
AcDbEntity
  8
1
 62
     7
100
AcDbLine
 10
0.574
 20
11.9199
 30
0.0
 11
1.2725
 21
11.9199
 31
0.0
  0
LINE
  5
10F
330
409
100
AcDbEntity
  8
1
 62
     7
100
AcDbLine
 10
1.2725
 20
11.9199
 30
0.0
 11
1.7692
 21
11.299
 31
0.0
  0
LINE
  5
110
330
409
100
AcDbEntity
  8
1
 62
     7
100
AcDbLine
 10
1.7692
 20
11.299
 30
0.0
 11
1.7692
 21
11.9199
 31
0.0
  0
CIRCLE
  5
112
330
409
100
AcDbEntity
  8
1
 62
     7
100
AcDbCircle
 10
2.6962
 20
0.2583
 30
0.0
 40
0.0885
  0
CIRCLE
  5
113
330
409
100
AcDbEntity
  8
1
 62
     7
100
AcDbCircle
 10
2.6962
 20
0.2583
 30
0.0
 40
0.1875
  0
CIRCLE
  5
115
330
409
100
AcDbEntity
  8
1
 62
     7
100
AcDbCircle
 10
2.4974
 20
0.7494
 30
0.0
 40
0.0885
  0
CIRCLE
  5
116
330
409
100
AcDbEntity
  8
1
 62
     7
100
AcDbCircle
 10
2.4974
 20
0.7494
 30
0.0
 40
0.25
  0
CIRCLE
  5
118
330
409
100
AcDbEntity
  8
1
 62
     7
100
AcDbCircle
 10
2.5475
 20
1.3094
 30
0.0
 40
0.0885
  0
CIRCLE
  5
119
330
409
100
AcDbEntity
  8
1
 62
     7
100
AcDbCircle
 10
2.5475
 20
1.3094
 30
0.0
 40
0.25
  0
CIRCLE
  5
11B
330
409
100
AcDbEntity
  8
1
 62
     7
100
AcDbCircle
 10
2.6204
 20
1.8722
 30
0.0
 40
0.0885
  0
CIRCLE
  5
11C
330
409
100
AcDbEntity
  8
1
 62
     7
100
AcDbCircle
 10
2.6204
 20
1.8722
 30
0.0
 40
0.25
  0
CIRCLE
  5
11E
330
409
100
AcDbEntity
  8
1
 62
     7
100
AcDbCircle
 10
2.4937
 20
2.441
 30
0.0
 40
0.0885
  0
CIRCLE
  5
11F
330
409
100
AcDbEntity
  8
1
 62
     7
100
AcDbCircle
 10
2.4937
 20
2.441
 30
0.0
 40
0.25
  0
CIRCLE
  5
121
330
409
100
AcDbEntity
  8
1
 62
     7
100
AcDbCircle
 10
2.4627
 20
3.0064
 30
0.0
 40
0.0885
  0
CIRCLE
  5
122
330
409
100
AcDbEntity
  8
1
 62
     7
100
AcDbCircle
 10
2.4627
 20
3.0064
 30
0.0
 40
0.25
  0
CIRCLE
  5
124
330
409
100
AcDbEntity
  8
1
 62
     7
100
AcDbCircle
 10
2.5009
 20
3.5647
 30
0.0
 40
0.0885
  0
CIRCLE
  5
125
330
409
100
AcDbEntity
  8
1
 62
     7
100
AcDbCircle
 10
2.5009
 20
3.5647
 30
0.0
 40
0.25
  0
CIRCLE
  5
127
330
409
100
AcDbEntity
  8
1
 62
     7
100
AcDbCircle
 10
2.5693
 20
4.1293
 30
0.0
 40
0.0885
  0
CIRCLE
  5
128
330
409
100
AcDbEntity
  8
1
 62
     7
100
AcDbCircle
 10
2.5693
 20
4.1293
 30
0.0
 40
0.25
  0
CIRCLE
  5
12A
330
409
100
AcDbEntity
  8
1
 62
     7
100
AcDbCircle
 10
3.0508
 20
0.6109
 30
0.0
 40
0.0885
  0
CIRCLE
  5
12B
330
409
100
AcDbEntity
  8
1
 62
     7
100
AcDbCircle
 10
3.0508
 20
0.6109
 30
0.0
 40
0.25
  0
CIRCLE
  5
12D
330
409
100
AcDbEntity
  8
1
 62
     7
100
AcDbCircle
 10
3.1091
 20
1.1729
 30
0.0
 40
0.0885
  0
CIRCLE
  5
12E
330
409
100
AcDbEntity
  8
1
 62
     7
100
AcDbCircle
 10
3.1091
 20
1.1729
 30
0.0
 40
0.25
  0
CIRCLE
  5
130
330
409
100
AcDbEntity
  8
1
 62
     7
100
AcDbCircle
 10
3.1931
 20
1.7441
 30
0.0
 40
0.0885
  0
CIRCLE
  5
131
330
409
100
AcDbEntity
  8
1
 62
     7
100
AcDbCircle
 10
3.1931
 20
1.7441
 30
0.0
 40
0.25
  0
CIRCLE
  5
133
330
409
100
AcDbEntity
  8
1
 62
     7
100
AcDbCircle
 10
3.0457
 20
2.3073
 30
0.0
 40
0.0885
  0
CIRCLE
  5
134
330
409
100
AcDbEntity
  8
1
 62
     7
100
AcDbCircle
 10
3.0457
 20
2.3073
 30
0.0
 40
0.25
  0
CIRCLE
  5
136
330
409
100
AcDbEntity
  8
1
 62
     7
100
AcDbCircle
 10
3.0213
 20
2.8709
 30
0.0
 40
0.0885
  0
CIRCLE
  5
137
330
409
100
AcDbEntity
  8
1
 62
     7
100
AcDbCircle
 10
3.0213
 20
2.8709
 30
0.0
 40
0.25
  0
CIRCLE
  5
139
330
409
100
AcDbEntity
  8
1
 62
     7
100
AcDbCircle
 10
3.0559
 20
3.4313
 30
0.0
 40
0.0885
  0
CIRCLE
  5
13A
330
409
100
AcDbEntity
  8
1
 62
     7
100
AcDbCircle
 10
3.0559
 20
3.4313
 30
0.0
 40
0.25
  0
CIRCLE
  5
13C
330
409
100
AcDbEntity
  8
1
 62
     7
100
AcDbCircle
 10
3.1331
 20
3.9837
 30
0.0
 40
0.0885
  0
CIRCLE
  5
13D
330
409
100
AcDbEntity
  8
1
 62
     7
100
AcDbCircle
 10
3.1331
 20
3.9837
 30
0.0
 40
0.25
  0
CIRCLE
  5
13F
330
409
100
AcDbEntity
  8
1
 62
     7
100
AcDbCircle
 10
3.0935
 20
4.9824
 30
0.0
 40
0.0885
  0
CIRCLE
  5
140
330
409
100
AcDbEntity
  8
1
 62
     7
100
AcDbCircle
 10
3.0935
 20
4.9824
 30
0.0
 40
0.1875
  0
CIRCLE
  5
142
330
409
100
AcDbEntity
  8
1
 62
     7
100
AcDbCircle
 10
3.6118
 20
0.6096
 30
0.0
 40
0.0885
  0
CIRCLE
  5
143
330
409
100
AcDbEntity
  8
1
 62
     7
100
AcDbCircle
 10
3.6118
 20
0.6096
 30
0.0
 40
0.25
  0
CIRCLE
  5
145
330
409
100
AcDbEntity
  8
1
 62
     7
100
AcDbCircle
 10
3.6717
 20
1.1688
 30
0.0
 40
0.0885
  0
CIRCLE
  5
146
330
409
100
AcDbEntity
  8
1
 62
     7
100
AcDbCircle
 10
3.6717
 20
1.1688
 30
0.0
 40
0.25
  0
CIRCLE
  5
148
330
409
100
AcDbEntity
  8
1
 62
     7
100
AcDbCircle
 10
3.7548
 20
1.735
 30
0.0
 40
0.0885
  0
CIRCLE
  5
149
330
409
100
AcDbEntity
  8
1
 62
     7
100
AcDbCircle
 10
3.7548
 20
1.735
 30
0.0
 40
0.25
  0
CIRCLE
  5
14B
330
409
100
AcDbEntity
  8
1
 62
     7
100
AcDbCircle
 10
3.6056
 20
2.3011
 30
0.0
 40
0.0885
  0
CIRCLE
  5
14C
330
409
100
AcDbEntity
  8
1
 62
     7
100
AcDbCircle
 10
3.6056
 20
2.3011
 30
0.0
 40
0.25
  0
CIRCLE
  5
14E
330
409
100
AcDbEntity
  8
1
 62
     7
100
AcDbCircle
 10
3.5837
 20
2.8664
 30
0.0
 40
0.0885
  0
CIRCLE
  5
14F
330
409
100
AcDbEntity
  8
1
 62
     7
100
AcDbCircle
 10
3.5837
 20
2.8664
 30
0.0
 40
0.25
  0
CIRCLE
  5
151
330
409
100
AcDbEntity
  8
1
 62
     7
100
AcDbCircle
 10
3.6201
 20
3.4278
 30
0.0
 40
0.0885
  0
CIRCLE
  5
152
330
409
100
AcDbEntity
  8
1
 62
     7
100
AcDbCircle
 10
3.6201
 20
3.4278
 30
0.0
 40
0.25
  0
CIRCLE
  5
154
330
409
100
AcDbEntity
  8
1
 62
     7
100
AcDbCircle
 10
3.6911
 20
3.9829
 30
0.0
 40
0.0885
  0
CIRCLE
  5
155
330
409
100
AcDbEntity
  8
1
 62
     7
100
AcDbCircle
 10
3.6911
 20
3.9829
 30
0.0
 40
0.25
  0
CIRCLE
  5
157
330
409
100
AcDbEntity
  8
1
 62
     7
100
AcDbCircle
 10
4.1756
 20
0.6052
 30
0.0
 40
0.0885
  0
CIRCLE
  5
158
330
409
100
AcDbEntity
  8
1
 62
     7
100
AcDbCircle
 10
4.1756
 20
0.6052
 30
0.0
 40
0.25
  0
CIRCLE
  5
15A
330
409
100
AcDbEntity
  8
1
 62
     7
100
AcDbCircle
 10
4.2343
 20
1.1608
 30
0.0
 40
0.0885
  0
CIRCLE
  5
15B
330
409
100
AcDbEntity
  8
1
 62
     7
100
AcDbCircle
 10
4.2343
 20
1.1608
 30
0.0
 40
0.25
  0
CIRCLE
  5
15D
330
409
100
AcDbEntity
  8
1
 62
     7
100
AcDbCircle
 10
4.3202
 20
1.7232
 30
0.0
 40
0.0885
  0
CIRCLE
  5
15E
330
409
100
AcDbEntity
  8
1
 62
     7
100
AcDbCircle
 10
4.3202
 20
1.7232
 30
0.0
 40
0.25
  0
CIRCLE
  5
160
330
409
100
AcDbEntity
  8
1
 62
     7
100
AcDbCircle
 10
4.1708
 20
2.2942
 30
0.0
 40
0.0885
  0
CIRCLE
  5
161
330
409
100
AcDbEntity
  8
1
 62
     7
100
AcDbCircle
 10
4.1708
 20
2.2942
 30
0.0
 40
0.25
  0
CIRCLE
  5
163
330
409
100
AcDbEntity
  8
1
 62
     7
100
AcDbCircle
 10
4.1452
 20
2.8622
 30
0.0
 40
0.0885
  0
CIRCLE
  5
164
330
409
100
AcDbEntity
  8
1
 62
     7
100
AcDbCircle
 10
4.1452
 20
2.8622
 30
0.0
 40
0.25
  0
CIRCLE
  5
166
330
409
100
AcDbEntity
  8
1
 62
     7
100
AcDbCircle
 10
4.1829
 20
3.4229
 30
0.0
 40
0.0885
  0
CIRCLE
  5
167
330
409
100
AcDbEntity
  8
1
 62
     7
100
AcDbCircle
 10
4.1829
 20
3.4229
 30
0.0
 40
0.25
  0
CIRCLE
  5
169
330
409
100
AcDbEntity
  8
1
 62
     7
100
AcDbCircle
 10
4.2487
 20
3.9858
 30
0.0
 40
0.0885
  0
CIRCLE
  5
16A
330
409
100
AcDbEntity
  8
1
 62
     7
100
AcDbCircle
 10
4.2487
 20
3.9858
 30
0.0
 40
0.25
  0
LINE
  5
16C
330
409
100
AcDbEntity
  8
1
 62
     7
100
AcDbLine
 10
2.6042
 20
5.7324
 30
0.0
 11
2.6042
 21
7.7949
 31
0.0
  0
LINE
  5
16D
330
409
100
AcDbEntity
  8
1
 62
     7
100
AcDbLine
 10
2.6042
 20
7.7949
 30
0.0
 11
2.4792
 21
7.8574
 31
0.0
  0
LINE
  5
16E
330
409
100
AcDbEntity
  8
1
 62
     7
100
AcDbLine
 10
2.4792
 20
7.8574
 30
0.0
 11
2.4792
 21
5.7949
 31
0.0
  0
LINE
  5
16F
330
409
100
AcDbEntity
  8
1
 62
     7
100
AcDbLine
 10
2.4792
 20
5.7949
 30
0.0
 11
2.6042
 21
5.7324
 31
0.0
  0
LINE
  5
170
330
409
100
AcDbEntity
  8
1
 62
     7
100
AcDbLine
 10
3.4667
 20
7.2699
 30
0.0
 11
2.5925
 21
5.5215
 31
0.0
  0
LINE
  5
171
330
409
100
AcDbEntity
  8
1
 62
     7
100
AcDbLine
 10
2.5925
 20
5.5215
 30
0.0
 11
2.7175
 21
5.209
 31
0.0
  0
LINE
  5
172
330
409
100
AcDbEntity
  8
1
 62
     7
100
AcDbLine
 10
2.7175
 20
5.209
 30
0.0
 11
3.9167
 21
7.6074
 31
0.0
  0
LINE
  5
173
330
409
100
AcDbEntity
  8
1
 62
     7
100
AcDbLine
 10
3.9167
 20
7.6074
 30
0.0
 11
3.7917
 21
7.9199
 31
0.0
  0
LINE
  5
174
330
409
100
AcDbEntity
  8
1
 62
     7
100
AcDbLine
 10
3.7917
 20
7.9199
 30
0.0
 11
3.5417
 21
7.4199
 31
0.0
  0
ARC
  5
175
330
409
100
AcDbEntity
  8
1
 62
     7
100
AcDbCircle
 10
3.3542
 20
7.4199
 30
0.0
 40
0.1875
100
AcDbArc
 50
306.8698
 51
0.0
  0
LINE
  5
176
330
409
100
AcDbEntity
  8
1
 62
     7
100
AcDbLine
 10
2.4792
 20
5.2949
 30
0.0
 11
2.4792
 21
4.7324
 31
0.0
  0
LINE
  5
177
330
409
100
AcDbEntity
  8
1
 62
     7
100
AcDbLine
 10
2.4792
 20
4.7324
 30
0.0
 11
2.6042
 21
4.9824
 31
0.0
  0
LINE
  5
178
330
409
100
AcDbEntity
  8
1
 62
     7
100
AcDbLine
 10
2.6042
 20
4.9824
 30
0.0
 11
2.4792
 21
5.2949
 31
0.0
  0
LINE
  5
179
330
409
100
AcDbEntity
  8
1
 62
     7
100
AcDbLine
 10
3.5417
 20
4.7324
 30
0.0
 11
3.5417
 21
4.9931
 31
0.0
  0
ARC
  5
17A
330
409
100
AcDbEntity
  8
1
 62
     7
100
AcDbCircle
 10
3.6042
 20
5.1699
 30
0.0
 40
0.1875
100
AcDbArc
 50
109.4713
 51
250.5289
  0
LINE
  5
17B
330
409
100
AcDbEntity
  8
1
 62
     7
100
AcDbLine
 10
3.5417
 20
5.3467
 30
0.0
 11
3.5417
 21
6.4824
 31
0.0
  0
LINE
  5
17C
330
409
100
AcDbEntity
  8
1
 62
     7
100
AcDbLine
 10
3.5417
 20
6.4824
 30
0.0
 11
2.8216
 21
5.0421
 31
0.0
  0
LINE
  5
17D
330
409
100
AcDbEntity
  8
1
 62
     7
100
AcDbLine
 10
2.8216
 20
5.0421
 30
0.0
 11
2.8216
 21
4.7324
 31
0.0
  0
LINE
  5
17E
330
409
100
AcDbEntity
  8
1
 62
     7
100
AcDbLine
 10
2.8216
 20
4.7324
 30
0.0
 11
3.5417
 21
4.7324
 31
0.0
  0
LINE
  5
17F
330
409
100
AcDbEntity
  8
1
 62
     7
100
AcDbLine
 10
4.1042
 20
7.9824
 30
0.0
 11
3.9792
 21
8.2949
 31
0.0
  0
LINE
  5
180
330
409
100
AcDbEntity
  8
1
 62
     7
100
AcDbLine
 10
3.9792
 20
8.2949
 30
0.0
 11
3.8855
 21
8.1074
 31
0.0
  0
LINE
  5
181
330
409
100
AcDbEntity
  8
1
 62
     7
100
AcDbLine
 10
3.8855
 20
8.1074
 30
0.0
 11
4.0105
 21
7.7949
 31
0.0
  0
LINE
  5
182
330
409
100
AcDbEntity
  8
1
 62
     7
100
AcDbLine
 10
4.0105
 20
7.7949
 30
0.0
 11
4.1042
 21
7.9824
 31
0.0
  0
LINE
  5
183
330
409
100
AcDbEntity
  8
1
 62
     7
100
AcDbLine
 10
3.203
 20
8.5308
 30
0.0
 11
2.7917
 21
9.0449
 31
0.0
  0
LINE
  5
184
330
409
100
AcDbEntity
  8
1
 62
     7
100
AcDbLine
 10
2.7917
 20
9.0449
 30
0.0
 11
3.2682
 21
7.6074
 31
0.0
  0
LINE
  5
185
330
409
100
AcDbEntity
  8
1
 62
     7
100
AcDbLine
 10
3.2682
 20
7.6074
 30
0.0
 11
3.5417
 21
8.1074
 31
0.0
  0
LINE
  5
186
330
409
100
AcDbEntity
  8
1
 62
     7
100
AcDbLine
 10
3.5417
 20
8.1074
 30
0.0
 11
3.4292
 21
8.2481
 31
0.0
  0
ARC
  5
187
330
409
100
AcDbEntity
  8
1
 62
     7
100
AcDbCircle
 10
3.3542
 20
8.4199
 30
0.0
 40
0.1875
100
AcDbArc
 50
143.7469
 51
293.5724
  0
CIRCLE
  5
188
330
409
100
AcDbEntity
  8
1
 62
     7
100
AcDbCircle
 10
3.3542
 20
8.4199
 30
0.0
 40
0.086
  0
ARC
  5
189
330
409
100
AcDbEntity
  8
1
 62
     7
100
AcDbCircle
 10
3.5049
 20
10.2204
 30
0.0
 40
0.0625
100
AcDbArc
 50
127.0491
 51
218.6604
  0
LINE
  5
18A
330
409
100
AcDbEntity
  8
1
 62
     7
100
AcDbLine
 10
3.4561
 20
10.1813
 30
0.0
 11
3.5682
 21
10.0411
 31
0.0
  0
LINE
  5
18B
330
409
100
AcDbEntity
  8
1
 62
     7
100
AcDbLine
 10
3.5682
 20
10.0411
 30
0.0
 11
3.6636
 21
9.4683
 31
0.0
  0
LINE
  5
18C
330
409
100
AcDbEntity
  8
1
 62
     7
100
AcDbLine
 10
3.6636
 20
9.4683
 30
0.0
 11
3.3654
 21
8.6071
 31
0.0
  0
ARC
  5
18D
330
409
100
AcDbEntity
  8
1
 62
     7
100
AcDbCircle
 10
3.3542
 20
8.4199
 30
0.0
 40
0.1875
100
AcDbArc
 50
25.9753
 51
86.57509999999999
  0
LINE
  5
18E
330
409
100
AcDbEntity
  8
1
 62
     7
100
AcDbLine
 10
3.5228
 20
8.502
 30
0.0
 11
3.712
 21
8.4186
 31
0.0
  0
LINE
  5
18F
330
409
100
AcDbEntity
  8
1
 62
     7
100
AcDbLine
 10
3.712
 20
8.4186
 30
0.0
 11
4.0754
 21
9.4683
 31
0.0
  0
LINE
  5
190
330
409
100
AcDbEntity
  8
1
 62
     7
100
AcDbLine
 10
4.0754
 20
9.4683
 30
0.0
 11
3.9636
 21
10.3574
 31
0.0
  0
LINE
  5
191
330
409
100
AcDbEntity
  8
1
 62
     7
100
AcDbLine
 10
3.9636
 20
10.3574
 30
0.0
 11
3.6636
 21
10.7324
 31
0.0
  0
LINE
  5
192
330
409
100
AcDbEntity
  8
1
 62
     7
100
AcDbLine
 10
3.6636
 20
10.7324
 30
0.0
 11
3.5175
 21
10.6156
 31
0.0
  0
ARC
  5
193
330
409
100
AcDbEntity
  8
1
 62
     7
100
AcDbCircle
 10
3.5566
 20
10.5668
 30
0.0
 40
0.0625
100
AcDbArc
 50
128.6591
 51
215.9668
  0
ARC
  5
194
330
409
100
AcDbEntity
  8
1
 62
     7
100
AcDbCircle
 10
3.3542
 20
10.4199
 30
0.0
 40
0.1875
100
AcDbArc
 50
307.0488
 51
35.96769999999999
  0
LINE
  5
195
330
409
100
AcDbEntity
  8
1
 62
     7
100
AcDbLine
 10
4.198
 20
8.1699
 30
0.0
 11
4.198
 21
8.7324
 31
0.0
  0
LINE
  5
196
330
409
100
AcDbEntity
  8
1
 62
     7
100
AcDbLine
 10
4.198
 20
8.7324
 30
0.0
 11
4.073
 21
8.4824
 31
0.0
  0
LINE
  5
197
330
409
100
AcDbEntity
  8
1
 62
     7
100
AcDbLine
 10
4.073
 20
8.4824
 30
0.0
 11
4.198
 21
8.1699
 31
0.0
  0
CIRCLE
  5
198
330
409
100
AcDbEntity
  8
1
 62
     7
100
AcDbCircle
 10
3.3542
 20
7.4199
 30
0.0
 40
0.086
  0
CIRCLE
  5
199
330
409
100
AcDbEntity
  8
1
 62
     7
100
AcDbCircle
 10
3.3547
 20
10.9199
 30
0.0
 40
0.086
  0
CIRCLE
  5
19A
330
409
100
AcDbEntity
  8
1
 62
     7
100
AcDbCircle
 10
3.6042
 20
5.1699
 30
0.0
 40
0.086
  0
POINT
  5
19B
330
409
100
AcDbEntity
  8
1
 62
     7
100
AcDbPoint
 10
3.2683
 20
10.4162
 30
0.0
  0
POINT
  5
19C
330
409
100
AcDbEntity
  8
1
 62
     7
100
AcDbPoint
 10
3.2682
 20
10.4161
 30
0.0
  0
CIRCLE
  5
19D
330
409
100
AcDbEntity
  8
1
 62
     7
100
AcDbCircle
 10
3.3542
 20
10.4199
 30
0.0
 40
0.086
  0
LINE
  5
19E
330
409
100
AcDbEntity
  8
1
 62
     7
100
AcDbLine
 10
3.8942
 20
11.9199
 30
0.0
 11
4.4167
 21
11.9199
 31
0.0
  0
LINE
  5
19F
330
409
100
AcDbEntity
  8
1
 62
     7
100
AcDbLine
 10
4.4167
 20
11.9199
 30
0.0
 11
4.4167
 21
4.6699
 31
0.0
  0
ARC
  5
1A0
330
409
100
AcDbEntity
  8
1
 62
     7
100
AcDbCircle
 10
4.0417
 20
4.6699
 30
0.0
 40
0.375
100
AcDbArc
 50
270.0
 51
0.0
  0
LINE
  5
1A1
330
409
100
AcDbEntity
  8
1
 62
     7
100
AcDbLine
 10
4.0417
 20
4.2949
 30
0.0
 11
2.8542
 21
4.2949
 31
0.0
  0
LINE
  5
1A2
330
409
100
AcDbEntity
  8
1
 62
     7
100
AcDbLine
 10
2.8542
 20
4.2949
 30
0.0
 11
2.3542
 21
4.7324
 31
0.0
  0
LINE
  5
1A3
330
409
100
AcDbEntity
  8
1
 62
     7
100
AcDbLine
 10
2.3542
 20
4.7324
 30
0.0
 11
2.3542
 21
11.9199
 31
0.0
  0
LINE
  5
1A4
330
409
100
AcDbEntity
  8
1
 62
     7
100
AcDbLine
 10
2.3542
 20
11.9199
 30
0.0
 11
2.4792
 21
11.9199
 31
0.0
  0
LINE
  5
1A5
330
409
100
AcDbEntity
  8
1
 62
     7
100
AcDbLine
 10
2.4792
 20
11.9199
 30
0.0
 11
2.4792
 21
11.4024
 31
0.0
  0
LINE
  5
1A6
330
409
100
AcDbEntity
  8
1
 62
     7
100
AcDbLine
 10
2.4792
 20
11.4024
 30
0.0
 11
3.0152
 21
10.7324
 31
0.0
  0
LINE
  5
1A7
330
409
100
AcDbEntity
  8
1
 62
     7
100
AcDbLine
 10
3.0152
 20
10.7324
 30
0.0
 11
3.1204
 21
10.8166
 31
0.0
  0
ARC
  5
1A8
330
409
100
AcDbEntity
  8
1
 62
     7
100
AcDbCircle
 10
3.0423
 20
10.9142
 30
0.0
 40
0.125
100
AcDbArc
 50
308.6601
 51
1.0544
  0
ARC
  5
1A9
330
409
100
AcDbEntity
  8
1
 62
     7
100
AcDbCircle
 10
3.3547
 20
10.9199
 30
0.0
 40
0.1875
100
AcDbArc
 50
91.7357
 51
181.0544
  0
LINE
  5
1AA
330
409
100
AcDbEntity
  8
1
 62
     7
100
AcDbLine
 10
3.3491
 20
11.1073
 30
0.0
 11
2.699
 21
11.9199
 31
0.0
  0
LINE
  5
1AB
330
409
100
AcDbEntity
  8
1
 62
     7
100
AcDbLine
 10
2.699
 20
11.9199
 30
0.0
 11
3.3975
 21
11.9199
 31
0.0
  0
LINE
  5
1AC
330
409
100
AcDbEntity
  8
1
 62
     7
100
AcDbLine
 10
3.3975
 20
11.9199
 30
0.0
 11
3.8942
 21
11.299
 31
0.0
  0
LINE
  5
1AD
330
409
100
AcDbEntity
  8
1
 62
     7
100
AcDbLine
 10
3.8942
 20
11.299
 30
0.0
 11
3.8942
 21
11.9199
 31
0.0
  0
CIRCLE
  5
1AF
330
409
100
AcDbEntity
  8
1
 62
     7
100
AcDbCircle
 10
4.7224
 20
2.1158
 30
0.0
 40
0.0885
  0
CIRCLE
  5
1B0
330
409
100
AcDbEntity
  8
1
 62
     7
100
AcDbCircle
 10
4.7224
 20
2.1158
 30
0.0
 40
0.25
  0
CIRCLE
  5
1B2
330
409
100
AcDbEntity
  8
1
 62
     7
100
AcDbCircle
 10
4.688
 20
2.6822
 30
0.0
 40
0.0885
  0
CIRCLE
  5
1B3
330
409
100
AcDbEntity
  8
1
 62
     7
100
AcDbCircle
 10
4.688
 20
2.6822
 30
0.0
 40
0.25
  0
CIRCLE
  5
1B5
330
409
100
AcDbEntity
  8
1
 62
     7
100
AcDbCircle
 10
5.2502
 20
2.6413
 30
0.0
 40
0.0885
  0
CIRCLE
  5
1B6
330
409
100
AcDbEntity
  8
1
 62
     7
100
AcDbCircle
 10
5.2502
 20
2.6413
 30
0.0
 40
0.25
  0
CIRCLE
  5
1B8
330
409
100
AcDbEntity
  8
1
 62
     7
100
AcDbCircle
 10
7.1806
 20
0.4068
 30
0.0
 40
0.0885
  0
CIRCLE
  5
1B9
330
409
100
AcDbEntity
  8
1
 62
     7
100
AcDbCircle
 10
7.1806
 20
0.4068
 30
0.0
 40
0.1875
  0
CIRCLE
  5
1BB
330
409
100
AcDbEntity
  8
1
 62
     7
100
AcDbCircle
 10
7.5947
 20
0.2632
 30
0.0
 40
0.0885
  0
CIRCLE
  5
1BC
330
409
100
AcDbEntity
  8
1
 62
     7
100
AcDbCircle
 10
7.5947
 20
0.2632
 30
0.0
 40
0.1875
  0
CIRCLE
  5
1BE
330
409
100
AcDbEntity
  8
1
 62
     7
100
AcDbCircle
 10
6.1917
 20
2.5679
 30
0.0
 40
0.0825
  0
CIRCLE
  5
1BF
330
409
100
AcDbEntity
  8
1
 62
     7
100
AcDbCircle
 10
12.1706
 20
2.0558
 30
0.0
 40
0.086
  0
CIRCLE
  5
1C0
330
409
100
AcDbEntity
  8
1
 62
     7
100
AcDbCircle
 10
6.0784
 20
0.9469
 30
0.0
 40
0.0825
  0
CIRCLE
  5
1C1
330
409
100
AcDbEntity
  8
1
 62
     7
100
AcDbCircle
 10
4.6719
 20
0.544
 30
0.0
 40
0.0825
  0
LINE
  5
1C2
330
409
100
AcDbEntity
  8
1
 62
     7
100
AcDbLine
 10
9.2763
 20
0.985
 30
0.0
 11
9.2894
 21
1.1721
 31
0.0
  0
LINE
  5
1C3
330
409
100
AcDbEntity
  8
1
 62
     7
100
AcDbLine
 10
9.2894
 20
1.1721
 30
0.0
 11
7.5245
 21
1.2955
 31
0.0
  0
LINE
  5
1C4
330
409
100
AcDbEntity
  8
1
 62
     7
100
AcDbLine
 10
7.5245
 20
1.2955
 30
0.0
 11
7.6553
 21
1.0984
 31
0.0
  0
LINE
  5
1C5
330
409
100
AcDbEntity
  8
1
 62
     7
100
AcDbLine
 10
7.6553
 20
1.0984
 30
0.0
 11
9.2763
 21
0.985
 31
0.0
  0
LINE
  5
1C6
330
409
100
AcDbEntity
  8
1
 62
     7
100
AcDbLine
 10
6.901
 20
1.3391
 30
0.0
 11
5.2992
 21
1.4511
 31
0.0
  0
LINE
  5
1C7
330
409
100
AcDbEntity
  8
1
 62
     7
100
AcDbLine
 10
5.2992
 20
1.4511
 30
0.0
 11
5.2861
 21
1.264
 31
0.0
  0
LINE
  5
1C8
330
409
100
AcDbEntity
  8
1
 62
     7
100
AcDbLine
 10
5.2861
 20
1.264
 30
0.0
 11
7.0318
 21
1.142
 31
0.0
  0
LINE
  5
1C9
330
409
100
AcDbEntity
  8
1
 62
     7
100
AcDbLine
 10
7.0318
 20
1.142
 30
0.0
 11
6.901
 21
1.3391
 31
0.0
  0
LINE
  5
1CA
330
409
100
AcDbEntity
  8
1
 62
     7
100
AcDbLine
 10
7.0885
 20
1.9524
 30
0.0
 11
7.3941
 21
1.4919
 31
0.0
  0
LINE
  5
1CB
330
409
100
AcDbEntity
  8
1
 62
     7
100
AcDbLine
 10
7.3941
 20
1.4919
 30
0.0
 11
10.5494
 21
1.2713
 31
0.0
  0
LINE
  5
1CC
330
409
100
AcDbEntity
  8
1
 62
     7
100
AcDbLine
 10
10.5494
 20
1.2713
 30
0.0
 11
10.7049
 21
1.5638
 31
0.0
  0
LINE
  5
1CD
330
409
100
AcDbEntity
  8
1
 62
     7
100
AcDbLine
 10
10.7049
 20
1.5638
 30
0.0
 11
10.4232
 21
1.7192
 31
0.0
  0
LINE
  5
1CE
330
409
100
AcDbEntity
  8
1
 62
     7
100
AcDbLine
 10
10.4232
 20
1.7192
 30
0.0
 11
7.0885
 21
1.9524
 31
0.0
  0
ARC
  5
1CF
330
409
100
AcDbEntity
  8
1
 62
     7
100
AcDbCircle
 10
5.9591
 20
1.4762
 30
0.0
 40
0.5755
100
AcDbArc
 50
101.7895
 51
164.398
  0
LINE
  5
1D0
330
409
100
AcDbEntity
  8
1
 62
     7
100
AcDbLine
 10
5.4048
 20
1.631
 30
0.0
 11
6.4194
 21
1.5601
 31
0.0
  0
LINE
  5
1D1
330
409
100
AcDbEntity
  8
1
 62
     7
100
AcDbLine
 10
6.4194
 20
1.5601
 30
0.0
 11
6.1137
 21
2.0206
 31
0.0
  0
LINE
  5
1D2
330
409
100
AcDbEntity
  8
1
 62
     7
100
AcDbLine
 10
6.1137
 20
2.0206
 30
0.0
 11
5.8415
 21
2.0396
 31
0.0
  0
CIRCLE
  5
1D3
330
409
100
AcDbEntity
  8
1
 62
     7
100
AcDbCircle
 10
10.7792
 20
0.9731
 30
0.0
 40
0.0825
  0
CIRCLE
  5
1D4
330
409
100
AcDbEntity
  8
1
 62
     7
100
AcDbCircle
 10
9.5322
 20
1.0603
 30
0.0
 40
0.0825
  0
CIRCLE
  5
1D5
330
409
100
AcDbEntity
  8
1
 62
     7
100
AcDbCircle
 10
7.2007
 20
0.8686
 30
0.0
 40
0.0825
  0
CIRCLE
  5
1D6
330
409
100
AcDbEntity
  8
1
 62
     7
100
AcDbCircle
 10
6.551
 20
0.5379
 30
0.0
 40
0.0825
  0
CIRCLE
  5
1D7
330
409
100
AcDbEntity
  8
1
 62
     7
100
AcDbCircle
 10
6.684
 20
2.4395
 30
0.0
 40
0.086
  0
LINE
  5
1D8
330
409
100
AcDbEntity
  8
1
 62
     7
100
AcDbLine
 10
12.2517
 20
0.7104
 30
0.0
 11
11.0987
 21
1.3465
 31
0.0
  0
LINE
  5
1D9
330
409
100
AcDbEntity
  8
1
 62
     7
100
AcDbLine
 10
11.0987
 20
1.3465
 30
0.0
 11
10.9779
 21
1.1276
 31
0.0
  0
LINE
  5
1DA
330
409
100
AcDbEntity
  8
1
 62
     7
100
AcDbLine
 10
10.9779
 20
1.1276
 30
0.0
 11
12.0893
 21
0.5144
 31
0.0
  0
ARC
  5
1DB
330
409
100
AcDbEntity
  8
1
 62
     7
100
AcDbCircle
 10
11.6014
 20
1.084
 30
0.0
 40
0.75
100
AcDbArc
 50
269.8140000000001
 51
310.5837999999999
  0
LINE
  5
1DC
330
409
100
AcDbEntity
  8
1
 62
     7
100
AcDbLine
 10
11.599
 20
0.334
 30
0.0
 11
8.1039
 21
0.3454
 31
0.0
  0
LINE
  5
1DD
330
409
100
AcDbEntity
  8
1
 62
     7
100
AcDbLine
 10
8.1039
 20
0.3454
 30
0.0
 11
7.3427
 21
0.6463
 31
0.0
  0
ARC
  5
1DE
330
409
100
AcDbEntity
  8
1
 62
     7
100
AcDbCircle
 10
7.1513
 20
0.1621
 30
0.0
 40
0.5207
100
AcDbArc
 50
68.4254
 51
147.9525
  0
ARC
  5
1DF
330
409
100
AcDbEntity
  8
1
 62
     7
100
AcDbCircle
 10
6.551
 20
0.5379
 30
0.0
 40
0.1875
100
AcDbArc
 50
269.8138
 51
327.9525
  0
LINE
  5
1E0
330
409
100
AcDbEntity
  8
1
 62
     7
100
AcDbLine
 10
6.5504
 20
0.3504
 30
0.0
 11
4.6712
 21
0.3565
 31
0.0
  0
ARC
  5
1E1
330
409
100
AcDbEntity
  8
1
 62
     7
100
AcDbCircle
 10
4.6719
 20
0.544
 30
0.0
 40
0.1875
100
AcDbArc
 50
176.0865
 51
269.8139
  0
ARC
  5
1E2
330
409
100
AcDbEntity
  8
1
 62
     7
100
AcDbCircle
 10
7.0595
 20
0.3807
 30
0.0
 40
2.5808
100
AcDbArc
 50
109.2384
 51
176.0865
  0
LINE
  5
1E3
330
409
100
AcDbEntity
  8
1
 62
     7
100
AcDbLine
 10
6.2092
 20
2.8173
 30
0.0
 11
12.1946
 21
2.3988
 31
0.0
  0
ARC
  5
1E4
330
409
100
AcDbEntity
  8
1
 62
     7
100
AcDbCircle
 10
12.1771
 20
2.1494
 30
0.0
 40
0.25
100
AcDbArc
 50
356.0000000000001
 51
85.9998
  0
LINE
  5
1E5
330
409
100
AcDbEntity
  8
1
 62
     7
100
AcDbLine
 10
12.4265
 20
2.1319
 30
0.0
 11
12.4162
 21
1.9851
 31
0.0
  0
LINE
  5
1E6
330
409
100
AcDbEntity
  8
1
 62
     7
100
AcDbLine
 10
12.4162
 20
1.9851
 30
0.0
 11
11.7622
 21
1.5329
 31
0.0
  0
LINE
  5
1E7
330
409
100
AcDbEntity
  8
1
 62
     7
100
AcDbLine
 10
11.7622
 20
1.5329
 30
0.0
 11
12.3816
 21
1.4896
 31
0.0
  0
LINE
  5
1E8
330
409
100
AcDbEntity
  8
1
 62
     7
100
AcDbLine
 10
12.3816
 20
1.4896
 30
0.0
 11
12.3496
 21
1.0317
 31
0.0
  0
ARC
  5
1E9
330
409
100
AcDbEntity
  8
1
 62
     7
100
AcDbCircle
 10
11.6014
 20
1.084
 30
0.0
 40
0.75
100
AcDbArc
 50
330.1188
 51
356.0000000000001
  0
CIRCLE
  5
1EB
330
409
100
AcDbEntity
  8
1
 62
     7
100
AcDbCircle
 10
11.665
 20
2.7473
 30
0.0
 40
0.0885
  0
CIRCLE
  5
1EC
330
409
100
AcDbEntity
  8
1
 62
     7
100
AcDbCircle
 10
11.665
 20
2.7473
 30
0.0
 40
0.25
  0
CIRCLE
  5
1EE
330
409
100
AcDbEntity
  8
1
 62
     7
100
AcDbCircle
 10
12.0758
 20
3.1504
 30
0.0
 40
0.0885
  0
CIRCLE
  5
1EF
330
409
100
AcDbEntity
  8
1
 62
     7
100
AcDbCircle
 10
12.0758
 20
3.1504
 30
0.0
 40
0.25
  0
CIRCLE
  5
1F1
330
409
100
AcDbEntity
  8
1
 62
     7
100
AcDbCircle
 10
10.7212
 20
2.815
 30
0.0
 40
0.0825
  0
CIRCLE
  5
1F2
330
409
100
AcDbEntity
  8
1
 62
     7
100
AcDbCircle
 10
4.7424
 20
3.3271
 30
0.0
 40
0.086
  0
CIRCLE
  5
1F3
330
409
100
AcDbEntity
  8
1
 62
     7
100
AcDbCircle
 10
10.8346
 20
4.4361
 30
0.0
 40
0.0825
  0
CIRCLE
  5
1F4
330
409
100
AcDbEntity
  8
1
 62
     7
100
AcDbCircle
 10
12.2411
 20
4.839
 30
0.0
 40
0.0825
  0
LINE
  5
1F5
330
409
100
AcDbEntity
  8
1
 62
     7
100
AcDbLine
 10
7.6366
 20
4.3979
 30
0.0
 11
7.6236
 21
4.2109
 31
0.0
  0
LINE
  5
1F6
330
409
100
AcDbEntity
  8
1
 62
     7
100
AcDbLine
 10
7.6236
 20
4.2109
 30
0.0
 11
9.3885
 21
4.0875
 31
0.0
  0
LINE
  5
1F7
330
409
100
AcDbEntity
  8
1
 62
     7
100
AcDbLine
 10
9.3885
 20
4.0875
 30
0.0
 11
9.2577
 21
4.2846
 31
0.0
  0
LINE
  5
1F8
330
409
100
AcDbEntity
  8
1
 62
     7
100
AcDbLine
 10
9.2577
 20
4.2846
 30
0.0
 11
7.6366
 21
4.3979
 31
0.0
  0
LINE
  5
1F9
330
409
100
AcDbEntity
  8
1
 62
     7
100
AcDbLine
 10
10.012
 20
4.0439
 30
0.0
 11
11.6138
 21
3.9319
 31
0.0
  0
LINE
  5
1FA
330
409
100
AcDbEntity
  8
1
 62
     7
100
AcDbLine
 10
11.6138
 20
3.9319
 30
0.0
 11
11.6269
 21
4.1189
 31
0.0
  0
LINE
  5
1FB
330
409
100
AcDbEntity
  8
1
 62
     7
100
AcDbLine
 10
11.6269
 20
4.1189
 30
0.0
 11
9.8812
 21
4.241
 31
0.0
  0
LINE
  5
1FC
330
409
100
AcDbEntity
  8
1
 62
     7
100
AcDbLine
 10
9.8812
 20
4.241
 30
0.0
 11
10.012
 21
4.0439
 31
0.0
  0
LINE
  5
1FD
330
409
100
AcDbEntity
  8
1
 62
     7
100
AcDbLine
 10
9.8245
 20
3.4306
 30
0.0
 11
9.5188
 21
3.8911
 31
0.0
  0
LINE
  5
1FE
330
409
100
AcDbEntity
  8
1
 62
     7
100
AcDbLine
 10
9.5188
 20
3.8911
 30
0.0
 11
6.3636
 21
4.1117
 31
0.0
  0
LINE
  5
1FF
330
409
100
AcDbEntity
  8
1
 62
     7
100
AcDbLine
 10
6.3636
 20
4.1117
 30
0.0
 11
6.2081
 21
3.8192
 31
0.0
  0
LINE
  5
200
330
409
100
AcDbEntity
  8
1
 62
     7
100
AcDbLine
 10
6.2081
 20
3.8192
 30
0.0
 11
6.4898
 21
3.6637
 31
0.0
  0
LINE
  5
201
330
409
100
AcDbEntity
  8
1
 62
     7
100
AcDbLine
 10
6.4898
 20
3.6637
 30
0.0
 11
9.8245
 21
3.4306
 31
0.0
  0
ARC
  5
202
330
409
100
AcDbEntity
  8
1
 62
     7
100
AcDbCircle
 10
10.9539
 20
3.9068
 30
0.0
 40
0.5755
100
AcDbArc
 50
281.7896
 51
344.398
  0
LINE
  5
203
330
409
100
AcDbEntity
  8
1
 62
     7
100
AcDbLine
 10
11.5082
 20
3.752
 30
0.0
 11
10.4936
 21
3.8229
 31
0.0
  0
LINE
  5
204
330
409
100
AcDbEntity
  8
1
 62
     7
100
AcDbLine
 10
10.4936
 20
3.8229
 30
0.0
 11
10.7993
 21
3.3624
 31
0.0
  0
LINE
  5
205
330
409
100
AcDbEntity
  8
1
 62
     7
100
AcDbLine
 10
10.7993
 20
3.3624
 30
0.0
 11
11.0714
 21
3.3434
 31
0.0
  0
CIRCLE
  5
206
330
409
100
AcDbEntity
  8
1
 62
     7
100
AcDbCircle
 10
6.1338
 20
4.4098
 30
0.0
 40
0.0825
  0
CIRCLE
  5
207
330
409
100
AcDbEntity
  8
1
 62
     7
100
AcDbCircle
 10
7.3808
 20
4.3226
 30
0.0
 40
0.0825
  0
CIRCLE
  5
208
330
409
100
AcDbEntity
  8
1
 62
     7
100
AcDbCircle
 10
9.7123
 20
4.5144
 30
0.0
 40
0.0825
  0
CIRCLE
  5
209
330
409
100
AcDbEntity
  8
1
 62
     7
100
AcDbCircle
 10
10.362
 20
4.8451
 30
0.0
 40
0.0825
  0
CIRCLE
  5
20A
330
409
100
AcDbEntity
  8
1
 62
     7
100
AcDbCircle
 10
10.229
 20
2.9434
 30
0.0
 40
0.086
  0
LINE
  5
20B
330
409
100
AcDbEntity
  8
1
 62
     7
100
AcDbLine
 10
4.6613
 20
4.6726
 30
0.0
 11
5.8143
 21
4.0364
 31
0.0
  0
LINE
  5
20C
330
409
100
AcDbEntity
  8
1
 62
     7
100
AcDbLine
 10
5.8143
 20
4.0364
 30
0.0
 11
5.9351
 21
4.2553
 31
0.0
  0
LINE
  5
20D
330
409
100
AcDbEntity
  8
1
 62
     7
100
AcDbLine
 10
5.9351
 20
4.2553
 30
0.0
 11
4.8237
 21
4.8685
 31
0.0
  0
ARC
  5
20E
330
409
100
AcDbEntity
  8
1
 62
     7
100
AcDbCircle
 10
5.3116
 20
4.2989
 30
0.0
 40
0.75
100
AcDbArc
 50
89.814
 51
130.5837
  0
LINE
  5
20F
330
409
100
AcDbEntity
  8
1
 62
     7
100
AcDbLine
 10
5.314
 20
5.0489
 30
0.0
 11
8.8091
 21
5.0376
 31
0.0
  0
LINE
  5
210
330
409
100
AcDbEntity
  8
1
 62
     7
100
AcDbLine
 10
8.8091
 20
5.0376
 30
0.0
 11
9.5703
 21
4.7366
 31
0.0
  0
ARC
  5
211
330
409
100
AcDbEntity
  8
1
 62
     7
100
AcDbCircle
 10
9.7617
 20
5.2208
 30
0.0
 40
0.5207
100
AcDbArc
 50
248.4254
 51
327.9524000000001
  0
ARC
  5
212
330
409
100
AcDbEntity
  8
1
 62
     7
100
AcDbCircle
 10
10.362
 20
4.8451
 30
0.0
 40
0.1875
100
AcDbArc
 50
89.8138
 51
147.9525
  0
LINE
  5
213
330
409
100
AcDbEntity
  8
1
 62
     7
100
AcDbLine
 10
10.3626
 20
5.0326
 30
0.0
 11
12.2417
 21
5.0265
 31
0.0
  0
ARC
  5
214
330
409
100
AcDbEntity
  8
1
 62
     7
100
AcDbCircle
 10
12.2411
 20
4.839
 30
0.0
 40
0.1875
100
AcDbArc
 50
356.0865
 51
89.8135
  0
ARC
  5
215
330
409
100
AcDbEntity
  8
1
 62
     7
100
AcDbCircle
 10
9.8534
 20
5.0023
 30
0.0
 40
2.5808
100
AcDbArc
 50
289.2384
 51
356.0865
  0
LINE
  5
216
330
409
100
AcDbEntity
  8
1
 62
     7
100
AcDbLine
 10
10.7038
 20
2.5657
 30
0.0
 11
4.7184
 21
2.9842
 31
0.0
  0
ARC
  5
217
330
409
100
AcDbEntity
  8
1
 62
     7
100
AcDbCircle
 10
4.7359
 20
3.2336
 30
0.0
 40
0.25
100
AcDbArc
 50
176.0
 51
266.0
  0
LINE
  5
218
330
409
100
AcDbEntity
  8
1
 62
     7
100
AcDbLine
 10
4.4865
 20
3.251
 30
0.0
 11
4.4967
 21
3.3979
 31
0.0
  0
LINE
  5
219
330
409
100
AcDbEntity
  8
1
 62
     7
100
AcDbLine
 10
4.4967
 20
3.3979
 30
0.0
 11
5.1507
 21
3.8501
 31
0.0
  0
LINE
  5
21A
330
409
100
AcDbEntity
  8
1
 62
     7
100
AcDbLine
 10
5.1507
 20
3.8501
 30
0.0
 11
4.5314
 21
3.8934
 31
0.0
  0
LINE
  5
21B
330
409
100
AcDbEntity
  8
1
 62
     7
100
AcDbLine
 10
4.5314
 20
3.8934
 30
0.0
 11
4.5634
 21
4.3513
 31
0.0
  0
ARC
  5
21C
330
409
100
AcDbEntity
  8
1
 62
     7
100
AcDbCircle
 10
5.3116
 20
4.2989
 30
0.0
 40
0.75
100
AcDbArc
 50
150.1188
 51
176.0
  0
CIRCLE
  5
21E
330
409
100
AcDbEntity
  8
1
 62
     7
100
AcDbCircle
 10
4.8387
 20
6.9916
 30
0.0
 40
0.0885
  0
CIRCLE
  5
21F
330
409
100
AcDbEntity
  8
1
 62
     7
100
AcDbCircle
 10
4.8387
 20
6.9916
 30
0.0
 40
0.25
  0
CIRCLE
  5
221
330
409
100
AcDbEntity
  8
1
 62
     7
100
AcDbCircle
 10
5.2502
 20
7.3983
 30
0.0
 40
0.0885
  0
CIRCLE
  5
222
330
409
100
AcDbEntity
  8
1
 62
     7
100
AcDbCircle
 10
5.2502
 20
7.3983
 30
0.0
 40
0.25
  0
CIRCLE
  5
224
330
409
100
AcDbEntity
  8
1
 62
     7
100
AcDbCircle
 10
6.1917
 20
7.3249
 30
0.0
 40
0.0825
  0
CIRCLE
  5
225
330
409
100
AcDbEntity
  8
1
 62
     7
100
AcDbCircle
 10
12.1706
 20
6.8129
 30
0.0
 40
0.086
  0
CIRCLE
  5
226
330
409
100
AcDbEntity
  8
1
 62
     7
100
AcDbCircle
 10
6.0784
 20
5.7039
 30
0.0
 40
0.0825
  0
CIRCLE
  5
227
330
409
100
AcDbEntity
  8
1
 62
     7
100
AcDbCircle
 10
4.6719
 20
5.301
 30
0.0
 40
0.0825
  0
LINE
  5
228
330
409
100
AcDbEntity
  8
1
 62
     7
100
AcDbLine
 10
9.2763
 20
5.742
 30
0.0
 11
9.2894
 21
5.9291
 31
0.0
  0
LINE
  5
229
330
409
100
AcDbEntity
  8
1
 62
     7
100
AcDbLine
 10
9.2894
 20
5.9291
 30
0.0
 11
7.5245
 21
6.0525
 31
0.0
  0
LINE
  5
22A
330
409
100
AcDbEntity
  8
1
 62
     7
100
AcDbLine
 10
7.5245
 20
6.0525
 30
0.0
 11
7.6553
 21
5.8554
 31
0.0
  0
LINE
  5
22B
330
409
100
AcDbEntity
  8
1
 62
     7
100
AcDbLine
 10
7.6553
 20
5.8554
 30
0.0
 11
9.2763
 21
5.742
 31
0.0
  0
LINE
  5
22C
330
409
100
AcDbEntity
  8
1
 62
     7
100
AcDbLine
 10
6.901
 20
6.0961
 30
0.0
 11
5.2992
 21
6.2081
 31
0.0
  0
LINE
  5
22D
330
409
100
AcDbEntity
  8
1
 62
     7
100
AcDbLine
 10
5.2992
 20
6.2081
 30
0.0
 11
5.2861
 21
6.0211
 31
0.0
  0
LINE
  5
22E
330
409
100
AcDbEntity
  8
1
 62
     7
100
AcDbLine
 10
5.2861
 20
6.0211
 30
0.0
 11
7.0318
 21
5.899
 31
0.0
  0
LINE
  5
22F
330
409
100
AcDbEntity
  8
1
 62
     7
100
AcDbLine
 10
7.0318
 20
5.899
 30
0.0
 11
6.901
 21
6.0961
 31
0.0
  0
LINE
  5
230
330
409
100
AcDbEntity
  8
1
 62
     7
100
AcDbLine
 10
7.0885
 20
6.7094
 30
0.0
 11
7.3941
 21
6.2489
 31
0.0
  0
LINE
  5
231
330
409
100
AcDbEntity
  8
1
 62
     7
100
AcDbLine
 10
7.3941
 20
6.2489
 30
0.0
 11
10.5494
 21
6.0283
 31
0.0
  0
LINE
  5
232
330
409
100
AcDbEntity
  8
1
 62
     7
100
AcDbLine
 10
10.5494
 20
6.0283
 30
0.0
 11
10.7049
 21
6.3208
 31
0.0
  0
LINE
  5
233
330
409
100
AcDbEntity
  8
1
 62
     7
100
AcDbLine
 10
10.7049
 20
6.3208
 30
0.0
 11
10.4232
 21
6.4762
 31
0.0
  0
LINE
  5
234
330
409
100
AcDbEntity
  8
1
 62
     7
100
AcDbLine
 10
10.4232
 20
6.4762
 30
0.0
 11
7.0885
 21
6.7094
 31
0.0
  0
ARC
  5
235
330
409
100
AcDbEntity
  8
1
 62
     7
100
AcDbCircle
 10
5.9591
 20
6.2332
 30
0.0
 40
0.5755
100
AcDbArc
 50
101.7894
 51
164.398
  0
LINE
  5
236
330
409
100
AcDbEntity
  8
1
 62
     7
100
AcDbLine
 10
5.4048
 20
6.388
 30
0.0
 11
6.4194
 21
6.3171
 31
0.0
  0
LINE
  5
237
330
409
100
AcDbEntity
  8
1
 62
     7
100
AcDbLine
 10
6.4194
 20
6.3171
 30
0.0
 11
6.1137
 21
6.7776
 31
0.0
  0
LINE
  5
238
330
409
100
AcDbEntity
  8
1
 62
     7
100
AcDbLine
 10
6.1137
 20
6.7776
 30
0.0
 11
5.8415
 21
6.7966
 31
0.0
  0
CIRCLE
  5
239
330
409
100
AcDbEntity
  8
1
 62
     7
100
AcDbCircle
 10
10.7792
 20
5.7302
 30
0.0
 40
0.0825
  0
CIRCLE
  5
23A
330
409
100
AcDbEntity
  8
1
 62
     7
100
AcDbCircle
 10
9.5322
 20
5.8174
 30
0.0
 40
0.0825
  0
CIRCLE
  5
23B
330
409
100
AcDbEntity
  8
1
 62
     7
100
AcDbCircle
 10
7.2007
 20
5.6256
 30
0.0
 40
0.0825
  0
CIRCLE
  5
23C
330
409
100
AcDbEntity
  8
1
 62
     7
100
AcDbCircle
 10
6.551
 20
5.2949
 30
0.0
 40
0.0825
  0
CIRCLE
  5
23D
330
409
100
AcDbEntity
  8
1
 62
     7
100
AcDbCircle
 10
6.684
 20
7.1965
 30
0.0
 40
0.086
  0
LINE
  5
23E
330
409
100
AcDbEntity
  8
1
 62
     7
100
AcDbLine
 10
12.2517
 20
5.4674
 30
0.0
 11
11.0987
 21
6.1035
 31
0.0
  0
LINE
  5
23F
330
409
100
AcDbEntity
  8
1
 62
     7
100
AcDbLine
 10
11.0987
 20
6.1035
 30
0.0
 11
10.9779
 21
5.8846
 31
0.0
  0
LINE
  5
240
330
409
100
AcDbEntity
  8
1
 62
     7
100
AcDbLine
 10
10.9779
 20
5.8846
 30
0.0
 11
12.0893
 21
5.2714
 31
0.0
  0
ARC
  5
241
330
409
100
AcDbEntity
  8
1
 62
     7
100
AcDbCircle
 10
11.6014
 20
5.841
 30
0.0
 40
0.75
100
AcDbArc
 50
269.8140000000001
 51
310.5837999999999
  0
LINE
  5
242
330
409
100
AcDbEntity
  8
1
 62
     7
100
AcDbLine
 10
11.599
 20
5.091
 30
0.0
 11
8.1039
 21
5.1024
 31
0.0
  0
LINE
  5
243
330
409
100
AcDbEntity
  8
1
 62
     7
100
AcDbLine
 10
8.1039
 20
5.1024
 30
0.0
 11
7.3427
 21
5.4033
 31
0.0
  0
ARC
  5
244
330
409
100
AcDbEntity
  8
1
 62
     7
100
AcDbCircle
 10
7.1513
 20
4.9191
 30
0.0
 40
0.5207
100
AcDbArc
 50
68.4254
 51
147.9525
  0
ARC
  5
245
330
409
100
AcDbEntity
  8
1
 62
     7
100
AcDbCircle
 10
6.551
 20
5.2949
 30
0.0
 40
0.1875
100
AcDbArc
 50
269.8138
 51
327.9525
  0
LINE
  5
246
330
409
100
AcDbEntity
  8
1
 62
     7
100
AcDbLine
 10
6.5504
 20
5.1074
 30
0.0
 11
4.6712
 21
5.1135
 31
0.0
  0
ARC
  5
247
330
409
100
AcDbEntity
  8
1
 62
     7
100
AcDbCircle
 10
4.6719
 20
5.301
 30
0.0
 40
0.1875
100
AcDbArc
 50
176.0865
 51
269.8139
  0
ARC
  5
248
330
409
100
AcDbEntity
  8
1
 62
     7
100
AcDbCircle
 10
7.0595
 20
5.1377
 30
0.0
 40
2.5808
100
AcDbArc
 50
109.2384
 51
176.0865
  0
LINE
  5
249
330
409
100
AcDbEntity
  8
1
 62
     7
100
AcDbLine
 10
6.2092
 20
7.5743
 30
0.0
 11
12.1946
 21
7.1558
 31
0.0
  0
ARC
  5
24A
330
409
100
AcDbEntity
  8
1
 62
     7
100
AcDbCircle
 10
12.1771
 20
6.9064
 30
0.0
 40
0.25
100
AcDbArc
 50
356.0000999999999
 51
85.9998
  0
LINE
  5
24B
330
409
100
AcDbEntity
  8
1
 62
     7
100
AcDbLine
 10
12.4265
 20
6.889
 30
0.0
 11
12.4162
 21
6.7421
 31
0.0
  0
LINE
  5
24C
330
409
100
AcDbEntity
  8
1
 62
     7
100
AcDbLine
 10
12.4162
 20
6.7421
 30
0.0
 11
11.7622
 21
6.2899
 31
0.0
  0
LINE
  5
24D
330
409
100
AcDbEntity
  8
1
 62
     7
100
AcDbLine
 10
11.7622
 20
6.2899
 30
0.0
 11
12.3816
 21
6.2466
 31
0.0
  0
LINE
  5
24E
330
409
100
AcDbEntity
  8
1
 62
     7
100
AcDbLine
 10
12.3816
 20
6.2466
 30
0.0
 11
12.3496
 21
5.7887
 31
0.0
  0
ARC
  5
24F
330
409
100
AcDbEntity
  8
1
 62
     7
100
AcDbCircle
 10
11.6014
 20
5.841
 30
0.0
 40
0.75
100
AcDbArc
 50
330.1188
 51
356.0000000000001
  0
CIRCLE
  5
251
330
409
100
AcDbEntity
  8
1
 62
     7
100
AcDbCircle
 10
11.6627
 20
7.4987
 30
0.0
 40
0.0885
  0
CIRCLE
  5
252
330
409
100
AcDbEntity
  8
1
 62
     7
100
AcDbCircle
 10
11.6627
 20
7.4987
 30
0.0
 40
0.25
  0
CIRCLE
  5
254
330
409
100
AcDbEntity
  8
1
 62
     7
100
AcDbCircle
 10
12.0772
 20
7.8778
 30
0.0
 40
0.0885
  0
CIRCLE
  5
255
330
409
100
AcDbEntity
  8
1
 62
     7
100
AcDbCircle
 10
12.0772
 20
7.8778
 30
0.0
 40
0.25
  0
CIRCLE
  5
257
330
409
100
AcDbEntity
  8
1
 62
     7
100
AcDbCircle
 10
10.7212
 20
7.5721
 30
0.0
 40
0.0825
  0
CIRCLE
  5
258
330
409
100
AcDbEntity
  8
1
 62
     7
100
AcDbCircle
 10
4.7424
 20
8.0841
 30
0.0
 40
0.086
  0
CIRCLE
  5
259
330
409
100
AcDbEntity
  8
1
 62
     7
100
AcDbCircle
 10
10.8346
 20
9.1931
 30
0.0
 40
0.0825
  0
CIRCLE
  5
25A
330
409
100
AcDbEntity
  8
1
 62
     7
100
AcDbCircle
 10
12.2411
 20
9.596
 30
0.0
 40
0.0825
  0
LINE
  5
25B
330
409
100
AcDbEntity
  8
1
 62
     7
100
AcDbLine
 10
7.6366
 20
9.155
 30
0.0
 11
7.6236
 21
8.9679
 31
0.0
  0
LINE
  5
25C
330
409
100
AcDbEntity
  8
1
 62
     7
100
AcDbLine
 10
7.6236
 20
8.9679
 30
0.0
 11
9.3885
 21
8.8445
 31
0.0
  0
LINE
  5
25D
330
409
100
AcDbEntity
  8
1
 62
     7
100
AcDbLine
 10
9.3885
 20
8.8445
 30
0.0
 11
9.2577
 21
9.0416
 31
0.0
  0
LINE
  5
25E
330
409
100
AcDbEntity
  8
1
 62
     7
100
AcDbLine
 10
9.2577
 20
9.0416
 30
0.0
 11
7.6366
 21
9.155
 31
0.0
  0
LINE
  5
25F
330
409
100
AcDbEntity
  8
1
 62
     7
100
AcDbLine
 10
10.012
 20
8.8009
 30
0.0
 11
11.6138
 21
8.6889
 31
0.0
  0
LINE
  5
260
330
409
100
AcDbEntity
  8
1
 62
     7
100
AcDbLine
 10
11.6138
 20
8.6889
 30
0.0
 11
11.6269
 21
8.8759
 31
0.0
  0
LINE
  5
261
330
409
100
AcDbEntity
  8
1
 62
     7
100
AcDbLine
 10
11.6269
 20
8.8759
 30
0.0
 11
9.8812
 21
8.998
 31
0.0
  0
LINE
  5
262
330
409
100
AcDbEntity
  8
1
 62
     7
100
AcDbLine
 10
9.8812
 20
8.998
 30
0.0
 11
10.012
 21
8.8009
 31
0.0
  0
LINE
  5
263
330
409
100
AcDbEntity
  8
1
 62
     7
100
AcDbLine
 10
9.8245
 20
8.1876
 30
0.0
 11
9.5188
 21
8.6481
 31
0.0
  0
LINE
  5
264
330
409
100
AcDbEntity
  8
1
 62
     7
100
AcDbLine
 10
9.5188
 20
8.6481
 30
0.0
 11
6.3636
 21
8.8687
 31
0.0
  0
LINE
  5
265
330
409
100
AcDbEntity
  8
1
 62
     7
100
AcDbLine
 10
6.3636
 20
8.8687
 30
0.0
 11
6.2081
 21
8.5762
 31
0.0
  0
LINE
  5
266
330
409
100
AcDbEntity
  8
1
 62
     7
100
AcDbLine
 10
6.2081
 20
8.5762
 30
0.0
 11
6.4898
 21
8.4208
 31
0.0
  0
LINE
  5
267
330
409
100
AcDbEntity
  8
1
 62
     7
100
AcDbLine
 10
6.4898
 20
8.4208
 30
0.0
 11
9.8245
 21
8.1876
 31
0.0
  0
ARC
  5
268
330
409
100
AcDbEntity
  8
1
 62
     7
100
AcDbCircle
 10
10.9539
 20
8.6638
 30
0.0
 40
0.5755
100
AcDbArc
 50
281.7896
 51
344.398
  0
LINE
  5
269
330
409
100
AcDbEntity
  8
1
 62
     7
100
AcDbLine
 10
11.5082
 20
8.509
 30
0.0
 11
10.4936
 21
8.5799
 31
0.0
  0
LINE
  5
26A
330
409
100
AcDbEntity
  8
1
 62
     7
100
AcDbLine
 10
10.4936
 20
8.5799
 30
0.0
 11
10.7993
 21
8.1194
 31
0.0
  0
LINE
  5
26B
330
409
100
AcDbEntity
  8
1
 62
     7
100
AcDbLine
 10
10.7993
 20
8.1194
 30
0.0
 11
11.0714
 21
8.1004
 31
0.0
  0
CIRCLE
  5
26C
330
409
100
AcDbEntity
  8
1
 62
     7
100
AcDbCircle
 10
6.1338
 20
9.1668
 30
0.0
 40
0.0825
  0
CIRCLE
  5
26D
330
409
100
AcDbEntity
  8
1
 62
     7
100
AcDbCircle
 10
7.3808
 20
9.0796
 30
0.0
 40
0.0825
  0
CIRCLE
  5
26E
330
409
100
AcDbEntity
  8
1
 62
     7
100
AcDbCircle
 10
9.7123
 20
9.2714
 30
0.0
 40
0.0825
  0
CIRCLE
  5
26F
330
409
100
AcDbEntity
  8
1
 62
     7
100
AcDbCircle
 10
10.362
 20
9.6021
 30
0.0
 40
0.0825
  0
CIRCLE
  5
270
330
409
100
AcDbEntity
  8
1
 62
     7
100
AcDbCircle
 10
10.229
 20
7.7005
 30
0.0
 40
0.086
  0
LINE
  5
271
330
409
100
AcDbEntity
  8
1
 62
     7
100
AcDbLine
 10
4.6613
 20
9.4296
 30
0.0
 11
5.8143
 21
8.7935
 31
0.0
  0
LINE
  5
272
330
409
100
AcDbEntity
  8
1
 62
     7
100
AcDbLine
 10
5.8143
 20
8.7935
 30
0.0
 11
5.9351
 21
9.0124
 31
0.0
  0
LINE
  5
273
330
409
100
AcDbEntity
  8
1
 62
     7
100
AcDbLine
 10
5.9351
 20
9.0124
 30
0.0
 11
4.8237
 21
9.6256
 31
0.0
  0
ARC
  5
274
330
409
100
AcDbEntity
  8
1
 62
     7
100
AcDbCircle
 10
5.3116
 20
9.056
 30
0.0
 40
0.75
100
AcDbArc
 50
89.814
 51
130.5837
  0
LINE
  5
275
330
409
100
AcDbEntity
  8
1
 62
     7
100
AcDbLine
 10
5.314
 20
9.806
 30
0.0
 11
8.8091
 21
9.7946
 31
0.0
  0
LINE
  5
276
330
409
100
AcDbEntity
  8
1
 62
     7
100
AcDbLine
 10
8.8091
 20
9.7946
 30
0.0
 11
9.5703
 21
9.4937
 31
0.0
  0
ARC
  5
277
330
409
100
AcDbEntity
  8
1
 62
     7
100
AcDbCircle
 10
9.7617
 20
9.9778
 30
0.0
 40
0.5207
100
AcDbArc
 50
248.4254
 51
327.9524000000001
  0
ARC
  5
278
330
409
100
AcDbEntity
  8
1
 62
     7
100
AcDbCircle
 10
10.362
 20
9.6021
 30
0.0
 40
0.1875
100
AcDbArc
 50
89.8138
 51
147.9525
  0
LINE
  5
279
330
409
100
AcDbEntity
  8
1
 62
     7
100
AcDbLine
 10
10.3626
 20
9.7896
 30
0.0
 11
12.2417
 21
9.7835
 31
0.0
  0
ARC
  5
27A
330
409
100
AcDbEntity
  8
1
 62
     7
100
AcDbCircle
 10
12.2411
 20
9.596
 30
0.0
 40
0.1875
100
AcDbArc
 50
356.0867
 51
89.8135
  0
ARC
  5
27B
330
409
100
AcDbEntity
  8
1
 62
     7
100
AcDbCircle
 10
9.8534
 20
9.7593
 30
0.0
 40
2.5808
100
AcDbArc
 50
289.2384
 51
356.0865
  0
LINE
  5
27C
330
409
100
AcDbEntity
  8
1
 62
     7
100
AcDbLine
 10
10.7038
 20
7.3227
 30
0.0
 11
4.7184
 21
7.7412
 31
0.0
  0
ARC
  5
27D
330
409
100
AcDbEntity
  8
1
 62
     7
100
AcDbCircle
 10
4.7359
 20
7.9906
 30
0.0
 40
0.25
100
AcDbArc
 50
176.0
 51
266.0
  0
LINE
  5
27E
330
409
100
AcDbEntity
  8
1
 62
     7
100
AcDbLine
 10
4.4865
 20
8.008
 30
0.0
 11
4.4967
 21
8.1549
 31
0.0
  0
LINE
  5
27F
330
409
100
AcDbEntity
  8
1
 62
     7
100
AcDbLine
 10
4.4967
 20
8.1549
 30
0.0
 11
5.1507
 21
8.6071
 31
0.0
  0
LINE
  5
280
330
409
100
AcDbEntity
  8
1
 62
     7
100
AcDbLine
 10
5.1507
 20
8.6071
 30
0.0
 11
4.5314
 21
8.6504
 31
0.0
  0
LINE
  5
281
330
409
100
AcDbEntity
  8
1
 62
     7
100
AcDbLine
 10
4.5314
 20
8.6504
 30
0.0
 11
4.5634
 21
9.1083
 31
0.0
  0
ARC
  5
282
330
409
100
AcDbEntity
  8
1
 62
     7
100
AcDbCircle
 10
5.3116
 20
9.056
 30
0.0
 40
0.75
100
AcDbArc
 50
150.1188
 51
176.0
  0
CIRCLE
  5
284
330
409
100
AcDbEntity
  8
1
 62
     7
100
AcDbCircle
 10
4.6718
 20
9.8147
 30
0.0
 40
0.0885
  0
CIRCLE
  5
285
330
409
100
AcDbEntity
  8
1
 62
     7
100
AcDbCircle
 10
4.6718
 20
9.8147
 30
0.0
 40
0.1875
  0
CIRCLE
  5
287
330
409
100
AcDbEntity
  8
1
 62
     7
100
AcDbCircle
 10
4.6597
 20
11.6289
 30
0.0
 40
0.0885
  0
CIRCLE
  5
288
330
409
100
AcDbEntity
  8
1
 62
     7
100
AcDbCircle
 10
4.6597
 20
11.6289
 30
0.0
 40
0.1875
  0
CIRCLE
  5
28A
330
409
100
AcDbEntity
  8
1
 62
     7
100
AcDbCircle
 10
5.5104
 20
11.0826
 30
0.0
 40
0.0885
  0
CIRCLE
  5
28B
330
409
100
AcDbEntity
  8
1
 62
     7
100
AcDbCircle
 10
5.5104
 20
11.0826
 30
0.0
 40
0.1875
  0
LINE
  5
28D
330
409
100
AcDbEntity
  8
1
 62
     7
100
AcDbLine
 10
6.2462
 20
11.6699
 30
0.0
 11
8.3087
 21
11.6699
 31
0.0
  0
LINE
  5
28E
330
409
100
AcDbEntity
  8
1
 62
     7
100
AcDbLine
 10
8.3087
 20
11.6699
 30
0.0
 11
8.3712
 21
11.7949
 31
0.0
  0
LINE
  5
28F
330
409
100
AcDbEntity
  8
1
 62
     7
100
AcDbLine
 10
8.3712
 20
11.7949
 30
0.0
 11
6.3087
 21
11.7949
 31
0.0
  0
LINE
  5
290
330
409
100
AcDbEntity
  8
1
 62
     7
100
AcDbLine
 10
6.3087
 20
11.7949
 30
0.0
 11
6.2462
 21
11.6699
 31
0.0
  0
LINE
  5
291
330
409
100
AcDbEntity
  8
1
 62
     7
100
AcDbLine
 10
7.7837
 20
10.8074
 30
0.0
 11
6.0353
 21
11.6816
 31
0.0
  0
LINE
  5
292
330
409
100
AcDbEntity
  8
1
 62
     7
100
AcDbLine
 10
6.0353
 20
11.6816
 30
0.0
 11
5.7228
 21
11.5566
 31
0.0
  0
LINE
  5
293
330
409
100
AcDbEntity
  8
1
 62
     7
100
AcDbLine
 10
5.7228
 20
11.5566
 30
0.0
 11
8.1212
 21
10.3574
 31
0.0
  0
LINE
  5
294
330
409
100
AcDbEntity
  8
1
 62
     7
100
AcDbLine
 10
8.1212
 20
10.3574
 30
0.0
 11
8.4337
 21
10.4824
 31
0.0
  0
LINE
  5
295
330
409
100
AcDbEntity
  8
1
 62
     7
100
AcDbLine
 10
8.4337
 20
10.4824
 30
0.0
 11
7.9337
 21
10.7324
 31
0.0
  0
ARC
  5
296
330
409
100
AcDbEntity
  8
1
 62
     7
100
AcDbCircle
 10
7.9337
 20
10.9199
 30
0.0
 40
0.1875
100
AcDbArc
 50
216.8698
 51
270.0
  0
LINE
  5
297
330
409
100
AcDbEntity
  8
1
 62
     7
100
AcDbLine
 10
5.8087
 20
11.7949
 30
0.0
 11
5.2462
 21
11.7949
 31
0.0
  0
LINE
  5
298
330
409
100
AcDbEntity
  8
1
 62
     7
100
AcDbLine
 10
5.2462
 20
11.7949
 30
0.0
 11
5.4962
 21
11.6699
 31
0.0
  0
LINE
  5
299
330
409
100
AcDbEntity
  8
1
 62
     7
100
AcDbLine
 10
5.4962
 20
11.6699
 30
0.0
 11
5.8087
 21
11.7949
 31
0.0
  0
LINE
  5
29A
330
409
100
AcDbEntity
  8
1
 62
     7
100
AcDbLine
 10
5.2462
 20
10.7324
 30
0.0
 11
5.507
 21
10.7324
 31
0.0
  0
ARC
  5
29B
330
409
100
AcDbEntity
  8
1
 62
     7
100
AcDbCircle
 10
5.6837
 20
10.6699
 30
0.0
 40
0.1875
100
AcDbArc
 50
19.4713
 51
160.5288
  0
LINE
  5
29C
330
409
100
AcDbEntity
  8
1
 62
     7
100
AcDbLine
 10
5.8605
 20
10.7324
 30
0.0
 11
6.9962
 21
10.7324
 31
0.0
  0
LINE
  5
29D
330
409
100
AcDbEntity
  8
1
 62
     7
100
AcDbLine
 10
6.9962
 20
10.7324
 30
0.0
 11
5.5559
 21
11.4526
 31
0.0
  0
LINE
  5
29E
330
409
100
AcDbEntity
  8
1
 62
     7
100
AcDbLine
 10
5.5559
 20
11.4526
 30
0.0
 11
5.2462
 21
11.4526
 31
0.0
  0
LINE
  5
29F
330
409
100
AcDbEntity
  8
1
 62
     7
100
AcDbLine
 10
5.2462
 20
11.4526
 30
0.0
 11
5.2462
 21
10.7324
 31
0.0
  0
LINE
  5
2A0
330
409
100
AcDbEntity
  8
1
 62
     7
100
AcDbLine
 10
8.4962
 20
10.1699
 30
0.0
 11
8.8087
 21
10.2949
 31
0.0
  0
LINE
  5
2A1
330
409
100
AcDbEntity
  8
1
 62
     7
100
AcDbLine
 10
8.8087
 20
10.2949
 30
0.0
 11
8.6212
 21
10.3887
 31
0.0
  0
LINE
  5
2A2
330
409
100
AcDbEntity
  8
1
 62
     7
100
AcDbLine
 10
8.6212
 20
10.3887
 30
0.0
 11
8.3087
 21
10.2637
 31
0.0
  0
LINE
  5
2A3
330
409
100
AcDbEntity
  8
1
 62
     7
100
AcDbLine
 10
8.3087
 20
10.2637
 30
0.0
 11
8.4962
 21
10.1699
 31
0.0
  0
LINE
  5
2A4
330
409
100
AcDbEntity
  8
1
 62
     7
100
AcDbLine
 10
9.0446
 20
11.0711
 30
0.0
 11
9.5587
 21
11.4824
 31
0.0
  0
LINE
  5
2A5
330
409
100
AcDbEntity
  8
1
 62
     7
100
AcDbLine
 10
9.5587
 20
11.4824
 30
0.0
 11
8.1212
 21
11.0059
 31
0.0
  0
LINE
  5
2A6
330
409
100
AcDbEntity
  8
1
 62
     7
100
AcDbLine
 10
8.1212
 20
11.0059
 30
0.0
 11
8.6212
 21
10.7324
 31
0.0
  0
LINE
  5
2A7
330
409
100
AcDbEntity
  8
1
 62
     7
100
AcDbLine
 10
8.6212
 20
10.7324
 30
0.0
 11
8.7619
 21
10.8449
 31
0.0
  0
ARC
  5
2A8
330
409
100
AcDbEntity
  8
1
 62
     7
100
AcDbCircle
 10
8.9337
 20
10.9199
 30
0.0
 40
0.1875
100
AcDbArc
 50
53.7468
 51
203.5728
  0
CIRCLE
  5
2A9
330
409
100
AcDbEntity
  8
1
 62
     7
100
AcDbCircle
 10
8.9337
 20
10.9199
 30
0.0
 40
0.086
  0
ARC
  5
2AA
330
409
100
AcDbEntity
  8
1
 62
     7
100
AcDbCircle
 10
10.7342
 20
10.7693
 30
0.0
 40
0.0625
100
AcDbArc
 50
37.0498
 51
128.6605
  0
LINE
  5
2AB
330
409
100
AcDbEntity
  8
1
 62
     7
100
AcDbLine
 10
10.6952
 20
10.8181
 30
0.0
 11
10.5549
 21
10.7059
 31
0.0
  0
LINE
  5
2AC
330
409
100
AcDbEntity
  8
1
 62
     7
100
AcDbLine
 10
10.5549
 20
10.7059
 30
0.0
 11
9.9821
 21
10.6105
 31
0.0
  0
LINE
  5
2AD
330
409
100
AcDbEntity
  8
1
 62
     7
100
AcDbLine
 10
9.9821
 20
10.6105
 30
0.0
 11
9.1209
 21
10.9087
 31
0.0
  0
ARC
  5
2AE
330
409
100
AcDbEntity
  8
1
 62
     7
100
AcDbCircle
 10
8.9337
 20
10.9199
 30
0.0
 40
0.1875
100
AcDbArc
 50
295.9756
 51
356.5755
  0
LINE
  5
2AF
330
409
100
AcDbEntity
  8
1
 62
     7
100
AcDbLine
 10
9.0159
 20
10.7514
 30
0.0
 11
8.9324
 21
10.5622
 31
0.0
  0
LINE
  5
2B0
330
409
100
AcDbEntity
  8
1
 62
     7
100
AcDbLine
 10
8.9324
 20
10.5622
 30
0.0
 11
9.9821
 21
10.1988
 31
0.0
  0
LINE
  5
2B1
330
409
100
AcDbEntity
  8
1
 62
     7
100
AcDbLine
 10
9.9821
 20
10.1988
 30
0.0
 11
10.8712
 21
10.3105
 31
0.0
  0
LINE
  5
2B2
330
409
100
AcDbEntity
  8
1
 62
     7
100
AcDbLine
 10
10.8712
 20
10.3105
 30
0.0
 11
11.2462
 21
10.6105
 31
0.0
  0
LINE
  5
2B3
330
409
100
AcDbEntity
  8
1
 62
     7
100
AcDbLine
 10
11.2462
 20
10.6105
 30
0.0
 11
11.1294
 21
10.7566
 31
0.0
  0
ARC
  5
2B4
330
409
100
AcDbEntity
  8
1
 62
     7
100
AcDbCircle
 10
11.0806
 20
10.7176
 30
0.0
 40
0.0625
100
AcDbArc
 50
38.6598
 51
125.9673
  0
ARC
  5
2B5
330
409
100
AcDbEntity
  8
1
 62
     7
100
AcDbCircle
 10
10.9337
 20
10.9199
 30
0.0
 40
0.1875
100
AcDbArc
 50
217.0486
 51
305.9674
  0
LINE
  5
2B6
330
409
100
AcDbEntity
  8
1
 62
     7
100
AcDbLine
 10
8.6837
 20
10.0762
 30
0.0
 11
9.2462
 21
10.0762
 31
0.0
  0
LINE
  5
2B7
330
409
100
AcDbEntity
  8
1
 62
     7
100
AcDbLine
 10
9.2462
 20
10.0762
 30
0.0
 11
8.9962
 21
10.2012
 31
0.0
  0
LINE
  5
2B8
330
409
100
AcDbEntity
  8
1
 62
     7
100
AcDbLine
 10
8.9962
 20
10.2012
 30
0.0
 11
8.6837
 21
10.0762
 31
0.0
  0
CIRCLE
  5
2B9
330
409
100
AcDbEntity
  8
1
 62
     7
100
AcDbCircle
 10
7.9337
 20
10.9199
 30
0.0
 40
0.086
  0
CIRCLE
  5
2BA
330
409
100
AcDbEntity
  8
1
 62
     7
100
AcDbCircle
 10
11.4337
 20
10.9194
 30
0.0
 40
0.086
  0
CIRCLE
  5
2BB
330
409
100
AcDbEntity
  8
1
 62
     7
100
AcDbCircle
 10
5.6837
 20
10.6699
 30
0.0
 40
0.086
  0
POINT
  5
2BC
330
409
100
AcDbEntity
  8
1
 62
     7
100
AcDbPoint
 10
10.93
 20
11.0058
 30
0.0
  0
POINT
  5
2BD
330
409
100
AcDbEntity
  8
1
 62
     7
100
AcDbPoint
 10
10.9299
 20
11.0059
 30
0.0
  0
CIRCLE
  5
2BE
330
409
100
AcDbEntity
  8
1
 62
     7
100
AcDbCircle
 10
10.9337
 20
10.9199
 30
0.0
 40
0.086
  0
LINE
  5
2BF
330
409
100
AcDbEntity
  8
1
 62
     7
100
AcDbLine
 10
12.4337
 20
10.3799
 30
0.0
 11
12.4337
 21
9.8574
 31
0.0
  0
LINE
  5
2C0
330
409
100
AcDbEntity
  8
1
 62
     7
100
AcDbLine
 10
12.4337
 20
9.8574
 30
0.0
 11
5.1837
 21
9.8574
 31
0.0
  0
ARC
  5
2C1
330
409
100
AcDbEntity
  8
1
 62
     7
100
AcDbCircle
 10
5.1837
 20
10.2324
 30
0.0
 40
0.375
100
AcDbArc
 50
180.0
 51
270.0
  0
LINE
  5
2C2
330
409
100
AcDbEntity
  8
1
 62
     7
100
AcDbLine
 10
4.8087
 20
10.2324
 30
0.0
 11
4.8087
 21
11.4199
 31
0.0
  0
LINE
  5
2C3
330
409
100
AcDbEntity
  8
1
 62
     7
100
AcDbLine
 10
4.8087
 20
11.4199
 30
0.0
 11
5.2462
 21
11.9199
 31
0.0
  0
LINE
  5
2C4
330
409
100
AcDbEntity
  8
1
 62
     7
100
AcDbLine
 10
5.2462
 20
11.9199
 30
0.0
 11
12.4337
 21
11.9199
 31
0.0
  0
LINE
  5
2C5
330
409
100
AcDbEntity
  8
1
 62
     7
100
AcDbLine
 10
12.4337
 20
11.9199
 30
0.0
 11
12.4337
 21
11.7949
 31
0.0
  0
LINE
  5
2C6
330
409
100
AcDbEntity
  8
1
 62
     7
100
AcDbLine
 10
12.4337
 20
11.7949
 30
0.0
 11
11.9162
 21
11.7949
 31
0.0
  0
LINE
  5
2C7
330
409
100
AcDbEntity
  8
1
 62
     7
100
AcDbLine
 10
11.9162
 20
11.7949
 30
0.0
 11
11.2462
 21
11.259
 31
0.0
  0
LINE
  5
2C8
330
409
100
AcDbEntity
  8
1
 62
     7
100
AcDbLine
 10
11.2462
 20
11.259
 30
0.0
 11
11.3304
 21
11.1538
 31
0.0
  0
ARC
  5
2C9
330
409
100
AcDbEntity
  8
1
 62
     7
100
AcDbCircle
 10
11.428
 20
11.2319
 30
0.0
 40
0.125
100
AcDbArc
 50
218.6598
 51
271.054
  0
ARC
  5
2CA
330
409
100
AcDbEntity
  8
1
 62
     7
100
AcDbCircle
 10
11.4337
 20
10.9194
 30
0.0
 40
0.1875
100
AcDbArc
 50
1.736
 51
91.0541
  0
LINE
  5
2CB
330
409
100
AcDbEntity
  8
1
 62
     7
100
AcDbLine
 10
11.6211
 20
10.9251
 30
0.0
 11
12.4337
 21
11.5752
 31
0.0
  0
LINE
  5
2CC
330
409
100
AcDbEntity
  8
1
 62
     7
100
AcDbLine
 10
12.4337
 20
11.5752
 30
0.0
 11
12.4337
 21
10.8766
 31
0.0
  0
LINE
  5
2CD
330
409
100
AcDbEntity
  8
1
 62
     7
100
AcDbLine
 10
12.4337
 20
10.8766
 30
0.0
 11
11.8129
 21
10.3799
 31
0.0
  0
LINE
  5
2CE
330
409
100
AcDbEntity
  8
1
 62
     7
100
AcDbLine
 10
11.8129
 20
10.3799
 30
0.0
 11
12.4337
 21
10.3799
 31
0.0
  0
CIRCLE
  5
2D0
330
409
100
AcDbEntity
  8
1
 62
     7
100
AcDbCircle
 10
12.3393
 20
0.4514
 30
0.0
 40
0.0885
  0
CIRCLE
  5
2D1
330
409
100
AcDbEntity
  8
1
 62
     7
100
AcDbCircle
 10
12.3393
 20
0.4514
 30
0.0
 40
0.1875
  0
CIRCLE
  5
2D3
330
409
100
AcDbEntity
  8
1
 62
     7
100
AcDbCircle
 10
12.6529
 20
0.8463
 30
0.0
 40
0.0885
  0
CIRCLE
  5
2D4
330
409
100
AcDbEntity
  8
1
 62
     7
100
AcDbCircle
 10
12.6529
 20
0.8463
 30
0.0
 40
0.25
  0
CIRCLE
  5
2D6
330
409
100
AcDbEntity
  8
1
 62
     7
100
AcDbCircle
 10
12.6649
 20
1.4063
 30
0.0
 40
0.0885
  0
CIRCLE
  5
2D7
330
409
100
AcDbEntity
  8
1
 62
     7
100
AcDbCircle
 10
12.6649
 20
1.4063
 30
0.0
 40
0.25
  0
CIRCLE
  5
2D9
330
409
100
AcDbEntity
  8
1
 62
     7
100
AcDbCircle
 10
12.7349
 20
1.9743
 30
0.0
 40
0.0885
  0
CIRCLE
  5
2DA
330
409
100
AcDbEntity
  8
1
 62
     7
100
AcDbCircle
 10
12.7349
 20
1.9743
 30
0.0
 40
0.25
  0
CIRCLE
  5
2DC
330
409
100
AcDbEntity
  8
1
 62
     7
100
AcDbCircle
 10
12.5848
 20
2.5378
 30
0.0
 40
0.0885
  0
CIRCLE
  5
2DD
330
409
100
AcDbEntity
  8
1
 62
     7
100
AcDbCircle
 10
12.5848
 20
2.5378
 30
0.0
 40
0.25
  0
CIRCLE
  5
2DF
330
409
100
AcDbEntity
  8
1
 62
     7
100
AcDbCircle
 10
12.6599
 20
3.1162
 30
0.0
 40
0.0885
  0
CIRCLE
  5
2E0
330
409
100
AcDbEntity
  8
1
 62
     7
100
AcDbCircle
 10
12.6599
 20
3.1162
 30
0.0
 40
0.25
  0
CIRCLE
  5
2E2
330
409
100
AcDbEntity
  8
1
 62
     7
100
AcDbCircle
 10
12.4217
 20
3.6292
 30
0.0
 40
0.0885
  0
CIRCLE
  5
2E3
330
409
100
AcDbEntity
  8
1
 62
     7
100
AcDbCircle
 10
12.4217
 20
3.6292
 30
0.0
 40
0.25
  0
CIRCLE
  5
2E5
330
409
100
AcDbEntity
  8
1
 62
     7
100
AcDbCircle
 10
12.6265
 20
4.1695
 30
0.0
 40
0.0885
  0
CIRCLE
  5
2E6
330
409
100
AcDbEntity
  8
1
 62
     7
100
AcDbCircle
 10
12.6265
 20
4.1695
 30
0.0
 40
0.25
  0
CIRCLE
  5
2E8
330
409
100
AcDbEntity
  8
1
 62
     7
100
AcDbCircle
 10
12.9912
 20
0.478
 30
0.0
 40
0.0885
  0
CIRCLE
  5
2E9
330
409
100
AcDbEntity
  8
1
 62
     7
100
AcDbCircle
 10
12.9912
 20
0.478
 30
0.0
 40
0.1875
  0
CIRCLE
  5
2EB
330
409
100
AcDbEntity
  8
1
 62
     7
100
AcDbCircle
 10
13.2123
 20
0.9539
 30
0.0
 40
0.0885
  0
CIRCLE
  5
2EC
330
409
100
AcDbEntity
  8
1
 62
     7
100
AcDbCircle
 10
13.2123
 20
0.9539
 30
0.0
 40
0.25
  0
CIRCLE
  5
2EE
330
409
100
AcDbEntity
  8
1
 62
     7
100
AcDbCircle
 10
13.2219
 20
1.5132
 30
0.0
 40
0.0885
  0
CIRCLE
  5
2EF
330
409
100
AcDbEntity
  8
1
 62
     7
100
AcDbCircle
 10
13.2219
 20
1.5132
 30
0.0
 40
0.25
  0
CIRCLE
  5
2F1
330
409
100
AcDbEntity
  8
1
 62
     7
100
AcDbCircle
 10
13.429
 20
0.4519
 30
0.0
 40
0.0885
  0
CIRCLE
  5
2F2
330
409
100
AcDbEntity
  8
1
 62
     7
100
AcDbCircle
 10
13.429
 20
0.4519
 30
0.0
 40
0.1875
  0
CIRCLE
  5
2F4
330
409
100
AcDbEntity
  8
1
 62
     7
100
AcDbCircle
 10
13.2908
 20
2.0797
 30
0.0
 40
0.0885
  0
CIRCLE
  5
2F5
330
409
100
AcDbEntity
  8
1
 62
     7
100
AcDbCircle
 10
13.2908
 20
2.0797
 30
0.0
 40
0.25
  0
CIRCLE
  5
2F7
330
409
100
AcDbEntity
  8
1
 62
     7
100
AcDbCircle
 10
13.1477
 20
2.6328
 30
0.0
 40
0.0885
  0
CIRCLE
  5
2F8
330
409
100
AcDbEntity
  8
1
 62
     7
100
AcDbCircle
 10
13.1477
 20
2.6328
 30
0.0
 40
0.25
  0
CIRCLE
  5
2FA
330
409
100
AcDbEntity
  8
1
 62
     7
100
AcDbCircle
 10
13.2295
 20
3.2188
 30
0.0
 40
0.0885
  0
CIRCLE
  5
2FB
330
409
100
AcDbEntity
  8
1
 62
     7
100
AcDbCircle
 10
13.2295
 20
3.2188
 30
0.0
 40
0.25
  0
CIRCLE
  5
2FD
330
409
100
AcDbEntity
  8
1
 62
     7
100
AcDbCircle
 10
12.9943
 20
3.729
 30
0.0
 40
0.0885
  0
CIRCLE
  5
2FE
330
409
100
AcDbEntity
  8
1
 62
     7
100
AcDbCircle
 10
12.9943
 20
3.729
 30
0.0
 40
0.25
  0
CIRCLE
  5
300
330
409
100
AcDbEntity
  8
1
 62
     7
100
AcDbCircle
 10
13.2312
 20
5.0
 30
0.0
 40
0.0885
  0
CIRCLE
  5
301
330
409
100
AcDbEntity
  8
1
 62
     7
100
AcDbCircle
 10
13.2312
 20
5.0
 30
0.0
 40
0.1875
  0
CIRCLE
  5
303
330
409
100
AcDbEntity
  8
1
 62
     7
100
AcDbCircle
 10
13.7111
 20
0.7863
 30
0.0
 40
0.0885
  0
CIRCLE
  5
304
330
409
100
AcDbEntity
  8
1
 62
     7
100
AcDbCircle
 10
13.7111
 20
0.7863
 30
0.0
 40
0.1875
  0
CIRCLE
  5
306
330
409
100
AcDbEntity
  8
1
 62
     7
100
AcDbCircle
 10
13.6451
 20
1.2287
 30
0.0
 40
0.0885
  0
CIRCLE
  5
307
330
409
100
AcDbEntity
  8
1
 62
     7
100
AcDbCircle
 10
13.6451
 20
1.2287
 30
0.0
 40
0.1875
  0
CIRCLE
  5
309
330
409
100
AcDbEntity
  8
1
 62
     7
100
AcDbCircle
 10
13.9566
 20
0.4168
 30
0.0
 40
0.0885
  0
CIRCLE
  5
30A
330
409
100
AcDbEntity
  8
1
 62
     7
100
AcDbCircle
 10
13.9566
 20
0.4168
 30
0.0
 40
0.1875
  0
CIRCLE
  5
30C
330
409
100
AcDbEntity
  8
1
 62
     7
100
AcDbCircle
 10
13.7651
 20
1.7383
 30
0.0
 40
0.0885
  0
CIRCLE
  5
30D
330
409
100
AcDbEntity
  8
1
 62
     7
100
AcDbCircle
 10
13.7651
 20
1.7383
 30
0.0
 40
0.25
  0
CIRCLE
  5
30F
330
409
100
AcDbEntity
  8
1
 62
     7
100
AcDbCircle
 10
13.82
 20
2.3261
 30
0.0
 40
0.0885
  0
CIRCLE
  5
310
330
409
100
AcDbEntity
  8
1
 62
     7
100
AcDbCircle
 10
13.82
 20
2.3261
 30
0.0
 40
0.25
  0
CIRCLE
  5
312
330
409
100
AcDbEntity
  8
1
 62
     7
100
AcDbCircle
 10
13.6835
 20
2.8667
 30
0.0
 40
0.0885
  0
CIRCLE
  5
313
330
409
100
AcDbEntity
  8
1
 62
     7
100
AcDbCircle
 10
13.6835
 20
2.8667
 30
0.0
 40
0.25
  0
CIRCLE
  5
315
330
409
100
AcDbEntity
  8
1
 62
     7
100
AcDbCircle
 10
13.5092
 20
3.9635
 30
0.0
 40
0.0885
  0
CIRCLE
  5
316
330
409
100
AcDbEntity
  8
1
 62
     7
100
AcDbCircle
 10
13.5092
 20
3.9635
 30
0.0
 40
0.25
  0
CIRCLE
  5
318
330
409
100
AcDbEntity
  8
1
 62
     7
100
AcDbCircle
 10
13.752
 20
3.4544
 30
0.0
 40
0.0885
  0
CIRCLE
  5
319
330
409
100
AcDbEntity
  8
1
 62
     7
100
AcDbCircle
 10
13.752
 20
3.4544
 30
0.0
 40
0.25
  0
CIRCLE
  5
31B
330
409
100
AcDbEntity
  8
1
 62
     7
100
AcDbCircle
 10
14.1474
 20
0.9071
 30
0.0
 40
0.0885
  0
CIRCLE
  5
31C
330
409
100
AcDbEntity
  8
1
 62
     7
100
AcDbCircle
 10
14.1474
 20
0.9071
 30
0.0
 40
0.1875
  0
CIRCLE
  5
31E
330
409
100
AcDbEntity
  8
1
 62
     7
100
AcDbCircle
 10
14.0812
 20
1.3349
 30
0.0
 40
0.0885
  0
CIRCLE
  5
31F
330
409
100
AcDbEntity
  8
1
 62
     7
100
AcDbCircle
 10
14.0812
 20
1.3349
 30
0.0
 40
0.1875
  0
CIRCLE
  5
321
330
409
100
AcDbEntity
  8
1
 62
     7
100
AcDbCircle
 10
14.3932
 20
0.5219
 30
0.0
 40
0.0885
  0
CIRCLE
  5
322
330
409
100
AcDbEntity
  8
1
 62
     7
100
AcDbCircle
 10
14.3932
 20
0.5219
 30
0.0
 40
0.1875
  0
CIRCLE
  5
324
330
409
100
AcDbEntity
  8
1
 62
     7
100
AcDbCircle
 10
14.2633
 20
1.7643
 30
0.0
 40
0.0885
  0
CIRCLE
  5
325
330
409
100
AcDbEntity
  8
1
 62
     7
100
AcDbCircle
 10
14.2633
 20
1.7643
 30
0.0
 40
0.1875
  0
CIRCLE
  5
327
330
409
100
AcDbEntity
  8
1
 62
     7
100
AcDbCircle
 10
14.321
 20
2.2172
 30
0.0
 40
0.0885
  0
CIRCLE
  5
328
330
409
100
AcDbEntity
  8
1
 62
     7
100
AcDbCircle
 10
14.321
 20
2.2172
 30
0.0
 40
0.1875
  0
CIRCLE
  5
32A
330
409
100
AcDbEntity
  8
1
 62
     7
100
AcDbCircle
 10
14.2499
 20
2.7419
 30
0.0
 40
0.0885
  0
CIRCLE
  5
32B
330
409
100
AcDbEntity
  8
1
 62
     7
100
AcDbCircle
 10
14.2499
 20
2.7419
 30
0.0
 40
0.25
  0
CIRCLE
  5
32D
330
409
100
AcDbEntity
  8
1
 62
     7
100
AcDbCircle
 10
14.2927
 20
3.3121
 30
0.0
 40
0.0885
  0
CIRCLE
  5
32E
330
409
100
AcDbEntity
  8
1
 62
     7
100
AcDbCircle
 10
14.2927
 20
3.3121
 30
0.0
 40
0.25
  0
CIRCLE
  5
330
330
409
100
AcDbEntity
  8
1
 62
     7
100
AcDbCircle
 10
14.075
 20
3.9659
 30
0.0
 40
0.0885
  0
CIRCLE
  5
331
330
409
100
AcDbEntity
  8
1
 62
     7
100
AcDbCircle
 10
14.075
 20
3.9659
 30
0.0
 40
0.25
  0
LINE
  5
333
330
409
100
AcDbEntity
  8
1
 62
     7
100
AcDbLine
 10
12.7462
 20
5.7324
 30
0.0
 11
12.7462
 21
7.7949
 31
0.0
  0
LINE
  5
334
330
409
100
AcDbEntity
  8
1
 62
     7
100
AcDbLine
 10
12.7462
 20
7.7949
 30
0.0
 11
12.6212
 21
7.8574
 31
0.0
  0
LINE
  5
335
330
409
100
AcDbEntity
  8
1
 62
     7
100
AcDbLine
 10
12.6212
 20
7.8574
 30
0.0
 11
12.6212
 21
5.7949
 31
0.0
  0
LINE
  5
336
330
409
100
AcDbEntity
  8
1
 62
     7
100
AcDbLine
 10
12.6212
 20
5.7949
 30
0.0
 11
12.7462
 21
5.7324
 31
0.0
  0
LINE
  5
337
330
409
100
AcDbEntity
  8
1
 62
     7
100
AcDbLine
 10
13.6087
 20
7.2699
 30
0.0
 11
12.7345
 21
5.5215
 31
0.0
  0
LINE
  5
338
330
409
100
AcDbEntity
  8
1
 62
     7
100
AcDbLine
 10
12.7345
 20
5.5215
 30
0.0
 11
12.8595
 21
5.209
 31
0.0
  0
LINE
  5
339
330
409
100
AcDbEntity
  8
1
 62
     7
100
AcDbLine
 10
12.8595
 20
5.209
 30
0.0
 11
14.0587
 21
7.6074
 31
0.0
  0
LINE
  5
33A
330
409
100
AcDbEntity
  8
1
 62
     7
100
AcDbLine
 10
14.0587
 20
7.6074
 30
0.0
 11
13.9337
 21
7.9199
 31
0.0
  0
LINE
  5
33B
330
409
100
AcDbEntity
  8
1
 62
     7
100
AcDbLine
 10
13.9337
 20
7.9199
 30
0.0
 11
13.6837
 21
7.4199
 31
0.0
  0
ARC
  5
33C
330
409
100
AcDbEntity
  8
1
 62
     7
100
AcDbCircle
 10
13.4962
 20
7.4199
 30
0.0
 40
0.1875
100
AcDbArc
 50
306.8698
 51
0.0
  0
LINE
  5
33D
330
409
100
AcDbEntity
  8
1
 62
     7
100
AcDbLine
 10
12.6212
 20
5.2949
 30
0.0
 11
12.6212
 21
4.7324
 31
0.0
  0
LINE
  5
33E
330
409
100
AcDbEntity
  8
1
 62
     7
100
AcDbLine
 10
12.6212
 20
4.7324
 30
0.0
 11
12.7462
 21
4.9824
 31
0.0
  0
LINE
  5
33F
330
409
100
AcDbEntity
  8
1
 62
     7
100
AcDbLine
 10
12.7462
 20
4.9824
 30
0.0
 11
12.6212
 21
5.2949
 31
0.0
  0
LINE
  5
340
330
409
100
AcDbEntity
  8
1
 62
     7
100
AcDbLine
 10
13.6837
 20
4.7324
 30
0.0
 11
13.6837
 21
4.9931
 31
0.0
  0
ARC
  5
341
330
409
100
AcDbEntity
  8
1
 62
     7
100
AcDbCircle
 10
13.7462
 20
5.1699
 30
0.0
 40
0.1875
100
AcDbArc
 50
109.4713
 51
250.5288
  0
LINE
  5
342
330
409
100
AcDbEntity
  8
1
 62
     7
100
AcDbLine
 10
13.6837
 20
5.3467
 30
0.0
 11
13.6837
 21
6.4824
 31
0.0
  0
LINE
  5
343
330
409
100
AcDbEntity
  8
1
 62
     7
100
AcDbLine
 10
13.6837
 20
6.4824
 30
0.0
 11
12.9636
 21
5.0421
 31
0.0
  0
LINE
  5
344
330
409
100
AcDbEntity
  8
1
 62
     7
100
AcDbLine
 10
12.9636
 20
5.0421
 30
0.0
 11
12.9636
 21
4.7324
 31
0.0
  0
LINE
  5
345
330
409
100
AcDbEntity
  8
1
 62
     7
100
AcDbLine
 10
12.9636
 20
4.7324
 30
0.0
 11
13.6837
 21
4.7324
 31
0.0
  0
LINE
  5
346
330
409
100
AcDbEntity
  8
1
 62
     7
100
AcDbLine
 10
14.2462
 20
7.9824
 30
0.0
 11
14.1212
 21
8.2949
 31
0.0
  0
LINE
  5
347
330
409
100
AcDbEntity
  8
1
 62
     7
100
AcDbLine
 10
14.1212
 20
8.2949
 30
0.0
 11
14.0275
 21
8.1074
 31
0.0
  0
LINE
  5
348
330
409
100
AcDbEntity
  8
1
 62
     7
100
AcDbLine
 10
14.0275
 20
8.1074
 30
0.0
 11
14.1525
 21
7.7949
 31
0.0
  0
LINE
  5
349
330
409
100
AcDbEntity
  8
1
 62
     7
100
AcDbLine
 10
14.1525
 20
7.7949
 30
0.0
 11
14.2462
 21
7.9824
 31
0.0
  0
LINE
  5
34A
330
409
100
AcDbEntity
  8
1
 62
     7
100
AcDbLine
 10
13.345
 20
8.5308
 30
0.0
 11
12.9337
 21
9.0449
 31
0.0
  0
LINE
  5
34B
330
409
100
AcDbEntity
  8
1
 62
     7
100
AcDbLine
 10
12.9337
 20
9.0449
 30
0.0
 11
13.4102
 21
7.6074
 31
0.0
  0
LINE
  5
34C
330
409
100
AcDbEntity
  8
1
 62
     7
100
AcDbLine
 10
13.4102
 20
7.6074
 30
0.0
 11
13.6837
 21
8.1074
 31
0.0
  0
LINE
  5
34D
330
409
100
AcDbEntity
  8
1
 62
     7
100
AcDbLine
 10
13.6837
 20
8.1074
 30
0.0
 11
13.5712
 21
8.2481
 31
0.0
  0
ARC
  5
34E
330
409
100
AcDbEntity
  8
1
 62
     7
100
AcDbCircle
 10
13.4962
 20
8.4199
 30
0.0
 40
0.1875
100
AcDbArc
 50
143.747
 51
293.5723
  0
CIRCLE
  5
34F
330
409
100
AcDbEntity
  8
1
 62
     7
100
AcDbCircle
 10
13.4962
 20
8.4199
 30
0.0
 40
0.086
  0
ARC
  5
350
330
409
100
AcDbEntity
  8
1
 62
     7
100
AcDbCircle
 10
13.6469
 20
10.2204
 30
0.0
 40
0.0625
100
AcDbArc
 50
127.0498
 51
218.6599
  0
LINE
  5
351
330
409
100
AcDbEntity
  8
1
 62
     7
100
AcDbLine
 10
13.5981
 20
10.1813
 30
0.0
 11
13.7102
 21
10.0411
 31
0.0
  0
LINE
  5
352
330
409
100
AcDbEntity
  8
1
 62
     7
100
AcDbLine
 10
13.7102
 20
10.0411
 30
0.0
 11
13.8056
 21
9.4683
 31
0.0
  0
LINE
  5
353
330
409
100
AcDbEntity
  8
1
 62
     7
100
AcDbLine
 10
13.8056
 20
9.4683
 30
0.0
 11
13.5074
 21
8.6071
 31
0.0
  0
ARC
  5
354
330
409
100
AcDbEntity
  8
1
 62
     7
100
AcDbCircle
 10
13.4962
 20
8.4199
 30
0.0
 40
0.1875
100
AcDbArc
 50
25.9753
 51
86.5752
  0
LINE
  5
355
330
409
100
AcDbEntity
  8
1
 62
     7
100
AcDbLine
 10
13.6648
 20
8.502
 30
0.0
 11
13.854
 21
8.4186
 31
0.0
  0
LINE
  5
356
330
409
100
AcDbEntity
  8
1
 62
     7
100
AcDbLine
 10
13.854
 20
8.4186
 30
0.0
 11
14.2174
 21
9.4683
 31
0.0
  0
LINE
  5
357
330
409
100
AcDbEntity
  8
1
 62
     7
100
AcDbLine
 10
14.2174
 20
9.4683
 30
0.0
 11
14.1056
 21
10.3574
 31
0.0
  0
LINE
  5
358
330
409
100
AcDbEntity
  8
1
 62
     7
100
AcDbLine
 10
14.1056
 20
10.3574
 30
0.0
 11
13.8056
 21
10.7324
 31
0.0
  0
LINE
  5
359
330
409
100
AcDbEntity
  8
1
 62
     7
100
AcDbLine
 10
13.8056
 20
10.7324
 30
0.0
 11
13.6595
 21
10.6156
 31
0.0
  0
ARC
  5
35A
330
409
100
AcDbEntity
  8
1
 62
     7
100
AcDbCircle
 10
13.6986
 20
10.5668
 30
0.0
 40
0.0625
100
AcDbArc
 50
128.6599
 51
215.9666
  0
ARC
  5
35B
330
409
100
AcDbEntity
  8
1
 62
     7
100
AcDbCircle
 10
13.4962
 20
10.4199
 30
0.0
 40
0.1875
100
AcDbArc
 50
307.0488
 51
35.96769999999999
  0
LINE
  5
35C
330
409
100
AcDbEntity
  8
1
 62
     7
100
AcDbLine
 10
14.34
 20
8.1699
 30
0.0
 11
14.34
 21
8.7324
 31
0.0
  0
LINE
  5
35D
330
409
100
AcDbEntity
  8
1
 62
     7
100
AcDbLine
 10
14.34
 20
8.7324
 30
0.0
 11
14.215
 21
8.4824
 31
0.0
  0
LINE
  5
35E
330
409
100
AcDbEntity
  8
1
 62
     7
100
AcDbLine
 10
14.215
 20
8.4824
 30
0.0
 11
14.34
 21
8.1699
 31
0.0
  0
CIRCLE
  5
35F
330
409
100
AcDbEntity
  8
1
 62
     7
100
AcDbCircle
 10
13.4962
 20
7.4199
 30
0.0
 40
0.086
  0
CIRCLE
  5
360
330
409
100
AcDbEntity
  8
1
 62
     7
100
AcDbCircle
 10
13.4967
 20
10.9199
 30
0.0
 40
0.086
  0
CIRCLE
  5
361
330
409
100
AcDbEntity
  8
1
 62
     7
100
AcDbCircle
 10
13.7462
 20
5.1699
 30
0.0
 40
0.086
  0
POINT
  5
362
330
409
100
AcDbEntity
  8
1
 62
     7
100
AcDbPoint
 10
13.4103
 20
10.4162
 30
0.0
  0
POINT
  5
363
330
409
100
AcDbEntity
  8
1
 62
     7
100
AcDbPoint
 10
13.4102
 20
10.4161
 30
0.0
  0
CIRCLE
  5
364
330
409
100
AcDbEntity
  8
1
 62
     7
100
AcDbCircle
 10
13.4962
 20
10.4199
 30
0.0
 40
0.086
  0
LINE
  5
365
330
409
100
AcDbEntity
  8
1
 62
     7
100
AcDbLine
 10
14.0362
 20
11.9199
 30
0.0
 11
14.5587
 21
11.9199
 31
0.0
  0
LINE
  5
366
330
409
100
AcDbEntity
  8
1
 62
     7
100
AcDbLine
 10
14.5587
 20
11.9199
 30
0.0
 11
14.5587
 21
4.6699
 31
0.0
  0
ARC
  5
367
330
409
100
AcDbEntity
  8
1
 62
     7
100
AcDbCircle
 10
14.1837
 20
4.6699
 30
0.0
 40
0.375
100
AcDbArc
 50
270.0
 51
0.0
  0
LINE
  5
368
330
409
100
AcDbEntity
  8
1
 62
     7
100
AcDbLine
 10
14.1837
 20
4.2949
 30
0.0
 11
12.9962
 21
4.2949
 31
0.0
  0
LINE
  5
369
330
409
100
AcDbEntity
  8
1
 62
     7
100
AcDbLine
 10
12.9962
 20
4.2949
 30
0.0
 11
12.4962
 21
4.7324
 31
0.0
  0
LINE
  5
36A
330
409
100
AcDbEntity
  8
1
 62
     7
100
AcDbLine
 10
12.4962
 20
4.7324
 30
0.0
 11
12.4962
 21
11.9199
 31
0.0
  0
LINE
  5
36B
330
409
100
AcDbEntity
  8
1
 62
     7
100
AcDbLine
 10
12.4962
 20
11.9199
 30
0.0
 11
12.6212
 21
11.9199
 31
0.0
  0
LINE
  5
36C
330
409
100
AcDbEntity
  8
1
 62
     7
100
AcDbLine
 10
12.6212
 20
11.9199
 30
0.0
 11
12.6212
 21
11.4024
 31
0.0
  0
LINE
  5
36D
330
409
100
AcDbEntity
  8
1
 62
     7
100
AcDbLine
 10
12.6212
 20
11.4024
 30
0.0
 11
13.1572
 21
10.7324
 31
0.0
  0
LINE
  5
36E
330
409
100
AcDbEntity
  8
1
 62
     7
100
AcDbLine
 10
13.1572
 20
10.7324
 30
0.0
 11
13.2624
 21
10.8166
 31
0.0
  0
ARC
  5
36F
330
409
100
AcDbEntity
  8
1
 62
     7
100
AcDbCircle
 10
13.1843
 20
10.9142
 30
0.0
 40
0.125
100
AcDbArc
 50
308.6601
 51
1.0544
  0
ARC
  5
370
330
409
100
AcDbEntity
  8
1
 62
     7
100
AcDbCircle
 10
13.4967
 20
10.9199
 30
0.0
 40
0.1875
100
AcDbArc
 50
91.7357
 51
181.0544
  0
LINE
  5
371
330
409
100
AcDbEntity
  8
1
 62
     7
100
AcDbLine
 10
13.491
 20
11.1073
 30
0.0
 11
12.841
 21
11.9199
 31
0.0
  0
LINE
  5
372
330
409
100
AcDbEntity
  8
1
 62
     7
100
AcDbLine
 10
12.841
 20
11.9199
 30
0.0
 11
13.5395
 21
11.9199
 31
0.0
  0
LINE
  5
373
330
409
100
AcDbEntity
  8
1
 62
     7
100
AcDbLine
 10
13.5395
 20
11.9199
 30
0.0
 11
14.0362
 21
11.299
 31
0.0
  0
LINE
  5
374
330
409
100
AcDbEntity
  8
1
 62
     7
100
AcDbLine
 10
14.0362
 20
11.299
 30
0.0
 11
14.0362
 21
11.9199
 31
0.0
  0
CIRCLE
  5
376
330
409
100
AcDbEntity
  8
1
 62
     7
100
AcDbCircle
 10
14.7394
 20
0.25
 30
0.0
 40
0.0885
  0
CIRCLE
  5
377
330
409
100
AcDbEntity
  8
1
 62
     7
100
AcDbCircle
 10
14.7394
 20
0.25
 30
0.0
 40
0.1875
  0
CIRCLE
  5
379
330
409
100
AcDbEntity
  8
1
 62
     7
100
AcDbCircle
 10
14.5806
 20
0.9629
 30
0.0
 40
0.0885
  0
CIRCLE
  5
37A
330
409
100
AcDbEntity
  8
1
 62
     7
100
AcDbCircle
 10
14.5806
 20
0.9629
 30
0.0
 40
0.1875
  0
CIRCLE
  5
37C
330
409
100
AcDbEntity
  8
1
 62
     7
100
AcDbCircle
 10
14.5168
 20
1.3991
 30
0.0
 40
0.0885
  0
CIRCLE
  5
37D
330
409
100
AcDbEntity
  8
1
 62
     7
100
AcDbCircle
 10
14.5168
 20
1.3991
 30
0.0
 40
0.1875
  0
CIRCLE
  5
37F
330
409
100
AcDbEntity
  8
1
 62
     7
100
AcDbCircle
 10
14.6788
 20
1.9569
 30
0.0
 40
0.0885
  0
CIRCLE
  5
380
330
409
100
AcDbEntity
  8
1
 62
     7
100
AcDbCircle
 10
14.6788
 20
1.9569
 30
0.0
 40
0.1875
  0
CIRCLE
  5
382
330
409
100
AcDbEntity
  8
1
 62
     7
100
AcDbCircle
 10
14.6868
 20
2.475
 30
0.0
 40
0.0885
  0
CIRCLE
  5
383
330
409
100
AcDbEntity
  8
1
 62
     7
100
AcDbCircle
 10
14.6868
 20
2.475
 30
0.0
 40
0.1875
  0
CIRCLE
  5
385
330
409
100
AcDbEntity
  8
1
 62
     7
100
AcDbCircle
 10
14.6897
 20
2.9817
 30
0.0
 40
0.0885
  0
CIRCLE
  5
386
330
409
100
AcDbEntity
  8
1
 62
     7
100
AcDbCircle
 10
14.6897
 20
2.9817
 30
0.0
 40
0.1875
  0
CIRCLE
  5
388
330
409
100
AcDbEntity
  8
1
 62
     7
100
AcDbCircle
 10
14.551
 20
3.7684
 30
0.0
 40
0.0885
  0
CIRCLE
  5
389
330
409
100
AcDbEntity
  8
1
 62
     7
100
AcDbCircle
 10
14.551
 20
3.7684
 30
0.0
 40
0.1875
  0
CIRCLE
  5
38B
330
409
100
AcDbEntity
  8
1
 62
     7
100
AcDbCircle
 10
14.5984
 20
4.2024
 30
0.0
 40
0.0885
  0
CIRCLE
  5
38C
330
409
100
AcDbEntity
  8
1
 62
     7
100
AcDbCircle
 10
14.5984
 20
4.2024
 30
0.0
 40
0.1875
  0
CIRCLE
  5
38E
330
409
100
AcDbEntity
  8
1
 62
     7
100
AcDbCircle
 10
14.9123
 20
0.6783
 30
0.0
 40
0.0885
  0
CIRCLE
  5
38F
330
409
100
AcDbEntity
  8
1
 62
     7
100
AcDbCircle
 10
14.9123
 20
0.6783
 30
0.0
 40
0.1875
  0
CIRCLE
  5
391
330
409
100
AcDbEntity
  8
1
 62
     7
100
AcDbCircle
 10
15.1769
 20
0.3127
 30
0.0
 40
0.0885
  0
CIRCLE
  5
392
330
409
100
AcDbEntity
  8
1
 62
     7
100
AcDbCircle
 10
15.1769
 20
0.3127
 30
0.0
 40
0.1875
  0
CIRCLE
  5
394
330
409
100
AcDbEntity
  8
1
 62
     7
100
AcDbCircle
 10
15.0107
 20
1.1355
 30
0.0
 40
0.0885
  0
CIRCLE
  5
395
330
409
100
AcDbEntity
  8
1
 62
     7
100
AcDbCircle
 10
15.0107
 20
1.1355
 30
0.0
 40
0.1875
  0
CIRCLE
  5
397
330
409
100
AcDbEntity
  8
1
 62
     7
100
AcDbCircle
 10
14.9327
 20
1.5816
 30
0.0
 40
0.0885
  0
CIRCLE
  5
398
330
409
100
AcDbEntity
  8
1
 62
     7
100
AcDbCircle
 10
14.9327
 20
1.5816
 30
0.0
 40
0.1875
  0
CIRCLE
  5
39A
330
409
100
AcDbEntity
  8
1
 62
     7
100
AcDbCircle
 10
14.8116
 20
3.4104
 30
0.0
 40
0.0885
  0
CIRCLE
  5
39B
330
409
100
AcDbEntity
  8
1
 62
     7
100
AcDbCircle
 10
14.8116
 20
3.4104
 30
0.0
 40
0.1875
  0
CIRCLE
  5
39D
330
409
100
AcDbEntity
  8
1
 62
     7
100
AcDbCircle
 10
15.0631
 20
2.2107
 30
0.0
 40
0.0885
  0
CIRCLE
  5
39E
330
409
100
AcDbEntity
  8
1
 62
     7
100
AcDbCircle
 10
15.0631
 20
2.2107
 30
0.0
 40
0.1875
  0
CIRCLE
  5
3A0
330
409
100
AcDbEntity
  8
1
 62
     7
100
AcDbCircle
 10
15.0677
 20
2.7326
 30
0.0
 40
0.0885
  0
CIRCLE
  5
3A1
330
409
100
AcDbEntity
  8
1
 62
     7
100
AcDbCircle
 10
15.0677
 20
2.7326
 30
0.0
 40
0.1875
  0
CIRCLE
  5
3A3
330
409
100
AcDbEntity
  8
1
 62
     7
100
AcDbCircle
 10
14.9672
 20
3.9447
 30
0.0
 40
0.0885
  0
CIRCLE
  5
3A4
330
409
100
AcDbEntity
  8
1
 62
     7
100
AcDbCircle
 10
14.9672
 20
3.9447
 30
0.0
 40
0.1875
  0
CIRCLE
  5
3A6
330
409
100
AcDbEntity
  8
1
 62
     7
100
AcDbCircle
 10
14.8052
 20
4.6258
 30
0.0
 40
0.0885
  0
CIRCLE
  5
3A7
330
409
100
AcDbEntity
  8
1
 62
     7
100
AcDbCircle
 10
14.8052
 20
4.6258
 30
0.0
 40
0.1875
  0
CIRCLE
  5
3A9
330
409
100
AcDbEntity
  8
1
 62
     7
100
AcDbCircle
 10
14.8056
 20
5.0635
 30
0.0
 40
0.0885
  0
CIRCLE
  5
3AA
330
409
100
AcDbEntity
  8
1
 62
     7
100
AcDbCircle
 10
14.8056
 20
5.0635
 30
0.0
 40
0.1875
  0
CIRCLE
  5
3AC
330
409
100
AcDbEntity
  8
1
 62
     7
100
AcDbCircle
 10
14.806
 20
5.5013
 30
0.0
 40
0.0885
  0
CIRCLE
  5
3AD
330
409
100
AcDbEntity
  8
1
 62
     7
100
AcDbCircle
 10
14.806
 20
5.5013
 30
0.0
 40
0.1875
  0
CIRCLE
  5
3AF
330
409
100
AcDbEntity
  8
1
 62
     7
100
AcDbCircle
 10
14.8087
 20
5.9387
 30
0.0
 40
0.0885
  0
CIRCLE
  5
3B0
330
409
100
AcDbEntity
  8
1
 62
     7
100
AcDbCircle
 10
14.8087
 20
5.9387
 30
0.0
 40
0.1875
  0
CIRCLE
  5
3B2
330
409
100
AcDbEntity
  8
1
 62
     7
100
AcDbCircle
 10
14.8087
 20
6.3762
 30
0.0
 40
0.0885
  0
CIRCLE
  5
3B3
330
409
100
AcDbEntity
  8
1
 62
     7
100
AcDbCircle
 10
14.8087
 20
6.3762
 30
0.0
 40
0.1875
  0
CIRCLE
  5
3B5
330
409
100
AcDbEntity
  8
1
 62
     7
100
AcDbCircle
 10
14.8087
 20
6.8137
 30
0.0
 40
0.0885
  0
CIRCLE
  5
3B6
330
409
100
AcDbEntity
  8
1
 62
     7
100
AcDbCircle
 10
14.8087
 20
6.8137
 30
0.0
 40
0.1875
  0
CIRCLE
  5
3B8
330
409
100
AcDbEntity
  8
1
 62
     7
100
AcDbCircle
 10
14.8087
 20
7.2512
 30
0.0
 40
0.0885
  0
CIRCLE
  5
3B9
330
409
100
AcDbEntity
  8
1
 62
     7
100
AcDbCircle
 10
14.8087
 20
7.2512
 30
0.0
 40
0.1875
  0
CIRCLE
  5
3BB
330
409
100
AcDbEntity
  8
1
 62
     7
100
AcDbCircle
 10
14.8087
 20
7.6887
 30
0.0
 40
0.0885
  0
CIRCLE
  5
3BC
330
409
100
AcDbEntity
  8
1
 62
     7
100
AcDbCircle
 10
14.8087
 20
7.6887
 30
0.0
 40
0.1875
  0
CIRCLE
  5
3BE
330
409
100
AcDbEntity
  8
1
 62
     7
100
AcDbCircle
 10
14.8087
 20
8.1262
 30
0.0
 40
0.0885
  0
CIRCLE
  5
3BF
330
409
100
AcDbEntity
  8
1
 62
     7
100
AcDbCircle
 10
14.8087
 20
8.1262
 30
0.0
 40
0.1875
  0
CIRCLE
  5
3C1
330
409
100
AcDbEntity
  8
1
 62
     7
100
AcDbCircle
 10
14.8087
 20
8.5637
 30
0.0
 40
0.0885
  0
CIRCLE
  5
3C2
330
409
100
AcDbEntity
  8
1
 62
     7
100
AcDbCircle
 10
14.8087
 20
8.5637
 30
0.0
 40
0.1875
  0
CIRCLE
  5
3C4
330
409
100
AcDbEntity
  8
1
 62
     7
100
AcDbCircle
 10
14.8087
 20
9.0012
 30
0.0
 40
0.0885
  0
CIRCLE
  5
3C5
330
409
100
AcDbEntity
  8
1
 62
     7
100
AcDbCircle
 10
14.8087
 20
9.0012
 30
0.0
 40
0.1875
  0
CIRCLE
  5
3C7
330
409
100
AcDbEntity
  8
1
 62
     7
100
AcDbCircle
 10
14.8087
 20
9.4387
 30
0.0
 40
0.0885
  0
CIRCLE
  5
3C8
330
409
100
AcDbEntity
  8
1
 62
     7
100
AcDbCircle
 10
14.8087
 20
9.4387
 30
0.0
 40
0.1875
  0
CIRCLE
  5
3CA
330
409
100
AcDbEntity
  8
1
 62
     7
100
AcDbCircle
 10
14.8087
 20
9.8762
 30
0.0
 40
0.0885
  0
CIRCLE
  5
3CB
330
409
100
AcDbEntity
  8
1
 62
     7
100
AcDbCircle
 10
14.8087
 20
9.8762
 30
0.0
 40
0.1875
  0
CIRCLE
  5
3CD
330
409
100
AcDbEntity
  8
1
 62
     7
100
AcDbCircle
 10
14.8036
 20
10.5943
 30
0.0
 40
0.0885
  0
CIRCLE
  5
3CE
330
409
100
AcDbEntity
  8
1
 62
     7
100
AcDbCircle
 10
14.8036
 20
10.5943
 30
0.0
 40
0.1875
  0
CIRCLE
  5
3D0
330
409
100
AcDbEntity
  8
1
 62
     7
100
AcDbCircle
 10
14.8028
 20
11.0328
 30
0.0
 40
0.0885
  0
CIRCLE
  5
3D1
330
409
100
AcDbEntity
  8
1
 62
     7
100
AcDbCircle
 10
14.8028
 20
11.0328
 30
0.0
 40
0.1875
  0
CIRCLE
  5
3D3
330
409
100
AcDbEntity
  8
1
 62
     7
100
AcDbCircle
 10
14.802
 20
11.4714
 30
0.0
 40
0.0885
  0
CIRCLE
  5
3D4
330
409
100
AcDbEntity
  8
1
 62
     7
100
AcDbCircle
 10
14.802
 20
11.4714
 30
0.0
 40
0.1875
  0
CIRCLE
  5
3D6
330
409
100
AcDbEntity
  8
1
 62
     7
100
AcDbCircle
 10
15.1922
 20
3.1692
 30
0.0
 40
0.0885
  0
CIRCLE
  5
3D7
330
409
100
AcDbEntity
  8
1
 62
     7
100
AcDbCircle
 10
15.1922
 20
3.1692
 30
0.0
 40
0.1875
  0
CIRCLE
  5
3D9
330
409
100
AcDbEntity
  8
1
 62
     7
100
AcDbCircle
 10
15.1569
 20
4.3651
 30
0.0
 40
0.0885
  0
CIRCLE
  5
3DA
330
409
100
AcDbEntity
  8
1
 62
     7
100
AcDbCircle
 10
15.1569
 20
4.3651
 30
0.0
 40
0.1875
  0
CIRCLE
  5
3DC
330
409
100
AcDbEntity
  8
1
 62
     7
100
AcDbCircle
 10
15.0672
 20
10.2365
 30
0.0
 40
0.0885
  0
CIRCLE
  5
3DD
330
409
100
AcDbEntity
  8
1
 62
     7
100
AcDbCircle
 10
15.0672
 20
10.2365
 30
0.0
 40
0.1875
  0
CIRCLE
  5
3DF
330
409
100
AcDbEntity
  8
1
 62
     7
100
AcDbCircle
 10
15.2034
 20
10.8204
 30
0.0
 40
0.0885
  0
CIRCLE
  5
3E0
330
409
100
AcDbEntity
  8
1
 62
     7
100
AcDbCircle
 10
15.2034
 20
10.8204
 30
0.0
 40
0.1875
  0
CIRCLE
  5
3E2
330
409
100
AcDbEntity
  8
1
 62
     7
100
AcDbCircle
 10
15.2016
 20
11.2579
 30
0.0
 40
0.0885
  0
CIRCLE
  5
3E3
330
409
100
AcDbEntity
  8
1
 62
     7
100
AcDbCircle
 10
15.2016
 20
11.2579
 30
0.0
 40
0.1875
  0
CIRCLE
  5
3E5
330
409
100
AcDbEntity
  8
1
 62
     7
100
AcDbCircle
 10
15.1625
 20
11.7311
 30
0.0
 40
0.0885
  0
CIRCLE
  5
3E6
330
409
100
AcDbEntity
  8
1
 62
     7
100
AcDbCircle
 10
15.1625
 20
11.7311
 30
0.0
 40
0.1875
  0
VIEWPORT
  5
4B5
330
405
100
AcDbEntity
 67
     1
  8
0
100
AcDbViewport
 10
5.25
 20
4.0
 30
0.0
 40
11.638
 41
8.993
 68
     1
 69
     1
 12
5.25
 22
4.0
 13
0.0
 23
0.0
 14
0.5
 24
0.5
 15
0.5
 25
0.5
 16
0.0
 26
0.0
 36
1.0
 17
0.0
 27
0.0
 37
0.0
 42
50.0
 43
0.0
 44
0.0
 45
8.993
 50
0.0
 51
0.0
 72
   100
 90
   557152
  1

281
     0
 71
     1
 74
     0
110
0.0
120
0.0
130
0.0
111
1.0
121
0.0
131
0.0
112
0.0
122
1.0
132
0.0
 79
     0
146
0.0
170
     0
 61
     5
348
419
292
     1
282
     1
141
0.0
142
0.0
 63
   256
361
4B6
  0
ENDSEC
  0
SECTION
  2
OBJECTS
  0
DICTIONARY
  5
3F7
330
0
100
AcDbDictionary
281
     1
  3
ACAD_DETAILVIEWSTYLE
350
4BE
  3
ACAD_GROUP
350
3F8
  3
ACAD_LAYOUT
350
404
  3
ACAD_MATERIAL
350
42D
  3
ACAD_MLEADERSTYLE
350
445
  3
ACAD_MLINESTYLE
350
401
  3
ACAD_PLOTSETTINGS
350
403
  3
ACAD_PLOTSTYLENAME
350
3F9
  3
ACAD_SCALELIST
350
431
  3
ACAD_SECTIONVIEWSTYLE
350
4BF
  3
ACAD_TABLESTYLE
350
443
  3
ACAD_VISUALSTYLE
350
414
  3
ACDB_RECOMPOSE_DATA
350
4BB
  3
AcDbVariableDictionary
350
4B7
  3
QCAD_OBJECTS
350
449
  0
SUN
  5
447
330
413
100
AcDbSun
 90
        1
290
     0
 63
     7
421
 16777215
 40
1.0
291
     1
 91
  2455826
 92
 54000000
292
     0
 70
     2
 71
   256
280
     1
  0
SUN
  5
4B6
330
4B5
100
AcDbSun
 90
        1
290
     0
 63
     7
421
 16777215
 40
1.0
291
     1
 91
  2455826
 92
 54000000
292
     0
 70
     2
 71
   256
280
     1
  0
DICTIONARY
  5
4BE
102
{ACAD_REACTORS
330
3F7
102
}
330
3F7
100
AcDbDictionary
281
     1
  0
DICTIONARY
  5
3F8
102
{ACAD_REACTORS
330
3F7
102
}
330
3F7
100
AcDbDictionary
281
     1
  0
DICTIONARY
  5
404
102
{ACAD_REACTORS
330
3F7
102
}
330
3F7
100
AcDbDictionary
281
     1
  3
Layout1
350
408
  3
Model
350
40C
  0
DICTIONARY
  5
42D
102
{ACAD_REACTORS
330
3F7
102
}
330
3F7
100
AcDbDictionary
281
     1
  3
ByBlock
350
42F
  3
ByLayer
350
42E
  3
Global
350
430
  0
DICTIONARY
  5
445
102
{ACAD_REACTORS
330
3F7
102
}
330
3F7
100
AcDbDictionary
281
     1
  3
Standard
350
446
  0
DICTIONARY
  5
401
102
{ACAD_REACTORS
330
3F7
102
}
330
3F7
100
AcDbDictionary
281
     1
  3
Standard
350
402
  0
DICTIONARY
  5
403
102
{ACAD_REACTORS
330
3F7
102
}
330
3F7
100
AcDbDictionary
281
     1
  0
ACDBDICTIONARYWDFLT
  5
3F9
102
{ACAD_REACTORS
330
3F7
102
}
330
3F7
100
AcDbDictionary
281
     1
  3
Normal
350
3FA
100
AcDbDictionaryWithDefault
340
3FA
  0
DICTIONARY
  5
431
102
{ACAD_REACTORS
330
3F7
102
}
330
3F7
100
AcDbDictionary
281
     1
  3
A0
350
432
  3
A1
350
433
  3
A2
350
434
  3
A3
350
435
  3
A4
350
436
  3
A5
350
437
  3
A6
350
438
  3
A7
350
439
  3
A8
350
43A
  3
A9
350
43B
  3
B1
350
43C
  3
B2
350
43D
  3
B3
350
43E
  3
B4
350
43F
  3
B5
350
440
  3
B6
350
441
  3
B7
350
442
  0
DICTIONARY
  5
4BF
102
{ACAD_REACTORS
330
3F7
102
}
330
3F7
100
AcDbDictionary
281
     1
  0
DICTIONARY
  5
443
102
{ACAD_REACTORS
330
3F7
102
}
330
3F7
100
AcDbDictionary
281
     1
  3
Standard
350
444
  0
DICTIONARY
  5
414
102
{ACAD_REACTORS
330
3F7
102
}
330
3F7
100
AcDbDictionary
281
     1
  3
2dWireframe
350
419
  3
Basic
350
41C
  3
Brighten
350
420
  3
ColorChange
350
424
  3
Conceptual
350
41E
  3
Dim
350
41F
  3
EdgeColorOff
350
427
  3
Facepattern
350
423
  3
Flat
350
415
  3
FlatWithEdges
350
416
  3
Gouraud
350
417
  3
GouraudWithEdges
350
418
  3
Hidden
350
41B
  3
JitterOff
350
425
  3
Linepattern
350
422
  3
OverhangOff
350
426
  3
Realistic
350
41D
  3
Shaded
350
42C
  3
Shaded with edges
350
42B
  3
Shades of Gray
350
428
  3
Sketchy
350
429
  3
Thicken
350
421
  3
Wireframe
350
41A
  3
X-Ray
350
42A
  0
XRECORD
  5
4BB
102
{ACAD_REACTORS
330
3F7
102
}
330
3F7
100
AcDbXrecord
280
     1
 90
        1
330
444
  0
DICTIONARY
  5
4B7
102
{ACAD_REACTORS
330
3F7
102
}
330
3F7
100
AcDbDictionary
281
     1
  3
CANNOSCALE
350
4B8
  3
CMLEADERSTYLE
350
4BD
  3
CTABLESTYLE
350
4BC
  0
DICTIONARY
  5
449
102
{ACAD_REACTORS
330
3F7
102
}
330
3F7
100
AcDbDictionary
281
     1
  3
ColorSettings/BackgroundColor
350
44B
  3
ColorSettings/ColorMode
350
44C
  3
Grid/DisplayGrid00
350
44D
  3
Grid/DisplayGrid01
350
44E
  3
Grid/DisplayGrid02
350
44F
  3
Grid/DisplayGrid03
350
450
  3
Grid/GridSpacingX00
350
451
  3
Grid/GridSpacingX01
350
452
  3
Grid/GridSpacingX02
350
453
  3
Grid/GridSpacingX03
350
454
  3
Grid/GridSpacingY00
350
455
  3
Grid/GridSpacingY01
350
456
  3
Grid/GridSpacingY02
350
457
  3
Grid/GridSpacingY03
350
458
  3
Grid/IsometricGrid00
350
459
  3
Grid/IsometricGrid01
350
45A
  3
Grid/IsometricGrid02
350
45B
  3
Grid/IsometricGrid03
350
45C
  3
Grid/IsometricProjection00
350
45D
  3
Grid/IsometricProjection01
350
45E
  3
Grid/IsometricProjection02
350
45F
  3
Grid/IsometricProjection03
350
460
  3
Grid/MetaGridSpacingX00
350
461
  3
Grid/MetaGridSpacingX01
350
462
  3
Grid/MetaGridSpacingX02
350
463
  3
Grid/MetaGridSpacingX03
350
464
  3
Grid/MetaGridSpacingY00
350
465
  3
Grid/MetaGridSpacingY01
350
466
  3
Grid/MetaGridSpacingY02
350
467
  3
Grid/MetaGridSpacingY03
350
468
  3
MultiPageSettings/Columns
350
469
  3
MultiPageSettings/GlueMarginsBottom
350
46A
  3
MultiPageSettings/GlueMarginsLeft
350
46B
  3
MultiPageSettings/GlueMarginsRight
350
46C
  3
MultiPageSettings/GlueMarginsTop
350
46D
  3
MultiPageSettings/PrintCropMarks
350
46E
  3
MultiPageSettings/Rows
350
46F
  3
PageSettings/OffsetX
350
470
  3
PageSettings/OffsetY
350
471
  3
PageSettings/PageOrientation
350
472
  3
PageSettings/PaperHeight
350
473
  3
PageSettings/PaperWidth
350
474
  3
PageSettings/Scale
350
475
  3
PageSettings/ShowPaperBorders
350
476
  3
PageTagSettings/EnablePageTags
350
477
  3
PageTagSettings/TagAlignment
350
478
  3
PageTagSettings/TagFont
350
479
  3
PageTagSettings/TagPosition
350
47A
  3
QCADVersion
350
47B
  3
UnitSettings/PaperUnit
350
47C
  3
ViewportCenter
350
47D
  3
ViewportHeight
350
47E
  3
ViewportWidth
350
47F
  0
LAYOUT
  5
408
102
{ACAD_REACTORS
330
404
102
}
330
404
100
AcDbPlotSettings
  1

  2
none_device
  4
Letter_(8.50_x_11.00_Inches)
  6

 40
6.35
 41
6.35
 42
6.35001
 43
6.35001
 44
215.9
 45
279.4
 46
0.0
 47
0.0
 48
0.0
 49
0.0
140
0.0
141
0.0
142
1.0
143
1.0
 70
   688
 72
     0
 73
     1
 74
     5
  7

 75
    16
 76
     0
 77
     2
 78
   300
147
1.0
148
0.0
149
0.0
100
AcDbLayout
  1
Layout1
 70
     1
 71
     1
 10
-0.25
 20
-0.25
 11
10.75
 21
8.25
 12
0.0
 22
0.0
 32
0.0
 14
1.000000000000000E+20
 24
1.000000000000000E+20
 34
1.000000000000000E+20
 15
-1.000000000000000E+20
 25
-1.000000000000000E+20
 35
-1.000000000000000E+20
146
0.0
 13
0.0
 23
0.0
 33
0.0
 16
1.0
 26
0.0
 36
0.0
 17
0.0
 27
1.0
 37
0.0
 76
     0
330
405
331
4B5
  0
LAYOUT
  5
40C
102
{ACAD_REACTORS
330
404
102
}
330
404
100
AcDbPlotSettings
  1

  2
none_device
  4
Letter_(8.50_x_11.00_Inches)
  6

 40
6.35
 41
6.35
 42
6.35000508
 43
6.35000508
 44
215.9
 45
279.4
 46
0.0
 47
0.0
 48
0.0
 49
0.0
140
0.0
141
0.0
142
1.0
143
1.0
 70
  1712
 72
     0
 73
     0
 74
     0
  7

 75
     0
 76
     0
 77
     2
 78
   300
147
1.0
148
0.0
149
0.0
100
AcDbLayout
  1
Model
 70
     1
 71
     0
 10
-0.8
 20
-1.8
 11
31.84
 21
12.8
 12
0.0
 22
0.0
 32
0.0
 14
0.0638
 24
0.0625
 34
0.0
 15
15.3909
 25
11.9199
 35
0.0
146
0.0
 13
0.0
 23
0.0
 33
0.0
 16
1.0
 26
0.0
 36
0.0
 17
0.0
 27
1.0
 37
0.0
 76
     0
330
409
331
413
  0
MATERIAL
  5
42F
102
{ACAD_REACTORS
330
42D
102
}
330
42D
100
AcDbMaterial
  1
ByBlock
 72
     1
 94
      127
  0
MATERIAL
  5
42E
102
{ACAD_REACTORS
330
42D
102
}
330
42D
100
AcDbMaterial
  1
ByLayer
 72
     1
 94
      127
  0
MATERIAL
  5
430
102
{ACAD_REACTORS
330
42D
102
}
330
42D
100
AcDbMaterial
  1
Global
 72
     1
 94
      127
  0
MLEADERSTYLE
  5
446
102
{ACAD_REACTORS
330
445
102
}
330
445
100
AcDbMLeaderStyle
179
     2
170
     2
171
     1
172
     0
 90
        2
 40
0.0
 41
0.0
173
     1
 91
-1056964608
340
3FE
 92
       -2
290
     1
 42
0.09
291
     1
 43
0.36
  3
Standard
341
0
 44
0.18
300

342
3FC
174
     1
178
     6
175
     1
176
     0
 93
-1056964608
 45
0.18
292
     0
297
     0
 46
0.18
343
0
 94
-1056964608
 47
1.0
 49
1.0
140
1.0
293
     1
141
0.0
294
     1
177
     0
142
1.0
295
     0
296
     0
143
0.125
271
     0
272
     9
273
     9
298
     0
  0
MLINESTYLE
  5
402
102
{ACAD_REACTORS
330
401
102
}
330
401
100
AcDbMlineStyle
  2
Standard
 70
     0
  3

 62
   256
 51
90.0
 52
90.0
 71
     2
 49
0.5
 62
   256
  6
BYLAYER
 49
-0.5
 62
   256
  6
BYLAYER
  0
ACDBPLACEHOLDER
  5
3FA
102
{ACAD_REACTORS
330
3F9
102
}
330
3F9
  0
SCALE
  5
432
102
{ACAD_REACTORS
330
431
102
}
330
431
100
AcDbScale
 70
     0
300
1:1
140
1.0
141
1.0
290
     1
  0
SCALE
  5
433
102
{ACAD_REACTORS
330
431
102
}
330
431
100
AcDbScale
 70
     0
300
1/128" = 1'-0"
140
0.0078125
141
12.0
290
     0
  0
SCALE
  5
434
102
{ACAD_REACTORS
330
431
102
}
330
431
100
AcDbScale
 70
     0
300
1/64" = 1'-0"
140
0.015625
141
12.0
290
     0
  0
SCALE
  5
435
102
{ACAD_REACTORS
330
431
102
}
330
431
100
AcDbScale
 70
     0
300
1/32" = 1'-0"
140
0.03125
141
12.0
290
     0
  0
SCALE
  5
436
102
{ACAD_REACTORS
330
431
102
}
330
431
100
AcDbScale
 70
     0
300
1/16" = 1'-0"
140
0.0625
141
12.0
290
     0
  0
SCALE
  5
437
102
{ACAD_REACTORS
330
431
102
}
330
431
100
AcDbScale
 70
     0
300
3/32" = 1'-0"
140
0.09375
141
12.0
290
     0
  0
SCALE
  5
438
102
{ACAD_REACTORS
330
431
102
}
330
431
100
AcDbScale
 70
     0
300
1/8" = 1'-0"
140
0.125
141
12.0
290
     0
  0
SCALE
  5
439
102
{ACAD_REACTORS
330
431
102
}
330
431
100
AcDbScale
 70
     0
300
3/16" = 1'-0"
140
0.1875
141
12.0
290
     0
  0
SCALE
  5
43A
102
{ACAD_REACTORS
330
431
102
}
330
431
100
AcDbScale
 70
     0
300
1/4" = 1'-0"
140
0.25
141
12.0
290
     0
  0
SCALE
  5
43B
102
{ACAD_REACTORS
330
431
102
}
330
431
100
AcDbScale
 70
     0
300
3/8" = 1'-0"
140
0.375
141
12.0
290
     0
  0
SCALE
  5
43C
102
{ACAD_REACTORS
330
431
102
}
330
431
100
AcDbScale
 70
     0
300
1/2" = 1'-0"
140
0.5
141
12.0
290
     0
  0
SCALE
  5
43D
102
{ACAD_REACTORS
330
431
102
}
330
431
100
AcDbScale
 70
     0
300
3/4" = 1'-0"
140
0.75
141
12.0
290
     0
  0
SCALE
  5
43E
102
{ACAD_REACTORS
330
431
102
}
330
431
100
AcDbScale
 70
     0
300
1" = 1'-0"
140
1.0
141
12.0
290
     0
  0
SCALE
  5
43F
102
{ACAD_REACTORS
330
431
102
}
330
431
100
AcDbScale
 70
     0
300
1-1/2" = 1'-0"
140
1.5
141
12.0
290
     0
  0
SCALE
  5
440
102
{ACAD_REACTORS
330
431
102
}
330
431
100
AcDbScale
 70
     0
300
3" = 1'-0"
140
3.0
141
12.0
290
     0
  0
SCALE
  5
441
102
{ACAD_REACTORS
330
431
102
}
330
431
100
AcDbScale
 70
     0
300
6" = 1'-0"
140
6.0
141
12.0
290
     0
  0
SCALE
  5
442
102
{ACAD_REACTORS
330
431
102
}
330
431
100
AcDbScale
 70
     0
300
1'-0" = 1'-0"
140
12.0
141
12.0
290
     0
  0
TABLESTYLE
  5
444
102
{ACAD_REACTORS
330
443
102
}
102
{ACAD_XDICTIONARY
360
4B9
102
}
330
443
100
AcDbTableStyle
  3
Standard
 70
     0
 71
     0
 40
0.06
 41
0.06
280
     0
281
     0
  7
Standard
140
0.18
170
     2
 62
     0
 63
   257
283
     0
 90
        4
 91
        0
  1

274
    -2
284
     1
 64
     0
275
    -2
285
     1
 65
     0
276
    -2
286
     1
 66
     0
277
    -2
287
     1
 67
     0
278
    -2
288
     1
 68
     0
279
    -2
289
     1
 69
     0
  7
Standard
140
0.25
170
     5
 62
     0
 63
   257
283
     0
 90
        4
 91
        0
  1

274
    -2
284
     1
 64
     0
275
    -2
285
     1
 65
     0
276
    -2
286
     1
 66
     0
277
    -2
287
     1
 67
     0
278
    -2
288
     1
 68
     0
279
    -2
289
     1
 69
     0
  7
Standard
140
0.18
170
     5
 62
     0
 63
   257
283
     0
 90
        4
 91
        0
  1

274
    -2
284
     1
 64
     0
275
    -2
285
     1
 65
     0
276
    -2
286
     1
 66
     0
277
    -2
287
     1
 67
     0
278
    -2
288
     1
 68
     0
279
    -2
289
     1
 69
     0
  0
VISUALSTYLE
  5
419
102
{ACAD_REACTORS
330
414
102
}
330
414
100
AcDbVisualStyle
  2
2dWireframe
 70
     4
177
     3
291
     0
 70
    58
 90
        0
176
     1
 90
        2
176
     1
 90
        0
176
     1
 90
        0
176
     1
 40
0.6
176
     1
 40
30.0
176
     1
 62
     7
420
 16777215
176
     1
 90
        1
176
     1
 90
        4
176
     1
 62
     7
176
     1
 62
   257
176
     1
 90
        1
176
     1
 90
        1
176
     1
 40
1.0
176
     1
 90
        0
176
     1
 62
   257
176
     1
 40
1.0
176
     1
 90
        1
176
     1
 90
        6
176
     1
 90
        2
176
     1
 62
     7
176
     1
 90
        5
176
     1
 90
        0
176
     1
 90
        0
176
     1
290
     0
176
     1
 90
        1
176
     1
 40
0.0
176
     1
 90
        0
176
     1
290
     1
176
     1
290
     1
176
     1
290
     0
176
     1
290
     0
176
     1
290
     0
176
     1
290
     0
176
     1
290
     0
176
     1
290
     0
176
     1
290
     0
176
     1
 90
       50
176
     1
 40
0.0
176
     1
 40
1.0
176
     1
 90
        0
176
     1
 62
    18
420
        0
176
     1
 90
       50
176
     1
 90
        3
176
     1
 62
     5
420
      255
176
     1
290
     0
176
     1
 90
       50
176
     1
 90
       50
176
     1
 90
       50
176
     1
290
     0
176
     1
 90
       50
176
     1
 62
   256
176
     0
 40
1.0
176
     0
 90
        2
176
     1
  1
strokes_ogs.tif
176
     1
290
     0
176
     1
 40
1.0
176
     1
 40
1.0
176
     1
  0
VISUALSTYLE
  5
41C
102
{ACAD_REACTORS
330
414
102
}
330
414
100
AcDbVisualStyle
  2
Basic
 70
     7
177
     3
291
     1
 70
    58
 90
        1
176
     1
 90
        0
176
     1
 90
        1
176
     1
 90
        0
176
     1
 40
0.6
176
     1
 40
30.0
176
     1
 62
     7
420
 16777215
176
     1
 90
        0
176
     1
 90
        4
176
     1
 62
     7
176
     1
 62
   257
176
     1
 90
        1
176
     1
 90
        1
176
     1
 40
1.0
176
     1
 90
        8
176
     1
 62
     7
176
     1
 40
1.0
176
     1
 90
        1
176
     1
 90
        6
176
     1
 90
        2
176
     1
 62
     7
176
     1
 90
        5
176
     1
 90
        0
176
     1
 90
        0
176
     1
290
     0
176
     1
 90
        1
176
     1
 40
0.0
176
     1
 90
        0
176
     1
290
     0
176
     1
290
     1
176
     1
290
     1
176
     1
290
     0
176
     1
290
     0
176
     1
290
     0
176
     1
290
     0
176
     1
290
     0
176
     1
290
     0
176
     1
 90
       50
176
     1
 40
0.0
176
     1
 40
1.0
176
     1
 90
        0
176
     1
 62
    18
420
        0
176
     1
 90
       50
176
     1
 90
        3
176
     1
 62
     5
420
      255
176
     1
290
     0
176
     1
 90
       50
176
     1
 90
       50
176
     1
 90
       50
176
     1
290
     0
176
     1
 90
       50
176
     1
 62
   256
176
     0
 40
1.0
176
     0
 90
        2
176
     1
  1
strokes_ogs.tif
176
     1
290
     0
176
     1
 40
1.0
176
     1
 40
1.0
176
     1
  0
VISUALSTYLE
  5
420
102
{ACAD_REACTORS
330
414
102
}
330
414
100
AcDbVisualStyle
  2
Brighten
 70
    12
177
     3
291
     1
 70
    58
 90
        2
176
     1
 90
        2
176
     1
 90
        0
176
     1
 90
        0
176
     1
 40
0.6
176
     1
 40
30.0
176
     1
 62
     7
420
 16777215
176
     1
 90
        1
176
     1
 90
        4
176
     1
 62
     7
176
     1
 62
   257
176
     1
 90
        1
176
     1
 90
        1
176
     1
 40
1.0
176
     1
 90
        8
176
     1
 62
     7
176
     1
 40
1.0
176
     1
 90
        1
176
     1
 90
        6
176
     1
 90
        2
176
     1
 62
     7
176
     1
 90
        5
176
     1
 90
        0
176
     1
 90
        0
176
     1
290
     0
176
     1
 90
        1
176
     1
 40
50.0
176
     1
 90
        0
176
     1
290
     0
176
     1
290
     1
176
     1
290
     1
176
     1
290
     0
176
     1
290
     0
176
     1
290
     0
176
     1
290
     0
176
     1
290
     0
176
     1
290
     0
176
     1
 90
       50
176
     1
 40
0.0
176
     1
 40
1.0
176
     1
 90
        0
176
     1
 62
    18
420
        0
176
     1
 90
       50
176
     1
 90
        3
176
     1
 62
     5
420
      255
176
     1
290
     0
176
     1
 90
       50
176
     1
 90
       50
176
     1
 90
       50
176
     1
290
     0
176
     1
 90
       50
176
     1
 62
   256
176
     0
 40
1.0
176
     0
 90
        2
176
     1
  1
strokes_ogs.tif
176
     1
290
     0
176
     1
 40
1.0
176
     1
 40
1.0
176
     1
  0
VISUALSTYLE
  5
424
102
{ACAD_REACTORS
330
414
102
}
330
414
100
AcDbVisualStyle
  2
ColorChange
 70
    16
177
     3
291
     1
 70
    58
 90
        2
176
     1
 90
        2
176
     1
 90
        3
176
     1
 90
        0
176
     1
 40
0.6
176
     1
 40
30.0
176
     1
 62
     8
420
  8421504
176
     1
 90
        1
176
     1
 90
        4
176
     1
 62
     7
176
     1
 62
   257
176
     1
 90
        1
176
     1
 90
        1
176
     1
 40
1.0
176
     1
 90
        8
176
     1
 62
     8
420
  8421504
176
     1
 40
1.0
176
     1
 90
        1
176
     1
 90
        6
176
     1
 90
        2
176
     1
 62
     7
176
     1
 90
        5
176
     1
 90
        0
176
     1
 90
        0
176
     1
290
     0
176
     1
 90
        1
176
     1
 40
0.0
176
     1
 90
        0
176
     1
290
     0
176
     1
290
     1
176
     1
290
     1
176
     1
290
     0
176
     1
290
     0
176
     1
290
     0
176
     1
290
     0
176
     1
290
     0
176
     1
290
     0
176
     1
 90
       50
176
     1
 40
0.0
176
     1
 40
1.0
176
     1
 90
        0
176
     1
 62
    18
420
        0
176
     1
 90
       50
176
     1
 90
        3
176
     1
 62
     5
420
      255
176
     1
290
     0
176
     1
 90
       50
176
     1
 90
       50
176
     1
 90
       50
176
     1
290
     0
176
     1
 90
       50
176
     1
 62
   256
176
     0
 40
1.0
176
     0
 90
        2
176
     1
  1
strokes_ogs.tif
176
     1
290
     0
176
     1
 40
1.0
176
     1
 40
1.0
176
     1
  0
VISUALSTYLE
  5
41E
102
{ACAD_REACTORS
330
414
102
}
330
414
100
AcDbVisualStyle
  2
Conceptual
 70
     9
177
     3
291
     0
 70
    58
 90
        3
176
     1
 90
        2
176
     1
 90
        0
176
     1
 90
        0
176
     1
 40
0.6
176
     1
 40
30.0
176
     1
 62
     7
420
 16777215
176
     1
 90
        2
176
     1
 90
        2
176
     1
 62
     7
176
     1
 62
   257
176
     1
 90
        1
176
     1
 90
        1
176
     1
 40
179.0
176
     1
 90
        8
176
     1
 62
     7
176
     1
 40
1.0
176
     1
 90
        1
176
     1
 90
        6
176
     1
 90
        2
176
     1
 62
     7
176
     1
 90
        3
176
     1
 90
        0
176
     1
 90
        0
176
     1
290
     0
176
     1
 90
        1
176
     1
 40
0.0
176
     1
 90
        0
176
     1
290
     0
176
     1
290
     1
176
     1
290
     1
176
     1
290
     0
176
     1
290
     0
176
     1
290
     0
176
     1
290
     0
176
     1
290
     0
176
     1
290
     0
176
     1
 90
       50
176
     1
 40
0.0
176
     1
 40
1.0
176
     1
 90
        0
176
     1
 62
    18
420
        0
176
     1
 90
       50
176
     1
 90
        3
176
     1
 62
     5
420
      255
176
     1
290
     0
176
     1
 90
       50
176
     1
 90
       50
176
     1
 90
       50
176
     1
290
     0
176
     1
 90
       50
176
     1
 62
   256
176
     0
 40
1.0
176
     0
 90
        2
176
     1
  1
strokes_ogs.tif
176
     1
290
     0
176
     1
 40
1.0
176
     1
 40
1.0
176
     1
  0
VISUALSTYLE
  5
41F
102
{ACAD_REACTORS
330
414
102
}
330
414
100
AcDbVisualStyle
  2
Dim
 70
    11
177
     3
291
     1
 70
    58
 90
        2
176
     1
 90
        2
176
     1
 90
        0
176
     1
 90
        0
176
     1
 40
0.6
176
     1
 40
30.0
176
     1
 62
     7
420
 16777215
176
     1
 90
        1
176
     1
 90
        4
176
     1
 62
     7
176
     1
 62
   257
176
     1
 90
        1
176
     1
 90
        1
176
     1
 40
1.0
176
     1
 90
        8
176
     1
 62
     7
176
     1
 40
1.0
176
     1
 90
        1
176
     1
 90
        6
176
     1
 90
        2
176
     1
 62
     7
176
     1
 90
        5
176
     1
 90
        0
176
     1
 90
        0
176
     1
290
     0
176
     1
 90
        1
176
     1
 40
-50.0
176
     1
 90
        0
176
     1
290
     0
176
     1
290
     1
176
     1
290
     1
176
     1
290
     0
176
     1
290
     0
176
     1
290
     0
176
     1
290
     0
176
     1
290
     0
176
     1
290
     0
176
     1
 90
       50
176
     1
 40
0.0
176
     1
 40
1.0
176
     1
 90
        0
176
     1
 62
    18
420
        0
176
     1
 90
       50
176
     1
 90
        3
176
     1
 62
     5
420
      255
176
     1
290
     0
176
     1
 90
       50
176
     1
 90
       50
176
     1
 90
       50
176
     1
290
     0
176
     1
 90
       50
176
     1
 62
   256
176
     0
 40
1.0
176
     0
 90
        2
176
     1
  1
strokes_ogs.tif
176
     1
290
     0
176
     1
 40
1.0
176
     1
 40
1.0
176
     1
  0
VISUALSTYLE
  5
427
102
{ACAD_REACTORS
330
414
102
}
330
414
100
AcDbVisualStyle
  2
EdgeColorOff
 70
    22
177
     3
291
     1
 70
    58
 90
        2
176
     0
 90
        2
176
     0
 90
        0
176
     0
 90
        0
176
     0
 40
0.6
176
     0
 40
30.0
176
     0
 62
     7
420
 16777215
176
     0
 90
        1
176
     0
 90
        4
176
     0
 62
     7
176
     0
 62
   257
176
     0
 90
        1
176
     0
 90
        1
176
     0
 40
1.0
176
     0
 90
        8
176
     2
 62
     7
176
     0
 40
1.0
176
     0
 90
        1
176
     0
 90
        6
176
     0
 90
        2
176
     0
 62
     7
176
     0
 90
        5
176
     0
 90
        0
176
     0
 90
        0
176
     0
290
     0
176
     0
 90
        1
176
     0
 40
0.0
176
     0
 90
        0
176
     0
290
     0
176
     0
290
     1
176
     0
290
     1
176
     0
290
     0
176
     0
290
     0
176
     0
290
     0
176
     0
290
     0
176
     0
290
     0
176
     0
290
     0
176
     0
 90
       50
176
     0
 40
0.0
176
     0
 40
1.0
176
     0
 90
        0
176
     0
 62
    18
420
        0
176
     0
 90
       50
176
     0
 90
        3
176
     0
 62
     5
420
      255
176
     0
290
     0
176
     0
 90
       50
176
     0
 90
       50
176
     0
 90
       50
176
     0
290
     0
176
     0
 90
       50
176
     0
 62
   256
176
     0
 40
1.0
176
     0
 90
        2
176
     0
  1
strokes_ogs.tif
176
     0
290
     0
176
     0
 40
1.0
176
     0
 40
1.0
176
     0
  0
VISUALSTYLE
  5
423
102
{ACAD_REACTORS
330
414
102
}
330
414
100
AcDbVisualStyle
  2
Facepattern
 70
    15
177
     3
291
     1
 70
    58
 90
        2
176
     1
 90
        2
176
     1
 90
        0
176
     1
 90
        0
176
     1
 40
0.6
176
     1
 40
30.0
176
     1
 62
     7
420
 16777215
176
     1
 90
        1
176
     1
 90
        4
176
     1
 62
     7
176
     1
 62
   257
176
     1
 90
        1
176
     1
 90
        1
176
     1
 40
1.0
176
     1
 90
        8
176
     1
 62
     7
176
     1
 40
1.0
176
     1
 90
        1
176
     1
 90
        6
176
     1
 90
        2
176
     1
 62
     7
176
     1
 90
        5
176
     1
 90
        0
176
     1
 90
        0
176
     1
290
     0
176
     1
 90
        1
176
     1
 40
0.0
176
     1
 90
        0
176
     1
290
     0
176
     1
290
     1
176
     1
290
     1
176
     1
290
     0
176
     1
290
     0
176
     1
290
     0
176
     1
290
     0
176
     1
290
     0
176
     1
290
     0
176
     1
 90
       50
176
     1
 40
0.0
176
     1
 40
1.0
176
     1
 90
        0
176
     1
 62
    18
420
        0
176
     1
 90
       50
176
     1
 90
        3
176
     1
 62
     5
420
      255
176
     1
290
     0
176
     1
 90
       50
176
     1
 90
       50
176
     1
 90
       50
176
     1
290
     0
176
     1
 90
       50
176
     1
 62
   256
176
     0
 40
1.0
176
     0
 90
        2
176
     1
  1
strokes_ogs.tif
176
     1
290
     0
176
     1
 40
1.0
176
     1
 40
1.0
176
     1
  0
VISUALSTYLE
  5
415
102
{ACAD_REACTORS
330
414
102
}
330
414
100
AcDbVisualStyle
  2
Flat
 70
     0
177
     3
291
     1
 70
    58
 90
        2
176
     1
 90
        1
176
     1
 90
        1
176
     1
 90
        2
176
     1
 40
0.6
176
     1
 40
30.0
176
     1
 62
     7
420
 16777215
176
     1
 90
        0
176
     1
 90
        0
176
     1
 62
     7
176
     1
 62
   257
176
     1
 90
        1
176
     1
 90
        1
176
     1
 40
1.0
176
     1
 90
        8
176
     1
 62
     7
176
     1
 40
1.0
176
     1
 90
        1
176
     1
 90
        6
176
     1
 90
        2
176
     1
 62
     7
176
     1
 90
        5
176
     1
 90
        0
176
     1
 90
        0
176
     1
290
     0
176
     1
 90
       13
176
     1
 40
0.0
176
     1
 90
        0
176
     1
290
     0
176
     1
290
     1
176
     1
290
     1
176
     1
290
     0
176
     1
290
     0
176
     1
290
     0
176
     1
290
     0
176
     1
290
     0
176
     1
290
     0
176
     1
 90
       50
176
     1
 40
0.0
176
     1
 40
1.0
176
     1
 90
        0
176
     1
 62
    18
420
        0
176
     1
 90
       50
176
     1
 90
        3
176
     1
 62
     5
420
      255
176
     1
290
     0
176
     1
 90
       50
176
     1
 90
       50
176
     1
 90
       50
176
     1
290
     0
176
     1
 90
       50
176
     1
 62
   256
176
     0
 40
1.0
176
     0
 90
        2
176
     1
  1
strokes_ogs.tif
176
     1
290
     0
176
     1
 40
1.0
176
     1
 40
1.0
176
     1
  0
VISUALSTYLE
  5
416
102
{ACAD_REACTORS
330
414
102
}
330
414
100
AcDbVisualStyle
  2
FlatWithEdges
 70
     1
177
     3
291
     1
 70
    58
 90
        2
176
     1
 90
        1
176
     1
 90
        1
176
     1
 90
        2
176
     1
 40
0.6
176
     1
 40
30.0
176
     1
 62
     7
420
 16777215
176
     1
 90
        1
176
     1
 90
        0
176
     1
 62
     7
176
     1
 62
   257
176
     1
 90
        1
176
     1
 90
        1
176
     1
 40
1.0
176
     1
 90
        0
176
     1
 62
   257
176
     1
 40
1.0
176
     1
 90
        1
176
     1
 90
        6
176
     1
 90
        2
176
     1
 62
     7
176
     1
 90
        5
176
     1
 90
        0
176
     1
 90
        0
176
     1
290
     0
176
     1
 90
       13
176
     1
 40
0.0
176
     1
 90
        0
176
     1
290
     0
176
     1
290
     1
176
     1
290
     1
176
     1
290
     0
176
     1
290
     0
176
     1
290
     0
176
     1
290
     0
176
     1
290
     0
176
     1
290
     0
176
     1
 90
       50
176
     1
 40
0.0
176
     1
 40
1.0
176
     1
 90
        0
176
     1
 62
    18
420
        0
176
     1
 90
       50
176
     1
 90
        3
176
     1
 62
     5
420
      255
176
     1
290
     0
176
     1
 90
       50
176
     1
 90
       50
176
     1
 90
       50
176
     1
290
     0
176
     1
 90
       50
176
     1
 62
   256
176
     0
 40
1.0
176
     0
 90
        2
176
     1
  1
strokes_ogs.tif
176
     1
290
     0
176
     1
 40
1.0
176
     1
 40
1.0
176
     1
  0
VISUALSTYLE
  5
417
102
{ACAD_REACTORS
330
414
102
}
330
414
100
AcDbVisualStyle
  2
Gouraud
 70
     2
177
     3
291
     1
 70
    58
 90
        2
176
     1
 90
        2
176
     1
 90
        1
176
     1
 90
        2
176
     1
 40
0.6
176
     1
 40
30.0
176
     1
 62
     7
420
 16777215
176
     1
 90
        0
176
     1
 90
        0
176
     1
 62
     7
176
     1
 62
   257
176
     1
 90
        1
176
     1
 90
        1
176
     1
 40
1.0
176
     1
 90
        0
176
     1
 62
     7
176
     1
 40
1.0
176
     1
 90
        1
176
     1
 90
        6
176
     1
 90
        2
176
     1
 62
     7
176
     1
 90
        5
176
     1
 90
        0
176
     1
 90
        0
176
     1
290
     0
176
     1
 90
       13
176
     1
 40
0.0
176
     1
 90
        0
176
     1
290
     0
176
     1
290
     1
176
     1
290
     1
176
     1
290
     0
176
     1
290
     0
176
     1
290
     0
176
     1
290
     0
176
     1
290
     0
176
     1
290
     0
176
     1
 90
       50
176
     1
 40
0.0
176
     1
 40
1.0
176
     1
 90
        0
176
     1
 62
    18
420
        0
176
     1
 90
       50
176
     1
 90
        3
176
     1
 62
     5
420
      255
176
     1
290
     0
176
     1
 90
       50
176
     1
 90
       50
176
     1
 90
       50
176
     1
290
     0
176
     1
 90
       50
176
     1
 62
   256
176
     0
 40
1.0
176
     0
 90
        2
176
     1
  1
strokes_ogs.tif
176
     1
290
     0
176
     1
 40
1.0
176
     1
 40
1.0
176
     1
  0
VISUALSTYLE
  5
418
102
{ACAD_REACTORS
330
414
102
}
330
414
100
AcDbVisualStyle
  2
GouraudWithEdges
 70
     3
177
     3
291
     1
 70
    58
 90
        2
176
     1
 90
        2
176
     1
 90
        1
176
     1
 90
        2
176
     1
 40
0.6
176
     1
 40
30.0
176
     1
 62
     7
420
 16777215
176
     1
 90
        1
176
     1
 90
        0
176
     1
 62
     7
176
     1
 62
   257
176
     1
 90
        1
176
     1
 90
        1
176
     1
 40
1.0
176
     1
 90
        0
176
     1
 62
   257
176
     1
 40
1.0
176
     1
 90
        1
176
     1
 90
        6
176
     1
 90
        2
176
     1
 62
     7
176
     1
 90
        5
176
     1
 90
        0
176
     1
 90
        0
176
     1
290
     0
176
     1
 90
       13
176
     1
 40
0.0
176
     1
 90
        0
176
     1
290
     0
176
     1
290
     1
176
     1
290
     1
176
     1
290
     0
176
     1
290
     0
176
     1
290
     0
176
     1
290
     0
176
     1
290
     0
176
     1
290
     0
176
     1
 90
       50
176
     1
 40
0.0
176
     1
 40
1.0
176
     1
 90
        0
176
     1
 62
    18
420
        0
176
     1
 90
       50
176
     1
 90
        3
176
     1
 62
     5
420
      255
176
     1
290
     0
176
     1
 90
       50
176
     1
 90
       50
176
     1
 90
       50
176
     1
290
     0
176
     1
 90
       50
176
     1
 62
   256
176
     0
 40
1.0
176
     0
 90
        2
176
     1
  1
strokes_ogs.tif
176
     1
290
     0
176
     1
 40
1.0
176
     1
 40
1.0
176
     1
  0
VISUALSTYLE
  5
41B
102
{ACAD_REACTORS
330
414
102
}
330
414
100
AcDbVisualStyle
  2
Hidden
 70
     6
177
     3
291
     0
 70
    58
 90
        1
176
     1
 90
        2
176
     1
 90
        2
176
     1
 90
        0
176
     1
 40
0.6
176
     1
 40
30.0
176
     1
 62
     7
420
 16777215
176
     1
 90
        2
176
     1
 90
        2
176
     1
 62
     7
176
     1
 62
   257
176
     1
 90
        2
176
     1
 90
        1
176
     1
 40
40.0
176
     1
 90
        0
176
     1
 62
   257
176
     1
 40
1.0
176
     1
 90
        1
176
     1
 90
        6
176
     1
 90
        2
176
     1
 62
     7
176
     1
 90
        3
176
     1
 90
        0
176
     1
 90
        0
176
     1
290
     0
176
     1
 90
        1
176
     1
 40
0.0
176
     1
 90
        0
176
     1
290
     0
176
     1
290
     1
176
     1
290
     1
176
     1
290
     0
176
     1
290
     0
176
     1
290
     0
176
     1
290
     0
176
     1
290
     0
176
     1
290
     0
176
     1
 90
       50
176
     1
 40
0.0
176
     1
 40
1.0
176
     1
 90
        0
176
     1
 62
    18
420
        0
176
     1
 90
       50
176
     1
 90
        3
176
     1
 62
     5
420
      255
176
     1
290
     0
176
     1
 90
       50
176
     1
 90
       50
176
     1
 90
       50
176
     1
290
     0
176
     1
 90
       50
176
     1
 62
   256
176
     0
 40
1.0
176
     0
 90
        2
176
     1
  1
strokes_ogs.tif
176
     1
290
     0
176
     1
 40
1.0
176
     1
 40
1.0
176
     1
  0
VISUALSTYLE
  5
425
102
{ACAD_REACTORS
330
414
102
}
330
414
100
AcDbVisualStyle
  2
JitterOff
 70
    20
177
     3
291
     1
 70
    58
 90
        2
176
     0
 90
        2
176
     0
 90
        0
176
     0
 90
        0
176
     0
 40
0.6
176
     0
 40
30.0
176
     0
 62
     7
420
 16777215
176
     0
 90
        1
176
     0
 90
        4
176
     0
 62
     7
176
     0
 62
   257
176
     0
 90
        1
176
     0
 90
        1
176
     0
 40
1.0
176
     0
 90
       10
176
     2
 62
     7
176
     0
 40
1.0
176
     0
 90
        1
176
     0
 90
        6
176
     0
 90
        2
176
     0
 62
     7
176
     0
 90
        5
176
     0
 90
        0
176
     0
 90
        0
176
     0
290
     0
176
     0
 90
        1
176
     0
 40
0.0
176
     0
 90
        0
176
     0
290
     0
176
     0
290
     1
176
     0
290
     1
176
     0
290
     0
176
     0
290
     0
176
     0
290
     0
176
     0
290
     0
176
     0
290
     0
176
     0
290
     0
176
     0
 90
       50
176
     0
 40
0.0
176
     0
 40
1.0
176
     0
 90
        0
176
     0
 62
    18
420
        0
176
     0
 90
       50
176
     0
 90
        3
176
     0
 62
     5
420
      255
176
     0
290
     0
176
     0
 90
       50
176
     0
 90
       50
176
     0
 90
       50
176
     0
290
     0
176
     0
 90
       50
176
     0
 62
   256
176
     0
 40
1.0
176
     0
 90
        2
176
     0
  1
strokes_ogs.tif
176
     0
290
     0
176
     0
 40
1.0
176
     0
 40
1.0
176
     0
  0
VISUALSTYLE
  5
422
102
{ACAD_REACTORS
330
414
102
}
330
414
100
AcDbVisualStyle
  2
Linepattern
 70
    14
177
     3
291
     1
 70
    58
 90
        2
176
     1
 90
        2
176
     1
 90
        0
176
     1
 90
        0
176
     1
 40
0.6
176
     1
 40
30.0
176
     1
 62
     7
420
 16777215
176
     1
 90
        1
176
     1
 90
        4
176
     1
 62
     7
176
     1
 62
   257
176
     1
 90
        7
176
     1
 90
        7
176
     1
 40
1.0
176
     1
 90
        8
176
     1
 62
     7
176
     1
 40
1.0
176
     1
 90
        1
176
     1
 90
        6
176
     1
 90
        2
176
     1
 62
     7
176
     1
 90
        5
176
     1
 90
        0
176
     1
 90
        0
176
     1
290
     0
176
     1
 90
        1
176
     1
 40
0.0
176
     1
 90
        0
176
     1
290
     0
176
     1
290
     1
176
     1
290
     1
176
     1
290
     0
176
     1
290
     0
176
     1
290
     0
176
     1
290
     0
176
     1
290
     0
176
     1
290
     0
176
     1
 90
       50
176
     1
 40
0.0
176
     1
 40
1.0
176
     1
 90
        0
176
     1
 62
    18
420
        0
176
     1
 90
       50
176
     1
 90
        3
176
     1
 62
     5
420
      255
176
     1
290
     0
176
     1
 90
       50
176
     1
 90
       50
176
     1
 90
       50
176
     1
290
     0
176
     1
 90
       50
176
     1
 62
   256
176
     0
 40
1.0
176
     0
 90
        2
176
     1
  1
strokes_ogs.tif
176
     1
290
     0
176
     1
 40
1.0
176
     1
 40
1.0
176
     1
  0
VISUALSTYLE
  5
426
102
{ACAD_REACTORS
330
414
102
}
330
414
100
AcDbVisualStyle
  2
OverhangOff
 70
    21
177
     3
291
     1
 70
    58
 90
        2
176
     0
 90
        2
176
     0
 90
        0
176
     0
 90
        0
176
     0
 40
0.6
176
     0
 40
30.0
176
     0
 62
     7
420
 16777215
176
     0
 90
        1
176
     0
 90
        4
176
     0
 62
     7
176
     0
 62
   257
176
     0
 90
        1
176
     0
 90
        1
176
     0
 40
1.0
176
     0
 90
        9
176
     2
 62
     7
176
     0
 40
1.0
176
     0
 90
        1
176
     0
 90
        6
176
     0
 90
        2
176
     0
 62
     7
176
     0
 90
        5
176
     0
 90
        0
176
     0
 90
        0
176
     0
290
     0
176
     0
 90
        1
176
     0
 40
0.0
176
     0
 90
        0
176
     0
290
     0
176
     0
290
     1
176
     0
290
     1
176
     0
290
     0
176
     0
290
     0
176
     0
290
     0
176
     0
290
     0
176
     0
290
     0
176
     0
290
     0
176
     0
 90
       50
176
     0
 40
0.0
176
     0
 40
1.0
176
     0
 90
        0
176
     0
 62
    18
420
        0
176
     0
 90
       50
176
     0
 90
        3
176
     0
 62
     5
420
      255
176
     0
290
     0
176
     0
 90
       50
176
     0
 90
       50
176
     0
 90
       50
176
     0
290
     0
176
     0
 90
       50
176
     0
 62
   256
176
     0
 40
1.0
176
     0
 90
        2
176
     0
  1
strokes_ogs.tif
176
     0
290
     0
176
     0
 40
1.0
176
     0
 40
1.0
176
     0
  0
VISUALSTYLE
  5
41D
102
{ACAD_REACTORS
330
414
102
}
330
414
100
AcDbVisualStyle
  2
Realistic
 70
     8
177
     3
291
     0
 70
    58
 90
        2
176
     1
 90
        3
176
     1
 90
        0
176
     1
 90
        2
176
     1
 40
0.6
176
     1
 40
30.0
176
     1
 62
     7
420
 16777215
176
     1
 90
        0
176
     1
 90
        0
176
     1
 62
     7
176
     1
 62
   257
176
     1
 90
        1
176
     1
 90
        1
176
     1
 40
1.0
176
     1
 90
        8
176
     1
 62
   257
176
     1
 40
1.0
176
     1
 90
        1
176
     1
 90
        6
176
     1
 90
        2
176
     1
 62
     7
176
     1
 90
        3
176
     1
 90
        0
176
     1
 90
        0
176
     1
290
     0
176
     1
 90
       13
176
     1
 40
0.0
176
     1
 90
        0
176
     1
290
     0
176
     1
290
     1
176
     1
290
     1
176
     1
290
     0
176
     1
290
     0
176
     1
290
     0
176
     1
290
     0
176
     1
290
     0
176
     1
290
     0
176
     1
 90
       50
176
     1
 40
0.0
176
     1
 40
1.0
176
     1
 90
        0
176
     1
 62
    18
420
        0
176
     1
 90
       50
176
     1
 90
        3
176
     1
 62
     5
420
      255
176
     1
290
     0
176
     1
 90
       50
176
     1
 90
       50
176
     1
 90
       50
176
     1
290
     0
176
     1
 90
       50
176
     1
 62
   256
176
     0
 40
1.0
176
     0
 90
        2
176
     1
  1
strokes_ogs.tif
176
     1
290
     0
176
     1
 40
1.0
176
     1
 40
1.0
176
     1
  0
VISUALSTYLE
  5
42C
102
{ACAD_REACTORS
330
414
102
}
330
414
100
AcDbVisualStyle
  2
Shaded
 70
    27
177
     3
291
     0
 70
    58
 90
        2
176
     1
 90
        2
176
     1
 90
        1
176
     1
 90
        2
176
     1
 40
0.6
176
     1
 40
30.0
176
     1
 62
     7
420
 16777215
176
     1
 90
        0
176
     1
 90
        4
176
     1
 62
     7
176
     1
 62
   257
176
     1
 90
        1
176
     1
 90
        1
176
     1
 40
1.0
176
     1
 90
        8
176
     1
 62
   257
176
     1
 40
1.0
176
     1
 90
        1
176
     1
 90
        6
176
     1
 90
        2
176
     1
 62
     8
420
  7895160
176
     1
 90
        3
176
     1
 90
        0
176
     1
 90
        0
176
     1
290
     0
176
     1
 90
        5
176
     1
 40
0.0
176
     1
 90
        0
176
     1
290
     0
176
     1
290
     1
176
     1
290
     1
176
     1
290
     0
176
     1
290
     0
176
     1
290
     0
176
     1
290
     0
176
     1
290
     0
176
     1
290
     0
176
     1
 90
       50
176
     1
 40
0.0
176
     1
 40
1.0
176
     1
 90
        0
176
     1
 62
    18
420
        0
176
     1
 90
       50
176
     1
 90
        3
176
     1
 62
     5
420
      255
176
     1
290
     0
176
     1
 90
       50
176
     1
 90
       50
176
     1
 90
       50
176
     1
290
     0
176
     1
 90
       50
176
     1
 62
   256
176
     0
 40
1.0
176
     0
 90
        2
176
     1
  1
strokes_ogs.tif
176
     1
290
     0
176
     1
 40
1.0
176
     1
 40
1.0
176
     1
  0
VISUALSTYLE
  5
42B
102
{ACAD_REACTORS
330
414
102
}
330
414
100
AcDbVisualStyle
  2
Shaded with edges
 70
    26
177
     3
291
     0
 70
    58
 90
        2
176
     1
 90
        2
176
     1
 90
        1
176
     1
 90
        2
176
     1
 40
0.6
176
     1
 40
30.0
176
     1
 62
     7
420
 16777215
176
     1
 90
        1
176
     1
 90
       10
176
     1
 62
     7
176
     1
 62
   257
176
     1
 90
        2
176
     1
 90
        1
176
     1
 40
1.0
176
     1
 90
        8
176
     1
 62
   257
176
     1
 40
1.0
176
     1
 90
        1
176
     1
 90
        6
176
     1
 90
        2
176
     1
 62
     7
176
     1
 90
        3
176
     1
 90
        0
176
     1
 90
        0
176
     1
290
     0
176
     1
 90
        5
176
     1
 40
0.0
176
     1
 90
        0
176
     1
290
     0
176
     1
290
     1
176
     1
290
     1
176
     1
290
     0
176
     1
290
     0
176
     1
290
     0
176
     1
290
     0
176
     1
290
     0
176
     1
290
     0
176
     1
 90
       50
176
     1
 40
0.0
176
     1
 40
1.0
176
     1
 90
        0
176
     1
 62
    18
420
        0
176
     1
 90
       50
176
     1
 90
        3
176
     1
 62
     5
420
      255
176
     1
290
     0
176
     1
 90
       50
176
     1
 90
       50
176
     1
 90
       50
176
     1
290
     0
176
     1
 90
       50
176
     1
 62
   256
176
     0
 40
1.0
176
     0
 90
        2
176
     1
  1
strokes_ogs.tif
176
     1
290
     0
176
     1
 40
1.0
176
     1
 40
1.0
176
     1
  0
VISUALSTYLE
  5
428
102
{ACAD_REACTORS
330
414
102
}
330
414
100
AcDbVisualStyle
  2
Shades of Gray
 70
    23
177
     3
291
     0
 70
    58
 90
        2
176
     1
 90
        2
176
     1
 90
        3
176
     1
 90
        0
176
     1
 40
0.6
176
     1
 40
30.0
176
     1
 62
     7
420
 16777215
176
     1
 90
        2
176
     1
 90
        2
176
     1
 62
     7
176
     1
 62
     7
176
     1
 90
        1
176
     1
 90
        1
176
     1
 40
40.0
176
     1
 90
        8
176
     1
 62
     7
176
     1
 40
1.0
176
     1
 90
        1
176
     1
 90
        6
176
     1
 90
        2
176
     1
 62
     7
176
     1
 90
        3
176
     1
 90
        0
176
     1
 90
        0
176
     1
290
     0
176
     1
 90
        1
176
     1
 40
0.0
176
     1
 90
        0
176
     1
290
     0
176
     1
290
     1
176
     1
290
     1
176
     1
290
     0
176
     1
290
     0
176
     1
290
     0
176
     1
290
     0
176
     1
290
     0
176
     1
290
     0
176
     1
 90
       50
176
     1
 40
0.0
176
     1
 40
1.0
176
     1
 90
        0
176
     1
 62
    18
420
        0
176
     1
 90
       50
176
     1
 90
        3
176
     1
 62
     5
420
      255
176
     1
290
     0
176
     1
 90
       50
176
     1
 90
       50
176
     1
 90
       50
176
     1
290
     0
176
     1
 90
       50
176
     1
 62
   256
176
     0
 40
1.0
176
     0
 90
        2
176
     1
  1
strokes_ogs.tif
176
     1
290
     0
176
     1
 40
1.0
176
     1
 40
1.0
176
     1
  0
VISUALSTYLE
  5
429
102
{ACAD_REACTORS
330
414
102
}
330
414
100
AcDbVisualStyle
  2
Sketchy
 70
    24
177
     3
291
     0
 70
    58
 90
        1
176
     1
 90
        2
176
     1
 90
        2
176
     1
 90
        0
176
     1
 40
0.6
176
     1
 40
30.0
176
     1
 62
     7
420
 16777215
176
     1
 90
        2
176
     1
 90
        2
176
     1
 62
     7
176
     1
 62
     7
176
     1
 90
        1
176
     1
 90
        1
176
     1
 40
40.0
176
     1
 90
       11
176
     1
 62
     7
176
     1
 40
1.0
176
     1
 90
        1
176
     1
 90
        6
176
     1
 90
        2
176
     1
 62
     7
176
     1
 90
        6
176
     1
 90
        0
176
     1
 90
        0
176
     1
290
     0
176
     1
 90
        1
176
     1
 40
0.0
176
     1
 90
        0
176
     1
290
     0
176
     1
290
     1
176
     1
290
     1
176
     1
290
     0
176
     1
290
     0
176
     1
290
     0
176
     1
290
     0
176
     1
290
     0
176
     1
290
     0
176
     1
 90
       50
176
     1
 40
0.0
176
     1
 40
1.0
176
     1
 90
        0
176
     1
 62
    18
420
        0
176
     1
 90
       50
176
     1
 90
        3
176
     1
 62
     5
420
      255
176
     1
290
     0
176
     1
 90
       50
176
     1
 90
       50
176
     1
 90
       50
176
     1
290
     0
176
     1
 90
       50
176
     1
 62
   256
176
     0
 40
1.0
176
     0
 90
        2
176
     1
  1
strokes_ogs.tif
176
     1
290
     0
176
     1
 40
1.0
176
     1
 40
1.0
176
     1
  0
VISUALSTYLE
  5
421
102
{ACAD_REACTORS
330
414
102
}
330
414
100
AcDbVisualStyle
  2
Thicken
 70
    13
177
     3
291
     1
 70
    58
 90
        2
176
     1
 90
        2
176
     1
 90
        0
176
     1
 90
        0
176
     1
 40
0.6
176
     1
 40
30.0
176
     1
 62
     7
420
 16777215
176
     1
 90
        1
176
     1
 90
        4
176
     1
 62
     7
176
     1
 62
   257
176
     1
 90
        1
176
     1
 90
        1
176
     1
 40
1.0
176
     1
 90
       12
176
     1
 62
     7
176
     1
 40
1.0
176
     1
 90
        1
176
     1
 90
        6
176
     1
 90
        2
176
     1
 62
     7
176
     1
 90
        5
176
     1
 90
        0
176
     1
 90
        0
176
     1
290
     0
176
     1
 90
        1
176
     1
 40
0.0
176
     1
 90
        0
176
     1
290
     0
176
     1
290
     1
176
     1
290
     1
176
     1
290
     0
176
     1
290
     0
176
     1
290
     0
176
     1
290
     0
176
     1
290
     0
176
     1
290
     0
176
     1
 90
       50
176
     1
 40
0.0
176
     1
 40
1.0
176
     1
 90
        0
176
     1
 62
    18
420
        0
176
     1
 90
       50
176
     1
 90
        3
176
     1
 62
     5
420
      255
176
     1
290
     0
176
     1
 90
       50
176
     1
 90
       50
176
     1
 90
       50
176
     1
290
     0
176
     1
 90
       50
176
     1
 62
   256
176
     0
 40
1.0
176
     0
 90
        2
176
     1
  1
strokes_ogs.tif
176
     1
290
     0
176
     1
 40
1.0
176
     1
 40
1.0
176
     1
  0
VISUALSTYLE
  5
41A
102
{ACAD_REACTORS
330
414
102
}
330
414
100
AcDbVisualStyle
  2
Wireframe
 70
     5
177
     3
291
     0
 70
    58
 90
        0
176
     1
 90
        2
176
     1
 90
        0
176
     1
 90
        0
176
     1
 40
0.6
176
     1
 40
30.0
176
     1
 62
     7
420
 16777215
176
     1
 90
        1
176
     1
 90
        4
176
     1
 62
     7
176
     1
 62
   257
176
     1
 90
        1
176
     1
 90
        1
176
     1
 40
1.0
176
     1
 90
        0
176
     1
 62
   257
176
     1
 40
1.0
176
     1
 90
        1
176
     1
 90
        6
176
     1
 90
        2
176
     1
 62
     7
176
     1
 90
        3
176
     1
 90
        0
176
     1
 90
        0
176
     1
290
     0
176
     1
 90
        1
176
     1
 40
0.0
176
     1
 90
        0
176
     1
290
     0
176
     1
290
     1
176
     1
290
     1
176
     1
290
     0
176
     1
290
     0
176
     1
290
     0
176
     1
290
     0
176
     1
290
     0
176
     1
290
     0
176
     1
 90
       50
176
     1
 40
0.0
176
     1
 40
1.0
176
     1
 90
        0
176
     1
 62
    18
420
        0
176
     1
 90
       50
176
     1
 90
        3
176
     1
 62
     5
420
      255
176
     1
290
     0
176
     1
 90
       50
176
     1
 90
       50
176
     1
 90
       50
176
     1
290
     0
176
     1
 90
       50
176
     1
 62
   256
176
     0
 40
1.0
176
     0
 90
        2
176
     1
  1
strokes_ogs.tif
176
     1
290
     0
176
     1
 40
1.0
176
     1
 40
1.0
176
     1
  0
VISUALSTYLE
  5
42A
102
{ACAD_REACTORS
330
414
102
}
330
414
100
AcDbVisualStyle
  2
X-Ray
 70
    25
177
     3
291
     0
 70
    58
 90
        2
176
     1
 90
        2
176
     1
 90
        1
176
     1
 90
        1
176
     1
 40
0.5
176
     1
 40
30.0
176
     1
 62
     7
420
 16777215
176
     1
 90
        1
176
     1
 90
        0
176
     1
 62
     7
176
     1
 62
   257
176
     1
 90
        1
176
     1
 90
        1
176
     1
 40
1.0
176
     1
 90
        8
176
     1
 62
     7
176
     1
 40
1.0
176
     1
 90
        1
176
     1
 90
        6
176
     1
 90
        2
176
     1
 62
     7
176
     1
 90
        3
176
     1
 90
        0
176
     1
 90
        0
176
     1
290
     0
176
     1
 90
       13
176
     1
 40
0.0
176
     1
 90
        0
176
     1
290
     0
176
     1
290
     1
176
     1
290
     1
176
     1
290
     0
176
     1
290
     0
176
     1
290
     0
176
     1
290
     0
176
     1
290
     0
176
     1
290
     0
176
     1
 90
       50
176
     1
 40
0.0
176
     1
 40
1.0
176
     1
 90
        0
176
     1
 62
    18
420
        0
176
     1
 90
       50
176
     1
 90
        3
176
     1
 62
     5
420
      255
176
     1
290
     0
176
     1
 90
       50
176
     1
 90
       50
176
     1
 90
       50
176
     1
290
     0
176
     1
 90
       50
176
     1
 62
   256
176
     0
 40
1.0
176
     0
 90
        2
176
     1
  1
strokes_ogs.tif
176
     1
290
     0
176
     1
 40
1.0
176
     1
 40
1.0
176
     1
  0
DICTIONARYVAR
  5
4B8
102
{ACAD_REACTORS
330
4B7
102
}
330
4B7
100
DictionaryVariables
280
     0
  1
1:1
  0
DICTIONARYVAR
  5
4BD
102
{ACAD_REACTORS
330
4B7
102
}
330
4B7
100
DictionaryVariables
280
     0
  1
Standard
  0
DICTIONARYVAR
  5
4BC
102
{ACAD_REACTORS
330
4B7
102
}
330
4B7
100
DictionaryVariables
280
     0
  1
Standard
  0
XRECORD
  5
44B
102
{ACAD_REACTORS
330
449
102
}
330
449
100
AcDbXrecord
280
     1
1000
#ffffff
  0
XRECORD
  5
44C
102
{ACAD_REACTORS
330
449
102
}
330
449
100
AcDbXrecord
280
     1
1000
FullColor
  0
XRECORD
  5
44D
102
{ACAD_REACTORS
330
449
102
}
330
449
100
AcDbXrecord
280
     1
290
     1
  0
XRECORD
  5
44E
102
{ACAD_REACTORS
330
449
102
}
330
449
100
AcDbXrecord
280
     1
290
     1
  0
XRECORD
  5
44F
102
{ACAD_REACTORS
330
449
102
}
330
449
100
AcDbXrecord
280
     1
290
     1
  0
XRECORD
  5
450
102
{ACAD_REACTORS
330
449
102
}
330
449
100
AcDbXrecord
280
     1
290
     1
  0
XRECORD
  5
451
102
{ACAD_REACTORS
330
449
102
}
330
449
100
AcDbXrecord
280
     1
1000
auto
  0
XRECORD
  5
452
102
{ACAD_REACTORS
330
449
102
}
330
449
100
AcDbXrecord
280
     1
1000
auto
  0
XRECORD
  5
453
102
{ACAD_REACTORS
330
449
102
}
330
449
100
AcDbXrecord
280
     1
1000
auto
  0
XRECORD
  5
454
102
{ACAD_REACTORS
330
449
102
}
330
449
100
AcDbXrecord
280
     1
1000
auto
  0
XRECORD
  5
455
102
{ACAD_REACTORS
330
449
102
}
330
449
100
AcDbXrecord
280
     1
1000
auto
  0
XRECORD
  5
456
102
{ACAD_REACTORS
330
449
102
}
330
449
100
AcDbXrecord
280
     1
1000
auto
  0
XRECORD
  5
457
102
{ACAD_REACTORS
330
449
102
}
330
449
100
AcDbXrecord
280
     1
1000
auto
  0
XRECORD
  5
458
102
{ACAD_REACTORS
330
449
102
}
330
449
100
AcDbXrecord
280
     1
1000
auto
  0
XRECORD
  5
459
102
{ACAD_REACTORS
330
449
102
}
330
449
100
AcDbXrecord
280
     1
290
     0
  0
XRECORD
  5
45A
102
{ACAD_REACTORS
330
449
102
}
330
449
100
AcDbXrecord
280
     1
290
     0
  0
XRECORD
  5
45B
102
{ACAD_REACTORS
330
449
102
}
330
449
100
AcDbXrecord
280
     1
290
     0
  0
XRECORD
  5
45C
102
{ACAD_REACTORS
330
449
102
}
330
449
100
AcDbXrecord
280
     1
290
     0
  0
XRECORD
  5
45D
102
{ACAD_REACTORS
330
449
102
}
330
449
100
AcDbXrecord
280
     1
 90
    65537
  0
XRECORD
  5
45E
102
{ACAD_REACTORS
330
449
102
}
330
449
100
AcDbXrecord
280
     1
 90
    65537
  0
XRECORD
  5
45F
102
{ACAD_REACTORS
330
449
102
}
330
449
100
AcDbXrecord
280
     1
 90
    65537
  0
XRECORD
  5
460
102
{ACAD_REACTORS
330
449
102
}
330
449
100
AcDbXrecord
280
     1
 90
    65537
  0
XRECORD
  5
461
102
{ACAD_REACTORS
330
449
102
}
330
449
100
AcDbXrecord
280
     1
1000
auto
  0
XRECORD
  5
462
102
{ACAD_REACTORS
330
449
102
}
330
449
100
AcDbXrecord
280
     1
1000
auto
  0
XRECORD
  5
463
102
{ACAD_REACTORS
330
449
102
}
330
449
100
AcDbXrecord
280
     1
1000
auto
  0
XRECORD
  5
464
102
{ACAD_REACTORS
330
449
102
}
330
449
100
AcDbXrecord
280
     1
1000
auto
  0
XRECORD
  5
465
102
{ACAD_REACTORS
330
449
102
}
330
449
100
AcDbXrecord
280
     1
1000
auto
  0
XRECORD
  5
466
102
{ACAD_REACTORS
330
449
102
}
330
449
100
AcDbXrecord
280
     1
1000
auto
  0
XRECORD
  5
467
102
{ACAD_REACTORS
330
449
102
}
330
449
100
AcDbXrecord
280
     1
1000
auto
  0
XRECORD
  5
468
102
{ACAD_REACTORS
330
449
102
}
330
449
100
AcDbXrecord
280
     1
1000
auto
  0
XRECORD
  5
469
102
{ACAD_REACTORS
330
449
102
}
330
449
100
AcDbXrecord
280
     1
 90
        1
  0
XRECORD
  5
46A
102
{ACAD_REACTORS
330
449
102
}
330
449
100
AcDbXrecord
280
     1
 40
0.5
  0
XRECORD
  5
46B
102
{ACAD_REACTORS
330
449
102
}
330
449
100
AcDbXrecord
280
     1
 40
0.5
  0
XRECORD
  5
46C
102
{ACAD_REACTORS
330
449
102
}
330
449
100
AcDbXrecord
280
     1
 40
0.5
  0
XRECORD
  5
46D
102
{ACAD_REACTORS
330
449
102
}
330
449
100
AcDbXrecord
280
     1
 40
0.5
  0
XRECORD
  5
46E
102
{ACAD_REACTORS
330
449
102
}
330
449
100
AcDbXrecord
280
     1
290
     0
  0
XRECORD
  5
46F
102
{ACAD_REACTORS
330
449
102
}
330
449
100
AcDbXrecord
280
     1
 90
        1
  0
XRECORD
  5
470
102
{ACAD_REACTORS
330
449
102
}
330
449
100
AcDbXrecord
280
     1
 40
0.0
  0
XRECORD
  5
471
102
{ACAD_REACTORS
330
449
102
}
330
449
100
AcDbXrecord
280
     1
 40
0.0
  0
XRECORD
  5
472
102
{ACAD_REACTORS
330
449
102
}
330
449
100
AcDbXrecord
280
     1
1000
Portrait
  0
XRECORD
  5
473
102
{ACAD_REACTORS
330
449
102
}
330
449
100
AcDbXrecord
280
     1
 40
11.0
  0
XRECORD
  5
474
102
{ACAD_REACTORS
330
449
102
}
330
449
100
AcDbXrecord
280
     1
 40
8.5
  0
XRECORD
  5
475
102
{ACAD_REACTORS
330
449
102
}
330
449
100
AcDbXrecord
280
     1
1000
1:1
  0
XRECORD
  5
476
102
{ACAD_REACTORS
330
449
102
}
330
449
100
AcDbXrecord
280
     1
290
     1
  0
XRECORD
  5
477
102
{ACAD_REACTORS
330
449
102
}
330
449
100
AcDbXrecord
280
     1
290
     0
  0
XRECORD
  5
478
102
{ACAD_REACTORS
330
449
102
}
330
449
100
AcDbXrecord
280
     1
1000
Inside
  0
XRECORD
  5
479
102
{ACAD_REACTORS
330
449
102
}
330
449
100
AcDbXrecord
280
     1
1000
Arial,10,-1,5,50,0,0,0,0,0
  0
XRECORD
  5
47A
102
{ACAD_REACTORS
330
449
102
}
330
449
100
AcDbXrecord
280
     1
1000
TopLeft
  0
XRECORD
  5
47B
102
{ACAD_REACTORS
330
449
102
}
330
449
100
AcDbXrecord
280
     1
1000
3.28.2
  0
XRECORD
  5
47C
102
{ACAD_REACTORS
330
449
102
}
330
449
100
AcDbXrecord
280
     1
 90
        1
  0
XRECORD
  5
47D
102
{ACAD_REACTORS
330
449
102
}
330
449
100
AcDbXrecord
280
     1
  0
XRECORD
  5
47E
102
{ACAD_REACTORS
330
449
102
}
330
449
100
AcDbXrecord
280
     1
 40
17.81747572815533
  0
XRECORD
  5
47F
102
{ACAD_REACTORS
330
449
102
}
330
449
100
AcDbXrecord
280
     1
 40
26.13764832793957
  0
DICTIONARY
  5
4B9
330
444
100
AcDbDictionary
280
     1
281
     1
  3
ACAD_ROUNDTRIP_2008_TABLESTYLE_CELLSTYLEMAP
360
4BA
  0
CELLSTYLEMAP
  5
4BA
102
{ACAD_REACTORS
330
4B9
102
}
330
4B9
100
AcDbCellStyleMap
 90
        3
300
CELLSTYLE
  1
TABLEFORMAT_BEGIN
 90
        5
170
     1
 91
        0
 92
    32768
 62
   257
 93
        1
300
CONTENTFORMAT
  1
CONTENTFORMAT_BEGIN
 90
        0
 91
        0
 92
        4
 93
        0
300

 40
0.0
140
1.0
 94
        5
 62
     0
340
3FC
144
0.25
309
CONTENTFORMAT_END
171
     1
301
MARGIN
  1
CELLMARGIN_BEGIN
 40
0.06
 40
0.06
 40
0.06
 40
0.06
 40
0.06
 40
0.06
309
CELLMARGIN_END
 94
        6
 95
        1
302
GRIDFORMAT
  1
GRIDFORMAT_BEGIN
 90
        0
 91
        1
 62
     0
 92
       -2
340
3FE
 93
        0
 40
0.045
309
GRIDFORMAT_END
 95
        2
302
GRIDFORMAT
  1
GRIDFORMAT_BEGIN
 90
        0
 91
        1
 62
     0
 92
       -2
340
3FE
 93
        0
 40
0.045
309
GRIDFORMAT_END
 95
        4
302
GRIDFORMAT
  1
GRIDFORMAT_BEGIN
 90
        0
 91
        1
 62
     0
 92
       -2
340
3FE
 93
        0
 40
0.045
309
GRIDFORMAT_END
 95
        8
302
GRIDFORMAT
  1
GRIDFORMAT_BEGIN
 90
        0
 91
        1
 62
     0
 92
       -2
340
3FE
 93
        0
 40
0.045
309
GRIDFORMAT_END
 95
       16
302
GRIDFORMAT
  1
GRIDFORMAT_BEGIN
 90
        0
 91
        1
 62
     0
 92
       -2
340
3FE
 93
        0
 40
0.045
309
GRIDFORMAT_END
 95
       32
302
GRIDFORMAT
  1
GRIDFORMAT_BEGIN
 90
        0
 91
        1
 62
     0
 92
       -2
340
3FE
 93
        0
 40
0.045
309
GRIDFORMAT_END
309
TABLEFORMAT_END
  1
CELLSTYLE_BEGIN
 90
        1
 91
        1
300
_TITLE
309
CELLSTYLE_END
300
CELLSTYLE
  1
TABLEFORMAT_BEGIN
 90
        5
170
     1
 91
        0
 92
        0
 62
   257
 93
        1
300
CONTENTFORMAT
  1
CONTENTFORMAT_BEGIN
 90
        0
 91
        0
 92
        4
 93
        0
300

 40
0.0
140
1.0
 94
        5
 62
     0
340
3FC
144
0.18
309
CONTENTFORMAT_END
171
     1
301
MARGIN
  1
CELLMARGIN_BEGIN
 40
0.06
 40
0.06
 40
0.06
 40
0.06
 40
0.06
 40
0.06
309
CELLMARGIN_END
 94
        6
 95
        1
302
GRIDFORMAT
  1
GRIDFORMAT_BEGIN
 90
        0
 91
        1
 62
     0
 92
       -2
340
3FE
 93
        0
 40
0.045
309
GRIDFORMAT_END
 95
        2
302
GRIDFORMAT
  1
GRIDFORMAT_BEGIN
 90
        0
 91
        1
 62
     0
 92
       -2
340
3FE
 93
        0
 40
0.045
309
GRIDFORMAT_END
 95
        4
302
GRIDFORMAT
  1
GRIDFORMAT_BEGIN
 90
        0
 91
        1
 62
     0
 92
       -2
340
3FE
 93
        0
 40
0.045
309
GRIDFORMAT_END
 95
        8
302
GRIDFORMAT
  1
GRIDFORMAT_BEGIN
 90
        0
 91
        1
 62
     0
 92
       -2
340
3FE
 93
        0
 40
0.045
309
GRIDFORMAT_END
 95
       16
302
GRIDFORMAT
  1
GRIDFORMAT_BEGIN
 90
        0
 91
        1
 62
     0
 92
       -2
340
3FE
 93
        0
 40
0.045
309
GRIDFORMAT_END
 95
       32
302
GRIDFORMAT
  1
GRIDFORMAT_BEGIN
 90
        0
 91
        1
 62
     0
 92
       -2
340
3FE
 93
        0
 40
0.045
309
GRIDFORMAT_END
309
TABLEFORMAT_END
  1
CELLSTYLE_BEGIN
 90
        2
 91
        1
300
_HEADER
309
CELLSTYLE_END
300
CELLSTYLE
  1
TABLEFORMAT_BEGIN
 90
        5
170
     1
 91
        0
 92
        0
 62
   257
 93
        1
300
CONTENTFORMAT
  1
CONTENTFORMAT_BEGIN
 90
        0
 91
        0
 92
        4
 93
        0
300

 40
0.0
140
1.0
 94
        2
 62
     0
340
3FC
144
0.18
309
CONTENTFORMAT_END
171
     1
301
MARGIN
  1
CELLMARGIN_BEGIN
 40
0.06
 40
0.06
 40
0.06
 40
0.06
 40
0.06
 40
0.06
309
CELLMARGIN_END
 94
        6
 95
        1
302
GRIDFORMAT
  1
GRIDFORMAT_BEGIN
 90
        0
 91
        1
 62
     0
 92
       -2
340
3FE
 93
        0
 40
0.045
309
GRIDFORMAT_END
 95
        2
302
GRIDFORMAT
  1
GRIDFORMAT_BEGIN
 90
        0
 91
        1
 62
     0
 92
       -2
340
3FE
 93
        0
 40
0.045
309
GRIDFORMAT_END
 95
        4
302
GRIDFORMAT
  1
GRIDFORMAT_BEGIN
 90
        0
 91
        1
 62
     0
 92
       -2
340
3FE
 93
        0
 40
0.045
309
GRIDFORMAT_END
 95
        8
302
GRIDFORMAT
  1
GRIDFORMAT_BEGIN
 90
        0
 91
        1
 62
     0
 92
       -2
340
3FE
 93
        0
 40
0.045
309
GRIDFORMAT_END
 95
       16
302
GRIDFORMAT
  1
GRIDFORMAT_BEGIN
 90
        0
 91
        1
 62
     0
 92
       -2
340
3FE
 93
        0
 40
0.045
309
GRIDFORMAT_END
 95
       32
302
GRIDFORMAT
  1
GRIDFORMAT_BEGIN
 90
        0
 91
        1
 62
     0
 92
       -2
340
3FE
 93
        0
 40
0.045
309
GRIDFORMAT_END
309
TABLEFORMAT_END
  1
CELLSTYLE_BEGIN
 90
        3
 91
        2
300
_DATA
309
CELLSTYLE_END
  0
ENDSEC
  0
EOF
