0
SECTION
  2
HEADER
  9
$EXTMAX
 10
   31.8400
 20
   12.8000
  9
$EXTMIN
 10
   -0.8000
 20
   -2.4000
  9
$LIMMAX
 10
   31.8400
 20
   12.8000
  9
$LIMMIN
 10
   -0.8000
 20
   -2.4000
  0
ENDSEC
0
SECTION
  2
TABLES
  0
TABLE
  2
LTYPE
 70
     1
  0
LTYPE
  2
CONTINUOUS
 70
    64
  3
Solid line
 72
   65
 73
    0
 40
0.0
  0
ENDTAB
  0
TABLE
  2
LAYER
 70
       2
  0
LAYER
  2
251
 70
    0
 62
251
  6
CONTINUOUS
  0
LAYER
  2
1
 70
    0
 62
1
  6
CONTINUOUS
  0
ENDTAB
  0
ENDSEC
0
SECTION
  2
ENTITIES
  0
LINE
  8
251
 62
11
 10
     24.0000
 20
     12.0000
 30
      0.0000
 11
     24.0000
 21
      0.0000
 31
      0.0000
  0
LINE
  8
251
 62
11
 10
     24.0000
 20
      0.0000
 30
      0.0000
 11
     16.0472
 21
      0.0000
 31
      0.0000
  0
LINE
  8
251
 62
11
 10
     16.0472
 20
      0.0000
 30
      0.0000
 11
     16.0472
 21
     12.0000
 31
      0.0000
  0
LINE
  8
251
 62
11
 10
     16.0472
 20
     12.0000
 30
      0.0000
 11
     24.0000
 21
     12.0000
 31
      0.0000
  0
LINE
  8
251
 62
9
 10
      0.0000
 20
      0.0000
 30
      0.0000
 11
      0.0000
 21
     12.0000
 31
      0.0000
  0
LINE
  8
251
 62
9
 10
      0.0000
 20
     12.0000
 30
      0.0000
 11
     24.0000
 21
     12.0000
 31
      0.0000
  0
LINE
  8
251
 62
9
 10
     24.0000
 20
     12.0000
 30
      0.0000
 11
     24.0000
 21
      0.0000
 31
      0.0000
  0
LINE
  8
251
 62
9
 10
     24.0000
 20
      0.0000
 30
      0.0000
 11
      0.0000
 21
      0.0000
 31
      0.0000
  0
TEXT
  8
251
 62
12
 10
      6.8236
 20
     -0.6000
 30
      0.0000
 40
      0.4000
 1
16.047
  0
POLYLINE
  8
251
 62
12
 10
      0.0000
 20
      0.0000
 30
      0.0000
 66
  1
 70
  0
  0
VERTEX
  8
251
 62
12
 10
      6.6236
 20
     -0.4000
 30
      0.0000
  0
VERTEX
  8
251
 62
12
 10
      0.0000
 20
     -0.4000
 30
      0.0000
  0
VERTEX
  8
251
 62
12
 10
      0.4000
 20
     -0.6000
 30
      0.0000
  0
VERTEX
  8
251
 62
12
 10
      0.4000
 20
     -0.2000
 30
      0.0000
  0
VERTEX
  8
251
 62
12
 10
      0.0000
 20
     -0.4000
 30
      0.0000
  0
VERTEX
  8
251
 62
12
 10
      0.0000
 20
     -0.8000
 30
      0.0000
  0
VERTEX
  8
251
 62
12
 10
      0.0000
 20
      0.0000
 30
      0.0000
  0
SEQEND
  8
251
 62
12
  0
POLYLINE
  8
251
 62
12
 10
      0.0000
 20
      0.0000
 30
      0.0000
 66
  1
 70
  0
  0
VERTEX
  8
251
 62
12
 10
      9.4236
 20
     -0.4000
 30
      0.0000
  0
VERTEX
  8
251
 62
12
 10
     16.0472
 20
     -0.4000
 30
      0.0000
  0
VERTEX
  8
251
 62
12
 10
     15.6472
 20
     -0.2000
 30
      0.0000
  0
VERTEX
  8
251
 62
12
 10
     15.6472
 20
     -0.6000
 30
      0.0000
  0
VERTEX
  8
251
 62
12
 10
     16.0472
 20
     -0.4000
 30
      0.0000
  0
VERTEX
  8
251
 62
12
 10
     16.0472
 20
      0.0000
 30
      0.0000
  0
VERTEX
  8
251
 62
12
 10
     16.0472
 20
     -0.8000
 30
      0.0000
  0
SEQEND
  8
251
 62
12
  0
TEXT
  8
251
 62
12
 10
     10.8000
 20
     12.2000
 30
      0.0000
 40
      0.4000
 1
24.000
  0
POLYLINE
  8
251
 62
12
 10
      0.0000
 20
      0.0000
 30
      0.0000
 66
  1
 70
  0
  0
VERTEX
  8
251
 62
12
 10
     10.6000
 20
     12.4000
 30
      0.0000
  0
VERTEX
  8
251
 62
12
 10
      0.0000
 20
     12.4000
 30
      0.0000
  0
VERTEX
  8
251
 62
12
 10
      0.4000
 20
     12.2000
 30
      0.0000
  0
VERTEX
  8
251
 62
12
 10
      0.4000
 20
     12.6000
 30
      0.0000
  0
VERTEX
  8
251
 62
12
 10
      0.0000
 20
     12.4000
 30
      0.0000
  0
VERTEX
  8
251
 62
12
 10
      0.0000
 20
     12.0000
 30
      0.0000
  0
VERTEX
  8
251
 62
12
 10
      0.0000
 20
     12.8000
 30
      0.0000
  0
SEQEND
  8
251
 62
12
  0
POLYLINE
  8
251
 62
12
 10
      0.0000
 20
      0.0000
 30
      0.0000
 66
  1
 70
  0
  0
VERTEX
  8
251
 62
12
 10
     13.4000
 20
     12.4000
 30
      0.0000
  0
VERTEX
  8
251
 62
12
 10
     24.0000
 20
     12.4000
 30
      0.0000
  0
VERTEX
  8
251
 62
12
 10
     23.6000
 20
     12.6000
 30
      0.0000
  0
VERTEX
  8
251
 62
12
 10
     23.6000
 20
     12.2000
 30
      0.0000
  0
VERTEX
  8
251
 62
12
 10
     24.0000
 20
     12.4000
 30
      0.0000
  0
VERTEX
  8
251
 62
12
 10
     24.0000
 20
     12.8000
 30
      0.0000
  0
VERTEX
  8
251
 62
12
 10
     24.0000
 20
     12.0000
 30
      0.0000
  0
SEQEND
  8
251
 62
12
  0
TEXT
  8
251
 62
12
 10
     -0.2000
 20
      4.8000
 30
      0.0000
 40
      0.4000
 1
12.000
 50
     90.0000
  0
POLYLINE
  8
251
 62
12
 10
      0.0000
 20
      0.0000
 30
      0.0000
 66
  1
 70
  0
  0
VERTEX
  8
251
 62
12
 10
     -0.4000
 20
      4.6000
 30
      0.0000
  0
VERTEX
  8
251
 62
12
 10
     -0.4000
 20
      0.0000
 30
      0.0000
  0
VERTEX
  8
251
 62
12
 10
     -0.2000
 20
      0.4000
 30
      0.0000
  0
VERTEX
  8
251
 62
12
 10
     -0.6000
 20
      0.4000
 30
      0.0000
  0
VERTEX
  8
251
 62
12
 10
     -0.4000
 20
      0.0000
 30
      0.0000
  0
VERTEX
  8
251
 62
12
 10
      0.0000
 20
      0.0000
 30
      0.0000
  0
VERTEX
  8
251
 62
12
 10
     -0.8000
 20
      0.0000
 30
      0.0000
  0
SEQEND
  8
251
 62
12
  0
POLYLINE
  8
251
 62
12
 10
      0.0000
 20
      0.0000
 30
      0.0000
 66
  1
 70
  0
  0
VERTEX
  8
251
 62
12
 10
     -0.4000
 20
      7.4000
 30
      0.0000
  0
VERTEX
  8
251
 62
12
 10
     -0.4000
 20
     12.0000
 30
      0.0000
  0
VERTEX
  8
251
 62
12
 10
     -0.6000
 20
     11.6000
 30
      0.0000
  0
VERTEX
  8
251
 62
12
 10
     -0.2000
 20
     11.6000
 30
      0.0000
  0
VERTEX
  8
251
 62
12
 10
     -0.4000
 20
     12.0000
 30
      0.0000
  0
VERTEX
  8
251
 62
12
 10
     -0.8000
 20
     12.0000
 30
      0.0000
  0
VERTEX
  8
251
 62
12
 10
      0.0000
 20
     12.0000
 30
      0.0000
  0
SEQEND
  8
251
 62
12
  0
CIRCLE
  8
1
 62
7
 10
      0.3491
 20
      0.4124
 30
      0.0000
 40
      0.0885
  0
CIRCLE
  8
1
 62
7
 10
      0.3491
 20
      0.4124
 30
      0.0000
 40
      0.1875
  0
TEXT
  8
251
 62
13
 10
      0.1991
 20
      0.2999
 30
      0.0000
 40
      0.3000
 1
1
  0
CIRCLE
  8
1
 62
7
 10
      0.2623
 20
      1.1475
 30
      0.0000
 40
      0.0885
  0
CIRCLE
  8
1
 62
7
 10
      0.2623
 20
      1.1475
 30
      0.0000
 40
      0.1875
  0
TEXT
  8
251
 62
13
 10
      0.1123
 20
      1.0350
 30
      0.0000
 40
      0.3000
 1
1
  0
CIRCLE
  8
1
 62
7
 10
      0.3565
 20
      1.8094
 30
      0.0000
 40
      0.0885
  0
CIRCLE
  8
1
 62
7
 10
      0.3565
 20
      1.8094
 30
      0.0000
 40
      0.1875
  0
TEXT
  8
251
 62
13
 10
      0.2065
 20
      1.6969
 30
      0.0000
 40
      0.3000
 1
1
  0
CIRCLE
  8
1
 62
7
 10
      0.4000
 20
      2.3202
 30
      0.0000
 40
      0.0885
  0
CIRCLE
  8
1
 62
7
 10
      0.4000
 20
      2.3202
 30
      0.0000
 40
      0.1875
  0
TEXT
  8
251
 62
13
 10
      0.2500
 20
      2.2077
 30
      0.0000
 40
      0.3000
 1
1
  0
CIRCLE
  8
1
 62
7
 10
      0.4000
 20
      2.8827
 30
      0.0000
 40
      0.0885
  0
CIRCLE
  8
1
 62
7
 10
      0.4000
 20
      2.8827
 30
      0.0000
 40
      0.1875
  0
TEXT
  8
251
 62
13
 10
      0.2500
 20
      2.7702
 30
      0.0000
 40
      0.3000
 1
1
  0
CIRCLE
  8
1
 62
7
 10
      0.4000
 20
      3.4452
 30
      0.0000
 40
      0.0885
  0
CIRCLE
  8
1
 62
7
 10
      0.4000
 20
      3.4452
 30
      0.0000
 40
      0.1875
  0
TEXT
  8
251
 62
13
 10
      0.2500
 20
      3.3327
 30
      0.0000
 40
      0.3000
 1
1
  0
CIRCLE
  8
1
 62
7
 10
      0.4000
 20
      4.0077
 30
      0.0000
 40
      0.0885
  0
CIRCLE
  8
1
 62
7
 10
      0.4000
 20
      4.0077
 30
      0.0000
 40
      0.1875
  0
TEXT
  8
251
 62
13
 10
      0.2500
 20
      3.8952
 30
      0.0000
 40
      0.3000
 1
1
  0
CIRCLE
  8
1
 62
7
 10
      0.4000
 20
      4.5702
 30
      0.0000
 40
      0.0885
  0
CIRCLE
  8
1
 62
7
 10
      0.4000
 20
      4.5702
 30
      0.0000
 40
      0.1875
  0
TEXT
  8
251
 62
13
 10
      0.2500
 20
      4.4577
 30
      0.0000
 40
      0.3000
 1
1
  0
CIRCLE
  8
1
 62
7
 10
      0.4000
 20
      5.1327
 30
      0.0000
 40
      0.0885
  0
CIRCLE
  8
1
 62
7
 10
      0.4000
 20
      5.1327
 30
      0.0000
 40
      0.1875
  0
TEXT
  8
251
 62
13
 10
      0.2500
 20
      5.0202
 30
      0.0000
 40
      0.3000
 1
1
  0
CIRCLE
  8
1
 62
7
 10
      0.4000
 20
      5.6952
 30
      0.0000
 40
      0.0885
  0
CIRCLE
  8
1
 62
7
 10
      0.4000
 20
      5.6952
 30
      0.0000
 40
      0.1875
  0
TEXT
  8
251
 62
13
 10
      0.2500
 20
      5.5827
 30
      0.0000
 40
      0.3000
 1
1
  0
CIRCLE
  8
1
 62
7
 10
      0.4023
 20
      6.2625
 30
      0.0000
 40
      0.0885
  0
CIRCLE
  8
1
 62
7
 10
      0.4023
 20
      6.2625
 30
      0.0000
 40
      0.1875
  0
TEXT
  8
251
 62
13
 10
      0.2523
 20
      6.1500
 30
      0.0000
 40
      0.3000
 1
1
  0
CIRCLE
  8
1
 62
7
 10
      0.3179
 20
      6.7174
 30
      0.0000
 40
      0.0885
  0
CIRCLE
  8
1
 62
7
 10
      0.3179
 20
      6.7174
 30
      0.0000
 40
      0.1875
  0
TEXT
  8
251
 62
13
 10
      0.1679
 20
      6.6049
 30
      0.0000
 40
      0.3000
 1
1
  0
CIRCLE
  8
1
 62
7
 10
      0.2739
 20
      7.4316
 30
      0.0000
 40
      0.0885
  0
CIRCLE
  8
1
 62
7
 10
      0.2739
 20
      7.4316
 30
      0.0000
 40
      0.1875
  0
TEXT
  8
251
 62
13
 10
      0.1239
 20
      7.3191
 30
      0.0000
 40
      0.3000
 1
1
  0
CIRCLE
  8
1
 62
7
 10
      0.3697
 20
      7.9417
 30
      0.0000
 40
      0.0885
  0
CIRCLE
  8
1
 62
7
 10
      0.3697
 20
      7.9417
 30
      0.0000
 40
      0.1875
  0
TEXT
  8
251
 62
13
 10
      0.2197
 20
      7.8292
 30
      0.0000
 40
      0.3000
 1
1
  0
CIRCLE
  8
1
 62
7
 10
      0.4353
 20
      8.9737
 30
      0.0000
 40
      0.0885
  0
CIRCLE
  8
1
 62
7
 10
      0.4353
 20
      8.9737
 30
      0.0000
 40
      0.1875
  0
TEXT
  8
251
 62
13
 10
      0.2853
 20
      8.8612
 30
      0.0000
 40
      0.3000
 1
1
  0
CIRCLE
  8
1
 62
7
 10
      0.4033
 20
      9.4752
 30
      0.0000
 40
      0.0885
  0
CIRCLE
  8
1
 62
7
 10
      0.4033
 20
      9.4752
 30
      0.0000
 40
      0.1875
  0
TEXT
  8
251
 62
13
 10
      0.2533
 20
      9.3627
 30
      0.0000
 40
      0.3000
 1
1
  0
CIRCLE
  8
1
 62
7
 10
      0.2627
 20
     10.4679
 30
      0.0000
 40
      0.0885
  0
CIRCLE
  8
1
 62
7
 10
      0.2627
 20
     10.4679
 30
      0.0000
 40
      0.1875
  0
TEXT
  8
251
 62
13
 10
      0.1127
 20
     10.3554
 30
      0.0000
 40
      0.3000
 1
1
  0
CIRCLE
  8
1
 62
7
 10
      0.7667
 20
      0.2550
 30
      0.0000
 40
      0.0885
  0
CIRCLE
  8
1
 62
7
 10
      0.7667
 20
      0.2550
 30
      0.0000
 40
      0.1875
  0
TEXT
  8
251
 62
13
 10
      0.6167
 20
      0.1425
 30
      0.0000
 40
      0.3000
 1
1
  0
CIRCLE
  8
1
 62
7
 10
      0.6545
 20
      0.8327
 30
      0.0000
 40
      0.0885
  0
CIRCLE
  8
1
 62
7
 10
      0.6545
 20
      0.8327
 30
      0.0000
 40
      0.2500
  0
TEXT
  8
251
 62
13
 10
      0.5045
 20
      0.7827
 30
      0.0000
 40
      0.3000
 1
2
  0
CIRCLE
  8
1
 62
7
 10
      0.6855
 20
      1.4313
 30
      0.0000
 40
      0.0885
  0
CIRCLE
  8
1
 62
7
 10
      0.6855
 20
      1.4313
 30
      0.0000
 40
      0.2500
  0
TEXT
  8
251
 62
13
 10
      0.5355
 20
      1.3813
 30
      0.0000
 40
      0.3000
 1
2
  0
CIRCLE
  8
1
 62
7
 10
      0.7359
 20
      2.0383
 30
      0.0000
 40
      0.0885
  0
CIRCLE
  8
1
 62
7
 10
      0.7359
 20
      2.0383
 30
      0.0000
 40
      0.1875
  0
TEXT
  8
251
 62
13
 10
      0.5859
 20
      1.9258
 30
      0.0000
 40
      0.3000
 1
1
  0
CIRCLE
  8
1
 62
7
 10
      0.7359
 20
      2.6008
 30
      0.0000
 40
      0.0885
  0
CIRCLE
  8
1
 62
7
 10
      0.7359
 20
      2.6008
 30
      0.0000
 40
      0.1875
  0
TEXT
  8
251
 62
13
 10
      0.5859
 20
      2.4883
 30
      0.0000
 40
      0.3000
 1
1
  0
CIRCLE
  8
1
 62
7
 10
      0.7359
 20
      3.1633
 30
      0.0000
 40
      0.0885
  0
CIRCLE
  8
1
 62
7
 10
      0.7359
 20
      3.1633
 30
      0.0000
 40
      0.1875
  0
TEXT
  8
251
 62
13
 10
      0.5859
 20
      3.0508
 30
      0.0000
 40
      0.3000
 1
1
  0
CIRCLE
  8
1
 62
7
 10
      0.7359
 20
      3.7258
 30
      0.0000
 40
      0.0885
  0
CIRCLE
  8
1
 62
7
 10
      0.7359
 20
      3.7258
 30
      0.0000
 40
      0.1875
  0
TEXT
  8
251
 62
13
 10
      0.5859
 20
      3.6133
 30
      0.0000
 40
      0.3000
 1
1
  0
CIRCLE
  8
1
 62
7
 10
      0.7359
 20
      4.2883
 30
      0.0000
 40
      0.0885
  0
CIRCLE
  8
1
 62
7
 10
      0.7359
 20
      4.2883
 30
      0.0000
 40
      0.1875
  0
TEXT
  8
251
 62
13
 10
      0.5859
 20
      4.1758
 30
      0.0000
 40
      0.3000
 1
1
  0
CIRCLE
  8
1
 62
7
 10
      0.7359
 20
      4.8508
 30
      0.0000
 40
      0.0885
  0
CIRCLE
  8
1
 62
7
 10
      0.7359
 20
      4.8508
 30
      0.0000
 40
      0.1875
  0
TEXT
  8
251
 62
13
 10
      0.5859
 20
      4.7383
 30
      0.0000
 40
      0.3000
 1
1
  0
CIRCLE
  8
1
 62
7
 10
      0.7359
 20
      5.4133
 30
      0.0000
 40
      0.0885
  0
CIRCLE
  8
1
 62
7
 10
      0.7359
 20
      5.4133
 30
      0.0000
 40
      0.1875
  0
TEXT
  8
251
 62
13
 10
      0.5859
 20
      5.3008
 30
      0.0000
 40
      0.3000
 1
1
  0
CIRCLE
  8
1
 62
7
 10
      0.7359
 20
      5.9758
 30
      0.0000
 40
      0.0885
  0
CIRCLE
  8
1
 62
7
 10
      0.7359
 20
      5.9758
 30
      0.0000
 40
      0.1875
  0
TEXT
  8
251
 62
13
 10
      0.5859
 20
      5.8633
 30
      0.0000
 40
      0.3000
 1
1
  0
CIRCLE
  8
1
 62
7
 10
      0.7373
 20
      6.5395
 30
      0.0000
 40
      0.0885
  0
CIRCLE
  8
1
 62
7
 10
      0.7373
 20
      6.5395
 30
      0.0000
 40
      0.1875
  0
TEXT
  8
251
 62
13
 10
      0.5873
 20
      6.4270
 30
      0.0000
 40
      0.3000
 1
1
  0
CIRCLE
  8
1
 62
7
 10
      0.6477
 20
      7.0983
 30
      0.0000
 40
      0.0885
  0
CIRCLE
  8
1
 62
7
 10
      0.6477
 20
      7.0983
 30
      0.0000
 40
      0.2500
  0
TEXT
  8
251
 62
13
 10
      0.4977
 20
      7.0483
 30
      0.0000
 40
      0.3000
 1
2
  0
CIRCLE
  8
1
 62
7
 10
      0.6919
 20
      7.6188
 30
      0.0000
 40
      0.0885
  0
CIRCLE
  8
1
 62
7
 10
      0.6919
 20
      7.6188
 30
      0.0000
 40
      0.1875
  0
TEXT
  8
251
 62
13
 10
      0.5419
 20
      7.5063
 30
      0.0000
 40
      0.3000
 1
1
  0
CIRCLE
  8
1
 62
7
 10
      0.8466
 20
      8.0970
 30
      0.0000
 40
      0.0885
  0
CIRCLE
  8
1
 62
7
 10
      0.8466
 20
      8.0970
 30
      0.0000
 40
      0.2500
  0
TEXT
  8
251
 62
13
 10
      0.6966
 20
      8.0470
 30
      0.0000
 40
      0.3000
 1
2
  0
CIRCLE
  8
1
 62
7
 10
      0.6336
 20
      8.5565
 30
      0.0000
 40
      0.0885
  0
CIRCLE
  8
1
 62
7
 10
      0.6336
 20
      8.5565
 30
      0.0000
 40
      0.1875
  0
TEXT
  8
251
 62
13
 10
      0.4836
 20
      8.4440
 30
      0.0000
 40
      0.3000
 1
1
  0
CIRCLE
  8
1
 62
7
 10
      0.4799
 20
     10.0696
 30
      0.0000
 40
      0.0885
  0
CIRCLE
  8
1
 62
7
 10
      0.4799
 20
     10.0696
 30
      0.0000
 40
      0.1875
  0
TEXT
  8
251
 62
13
 10
      0.3299
 20
      9.9571
 30
      0.0000
 40
      0.3000
 1
1
  0
CIRCLE
  8
1
 62
7
 10
      0.4410
 20
     10.9820
 30
      0.0000
 40
      0.0885
  0
CIRCLE
  8
1
 62
7
 10
      0.4410
 20
     10.9820
 30
      0.0000
 40
      0.1875
  0
TEXT
  8
251
 62
13
 10
      0.2910
 20
     10.8695
 30
      0.0000
 40
      0.3000
 1
1
  0
CIRCLE
  8
1
 62
7
 10
      0.8670
 20
      9.2338
 30
      0.0000
 40
      0.0885
  0
CIRCLE
  8
1
 62
7
 10
      0.8670
 20
      9.2338
 30
      0.0000
 40
      0.2500
  0
TEXT
  8
251
 62
13
 10
      0.7170
 20
      9.1838
 30
      0.0000
 40
      0.3000
 1
2
  0
CIRCLE
  8
1
 62
7
 10
      0.7686
 20
      9.7295
 30
      0.0000
 40
      0.0885
  0
CIRCLE
  8
1
 62
7
 10
      0.7686
 20
      9.7295
 30
      0.0000
 40
      0.1875
  0
TEXT
  8
251
 62
13
 10
      0.6186
 20
      9.6170
 30
      0.0000
 40
      0.3000
 1
1
  0
CIRCLE
  8
1
 62
7
 10
      0.6869
 20
     10.6231
 30
      0.0000
 40
      0.0885
  0
CIRCLE
  8
1
 62
7
 10
      0.6869
 20
     10.6231
 30
      0.0000
 40
      0.1875
  0
TEXT
  8
251
 62
13
 10
      0.5369
 20
     10.5106
 30
      0.0000
 40
      0.3000
 1
1
  0
CIRCLE
  8
1
 62
7
 10
      0.5541
 20
     11.5829
 30
      0.0000
 40
      0.0885
  0
CIRCLE
  8
1
 62
7
 10
      0.5541
 20
     11.5829
 30
      0.0000
 40
      0.1875
  0
TEXT
  8
251
 62
13
 10
      0.4041
 20
     11.4704
 30
      0.0000
 40
      0.3000
 1
1
  0
CIRCLE
  8
1
 62
7
 10
      1.1682
 20
      0.5588
 30
      0.0000
 40
      0.0885
  0
CIRCLE
  8
1
 62
7
 10
      1.1682
 20
      0.5588
 30
      0.0000
 40
      0.2500
  0
TEXT
  8
251
 62
13
 10
      1.0182
 20
      0.5088
 30
      0.0000
 40
      0.3000
 1
2
  0
CIRCLE
  8
1
 62
7
 10
      1.1669
 20
      1.1226
 30
      0.0000
 40
      0.0885
  0
CIRCLE
  8
1
 62
7
 10
      1.1669
 20
      1.1226
 30
      0.0000
 40
      0.2500
  0
TEXT
  8
251
 62
13
 10
      1.0169
 20
      1.0726
 30
      0.0000
 40
      0.3000
 1
2
  0
CIRCLE
  8
1
 62
7
 10
      1.1599
 20
      1.7525
 30
      0.0000
 40
      0.0885
  0
CIRCLE
  8
1
 62
7
 10
      1.1599
 20
      1.7525
 30
      0.0000
 40
      0.2500
  0
TEXT
  8
251
 62
13
 10
      1.0099
 20
      1.7025
 30
      0.0000
 40
      0.3000
 1
2
  0
CIRCLE
  8
1
 62
7
 10
      1.1599
 20
      2.3150
 30
      0.0000
 40
      0.0885
  0
CIRCLE
  8
1
 62
7
 10
      1.1599
 20
      2.3150
 30
      0.0000
 40
      0.2500
  0
TEXT
  8
251
 62
13
 10
      1.0099
 20
      2.2650
 30
      0.0000
 40
      0.3000
 1
2
  0
CIRCLE
  8
1
 62
7
 10
      1.1599
 20
      2.8775
 30
      0.0000
 40
      0.0885
  0
CIRCLE
  8
1
 62
7
 10
      1.1599
 20
      2.8775
 30
      0.0000
 40
      0.2500
  0
TEXT
  8
251
 62
13
 10
      1.0099
 20
      2.8275
 30
      0.0000
 40
      0.3000
 1
2
  0
CIRCLE
  8
1
 62
7
 10
      1.1599
 20
      3.4400
 30
      0.0000
 40
      0.0885
  0
CIRCLE
  8
1
 62
7
 10
      1.1599
 20
      3.4400
 30
      0.0000
 40
      0.2500
  0
TEXT
  8
251
 62
13
 10
      1.0099
 20
      3.3900
 30
      0.0000
 40
      0.3000
 1
2
  0
CIRCLE
  8
1
 62
7
 10
      1.1599
 20
      4.0025
 30
      0.0000
 40
      0.0885
  0
CIRCLE
  8
1
 62
7
 10
      1.1599
 20
      4.0025
 30
      0.0000
 40
      0.2500
  0
TEXT
  8
251
 62
13
 10
      1.0099
 20
      3.9525
 30
      0.0000
 40
      0.3000
 1
2
  0
CIRCLE
  8
1
 62
7
 10
      1.1599
 20
      4.5650
 30
      0.0000
 40
      0.0885
  0
CIRCLE
  8
1
 62
7
 10
      1.1599
 20
      4.5650
 30
      0.0000
 40
      0.2500
  0
TEXT
  8
251
 62
13
 10
      1.0099
 20
      4.5150
 30
      0.0000
 40
      0.3000
 1
2
  0
CIRCLE
  8
1
 62
7
 10
      1.1599
 20
      5.1275
 30
      0.0000
 40
      0.0885
  0
CIRCLE
  8
1
 62
7
 10
      1.1599
 20
      5.1275
 30
      0.0000
 40
      0.2500
  0
TEXT
  8
251
 62
13
 10
      1.0099
 20
      5.0775
 30
      0.0000
 40
      0.3000
 1
2
  0
CIRCLE
  8
1
 62
7
 10
      1.1599
 20
      5.6900
 30
      0.0000
 40
      0.0885
  0
CIRCLE
  8
1
 62
7
 10
      1.1599
 20
      5.6900
 30
      0.0000
 40
      0.2500
  0
TEXT
  8
251
 62
13
 10
      1.0099
 20
      5.6400
 30
      0.0000
 40
      0.3000
 1
2
  0
CIRCLE
  8
1
 62
7
 10
      1.1599
 20
      6.2525
 30
      0.0000
 40
      0.0885
  0
CIRCLE
  8
1
 62
7
 10
      1.1599
 20
      6.2525
 30
      0.0000
 40
      0.2500
  0
TEXT
  8
251
 62
13
 10
      1.0099
 20
      6.2025
 30
      0.0000
 40
      0.3000
 1
2
  0
CIRCLE
  8
1
 62
7
 10
      1.1617
 20
      6.8150
 30
      0.0000
 40
      0.0885
  0
CIRCLE
  8
1
 62
7
 10
      1.1617
 20
      6.8150
 30
      0.0000
 40
      0.2500
  0
TEXT
  8
251
 62
13
 10
      1.0117
 20
      6.7650
 30
      0.0000
 40
      0.3000
 1
2
  0
CIRCLE
  8
1
 62
7
 10
      1.1620
 20
      7.3776
 30
      0.0000
 40
      0.0885
  0
CIRCLE
  8
1
 62
7
 10
      1.1620
 20
      7.3776
 30
      0.0000
 40
      0.2500
  0
TEXT
  8
251
 62
13
 10
      1.0120
 20
      7.3276
 30
      0.0000
 40
      0.3000
 1
2
  0
CIRCLE
  8
1
 62
7
 10
      1.1397
 20
      8.5767
 30
      0.0000
 40
      0.0885
  0
CIRCLE
  8
1
 62
7
 10
      1.1397
 20
      8.5767
 30
      0.0000
 40
      0.2500
  0
TEXT
  8
251
 62
13
 10
      0.9897
 20
      8.5267
 30
      0.0000
 40
      0.3000
 1
2
  0
CIRCLE
  8
1
 62
7
 10
      0.9700
 20
     10.2102
 30
      0.0000
 40
      0.0885
  0
CIRCLE
  8
1
 62
7
 10
      0.9700
 20
     10.2102
 30
      0.0000
 40
      0.2500
  0
TEXT
  8
251
 62
13
 10
      0.8200
 20
     10.1602
 30
      0.0000
 40
      0.3000
 1
2
  0
CIRCLE
  8
1
 62
7
 10
      0.8914
 20
     11.2152
 30
      0.0000
 40
      0.0885
  0
CIRCLE
  8
1
 62
7
 10
      0.8914
 20
     11.2152
 30
      0.0000
 40
      0.2500
  0
TEXT
  8
251
 62
13
 10
      0.7414
 20
     11.1652
 30
      0.0000
 40
      0.3000
 1
2
  0
CIRCLE
  8
1
 62
7
 10
      1.4403
 20
      9.0500
 30
      0.0000
 40
      0.0885
  0
CIRCLE
  8
1
 62
7
 10
      1.4403
 20
      9.0500
 30
      0.0000
 40
      0.2500
  0
TEXT
  8
251
 62
13
 10
      1.2903
 20
      9.0000
 30
      0.0000
 40
      0.3000
 1
2
  0
CIRCLE
  8
1
 62
7
 10
      2.7558
 20
      6.8782
 30
      0.0000
 40
      0.0885
  0
CIRCLE
  8
1
 62
7
 10
      2.7558
 20
      6.8782
 30
      0.0000
 40
      0.1875
  0
TEXT
  8
251
 62
13
 10
      2.6058
 20
      6.7657
 30
      0.0000
 40
      0.3000
 1
1
  0
LINE
  8
1
 62
7
 10
      3.2849
 20
      6.2500
 30
      0.0000
 11
      3.2849
 21
      4.1875
 31
      0.0000
  0
LINE
  8
1
 62
7
 10
      3.2849
 20
      4.1875
 30
      0.0000
 11
      3.4099
 21
      4.1250
 31
      0.0000
  0
LINE
  8
1
 62
7
 10
      3.4099
 20
      4.1250
 30
      0.0000
 11
      3.4099
 21
      6.1875
 31
      0.0000
  0
LINE
  8
1
 62
7
 10
      3.4099
 20
      6.1875
 30
      0.0000
 11
      3.2849
 21
      6.2500
 31
      0.0000
  0
LINE
  8
1
 62
7
 10
      2.4224
 20
      4.7125
 30
      0.0000
 11
      3.2966
 21
      6.4609
 31
      0.0000
  0
LINE
  8
1
 62
7
 10
      3.2966
 20
      6.4609
 30
      0.0000
 11
      3.1716
 21
      6.7734
 31
      0.0000
  0
LINE
  8
1
 62
7
 10
      3.1716
 20
      6.7734
 30
      0.0000
 11
      1.9724
 21
      4.3750
 31
      0.0000
  0
LINE
  8
1
 62
7
 10
      1.9724
 20
      4.3750
 30
      0.0000
 11
      2.0974
 21
      4.0625
 31
      0.0000
  0
LINE
  8
1
 62
7
 10
      2.0974
 20
      4.0625
 30
      0.0000
 11
      2.3474
 21
      4.5625
 31
      0.0000
  0
ARC
  8
1
 62
7
 10
      2.5349
 20
      4.5625
 30
      0.0000
 40
      0.1875
 50
 126.8699
 51
 180.0000
  0
LINE
  8
1
 62
7
 10
      3.4099
 20
      6.6875
 30
      0.0000
 11
      3.4099
 21
      7.2500
 31
      0.0000
  0
LINE
  8
1
 62
7
 10
      3.4099
 20
      7.2500
 30
      0.0000
 11
      3.2849
 21
      7.0000
 31
      0.0000
  0
LINE
  8
1
 62
7
 10
      3.2849
 20
      7.0000
 30
      0.0000
 11
      3.4099
 21
      6.6875
 31
      0.0000
  0
LINE
  8
1
 62
7
 10
      2.3474
 20
      7.2500
 30
      0.0000
 11
      2.3474
 21
      6.9893
 31
      0.0000
  0
ARC
  8
1
 62
7
 10
      2.2849
 20
      6.8125
 30
      0.0000
 40
      0.1875
 50
 289.4713
 51
  70.5288
  0
LINE
  8
1
 62
7
 10
      2.3474
 20
      6.6357
 30
      0.0000
 11
      2.3474
 21
      5.5000
 31
      0.0000
  0
LINE
  8
1
 62
7
 10
      2.3474
 20
      5.5000
 30
      0.0000
 11
      3.0675
 21
      6.9403
 31
      0.0000
  0
LINE
  8
1
 62
7
 10
      3.0675
 20
      6.9403
 30
      0.0000
 11
      3.0675
 21
      7.2500
 31
      0.0000
  0
LINE
  8
1
 62
7
 10
      3.0675
 20
      7.2500
 30
      0.0000
 11
      2.3474
 21
      7.2500
 31
      0.0000
  0
LINE
  8
1
 62
7
 10
      1.7849
 20
      4.0000
 30
      0.0000
 11
      1.9099
 21
      3.6875
 31
      0.0000
  0
LINE
  8
1
 62
7
 10
      1.9099
 20
      3.6875
 30
      0.0000
 11
      2.0036
 21
      3.8750
 31
      0.0000
  0
LINE
  8
1
 62
7
 10
      2.0036
 20
      3.8750
 30
      0.0000
 11
      1.8786
 21
      4.1875
 31
      0.0000
  0
LINE
  8
1
 62
7
 10
      1.8786
 20
      4.1875
 30
      0.0000
 11
      1.7849
 21
      4.0000
 31
      0.0000
  0
LINE
  8
1
 62
7
 10
      2.6861
 20
      3.4516
 30
      0.0000
 11
      3.0974
 21
      2.9375
 31
      0.0000
  0
LINE
  8
1
 62
7
 10
      3.0974
 20
      2.9375
 30
      0.0000
 11
      2.6209
 21
      4.3750
 31
      0.0000
  0
LINE
  8
1
 62
7
 10
      2.6209
 20
      4.3750
 30
      0.0000
 11
      2.3474
 21
      3.8750
 31
      0.0000
  0
LINE
  8
1
 62
7
 10
      2.3474
 20
      3.8750
 30
      0.0000
 11
      2.4599
 21
      3.7344
 31
      0.0000
  0
ARC
  8
1
 62
7
 10
      2.5349
 20
      3.5625
 30
      0.0000
 40
      0.1875
 50
 323.7470
 51
 113.5725
  0
CIRCLE
  8
1
 62
7
 10
      2.5349
 20
      3.5625
 30
      0.0000
 40
      0.0860
  0
ARC
  8
1
 62
7
 10
      2.3842
 20
      1.7620
 30
      0.0000
 40
      0.0625
 50
 307.0490
 51
  38.6600
  0
LINE
  8
1
 62
7
 10
      2.4330
 20
      1.8011
 30
      0.0000
 11
      2.3209
 21
      1.9413
 31
      0.0000
  0
LINE
  8
1
 62
7
 10
      2.3209
 20
      1.9413
 30
      0.0000
 11
      2.2255
 21
      2.5141
 31
      0.0000
  0
LINE
  8
1
 62
7
 10
      2.2255
 20
      2.5141
 30
      0.0000
 11
      2.5237
 21
      3.3753
 31
      0.0000
  0
ARC
  8
1
 62
7
 10
      2.5349
 20
      3.5625
 30
      0.0000
 40
      0.1875
 50
 205.9754
 51
 266.5752
  0
LINE
  8
1
 62
7
 10
      2.3663
 20
      3.4804
 30
      0.0000
 11
      2.1771
 21
      3.5638
 31
      0.0000
  0
LINE
  8
1
 62
7
 10
      2.1771
 20
      3.5638
 30
      0.0000
 11
      1.8137
 21
      2.5141
 31
      0.0000
  0
LINE
  8
1
 62
7
 10
      1.8137
 20
      2.5141
 30
      0.0000
 11
      1.9255
 21
      1.6250
 31
      0.0000
  0
LINE
  8
1
 62
7
 10
      1.9255
 20
      1.6250
 30
      0.0000
 11
      2.2255
 21
      1.2500
 31
      0.0000
  0
LINE
  8
1
 62
7
 10
      2.2255
 20
      1.2500
 30
      0.0000
 11
      2.3716
 21
      1.3669
 31
      0.0000
  0
ARC
  8
1
 62
7
 10
      2.3325
 20
      1.4157
 30
      0.0000
 40
      0.0625
 50
 308.6594
 51
  35.9674
  0
ARC
  8
1
 62
7
 10
      2.5349
 20
      1.5625
 30
      0.0000
 40
      0.1875
 50
 127.0488
 51
 215.9675
  0
LINE
  8
1
 62
7
 10
      1.6911
 20
      3.8125
 30
      0.0000
 11
      1.6911
 21
      3.2500
 31
      0.0000
  0
LINE
  8
1
 62
7
 10
      1.6911
 20
      3.2500
 30
      0.0000
 11
      1.8161
 21
      3.5000
 31
      0.0000
  0
LINE
  8
1
 62
7
 10
      1.8161
 20
      3.5000
 30
      0.0000
 11
      1.6911
 21
      3.8125
 31
      0.0000
  0
CIRCLE
  8
1
 62
7
 10
      2.5349
 20
      4.5625
 30
      0.0000
 40
      0.0860
  0
CIRCLE
  8
1
 62
7
 10
      2.5344
 20
      1.0625
 30
      0.0000
 40
      0.0860
  0
CIRCLE
  8
1
 62
7
 10
      2.2849
 20
      6.8125
 30
      0.0000
 40
      0.0860
  0
POINT
  8
1
 62
7
 10
      2.6208
 20
      1.5662
 30
      0.0000
  0
POINT
  8
1
 62
7
 10
      2.6209
 20
      1.5663
 30
      0.0000
  0
CIRCLE
  8
1
 62
7
 10
      2.5349
 20
      1.5625
 30
      0.0000
 40
      0.0860
  0
LINE
  8
1
 62
7
 10
      1.9948
 20
      0.0625
 30
      0.0000
 11
      1.4724
 21
      0.0625
 31
      0.0000
  0
LINE
  8
1
 62
7
 10
      1.4724
 20
      0.0625
 30
      0.0000
 11
      1.4724
 21
      7.3125
 31
      0.0000
  0
ARC
  8
1
 62
7
 10
      1.8474
 20
      7.3125
 30
      0.0000
 40
      0.3750
 50
  90.0000
 51
 180.0000
  0
LINE
  8
1
 62
7
 10
      1.8474
 20
      7.6875
 30
      0.0000
 11
      3.0349
 21
      7.6875
 31
      0.0000
  0
LINE
  8
1
 62
7
 10
      3.0349
 20
      7.6875
 30
      0.0000
 11
      3.5349
 21
      7.2500
 31
      0.0000
  0
LINE
  8
1
 62
7
 10
      3.5349
 20
      7.2500
 30
      0.0000
 11
      3.5349
 21
      0.0625
 31
      0.0000
  0
LINE
  8
1
 62
7
 10
      3.5349
 20
      0.0625
 30
      0.0000
 11
      3.4099
 21
      0.0625
 31
      0.0000
  0
LINE
  8
1
 62
7
 10
      3.4099
 20
      0.0625
 30
      0.0000
 11
      3.4099
 21
      0.5800
 31
      0.0000
  0
LINE
  8
1
 62
7
 10
      3.4099
 20
      0.5800
 30
      0.0000
 11
      2.8739
 21
      1.2500
 31
      0.0000
  0
LINE
  8
1
 62
7
 10
      2.8739
 20
      1.2500
 30
      0.0000
 11
      2.7687
 21
      1.1659
 31
      0.0000
  0
ARC
  8
1
 62
7
 10
      2.8468
 20
      1.0682
 30
      0.0000
 40
      0.1250
 50
 128.6599
 51
 181.0542
  0
ARC
  8
1
 62
7
 10
      2.5344
 20
      1.0625
 30
      0.0000
 40
      0.1875
 50
 271.7356
 51
   1.0541
  0
LINE
  8
1
 62
7
 10
      2.5400
 20
      0.8751
 30
      0.0000
 11
      3.1901
 21
      0.0625
 31
      0.0000
  0
LINE
  8
1
 62
7
 10
      3.1901
 20
      0.0625
 30
      0.0000
 11
      2.4915
 21
      0.0625
 31
      0.0000
  0
LINE
  8
1
 62
7
 10
      2.4915
 20
      0.0625
 30
      0.0000
 11
      1.9948
 21
      0.6834
 31
      0.0000
  0
LINE
  8
1
 62
7
 10
      1.9948
 20
      0.6834
 30
      0.0000
 11
      1.9948
 21
      0.0625
 31
      0.0000
  0
TEXT
  8
251
 62
13
 10
      1.5836
 20
      0.0625
 30
      0.0000
 40
      0.3000
 1
3
  0
CIRCLE
  8
1
 62
7
 10
      2.0683
 20
      9.3184
 30
      0.0000
 40
      0.0848
  0
CIRCLE
  8
1
 62
7
 10
      1.3060
 20
      7.8847
 30
      0.0000
 40
      0.0847
  0
CIRCLE
  8
1
 62
7
 10
      2.9288
 20
      7.9414
 30
      0.0000
 40
      0.0847
  0
ARC
  8
1
 62
7
 10
      2.1010
 20
      8.3815
 30
      0.0000
 40
      0.2705
 50
 114.4357
 51
 129.5643
  0
LINE
  8
1
 62
7
 10
      1.9288
 20
      8.5900
 30
      0.0000
 11
      1.8318
 21
      8.4077
 31
      0.0000
  0
ARC
  8
1
 62
7
 10
      2.1010
 20
      8.3815
 30
      0.0000
 40
      0.2705
 50
 174.4356
 51
 189.5643
  0
LINE
  8
1
 62
7
 10
      1.8343
 20
      8.3366
 30
      0.0000
 11
      1.9437
 21
      8.1615
 31
      0.0000
  0
ARC
  8
1
 62
7
 10
      2.1010
 20
      8.3815
 30
      0.0000
 40
      0.2705
 50
 234.4356
 51
 249.5643
  0
LINE
  8
1
 62
7
 10
      2.0066
 20
      8.1280
 30
      0.0000
 11
      2.2129
 21
      8.1353
 31
      0.0000
  0
ARC
  8
1
 62
7
 10
      2.1010
 20
      8.3815
 30
      0.0000
 40
      0.2705
 50
 294.4358
 51
 309.5644
  0
LINE
  8
1
 62
7
 10
      2.2733
 20
      8.1730
 30
      0.0000
 11
      2.3702
 21
      8.3553
 31
      0.0000
  0
ARC
  8
1
 62
7
 10
      2.1010
 20
      8.3815
 30
      0.0000
 40
      0.2705
 50
 354.4359
 51
   9.5645
  0
LINE
  8
1
 62
7
 10
      2.3677
 20
      8.4264
 30
      0.0000
 11
      2.2583
 21
      8.6015
 31
      0.0000
  0
ARC
  8
1
 62
7
 10
      2.1010
 20
      8.3815
 30
      0.0000
 40
      0.2705
 50
  54.4357
 51
  69.5643
  0
LINE
  8
1
 62
7
 10
      2.1955
 20
      8.6349
 30
      0.0000
 11
      1.9891
 21
      8.6277
 31
      0.0000
  0
ARC
  8
1
 62
7
 10
      2.2250
 20
      4.8306
 30
      0.0000
 40
      3.0019
 50
  77.2525
 51
 106.7475
  0
ARC
  8
1
 62
7
 10
      1.3060
 20
      7.8847
 30
      0.0000
 40
      0.1875
 50
 137.2526
 51
 286.7475
  0
ARC
  8
1
 62
7
 10
     -1.0362
 20
     10.0496
 30
      0.0000
 40
      3.0019
 50
 317.2525
 51
 346.7475
  0
ARC
  8
1
 62
7
 10
      2.0683
 20
      9.3184
 30
      0.0000
 40
      0.1875
 50
  17.2529
 51
 166.7475
  0
ARC
  8
1
 62
7
 10
      5.1142
 20
     10.2644
 30
      0.0000
 40
      3.0019
 50
 197.2525
 51
 226.7475
  0
ARC
  8
1
 62
7
 10
      2.9288
 20
      7.9414
 30
      0.0000
 40
      0.1875
 50
 257.2525
 51
  46.7476
  0
TEXT
  8
251
 62
13
 10
      1.9650
 20
      7.8306
 30
      0.0000
 40
      0.3000
 1
4
  0
CIRCLE
  8
1
 62
7
 10
      1.3206
 20
      9.5996
 30
      0.0000
 40
      0.0885
  0
CIRCLE
  8
1
 62
7
 10
      1.3206
 20
      9.5996
 30
      0.0000
 40
      0.2500
  0
TEXT
  8
251
 62
13
 10
      1.1706
 20
      9.5496
 30
      0.0000
 40
      0.3000
 1
2
  0
CIRCLE
  8
1
 62
7
 10
      1.2093
 20
     10.7550
 30
      0.0000
 40
      0.0885
  0
CIRCLE
  8
1
 62
7
 10
      1.2093
 20
     10.7550
 30
      0.0000
 40
      0.2500
  0
TEXT
  8
251
 62
13
 10
      1.0593
 20
     10.7050
 30
      0.0000
 40
      0.3000
 1
2
  0
CIRCLE
  8
1
 62
7
 10
      1.5341
 20
     10.2796
 30
      0.0000
 40
      0.0885
  0
CIRCLE
  8
1
 62
7
 10
      1.5341
 20
     10.2796
 30
      0.0000
 40
      0.2500
  0
TEXT
  8
251
 62
13
 10
      1.3841
 20
     10.2296
 30
      0.0000
 40
      0.3000
 1
2
  0
CIRCLE
  8
1
 62
7
 10
      1.3794
 20
     11.4986
 30
      0.0000
 40
      0.0885
  0
CIRCLE
  8
1
 62
7
 10
      1.3794
 20
     11.4986
 30
      0.0000
 40
      0.2500
  0
TEXT
  8
251
 62
13
 10
      1.2294
 20
     11.4486
 30
      0.0000
 40
      0.3000
 1
2
  0
CIRCLE
  8
1
 62
7
 10
      1.8548
 20
      9.8046
 30
      0.0000
 40
      0.0885
  0
CIRCLE
  8
1
 62
7
 10
      1.8548
 20
      9.8046
 30
      0.0000
 40
      0.2500
  0
TEXT
  8
251
 62
13
 10
      1.7048
 20
      9.7546
 30
      0.0000
 40
      0.3000
 1
2
  0
CIRCLE
  8
1
 62
7
 10
      1.6969
 20
     11.0334
 30
      0.0000
 40
      0.0885
  0
CIRCLE
  8
1
 62
7
 10
      1.6969
 20
     11.0334
 30
      0.0000
 40
      0.2500
  0
TEXT
  8
251
 62
13
 10
      1.5469
 20
     10.9834
 30
      0.0000
 40
      0.3000
 1
2
  0
CIRCLE
  8
1
 62
7
 10
      1.8869
 20
     11.6377
 30
      0.0000
 40
      0.0885
  0
CIRCLE
  8
1
 62
7
 10
      1.8869
 20
     11.6377
 30
      0.0000
 40
      0.1875
  0
TEXT
  8
251
 62
13
 10
      1.7369
 20
     11.5252
 30
      0.0000
 40
      0.3000
 1
1
  0
CIRCLE
  8
1
 62
7
 10
      2.4346
 20
      9.7449
 30
      0.0000
 40
      0.0885
  0
CIRCLE
  8
1
 62
7
 10
      2.4346
 20
      9.7449
 30
      0.0000
 40
      0.2500
  0
TEXT
  8
251
 62
13
 10
      2.2846
 20
      9.6949
 30
      0.0000
 40
      0.3000
 1
2
  0
CIRCLE
  8
1
 62
7
 10
      2.2162
 20
     11.2519
 30
      0.0000
 40
      0.0885
  0
CIRCLE
  8
1
 62
7
 10
      2.2162
 20
     11.2519
 30
      0.0000
 40
      0.2500
  0
TEXT
  8
251
 62
13
 10
      2.0662
 20
     11.2019
 30
      0.0000
 40
      0.3000
 1
2
  0
CIRCLE
  8
1
 62
7
 10
      3.8304
 20
      1.9351
 30
      0.0000
 40
      0.0885
  0
CIRCLE
  8
1
 62
7
 10
      3.8304
 20
      1.9351
 30
      0.0000
 40
      0.1875
  0
TEXT
  8
251
 62
13
 10
      3.6804
 20
      1.8226
 30
      0.0000
 40
      0.3000
 1
1
  0
CIRCLE
  8
1
 62
7
 10
      3.9228
 20
      4.0887
 30
      0.0000
 40
      0.0885
  0
CIRCLE
  8
1
 62
7
 10
      3.9228
 20
      4.0887
 30
      0.0000
 40
      0.2500
  0
TEXT
  8
251
 62
13
 10
      3.7728
 20
      4.0387
 30
      0.0000
 40
      0.3000
 1
2
  0
CIRCLE
  8
1
 62
7
 10
      4.5824
 20
      1.2953
 30
      0.0000
 40
      0.0885
  0
CIRCLE
  8
1
 62
7
 10
      4.5824
 20
      1.2953
 30
      0.0000
 40
      0.1875
  0
TEXT
  8
251
 62
13
 10
      4.4324
 20
      1.1828
 30
      0.0000
 40
      0.3000
 1
1
  0
LINE
  8
1
 62
7
 10
      5.3324
 20
      1.8750
 30
      0.0000
 11
      7.3949
 21
      1.8750
 31
      0.0000
  0
LINE
  8
1
 62
7
 10
      7.3949
 20
      1.8750
 30
      0.0000
 11
      7.4574
 21
      2.0000
 31
      0.0000
  0
LINE
  8
1
 62
7
 10
      7.4574
 20
      2.0000
 30
      0.0000
 11
      5.3949
 21
      2.0000
 31
      0.0000
  0
LINE
  8
1
 62
7
 10
      5.3949
 20
      2.0000
 30
      0.0000
 11
      5.3324
 21
      1.8750
 31
      0.0000
  0
LINE
  8
1
 62
7
 10
      6.8699
 20
      1.0125
 30
      0.0000
 11
      5.1215
 21
      1.8867
 31
      0.0000
  0
LINE
  8
1
 62
7
 10
      5.1215
 20
      1.8867
 30
      0.0000
 11
      4.8090
 21
      1.7617
 31
      0.0000
  0
LINE
  8
1
 62
7
 10
      4.8090
 20
      1.7617
 30
      0.0000
 11
      7.2074
 21
      0.5625
 31
      0.0000
  0
LINE
  8
1
 62
7
 10
      7.2074
 20
      0.5625
 30
      0.0000
 11
      7.5199
 21
      0.6875
 31
      0.0000
  0
LINE
  8
1
 62
7
 10
      7.5199
 20
      0.6875
 30
      0.0000
 11
      7.0199
 21
      0.9375
 31
      0.0000
  0
ARC
  8
1
 62
7
 10
      7.0199
 20
      1.1250
 30
      0.0000
 40
      0.1875
 50
 216.8699
 51
 270.0000
  0
LINE
  8
1
 62
7
 10
      4.8949
 20
      2.0000
 30
      0.0000
 11
      4.3324
 21
      2.0000
 31
      0.0000
  0
LINE
  8
1
 62
7
 10
      4.3324
 20
      2.0000
 30
      0.0000
 11
      4.5824
 21
      1.8750
 31
      0.0000
  0
LINE
  8
1
 62
7
 10
      4.5824
 20
      1.8750
 30
      0.0000
 11
      4.8949
 21
      2.0000
 31
      0.0000
  0
LINE
  8
1
 62
7
 10
      4.3324
 20
      0.9375
 30
      0.0000
 11
      4.5931
 21
      0.9375
 31
      0.0000
  0
ARC
  8
1
 62
7
 10
      4.7699
 20
      0.8750
 30
      0.0000
 40
      0.1875
 50
  19.4713
 51
 160.5288
  0
LINE
  8
1
 62
7
 10
      4.9467
 20
      0.9375
 30
      0.0000
 11
      6.0824
 21
      0.9375
 31
      0.0000
  0
LINE
  8
1
 62
7
 10
      6.0824
 20
      0.9375
 30
      0.0000
 11
      4.6421
 21
      1.6577
 31
      0.0000
  0
LINE
  8
1
 62
7
 10
      4.6421
 20
      1.6577
 30
      0.0000
 11
      4.3324
 21
      1.6577
 31
      0.0000
  0
LINE
  8
1
 62
7
 10
      4.3324
 20
      1.6577
 30
      0.0000
 11
      4.3324
 21
      0.9375
 31
      0.0000
  0
LINE
  8
1
 62
7
 10
      7.5824
 20
      0.3750
 30
      0.0000
 11
      7.8949
 21
      0.5000
 31
      0.0000
  0
LINE
  8
1
 62
7
 10
      7.8949
 20
      0.5000
 30
      0.0000
 11
      7.7074
 21
      0.5937
 31
      0.0000
  0
LINE
  8
1
 62
7
 10
      7.7074
 20
      0.5937
 30
      0.0000
 11
      7.3949
 21
      0.4687
 31
      0.0000
  0
LINE
  8
1
 62
7
 10
      7.3949
 20
      0.4687
 30
      0.0000
 11
      7.5824
 21
      0.3750
 31
      0.0000
  0
LINE
  8
1
 62
7
 10
      8.1308
 20
      1.2762
 30
      0.0000
 11
      8.6449
 21
      1.6875
 31
      0.0000
  0
LINE
  8
1
 62
7
 10
      8.6449
 20
      1.6875
 30
      0.0000
 11
      7.2074
 21
      1.2110
 31
      0.0000
  0
LINE
  8
1
 62
7
 10
      7.2074
 20
      1.2110
 30
      0.0000
 11
      7.7074
 21
      0.9375
 31
      0.0000
  0
LINE
  8
1
 62
7
 10
      7.7074
 20
      0.9375
 30
      0.0000
 11
      7.8481
 21
      1.0500
 31
      0.0000
  0
ARC
  8
1
 62
7
 10
      8.0199
 20
      1.1250
 30
      0.0000
 40
      0.1875
 50
  53.7471
 51
 203.5726
  0
CIRCLE
  8
1
 62
7
 10
      8.0199
 20
      1.1250
 30
      0.0000
 40
      0.0860
  0
ARC
  8
1
 62
7
 10
      9.8204
 20
      0.9744
 30
      0.0000
 40
      0.0625
 50
  37.0486
 51
 128.6598
  0
LINE
  8
1
 62
7
 10
      9.7814
 20
      1.0232
 30
      0.0000
 11
      9.6411
 21
      0.9110
 31
      0.0000
  0
LINE
  8
1
 62
7
 10
      9.6411
 20
      0.9110
 30
      0.0000
 11
      9.0683
 21
      0.8156
 31
      0.0000
  0
LINE
  8
1
 62
7
 10
      9.0683
 20
      0.8156
 30
      0.0000
 11
      8.2071
 21
      1.1138
 31
      0.0000
  0
ARC
  8
1
 62
7
 10
      8.0199
 20
      1.1250
 30
      0.0000
 40
      0.1875
 50
 295.9753
 51
 356.5751
  0
LINE
  8
1
 62
7
 10
      8.1020
 20
      0.9564
 30
      0.0000
 11
      8.0186
 21
      0.7673
 31
      0.0000
  0
LINE
  8
1
 62
7
 10
      8.0186
 20
      0.7673
 30
      0.0000
 11
      9.0683
 21
      0.4039
 31
      0.0000
  0
LINE
  8
1
 62
7
 10
      9.0683
 20
      0.4039
 30
      0.0000
 11
      9.9574
 21
      0.5156
 31
      0.0000
  0
LINE
  8
1
 62
7
 10
      9.9574
 20
      0.5156
 30
      0.0000
 11
     10.3324
 21
      0.8156
 31
      0.0000
  0
LINE
  8
1
 62
7
 10
     10.3324
 20
      0.8156
 30
      0.0000
 11
     10.2156
 21
      0.9617
 31
      0.0000
  0
ARC
  8
1
 62
7
 10
     10.1668
 20
      0.9227
 30
      0.0000
 40
      0.0625
 50
  38.6593
 51
 125.9668
  0
ARC
  8
1
 62
7
 10
     10.0199
 20
      1.1250
 30
      0.0000
 40
      0.1875
 50
 217.0488
 51
 305.9677
  0
LINE
  8
1
 62
7
 10
      7.7699
 20
      0.2812
 30
      0.0000
 11
      8.3324
 21
      0.2812
 31
      0.0000
  0
LINE
  8
1
 62
7
 10
      8.3324
 20
      0.2812
 30
      0.0000
 11
      8.0824
 21
      0.4062
 31
      0.0000
  0
LINE
  8
1
 62
7
 10
      8.0824
 20
      0.4062
 30
      0.0000
 11
      7.7699
 21
      0.2812
 31
      0.0000
  0
CIRCLE
  8
1
 62
7
 10
      7.0199
 20
      1.1250
 30
      0.0000
 40
      0.0860
  0
CIRCLE
  8
1
 62
7
 10
     10.5199
 20
      1.1245
 30
      0.0000
 40
      0.0860
  0
CIRCLE
  8
1
 62
7
 10
      4.7699
 20
      0.8750
 30
      0.0000
 40
      0.0860
  0
POINT
  8
1
 62
7
 10
     10.0162
 20
      1.2109
 30
      0.0000
  0
POINT
  8
1
 62
7
 10
     10.0161
 20
      1.2110
 30
      0.0000
  0
CIRCLE
  8
1
 62
7
 10
     10.0199
 20
      1.1250
 30
      0.0000
 40
      0.0860
  0
LINE
  8
1
 62
7
 10
     11.5199
 20
      0.5850
 30
      0.0000
 11
     11.5199
 21
      0.0625
 31
      0.0000
  0
LINE
  8
1
 62
7
 10
     11.5199
 20
      0.0625
 30
      0.0000
 11
      4.2699
 21
      0.0625
 31
      0.0000
  0
ARC
  8
1
 62
7
 10
      4.2699
 20
      0.4375
 30
      0.0000
 40
      0.3750
 50
 180.0000
 51
 270.0000
  0
LINE
  8
1
 62
7
 10
      3.8949
 20
      0.4375
 30
      0.0000
 11
      3.8949
 21
      1.6250
 31
      0.0000
  0
LINE
  8
1
 62
7
 10
      3.8949
 20
      1.6250
 30
      0.0000
 11
      4.3324
 21
      2.1250
 31
      0.0000
  0
LINE
  8
1
 62
7
 10
      4.3324
 20
      2.1250
 30
      0.0000
 11
     11.5199
 21
      2.1250
 31
      0.0000
  0
LINE
  8
1
 62
7
 10
     11.5199
 20
      2.1250
 30
      0.0000
 11
     11.5199
 21
      2.0000
 31
      0.0000
  0
LINE
  8
1
 62
7
 10
     11.5199
 20
      2.0000
 30
      0.0000
 11
     11.0024
 21
      2.0000
 31
      0.0000
  0
LINE
  8
1
 62
7
 10
     11.0024
 20
      2.0000
 30
      0.0000
 11
     10.3324
 21
      1.4640
 31
      0.0000
  0
LINE
  8
1
 62
7
 10
     10.3324
 20
      1.4640
 30
      0.0000
 11
     10.4166
 21
      1.3589
 31
      0.0000
  0
ARC
  8
1
 62
7
 10
     10.5142
 20
      1.4369
 30
      0.0000
 40
      0.1250
 50
 218.6601
 51
 271.0544
  0
ARC
  8
1
 62
7
 10
     10.5199
 20
      1.1245
 30
      0.0000
 40
      0.1875
 50
   1.7357
 51
  91.0541
  0
LINE
  8
1
 62
7
 10
     10.7073
 20
      1.1302
 30
      0.0000
 11
     11.5199
 21
      1.7802
 31
      0.0000
  0
LINE
  8
1
 62
7
 10
     11.5199
 20
      1.7802
 30
      0.0000
 11
     11.5199
 21
      1.0817
 31
      0.0000
  0
LINE
  8
1
 62
7
 10
     11.5199
 20
      1.0817
 30
      0.0000
 11
     10.8990
 21
      0.5850
 31
      0.0000
  0
LINE
  8
1
 62
7
 10
     10.8990
 20
      0.5850
 30
      0.0000
 11
     11.5199
 21
      0.5850
 31
      0.0000
  0
TEXT
  8
251
 62
13
 10
     11.2199
 20
      0.1737
 30
      0.0000
 40
      0.3000
 1
3
  0
CIRCLE
  8
1
 62
7
 10
      4.3306
 20
      4.4749
 30
      0.0000
 40
      0.0885
  0
CIRCLE
  8
1
 62
7
 10
      4.3306
 20
      4.4749
 30
      0.0000
 40
      0.2500
  0
TEXT
  8
251
 62
13
 10
      4.1806
 20
      4.4249
 30
      0.0000
 40
      0.3000
 1
2
  0
CIRCLE
  8
1
 62
7
 10
      3.4733
 20
      7.8799
 30
      0.0000
 40
      0.0848
  0
CIRCLE
  8
1
 62
7
 10
      4.3097
 20
      9.2718
 30
      0.0000
 40
      0.0848
  0
CIRCLE
  8
1
 62
7
 10
      2.6861
 20
      9.3001
 30
      0.0000
 40
      0.0848
  0
ARC
  8
1
 62
7
 10
      3.4897
 20
      8.8173
 30
      0.0000
 40
      0.2705
 50
 291.4356
 51
 306.5642
  0
LINE
  8
1
 62
7
 10
      3.6508
 20
      8.6000
 30
      0.0000
 11
      3.7572
 21
      8.7770
 31
      0.0000
  0
ARC
  8
1
 62
7
 10
      3.4897
 20
      8.8173
 30
      0.0000
 40
      0.2705
 50
 351.4355
 51
   6.5643
  0
LINE
  8
1
 62
7
 10
      3.7584
 20
      8.8482
 30
      0.0000
 11
      3.6583
 21
      9.0288
 31
      0.0000
  0
ARC
  8
1
 62
7
 10
      3.4897
 20
      8.8173
 30
      0.0000
 40
      0.2705
 50
  51.4355
 51
  66.5643
  0
LINE
  8
1
 62
7
 10
      3.5973
 20
      9.0654
 30
      0.0000
 11
      3.3909
 21
      9.0690
 31
      0.0000
  0
ARC
  8
1
 62
7
 10
      3.4897
 20
      8.8173
 30
      0.0000
 40
      0.2705
 50
 111.4356
 51
 126.5643
  0
LINE
  8
1
 62
7
 10
      3.3286
 20
      9.0345
 30
      0.0000
 11
      3.2222
 21
      8.8576
 31
      0.0000
  0
ARC
  8
1
 62
7
 10
      3.4897
 20
      8.8173
 30
      0.0000
 40
      0.2705
 50
 171.4357
 51
 186.5643
  0
LINE
  8
1
 62
7
 10
      3.2210
 20
      8.7864
 30
      0.0000
 11
      3.3211
 21
      8.6058
 31
      0.0000
  0
ARC
  8
1
 62
7
 10
      3.4897
 20
      8.8173
 30
      0.0000
 40
      0.2705
 50
 231.4357
 51
 246.5644
  0
LINE
  8
1
 62
7
 10
      3.3821
 20
      8.5691
 30
      0.0000
 11
      3.5886
 21
      8.5655
 31
      0.0000
  0
ARC
  8
1
 62
7
 10
      3.5517
 20
     12.3698
 30
      0.0000
 40
      3.0019
 50
 254.2525
 51
 283.7475
  0
ARC
  8
1
 62
7
 10
      4.3097
 20
      9.2718
 30
      0.0000
 40
      0.1875
 50
 314.2524
 51
 103.7474
  0
ARC
  8
1
 62
7
 10
      6.5353
 20
      6.9873
 30
      0.0000
 40
      3.0019
 50
 134.2525
 51
 163.7475
  0
ARC
  8
1
 62
7
 10
      3.4733
 20
      7.8799
 30
      0.0000
 40
      0.1875
 50
 194.2527
 51
 343.7475
  0
ARC
  8
1
 62
7
 10
      0.3821
 20
      7.0947
 30
      0.0000
 40
      3.0019
 50
  14.2525
 51
  43.7475
  0
ARC
  8
1
 62
7
 10
      2.6861
 20
      9.3001
 30
      0.0000
 40
      0.1875
 50
  74.2524
 51
 223.7476
  0
TEXT
  8
251
 62
13
 10
      3.3467
 20
      9.0684
 30
      0.0000
 40
      0.3000
 1
4
  0
CIRCLE
  8
1
 62
7
 10
      1.9817
 20
     10.5941
 30
      0.0000
 40
      0.0847
  0
CIRCLE
  8
1
 62
7
 10
      3.3435
 20
      9.7097
 30
      0.0000
 40
      0.0847
  0
CIRCLE
  8
1
 62
7
 10
      3.4285
 20
     11.3313
 30
      0.0000
 40
      0.0848
  0
ARC
  8
1
 62
7
 10
      2.9179
 20
     10.5450
 30
      0.0000
 40
      0.2705
 50
 199.4357
 51
 214.5643
  0
LINE
  8
1
 62
7
 10
      2.6952
 20
     10.3916
 30
      0.0000
 11
      2.8683
 21
     10.2791
 31
      0.0000
  0
ARC
  8
1
 62
7
 10
      2.9179
 20
     10.5450
 30
      0.0000
 40
      0.2705
 50
 259.4357
 51
 274.5643
  0
LINE
  8
1
 62
7
 10
      2.9394
 20
     10.2754
 30
      0.0000
 11
      3.1234
 21
     10.3691
 31
      0.0000
  0
ARC
  8
1
 62
7
 10
      2.9179
 20
     10.5450
 30
      0.0000
 40
      0.2705
 50
 319.4358
 51
 334.5644
  0
LINE
  8
1
 62
7
 10
      3.1622
 20
     10.4289
 30
      0.0000
 11
      3.1730
 21
     10.6350
 31
      0.0000
  0
ARC
  8
1
 62
7
 10
      2.9179
 20
     10.5450
 30
      0.0000
 40
      0.2705
 50
  19.4357
 51
  34.5643
  0
LINE
  8
1
 62
7
 10
      3.1406
 20
     10.6985
 30
      0.0000
 11
      2.9675
 21
     10.8109
 31
      0.0000
  0
ARC
  8
1
 62
7
 10
      2.9179
 20
     10.5450
 30
      0.0000
 40
      0.2705
 50
  79.4357
 51
  94.5644
  0
LINE
  8
1
 62
7
 10
      2.8964
 20
     10.8146
 30
      0.0000
 11
      2.7124
 21
     10.7209
 31
      0.0000
  0
ARC
  8
1
 62
7
 10
      2.9179
 20
     10.5450
 30
      0.0000
 40
      0.2705
 50
 139.4358
 51
 154.5644
  0
LINE
  8
1
 62
7
 10
      2.6736
 20
     10.6612
 30
      0.0000
 11
      2.6628
 21
     10.4550
 31
      0.0000
  0
ARC
  8
1
 62
7
 10
      6.4661
 20
     10.3591
 30
      0.0000
 40
      3.0019
 50
 162.2525
 51
 191.7475
  0
ARC
  8
1
 62
7
 10
      3.3435
 20
      9.7097
 30
      0.0000
 40
      0.1875
 50
 222.2525
 51
  11.7474
  0
ARC
  8
1
 62
7
 10
      0.9827
 20
      7.5651
 30
      0.0000
 40
      3.0019
 50
  42.2525
 51
  71.7475
  0
ARC
  8
1
 62
7
 10
      1.9817
 20
     10.5941
 30
      0.0000
 40
      0.1875
 50
 102.2525
 51
 251.7475
  0
ARC
  8
1
 62
7
 10
      1.3048
 20
     13.7109
 30
      0.0000
 40
      3.0019
 50
 282.2525
 51
 311.7475
  0
ARC
  8
1
 62
7
 10
      3.4285
 20
     11.3313
 30
      0.0000
 40
      0.1875
 50
 342.2527
 51
 131.7476
  0
TEXT
  8
251
 62
13
 10
      3.1685
 20
     10.3740
 30
      0.0000
 40
      0.3000
 1
4
  0
CIRCLE
  8
1
 62
7
 10
      2.7371
 20
     11.4641
 30
      0.0000
 40
      0.0885
  0
CIRCLE
  8
1
 62
7
 10
      2.7371
 20
     11.4641
 30
      0.0000
 40
      0.2500
  0
TEXT
  8
251
 62
13
 10
      2.5871
 20
     11.4141
 30
      0.0000
 40
      0.3000
 1
2
  0
CIRCLE
  8
1
 62
7
 10
      3.1984
 20
     11.6999
 30
      0.0000
 40
      0.0885
  0
CIRCLE
  8
1
 62
7
 10
      3.1984
 20
     11.6999
 30
      0.0000
 40
      0.1875
  0
TEXT
  8
251
 62
13
 10
      3.0484
 20
     11.5874
 30
      0.0000
 40
      0.3000
 1
1
  0
CIRCLE
  8
1
 62
7
 10
      5.2731
 20
      4.4178
 30
      0.0000
 40
      0.0825
  0
CIRCLE
  8
1
 62
7
 10
     11.2599
 20
      4.0102
 30
      0.0000
 40
      0.0860
  0
CIRCLE
  8
1
 62
7
 10
      5.1880
 20
      2.7951
 30
      0.0000
 40
      0.0825
  0
CIRCLE
  8
1
 62
7
 10
      3.7887
 20
      2.3677
 30
      0.0000
 40
      0.0825
  0
LINE
  8
1
 62
7
 10
      8.3848
 20
      2.8890
 30
      0.0000
 11
      8.3946
 21
      3.0763
 31
      0.0000
  0
LINE
  8
1
 62
7
 10
      8.3946
 20
      3.0763
 30
      0.0000
 11
      6.6278
 21
      3.1688
 31
      0.0000
  0
LINE
  8
1
 62
7
 10
      6.6278
 20
      3.1688
 30
      0.0000
 11
      6.7621
 21
      2.9741
 31
      0.0000
  0
LINE
  8
1
 62
7
 10
      6.7621
 20
      2.9741
 30
      0.0000
 11
      8.3848
 21
      2.8890
 31
      0.0000
  0
LINE
  8
1
 62
7
 10
      6.0037
 20
      3.2016
 30
      0.0000
 11
      4.4001
 21
      3.2856
 31
      0.0000
  0
LINE
  8
1
 62
7
 10
      4.4001
 20
      3.2856
 30
      0.0000
 11
      4.3903
 21
      3.0984
 31
      0.0000
  0
LINE
  8
1
 62
7
 10
      4.3903
 20
      3.0984
 30
      0.0000
 11
      6.1379
 21
      3.0068
 31
      0.0000
  0
LINE
  8
1
 62
7
 10
      6.1379
 20
      3.0068
 30
      0.0000
 11
      6.0037
 21
      3.2016
 31
      0.0000
  0
LINE
  8
1
 62
7
 10
      6.1804
 20
      3.8181
 30
      0.0000
 11
      6.4941
 21
      3.3630
 31
      0.0000
  0
LINE
  8
1
 62
7
 10
      6.4941
 20
      3.3630
 30
      0.0000
 11
      9.6527
 21
      3.1974
 31
      0.0000
  0
LINE
  8
1
 62
7
 10
      9.6527
 20
      3.1974
 30
      0.0000
 11
      9.8031
 21
      3.4926
 31
      0.0000
  0
LINE
  8
1
 62
7
 10
      9.8031
 20
      3.4926
 30
      0.0000
 11
      9.5187
 21
      3.6431
 31
      0.0000
  0
LINE
  8
1
 62
7
 10
      9.5187
 20
      3.6431
 30
      0.0000
 11
      6.1804
 21
      3.8181
 31
      0.0000
  0
ARC
  8
1
 62
7
 10
      5.0595
 20
      3.3222
 30
      0.0000
 40
      0.5755
 50
 102.7895
 51
 165.3980
  0
LINE
  8
1
 62
7
 10
      4.5026
 20
      3.4673
 30
      0.0000
 11
      5.5182
 21
      3.4141
 31
      0.0000
  0
LINE
  8
1
 62
7
 10
      5.5182
 20
      3.4141
 30
      0.0000
 11
      5.2046
 21
      3.8692
 31
      0.0000
  0
LINE
  8
1
 62
7
 10
      5.2046
 20
      3.8692
 30
      0.0000
 11
      4.9321
 21
      3.8835
 31
      0.0000
  0
CIRCLE
  8
1
 62
7
 10
      9.8876
 20
      2.9034
 30
      0.0000
 40
      0.0825
  0
CIRCLE
  8
1
 62
7
 10
      8.6393
 20
      2.9688
 30
      0.0000
 40
      0.0825
  0
CIRCLE
  8
1
 62
7
 10
      6.3115
 20
      2.7364
 30
      0.0000
 40
      0.0825
  0
CIRCLE
  8
1
 62
7
 10
      5.6677
 20
      2.3944
 30
      0.0000
 40
      0.0825
  0
CIRCLE
  8
1
 62
7
 10
      5.7675
 20
      4.2980
 30
      0.0000
 40
      0.0860
  0
LINE
  8
1
 62
7
 10
     11.3645
 20
      2.6663
 30
      0.0000
 11
     10.2006
 21
      3.2822
 31
      0.0000
  0
LINE
  8
1
 62
7
 10
     10.2006
 20
      3.2822
 30
      0.0000
 11
     10.0837
 21
      3.0613
 31
      0.0000
  0
LINE
  8
1
 62
7
 10
     10.0837
 20
      3.0613
 30
      0.0000
 11
     11.2056
 21
      2.4676
 31
      0.0000
  0
ARC
  8
1
 62
7
 10
     10.7078
 20
      3.0286
 30
      0.0000
 40
      0.7500
 50
 270.8140
 51
 311.5838
  0
LINE
  8
1
 62
7
 10
     10.7185
 20
      2.2786
 30
      0.0000
 11
      7.2237
 21
      2.2290
 31
      0.0000
  0
LINE
  8
1
 62
7
 10
      7.2237
 20
      2.2290
 30
      0.0000
 11
      6.4574
 21
      2.5166
 31
      0.0000
  0
ARC
  8
1
 62
7
 10
      6.2744
 20
      2.0292
 30
      0.0000
 40
      0.5207
 50
  69.4254
 51
 148.9525
  0
ARC
  8
1
 62
7
 10
      5.6677
 20
      2.3944
 30
      0.0000
 40
      0.1875
 50
 270.8140
 51
 328.9524
  0
LINE
  8
1
 62
7
 10
      5.6704
 20
      2.2069
 30
      0.0000
 11
      3.7914
 21
      2.1802
 31
      0.0000
  0
ARC
  8
1
 62
7
 10
      3.7887
 20
      2.3677
 30
      0.0000
 40
      0.1875
 50
 177.0866
 51
 270.8138
  0
ARC
  8
1
 62
7
 10
      6.1789
 20
      2.2461
 30
      0.0000
 40
      2.5808
 50
 110.2384
 51
 177.0865
  0
LINE
  8
1
 62
7
 10
      5.2862
 20
      4.6675
 30
      0.0000
 11
     11.2779
 21
      4.3535
 31
      0.0000
  0
ARC
  8
1
 62
7
 10
     11.2648
 20
      4.1038
 30
      0.0000
 40
      0.2500
 50
 357.0000
 51
  86.9999
  0
LINE
  8
1
 62
7
 10
     11.5145
 20
      4.0907
 30
      0.0000
 11
     11.5068
 21
      3.9437
 31
      0.0000
  0
LINE
  8
1
 62
7
 10
     11.5068
 20
      3.9437
 30
      0.0000
 11
     10.8608
 21
      3.4802
 31
      0.0000
  0
LINE
  8
1
 62
7
 10
     10.8608
 20
      3.4802
 30
      0.0000
 11
     11.4808
 21
      3.4477
 31
      0.0000
  0
LINE
  8
1
 62
7
 10
     11.4808
 20
      3.4477
 30
      0.0000
 11
     11.4568
 21
      2.9893
 31
      0.0000
  0
ARC
  8
1
 62
7
 10
     10.7078
 20
      3.0286
 30
      0.0000
 40
      0.7500
 50
 331.1188
 51
 357.0000
  0
TEXT
  8
251
 62
13
 10
     10.7027
 20
      2.9569
 30
      0.0000
 40
      0.3000
 1
5
  0
CIRCLE
  8
1
 62
7
 10
     10.7889
 20
      4.6902
 30
      0.0000
 40
      0.0885
  0
CIRCLE
  8
1
 62
7
 10
     10.7889
 20
      4.6902
 30
      0.0000
 40
      0.2500
  0
TEXT
  8
251
 62
13
 10
     10.6389
 20
      4.6402
 30
      0.0000
 40
      0.3000
 1
2
  0
CIRCLE
  8
1
 62
7
 10
     11.1927
 20
      5.1004
 30
      0.0000
 40
      0.0885
  0
CIRCLE
  8
1
 62
7
 10
     11.1927
 20
      5.1004
 30
      0.0000
 40
      0.2500
  0
TEXT
  8
251
 62
13
 10
     11.0427
 20
      5.0504
 30
      0.0000
 40
      0.3000
 1
2
  0
CIRCLE
  8
1
 62
7
 10
      9.8442
 20
      4.7415
 30
      0.0000
 40
      0.0825
  0
CIRCLE
  8
1
 62
7
 10
      3.8573
 20
      5.1492
 30
      0.0000
 40
      0.0860
  0
CIRCLE
  8
1
 62
7
 10
      9.9293
 20
      6.3643
 30
      0.0000
 40
      0.0825
  0
CIRCLE
  8
1
 62
7
 10
     11.3285
 20
      6.7917
 30
      0.0000
 40
      0.0825
  0
LINE
  8
1
 62
7
 10
      6.7325
 20
      6.2703
 30
      0.0000
 11
      6.7226
 21
      6.0831
 31
      0.0000
  0
LINE
  8
1
 62
7
 10
      6.7226
 20
      6.0831
 30
      0.0000
 11
      8.4895
 21
      5.9905
 31
      0.0000
  0
LINE
  8
1
 62
7
 10
      8.4895
 20
      5.9905
 30
      0.0000
 11
      8.3552
 21
      6.1853
 31
      0.0000
  0
LINE
  8
1
 62
7
 10
      8.3552
 20
      6.1853
 30
      0.0000
 11
      6.7325
 21
      6.2703
 31
      0.0000
  0
LINE
  8
1
 62
7
 10
      9.1136
 20
      5.9578
 30
      0.0000
 11
     10.7172
 21
      5.8738
 31
      0.0000
  0
LINE
  8
1
 62
7
 10
     10.7172
 20
      5.8738
 30
      0.0000
 11
     10.7270
 21
      6.0610
 31
      0.0000
  0
LINE
  8
1
 62
7
 10
     10.7270
 20
      6.0610
 30
      0.0000
 11
      8.9794
 21
      6.1526
 31
      0.0000
  0
LINE
  8
1
 62
7
 10
      8.9794
 20
      6.1526
 30
      0.0000
 11
      9.1136
 21
      5.9578
 31
      0.0000
  0
LINE
  8
1
 62
7
 10
      8.9368
 20
      5.3413
 30
      0.0000
 11
      8.6232
 21
      5.7964
 31
      0.0000
  0
LINE
  8
1
 62
7
 10
      8.6232
 20
      5.7964
 30
      0.0000
 11
      5.4646
 21
      5.9619
 31
      0.0000
  0
LINE
  8
1
 62
7
 10
      5.4646
 20
      5.9619
 30
      0.0000
 11
      5.3142
 21
      5.6667
 31
      0.0000
  0
LINE
  8
1
 62
7
 10
      5.3142
 20
      5.6667
 30
      0.0000
 11
      5.5986
 21
      5.5163
 31
      0.0000
  0
LINE
  8
1
 62
7
 10
      5.5986
 20
      5.5163
 30
      0.0000
 11
      8.9368
 21
      5.3413
 31
      0.0000
  0
ARC
  8
1
 62
7
 10
     10.0577
 20
      5.8371
 30
      0.0000
 40
      0.5755
 50
 282.7894
 51
 345.3980
  0
LINE
  8
1
 62
7
 10
     10.6147
 20
      5.6920
 30
      0.0000
 11
      9.5990
 21
      5.7453
 31
      0.0000
  0
LINE
  8
1
 62
7
 10
      9.5990
 20
      5.7453
 30
      0.0000
 11
      9.9127
 21
      5.2902
 31
      0.0000
  0
LINE
  8
1
 62
7
 10
      9.9127
 20
      5.2902
 30
      0.0000
 11
     10.1851
 21
      5.2759
 31
      0.0000
  0
CIRCLE
  8
1
 62
7
 10
      5.2296
 20
      6.2560
 30
      0.0000
 40
      0.0825
  0
CIRCLE
  8
1
 62
7
 10
      6.4779
 20
      6.1906
 30
      0.0000
 40
      0.0825
  0
CIRCLE
  8
1
 62
7
 10
      8.8058
 20
      6.4230
 30
      0.0000
 40
      0.0825
  0
CIRCLE
  8
1
 62
7
 10
      9.4496
 20
      6.7650
 30
      0.0000
 40
      0.0825
  0
CIRCLE
  8
1
 62
7
 10
      9.3498
 20
      4.8613
 30
      0.0000
 40
      0.0860
  0
LINE
  8
1
 62
7
 10
      3.7528
 20
      6.4930
 30
      0.0000
 11
      4.9167
 21
      5.8771
 31
      0.0000
  0
LINE
  8
1
 62
7
 10
      4.9167
 20
      5.8771
 30
      0.0000
 11
      5.0336
 21
      6.0981
 31
      0.0000
  0
LINE
  8
1
 62
7
 10
      5.0336
 20
      6.0981
 30
      0.0000
 11
      3.9117
 21
      6.6918
 31
      0.0000
  0
ARC
  8
1
 62
7
 10
      4.4095
 20
      6.1308
 30
      0.0000
 40
      0.7500
 50
  90.8140
 51
 131.5838
  0
LINE
  8
1
 62
7
 10
      4.3988
 20
      6.8807
 30
      0.0000
 11
      7.8936
 21
      6.9304
 31
      0.0000
  0
LINE
  8
1
 62
7
 10
      7.8936
 20
      6.9304
 30
      0.0000
 11
      8.6599
 21
      6.6427
 31
      0.0000
  0
ARC
  8
1
 62
7
 10
      8.8428
 20
      7.1302
 30
      0.0000
 40
      0.5207
 50
 249.4253
 51
 328.9524
  0
ARC
  8
1
 62
7
 10
      9.4496
 20
      6.7650
 30
      0.0000
 40
      0.1875
 50
  90.8140
 51
 148.9525
  0
LINE
  8
1
 62
7
 10
      9.4469
 20
      6.9524
 30
      0.0000
 11
     11.3259
 21
      6.9791
 31
      0.0000
  0
ARC
  8
1
 62
7
 10
     11.3285
 20
      6.7917
 30
      0.0000
 40
      0.1875
 50
 357.0866
 51
  90.8140
  0
ARC
  8
1
 62
7
 10
      8.9384
 20
      6.9133
 30
      0.0000
 40
      2.5808
 50
 290.2384
 51
 357.0865
  0
LINE
  8
1
 62
7
 10
      9.8311
 20
      4.4919
 30
      0.0000
 11
      3.8393
 21
      4.8059
 31
      0.0000
  0
ARC
  8
1
 62
7
 10
      3.8524
 20
      5.0555
 30
      0.0000
 40
      0.2500
 50
 177.0000
 51
 266.9999
  0
LINE
  8
1
 62
7
 10
      3.6028
 20
      5.0686
 30
      0.0000
 11
      3.6105
 21
      5.2157
 31
      0.0000
  0
LINE
  8
1
 62
7
 10
      3.6105
 20
      5.2157
 30
      0.0000
 11
      4.2565
 21
      5.6792
 31
      0.0000
  0
LINE
  8
1
 62
7
 10
      4.2565
 20
      5.6792
 30
      0.0000
 11
      3.6365
 21
      5.7117
 31
      0.0000
  0
LINE
  8
1
 62
7
 10
      3.6365
 20
      5.7117
 30
      0.0000
 11
      3.6605
 21
      6.1700
 31
      0.0000
  0
ARC
  8
1
 62
7
 10
      4.4095
 20
      6.1308
 30
      0.0000
 40
      0.7500
 50
 151.1188
 51
 177.0000
  0
TEXT
  8
251
 62
13
 10
      4.1146
 20
      5.9025
 30
      0.0000
 40
      0.3000
 1
5
  0
CIRCLE
  8
1
 62
7
 10
      5.2731
 20
      9.1722
 30
      0.0000
 40
      0.0825
  0
CIRCLE
  8
1
 62
7
 10
     11.2599
 20
      8.7646
 30
      0.0000
 40
      0.0860
  0
CIRCLE
  8
1
 62
7
 10
      5.1880
 20
      7.5494
 30
      0.0000
 40
      0.0825
  0
CIRCLE
  8
1
 62
7
 10
      3.7887
 20
      7.1221
 30
      0.0000
 40
      0.0825
  0
LINE
  8
1
 62
7
 10
      8.3848
 20
      7.6434
 30
      0.0000
 11
      8.3946
 21
      7.8306
 31
      0.0000
  0
LINE
  8
1
 62
7
 10
      8.3946
 20
      7.8306
 30
      0.0000
 11
      6.6278
 21
      7.9232
 31
      0.0000
  0
LINE
  8
1
 62
7
 10
      6.6278
 20
      7.9232
 30
      0.0000
 11
      6.7621
 21
      7.7284
 31
      0.0000
  0
LINE
  8
1
 62
7
 10
      6.7621
 20
      7.7284
 30
      0.0000
 11
      8.3848
 21
      7.6434
 31
      0.0000
  0
LINE
  8
1
 62
7
 10
      6.0037
 20
      7.9559
 30
      0.0000
 11
      4.4001
 21
      8.0400
 31
      0.0000
  0
LINE
  8
1
 62
7
 10
      4.4001
 20
      8.0400
 30
      0.0000
 11
      4.3903
 21
      7.8527
 31
      0.0000
  0
LINE
  8
1
 62
7
 10
      4.3903
 20
      7.8527
 30
      0.0000
 11
      6.1379
 21
      7.7611
 31
      0.0000
  0
LINE
  8
1
 62
7
 10
      6.1379
 20
      7.7611
 30
      0.0000
 11
      6.0037
 21
      7.9559
 31
      0.0000
  0
LINE
  8
1
 62
7
 10
      6.1804
 20
      8.5724
 30
      0.0000
 11
      6.4941
 21
      8.1173
 31
      0.0000
  0
LINE
  8
1
 62
7
 10
      6.4941
 20
      8.1173
 30
      0.0000
 11
      9.6527
 21
      7.9518
 31
      0.0000
  0
LINE
  8
1
 62
7
 10
      9.6527
 20
      7.9518
 30
      0.0000
 11
      9.8031
 21
      8.2470
 31
      0.0000
  0
LINE
  8
1
 62
7
 10
      9.8031
 20
      8.2470
 30
      0.0000
 11
      9.5187
 21
      8.3975
 31
      0.0000
  0
LINE
  8
1
 62
7
 10
      9.5187
 20
      8.3975
 30
      0.0000
 11
      6.1804
 21
      8.5724
 31
      0.0000
  0
ARC
  8
1
 62
7
 10
      5.0595
 20
      8.0766
 30
      0.0000
 40
      0.5755
 50
 102.7895
 51
 165.3980
  0
LINE
  8
1
 62
7
 10
      4.5026
 20
      8.2217
 30
      0.0000
 11
      5.5182
 21
      8.1685
 31
      0.0000
  0
LINE
  8
1
 62
7
 10
      5.5182
 20
      8.1685
 30
      0.0000
 11
      5.2046
 21
      8.6236
 31
      0.0000
  0
LINE
  8
1
 62
7
 10
      5.2046
 20
      8.6236
 30
      0.0000
 11
      4.9321
 21
      8.6378
 31
      0.0000
  0
CIRCLE
  8
1
 62
7
 10
      9.8876
 20
      7.6577
 30
      0.0000
 40
      0.0825
  0
CIRCLE
  8
1
 62
7
 10
      8.6393
 20
      7.7232
 30
      0.0000
 40
      0.0825
  0
CIRCLE
  8
1
 62
7
 10
      6.3115
 20
      7.4907
 30
      0.0000
 40
      0.0825
  0
CIRCLE
  8
1
 62
7
 10
      5.6677
 20
      7.1488
 30
      0.0000
 40
      0.0825
  0
CIRCLE
  8
1
 62
7
 10
      5.7675
 20
      9.0524
 30
      0.0000
 40
      0.0860
  0
LINE
  8
1
 62
7
 10
     11.3645
 20
      7.4207
 30
      0.0000
 11
     10.2006
 21
      8.0366
 31
      0.0000
  0
LINE
  8
1
 62
7
 10
     10.2006
 20
      8.0366
 30
      0.0000
 11
     10.0837
 21
      7.8156
 31
      0.0000
  0
LINE
  8
1
 62
7
 10
     10.0837
 20
      7.8156
 30
      0.0000
 11
     11.2056
 21
      7.2220
 31
      0.0000
  0
ARC
  8
1
 62
7
 10
     10.7078
 20
      7.7829
 30
      0.0000
 40
      0.7500
 50
 270.8140
 51
 311.5837
  0
LINE
  8
1
 62
7
 10
     10.7185
 20
      7.0330
 30
      0.0000
 11
      7.2237
 21
      6.9834
 31
      0.0000
  0
LINE
  8
1
 62
7
 10
      7.2237
 20
      6.9834
 30
      0.0000
 11
      6.4574
 21
      7.2710
 31
      0.0000
  0
ARC
  8
1
 62
7
 10
      6.2744
 20
      6.7835
 30
      0.0000
 40
      0.5207
 50
  69.4254
 51
 148.9525
  0
ARC
  8
1
 62
7
 10
      5.6677
 20
      7.1488
 30
      0.0000
 40
      0.1875
 50
 270.8140
 51
 328.9524
  0
LINE
  8
1
 62
7
 10
      5.6704
 20
      6.9613
 30
      0.0000
 11
      3.7914
 21
      6.9346
 31
      0.0000
  0
ARC
  8
1
 62
7
 10
      3.7887
 20
      7.1221
 30
      0.0000
 40
      0.1875
 50
 177.0864
 51
 270.8138
  0
ARC
  8
1
 62
7
 10
      6.1789
 20
      7.0004
 30
      0.0000
 40
      2.5808
 50
 110.2384
 51
 177.0865
  0
LINE
  8
1
 62
7
 10
      5.2862
 20
      9.4219
 30
      0.0000
 11
     11.2779
 21
      9.1078
 31
      0.0000
  0
ARC
  8
1
 62
7
 10
     11.2648
 20
      8.8582
 30
      0.0000
 40
      0.2500
 50
 356.9999
 51
  86.9999
  0
LINE
  8
1
 62
7
 10
     11.5145
 20
      8.8451
 30
      0.0000
 11
     11.5068
 21
      8.6981
 31
      0.0000
  0
LINE
  8
1
 62
7
 10
     11.5068
 20
      8.6981
 30
      0.0000
 11
     10.8608
 21
      8.2345
 31
      0.0000
  0
LINE
  8
1
 62
7
 10
     10.8608
 20
      8.2345
 30
      0.0000
 11
     11.4808
 21
      8.2020
 31
      0.0000
  0
LINE
  8
1
 62
7
 10
     11.4808
 20
      8.2020
 30
      0.0000
 11
     11.4568
 21
      7.7437
 31
      0.0000
  0
ARC
  8
1
 62
7
 10
     10.7078
 20
      7.7829
 30
      0.0000
 40
      0.7500
 50
 331.1188
 51
 356.9999
  0
TEXT
  8
251
 62
13
 10
     10.7027
 20
      7.7112
 30
      0.0000
 40
      0.3000
 1
5
  0
CIRCLE
  8
1
 62
7
 10
     10.7867
 20
      9.4388
 30
      0.0000
 40
      0.0885
  0
CIRCLE
  8
1
 62
7
 10
     10.7867
 20
      9.4388
 30
      0.0000
 40
      0.2500
  0
TEXT
  8
251
 62
13
 10
     10.6367
 20
      9.3888
 30
      0.0000
 40
      0.3000
 1
2
  0
CIRCLE
  8
1
 62
7
 10
     11.2295
 20
      9.6679
 30
      0.0000
 40
      0.0885
  0
CIRCLE
  8
1
 62
7
 10
     11.2295
 20
      9.6679
 30
      0.0000
 40
      0.1875
  0
TEXT
  8
251
 62
13
 10
     11.0795
 20
      9.5554
 30
      0.0000
 40
      0.3000
 1
1
  0
CIRCLE
  8
1
 62
7
 10
      9.8442
 20
      9.4959
 30
      0.0000
 40
      0.0825
  0
CIRCLE
  8
1
 62
7
 10
      3.8573
 20
      9.9035
 30
      0.0000
 40
      0.0860
  0
CIRCLE
  8
1
 62
7
 10
      9.9293
 20
     11.1187
 30
      0.0000
 40
      0.0825
  0
CIRCLE
  8
1
 62
7
 10
     11.3285
 20
     11.5460
 30
      0.0000
 40
      0.0825
  0
LINE
  8
1
 62
7
 10
      6.7325
 20
     11.0247
 30
      0.0000
 11
      6.7226
 21
     10.8375
 31
      0.0000
  0
LINE
  8
1
 62
7
 10
      6.7226
 20
     10.8375
 30
      0.0000
 11
      8.4895
 21
     10.7449
 31
      0.0000
  0
LINE
  8
1
 62
7
 10
      8.4895
 20
     10.7449
 30
      0.0000
 11
      8.3552
 21
     10.9397
 31
      0.0000
  0
LINE
  8
1
 62
7
 10
      8.3552
 20
     10.9397
 30
      0.0000
 11
      6.7325
 21
     11.0247
 31
      0.0000
  0
LINE
  8
1
 62
7
 10
      9.1136
 20
     10.7122
 30
      0.0000
 11
     10.7172
 21
     10.6281
 31
      0.0000
  0
LINE
  8
1
 62
7
 10
     10.7172
 20
     10.6281
 30
      0.0000
 11
     10.7270
 21
     10.8154
 31
      0.0000
  0
LINE
  8
1
 62
7
 10
     10.7270
 20
     10.8154
 30
      0.0000
 11
      8.9794
 21
     10.9070
 31
      0.0000
  0
LINE
  8
1
 62
7
 10
      8.9794
 20
     10.9070
 30
      0.0000
 11
      9.1136
 21
     10.7122
 31
      0.0000
  0
LINE
  8
1
 62
7
 10
      8.9368
 20
     10.0957
 30
      0.0000
 11
      8.6232
 21
     10.5508
 31
      0.0000
  0
LINE
  8
1
 62
7
 10
      8.6232
 20
     10.5508
 30
      0.0000
 11
      5.4646
 21
     10.7163
 31
      0.0000
  0
LINE
  8
1
 62
7
 10
      5.4646
 20
     10.7163
 30
      0.0000
 11
      5.3142
 21
     10.4211
 31
      0.0000
  0
LINE
  8
1
 62
7
 10
      5.3142
 20
     10.4211
 30
      0.0000
 11
      5.5986
 21
     10.2706
 31
      0.0000
  0
LINE
  8
1
 62
7
 10
      5.5986
 20
     10.2706
 30
      0.0000
 11
      8.9368
 21
     10.0957
 31
      0.0000
  0
ARC
  8
1
 62
7
 10
     10.0577
 20
     10.5915
 30
      0.0000
 40
      0.5755
 50
 282.7894
 51
 345.3979
  0
LINE
  8
1
 62
7
 10
     10.6147
 20
     10.4464
 30
      0.0000
 11
      9.5990
 21
     10.4996
 31
      0.0000
  0
LINE
  8
1
 62
7
 10
      9.5990
 20
     10.4996
 30
      0.0000
 11
      9.9127
 21
     10.0445
 31
      0.0000
  0
LINE
  8
1
 62
7
 10
      9.9127
 20
     10.0445
 30
      0.0000
 11
     10.1851
 21
     10.0303
 31
      0.0000
  0
CIRCLE
  8
1
 62
7
 10
      5.2296
 20
     11.0104
 30
      0.0000
 40
      0.0825
  0
CIRCLE
  8
1
 62
7
 10
      6.4779
 20
     10.9449
 30
      0.0000
 40
      0.0825
  0
CIRCLE
  8
1
 62
7
 10
      8.8058
 20
     11.1774
 30
      0.0000
 40
      0.0825
  0
CIRCLE
  8
1
 62
7
 10
      9.4496
 20
     11.5193
 30
      0.0000
 40
      0.0825
  0
CIRCLE
  8
1
 62
7
 10
      9.3498
 20
      9.6157
 30
      0.0000
 40
      0.0860
  0
LINE
  8
1
 62
7
 10
      3.7528
 20
     11.2474
 30
      0.0000
 11
      4.9167
 21
     10.6315
 31
      0.0000
  0
LINE
  8
1
 62
7
 10
      4.9167
 20
     10.6315
 30
      0.0000
 11
      5.0336
 21
     10.8524
 31
      0.0000
  0
LINE
  8
1
 62
7
 10
      5.0336
 20
     10.8524
 30
      0.0000
 11
      3.9117
 21
     11.4461
 31
      0.0000
  0
ARC
  8
1
 62
7
 10
      4.4095
 20
     10.8852
 30
      0.0000
 40
      0.7500
 50
  90.8140
 51
 131.5838
  0
LINE
  8
1
 62
7
 10
      4.3988
 20
     11.6351
 30
      0.0000
 11
      7.8936
 21
     11.6847
 31
      0.0000
  0
LINE
  8
1
 62
7
 10
      7.8936
 20
     11.6847
 30
      0.0000
 11
      8.6599
 21
     11.3971
 31
      0.0000
  0
ARC
  8
1
 62
7
 10
      8.8428
 20
     11.8846
 30
      0.0000
 40
      0.5207
 50
 249.4254
 51
 328.9524
  0
ARC
  8
1
 62
7
 10
      9.4496
 20
     11.5193
 30
      0.0000
 40
      0.1875
 50
  90.8140
 51
 148.9530
  0
LINE
  8
1
 62
7
 10
      9.4469
 20
     11.7068
 30
      0.0000
 11
     11.3259
 21
     11.7335
 31
      0.0000
  0
ARC
  8
1
 62
7
 10
     11.3285
 20
     11.5460
 30
      0.0000
 40
      0.1875
 50
 357.0862
 51
  90.8140
  0
ARC
  8
1
 62
7
 10
      8.9384
 20
     11.6677
 30
      0.0000
 40
      2.5808
 50
 290.2384
 51
 357.0865
  0
LINE
  8
1
 62
7
 10
      9.8311
 20
      9.2462
 30
      0.0000
 11
      3.8393
 21
      9.5603
 31
      0.0000
  0
ARC
  8
1
 62
7
 10
      3.8524
 20
      9.8099
 30
      0.0000
 40
      0.2500
 50
 177.0001
 51
 266.9999
  0
LINE
  8
1
 62
7
 10
      3.6028
 20
      9.8230
 30
      0.0000
 11
      3.6105
 21
      9.9700
 31
      0.0000
  0
LINE
  8
1
 62
7
 10
      3.6105
 20
      9.9700
 30
      0.0000
 11
      4.2565
 21
     10.4336
 31
      0.0000
  0
LINE
  8
1
 62
7
 10
      4.2565
 20
     10.4336
 30
      0.0000
 11
      3.6365
 21
     10.4661
 31
      0.0000
  0
LINE
  8
1
 62
7
 10
      3.6365
 20
     10.4661
 30
      0.0000
 11
      3.6605
 21
     10.9244
 31
      0.0000
  0
ARC
  8
1
 62
7
 10
      4.4095
 20
     10.8852
 30
      0.0000
 40
      0.7500
 50
 151.1188
 51
 177.0000
  0
TEXT
  8
251
 62
13
 10
      4.1146
 20
     10.6569
 30
      0.0000
 40
      0.3000
 1
5
  0
CIRCLE
  8
1
 62
7
 10
      3.7547
 20
     11.6366
 30
      0.0000
 40
      0.0885
  0
CIRCLE
  8
1
 62
7
 10
      3.7547
 20
     11.6366
 30
      0.0000
 40
      0.1875
  0
TEXT
  8
251
 62
13
 10
      3.6047
 20
     11.5241
 30
      0.0000
 40
      0.3000
 1
1
  0
CIRCLE
  8
1
 62
7
 10
      8.8166
 20
     11.6393
 30
      0.0000
 40
      0.0885
  0
CIRCLE
  8
1
 62
7
 10
      8.8166
 20
     11.6393
 30
      0.0000
 40
      0.1875
  0
TEXT
  8
251
 62
13
 10
      8.6666
 20
     11.5268
 30
      0.0000
 40
      0.3000
 1
1
  0
CIRCLE
  8
1
 62
7
 10
     12.8597
 20
      6.8802
 30
      0.0000
 40
      0.0885
  0
CIRCLE
  8
1
 62
7
 10
     12.8597
 20
      6.8802
 30
      0.0000
 40
      0.1875
  0
TEXT
  8
251
 62
13
 10
     12.7097
 20
      6.7677
 30
      0.0000
 40
      0.3000
 1
1
  0
LINE
  8
1
 62
7
 10
     13.3949
 20
      6.2500
 30
      0.0000
 11
     13.3949
 21
      4.1875
 31
      0.0000
  0
LINE
  8
1
 62
7
 10
     13.3949
 20
      4.1875
 30
      0.0000
 11
     13.5199
 21
      4.1250
 31
      0.0000
  0
LINE
  8
1
 62
7
 10
     13.5199
 20
      4.1250
 30
      0.0000
 11
     13.5199
 21
      6.1875
 31
      0.0000
  0
LINE
  8
1
 62
7
 10
     13.5199
 20
      6.1875
 30
      0.0000
 11
     13.3949
 21
      6.2500
 31
      0.0000
  0
LINE
  8
1
 62
7
 10
     12.5324
 20
      4.7125
 30
      0.0000
 11
     13.4066
 21
      6.4609
 31
      0.0000
  0
LINE
  8
1
 62
7
 10
     13.4066
 20
      6.4609
 30
      0.0000
 11
     13.2816
 21
      6.7734
 31
      0.0000
  0
LINE
  8
1
 62
7
 10
     13.2816
 20
      6.7734
 30
      0.0000
 11
     12.0824
 21
      4.3750
 31
      0.0000
  0
LINE
  8
1
 62
7
 10
     12.0824
 20
      4.3750
 30
      0.0000
 11
     12.2074
 21
      4.0625
 31
      0.0000
  0
LINE
  8
1
 62
7
 10
     12.2074
 20
      4.0625
 30
      0.0000
 11
     12.4574
 21
      4.5625
 31
      0.0000
  0
ARC
  8
1
 62
7
 10
     12.6449
 20
      4.5625
 30
      0.0000
 40
      0.1875
 50
 126.8697
 51
 180.0000
  0
LINE
  8
1
 62
7
 10
     13.5199
 20
      6.6875
 30
      0.0000
 11
     13.5199
 21
      7.2500
 31
      0.0000
  0
LINE
  8
1
 62
7
 10
     13.5199
 20
      7.2500
 30
      0.0000
 11
     13.3949
 21
      7.0000
 31
      0.0000
  0
LINE
  8
1
 62
7
 10
     13.3949
 20
      7.0000
 30
      0.0000
 11
     13.5199
 21
      6.6875
 31
      0.0000
  0
LINE
  8
1
 62
7
 10
     12.4574
 20
      7.2500
 30
      0.0000
 11
     12.4574
 21
      6.9893
 31
      0.0000
  0
ARC
  8
1
 62
7
 10
     12.3949
 20
      6.8125
 30
      0.0000
 40
      0.1875
 50
 289.4713
 51
  70.5288
  0
LINE
  8
1
 62
7
 10
     12.4574
 20
      6.6357
 30
      0.0000
 11
     12.4574
 21
      5.5000
 31
      0.0000
  0
LINE
  8
1
 62
7
 10
     12.4574
 20
      5.5000
 30
      0.0000
 11
     13.1776
 21
      6.9403
 31
      0.0000
  0
LINE
  8
1
 62
7
 10
     13.1776
 20
      6.9403
 30
      0.0000
 11
     13.1776
 21
      7.2500
 31
      0.0000
  0
LINE
  8
1
 62
7
 10
     13.1776
 20
      7.2500
 30
      0.0000
 11
     12.4574
 21
      7.2500
 31
      0.0000
  0
LINE
  8
1
 62
7
 10
     11.8949
 20
      4.0000
 30
      0.0000
 11
     12.0199
 21
      3.6875
 31
      0.0000
  0
LINE
  8
1
 62
7
 10
     12.0199
 20
      3.6875
 30
      0.0000
 11
     12.1137
 21
      3.8750
 31
      0.0000
  0
LINE
  8
1
 62
7
 10
     12.1137
 20
      3.8750
 30
      0.0000
 11
     11.9887
 21
      4.1875
 31
      0.0000
  0
LINE
  8
1
 62
7
 10
     11.9887
 20
      4.1875
 30
      0.0000
 11
     11.8949
 21
      4.0000
 31
      0.0000
  0
LINE
  8
1
 62
7
 10
     12.7961
 20
      3.4516
 30
      0.0000
 11
     13.2074
 21
      2.9375
 31
      0.0000
  0
LINE
  8
1
 62
7
 10
     13.2074
 20
      2.9375
 30
      0.0000
 11
     12.7309
 21
      4.3750
 31
      0.0000
  0
LINE
  8
1
 62
7
 10
     12.7309
 20
      4.3750
 30
      0.0000
 11
     12.4574
 21
      3.8750
 31
      0.0000
  0
LINE
  8
1
 62
7
 10
     12.4574
 20
      3.8750
 30
      0.0000
 11
     12.5699
 21
      3.7344
 31
      0.0000
  0
ARC
  8
1
 62
7
 10
     12.6449
 20
      3.5625
 30
      0.0000
 40
      0.1875
 50
 323.7469
 51
 113.5726
  0
CIRCLE
  8
1
 62
7
 10
     12.6449
 20
      3.5625
 30
      0.0000
 40
      0.0860
  0
ARC
  8
1
 62
7
 10
     12.4943
 20
      1.7620
 30
      0.0000
 40
      0.0625
 50
 307.0489
 51
  38.6601
  0
LINE
  8
1
 62
7
 10
     12.5431
 20
      1.8011
 30
      0.0000
 11
     12.4309
 21
      1.9413
 31
      0.0000
  0
LINE
  8
1
 62
7
 10
     12.4309
 20
      1.9413
 30
      0.0000
 11
     12.3356
 21
      2.5141
 31
      0.0000
  0
LINE
  8
1
 62
7
 10
     12.3356
 20
      2.5141
 30
      0.0000
 11
     12.6337
 21
      3.3753
 31
      0.0000
  0
ARC
  8
1
 62
7
 10
     12.6449
 20
      3.5625
 30
      0.0000
 40
      0.1875
 50
 205.9754
 51
 266.5749
  0
LINE
  8
1
 62
7
 10
     12.4764
 20
      3.4804
 30
      0.0000
 11
     12.2872
 21
      3.5638
 31
      0.0000
  0
LINE
  8
1
 62
7
 10
     12.2872
 20
      3.5638
 30
      0.0000
 11
     11.9238
 21
      2.5141
 31
      0.0000
  0
LINE
  8
1
 62
7
 10
     11.9238
 20
      2.5141
 30
      0.0000
 11
     12.0356
 21
      1.6250
 31
      0.0000
  0
LINE
  8
1
 62
7
 10
     12.0356
 20
      1.6250
 30
      0.0000
 11
     12.3356
 21
      1.2500
 31
      0.0000
  0
LINE
  8
1
 62
7
 10
     12.3356
 20
      1.2500
 30
      0.0000
 11
     12.4816
 21
      1.3669
 31
      0.0000
  0
ARC
  8
1
 62
7
 10
     12.4426
 20
      1.4157
 30
      0.0000
 40
      0.0625
 50
 308.6589
 51
  35.9671
  0
ARC
  8
1
 62
7
 10
     12.6449
 20
      1.5625
 30
      0.0000
 40
      0.1875
 50
 127.0487
 51
 215.9677
  0
LINE
  8
1
 62
7
 10
     11.8012
 20
      3.8125
 30
      0.0000
 11
     11.8012
 21
      3.2500
 31
      0.0000
  0
LINE
  8
1
 62
7
 10
     11.8012
 20
      3.2500
 30
      0.0000
 11
     11.9262
 21
      3.5000
 31
      0.0000
  0
LINE
  8
1
 62
7
 10
     11.9262
 20
      3.5000
 30
      0.0000
 11
     11.8012
 21
      3.8125
 31
      0.0000
  0
CIRCLE
  8
1
 62
7
 10
     12.6449
 20
      4.5625
 30
      0.0000
 40
      0.0860
  0
CIRCLE
  8
1
 62
7
 10
     12.6444
 20
      1.0625
 30
      0.0000
 40
      0.0860
  0
CIRCLE
  8
1
 62
7
 10
     12.3949
 20
      6.8125
 30
      0.0000
 40
      0.0860
  0
POINT
  8
1
 62
7
 10
     12.7308
 20
      1.5662
 30
      0.0000
  0
POINT
  8
1
 62
7
 10
     12.7309
 20
      1.5663
 30
      0.0000
  0
CIRCLE
  8
1
 62
7
 10
     12.6449
 20
      1.5625
 30
      0.0000
 40
      0.0860
  0
LINE
  8
1
 62
7
 10
     12.1049
 20
      0.0625
 30
      0.0000
 11
     11.5824
 21
      0.0625
 31
      0.0000
  0
LINE
  8
1
 62
7
 10
     11.5824
 20
      0.0625
 30
      0.0000
 11
     11.5824
 21
      7.3125
 31
      0.0000
  0
ARC
  8
1
 62
7
 10
     11.9574
 20
      7.3125
 30
      0.0000
 40
      0.3750
 50
  90.0000
 51
 180.0000
  0
LINE
  8
1
 62
7
 10
     11.9574
 20
      7.6875
 30
      0.0000
 11
     13.1449
 21
      7.6875
 31
      0.0000
  0
LINE
  8
1
 62
7
 10
     13.1449
 20
      7.6875
 30
      0.0000
 11
     13.6449
 21
      7.2500
 31
      0.0000
  0
LINE
  8
1
 62
7
 10
     13.6449
 20
      7.2500
 30
      0.0000
 11
     13.6449
 21
      0.0625
 31
      0.0000
  0
LINE
  8
1
 62
7
 10
     13.6449
 20
      0.0625
 30
      0.0000
 11
     13.5199
 21
      0.0625
 31
      0.0000
  0
LINE
  8
1
 62
7
 10
     13.5199
 20
      0.0625
 30
      0.0000
 11
     13.5199
 21
      0.5800
 31
      0.0000
  0
LINE
  8
1
 62
7
 10
     13.5199
 20
      0.5800
 30
      0.0000
 11
     12.9840
 21
      1.2500
 31
      0.0000
  0
LINE
  8
1
 62
7
 10
     12.9840
 20
      1.2500
 30
      0.0000
 11
     12.8788
 21
      1.1659
 31
      0.0000
  0
ARC
  8
1
 62
7
 10
     12.9569
 20
      1.0682
 30
      0.0000
 40
      0.1250
 50
 128.6599
 51
 181.0542
  0
ARC
  8
1
 62
7
 10
     12.6444
 20
      1.0625
 30
      0.0000
 40
      0.1875
 50
 271.7354
 51
   1.0541
  0
LINE
  8
1
 62
7
 10
     12.6501
 20
      0.8751
 30
      0.0000
 11
     13.3002
 21
      0.0625
 31
      0.0000
  0
LINE
  8
1
 62
7
 10
     13.3002
 20
      0.0625
 30
      0.0000
 11
     12.6016
 21
      0.0625
 31
      0.0000
  0
LINE
  8
1
 62
7
 10
     12.6016
 20
      0.0625
 30
      0.0000
 11
     12.1049
 21
      0.6834
 31
      0.0000
  0
LINE
  8
1
 62
7
 10
     12.1049
 20
      0.6834
 30
      0.0000
 11
     12.1049
 21
      0.0625
 31
      0.0000
  0
TEXT
  8
251
 62
13
 10
     11.6937
 20
      0.0625
 30
      0.0000
 40
      0.3000
 1
3
  0
CIRCLE
  8
1
 62
7
 10
     12.5508
 20
      7.9363
 30
      0.0000
 40
      0.0885
  0
CIRCLE
  8
1
 62
7
 10
     12.5508
 20
      7.9363
 30
      0.0000
 40
      0.1875
  0
TEXT
  8
251
 62
13
 10
     12.4008
 20
      7.8238
 30
      0.0000
 40
      0.3000
 1
1
  0
CIRCLE
  8
1
 62
7
 10
     11.6948
 20
      9.5521
 30
      0.0000
 40
      0.0848
  0
CIRCLE
  8
1
 62
7
 10
     11.7232
 20
      7.9286
 30
      0.0000
 40
      0.0848
  0
CIRCLE
  8
1
 62
7
 10
     13.1151
 20
      8.7649
 30
      0.0000
 40
      0.0848
  0
ARC
  8
1
 62
7
 10
     12.1777
 20
      8.7485
 30
      0.0000
 40
      0.2705
 50
 143.4357
 51
 158.5643
  0
LINE
  8
1
 62
7
 10
     11.9259
 20
      8.8474
 30
      0.0000
 11
     11.9295
 21
      8.6410
 31
      0.0000
  0
ARC
  8
1
 62
7
 10
     12.1777
 20
      8.7485
 30
      0.0000
 40
      0.2705
 50
 203.4358
 51
 218.5644
  0
LINE
  8
1
 62
7
 10
     11.9662
 20
      8.5799
 30
      0.0000
 11
     12.1468
 21
      8.4798
 31
      0.0000
  0
ARC
  8
1
 62
7
 10
     12.1777
 20
      8.7485
 30
      0.0000
 40
      0.2705
 50
 263.4357
 51
 278.5642
  0
LINE
  8
1
 62
7
 10
     12.2180
 20
      8.4811
 30
      0.0000
 11
     12.3949
 21
      8.5874
 31
      0.0000
  0
ARC
  8
1
 62
7
 10
     12.1777
 20
      8.7485
 30
      0.0000
 40
      0.2705
 50
 323.4358
 51
 338.5645
  0
LINE
  8
1
 62
7
 10
     12.4295
 20
      8.6497
 30
      0.0000
 11
     12.4259
 21
      8.8561
 31
      0.0000
  0
ARC
  8
1
 62
7
 10
     12.1777
 20
      8.7485
 30
      0.0000
 40
      0.2705
 50
  23.4355
 51
  38.5643
  0
LINE
  8
1
 62
7
 10
     12.3892
 20
      8.9171
 30
      0.0000
 11
     12.2086
 21
      9.0172
 31
      0.0000
  0
ARC
  8
1
 62
7
 10
     12.1777
 20
      8.7485
 30
      0.0000
 40
      0.2705
 50
  83.4357
 51
  98.5643
  0
LINE
  8
1
 62
7
 10
     12.1374
 20
      9.0160
 30
      0.0000
 11
     11.9605
 21
      8.9097
 31
      0.0000
  0
ARC
  8
1
 62
7
 10
     14.0077
 20
      5.7029
 30
      0.0000
 40
      3.0019
 50
 106.2525
 51
 135.7475
  0
ARC
  8
1
 62
7
 10
     11.7232
 20
      7.9286
 30
      0.0000
 40
      0.1875
 50
 166.2525
 51
 315.7473
  0
ARC
  8
1
 62
7
 10
      8.6251
 20
      8.6865
 30
      0.0000
 40
      3.0019
 50
 346.2525
 51
  15.7475
  0
ARC
  8
1
 62
7
 10
     11.6948
 20
      9.5521
 30
      0.0000
 40
      0.1875
 50
  46.2524
 51
 195.7475
  0
ARC
  8
1
 62
7
 10
     13.9003
 20
     11.8562
 30
      0.0000
 40
      3.0019
 50
 226.2525
 51
 255.7475
  0
ARC
  8
1
 62
7
 10
     13.1151
 20
      8.7649
 30
      0.0000
 40
      0.1875
 50
 286.2526
 51
  75.7473
  0
TEXT
  8
251
 62
13
 10
     12.2343
 20
      8.2547
 30
      0.0000
 40
      0.3000
 1
4
  0
CIRCLE
  8
1
 62
7
 10
     11.7574
 20
     10.9740
 30
      0.0000
 40
      0.0885
  0
CIRCLE
  8
1
 62
7
 10
     11.7574
 20
     10.9740
 30
      0.0000
 40
      0.2500
  0
TEXT
  8
251
 62
13
 10
     11.6074
 20
     10.9240
 30
      0.0000
 40
      0.3000
 1
2
  0
CIRCLE
  8
1
 62
7
 10
     12.7836
 20
      9.3998
 30
      0.0000
 40
      0.0848
  0
CIRCLE
  8
1
 62
7
 10
     12.7553
 20
     11.0234
 30
      0.0000
 40
      0.0848
  0
CIRCLE
  8
1
 62
7
 10
     11.3634
 20
     10.1871
 30
      0.0000
 40
      0.0847
  0
ARC
  8
1
 62
7
 10
     12.3008
 20
     10.2034
 30
      0.0000
 40
      0.2705
 50
 323.4358
 51
 338.5644
  0
LINE
  8
1
 62
7
 10
     12.5525
 20
     10.1046
 30
      0.0000
 11
     12.5489
 21
     10.3110
 31
      0.0000
  0
ARC
  8
1
 62
7
 10
     12.3008
 20
     10.2034
 30
      0.0000
 40
      0.2705
 50
  23.4355
 51
  38.5641
  0
LINE
  8
1
 62
7
 10
     12.5123
 20
     10.3720
 30
      0.0000
 11
     12.3317
 21
     10.4721
 31
      0.0000
  0
ARC
  8
1
 62
7
 10
     12.3008
 20
     10.2034
 30
      0.0000
 40
      0.2705
 50
  83.4357
 51
  98.5643
  0
LINE
  8
1
 62
7
 10
     12.2605
 20
     10.4709
 30
      0.0000
 11
     12.0835
 21
     10.3646
 31
      0.0000
  0
ARC
  8
1
 62
7
 10
     12.3008
 20
     10.2034
 30
      0.0000
 40
      0.2705
 50
 143.4357
 51
 158.5645
  0
LINE
  8
1
 62
7
 10
     12.0490
 20
     10.3023
 30
      0.0000
 11
     12.0526
 21
     10.0959
 31
      0.0000
  0
ARC
  8
1
 62
7
 10
     12.3008
 20
     10.2034
 30
      0.0000
 40
      0.2705
 50
 203.4356
 51
 218.5644
  0
LINE
  8
1
 62
7
 10
     12.0893
 20
     10.0348
 30
      0.0000
 11
     12.2699
 21
      9.9347
 31
      0.0000
  0
ARC
  8
1
 62
7
 10
     12.3008
 20
     10.2034
 30
      0.0000
 40
      0.2705
 50
 263.4357
 51
 278.5642
  0
LINE
  8
1
 62
7
 10
     12.3411
 20
      9.9360
 30
      0.0000
 11
     12.5180
 21
     10.0423
 31
      0.0000
  0
ARC
  8
1
 62
7
 10
     10.4708
 20
     13.2490
 30
      0.0000
 40
      3.0019
 50
 286.2525
 51
 315.7475
  0
ARC
  8
1
 62
7
 10
     12.7553
 20
     11.0234
 30
      0.0000
 40
      0.1875
 50
 346.2524
 51
 135.7476
  0
ARC
  8
1
 62
7
 10
     15.8533
 20
     10.2654
 30
      0.0000
 40
      3.0019
 50
 166.2525
 51
 195.7475
  0
ARC
  8
1
 62
7
 10
     12.7836
 20
      9.3998
 30
      0.0000
 40
      0.1875
 50
 226.2526
 51
  15.7474
  0
ARC
  8
1
 62
7
 10
     10.5782
 20
      7.0958
 30
      0.0000
 40
      3.0019
 50
  46.2525
 51
  75.7475
  0
ARC
  8
1
 62
7
 10
     11.3634
 20
     10.1871
 30
      0.0000
 40
      0.1875
 50
 106.2525
 51
 255.7475
  0
TEXT
  8
251
 62
13
 10
     11.9442
 20
     10.3973
 30
      0.0000
 40
      0.3000
 1
4
  0
CIRCLE
  8
1
 62
7
 10
     11.7726
 20
     11.4807
 30
      0.0000
 40
      0.0885
  0
CIRCLE
  8
1
 62
7
 10
     11.7726
 20
     11.4807
 30
      0.0000
 40
      0.1875
  0
TEXT
  8
251
 62
13
 10
     11.6226
 20
     11.3682
 30
      0.0000
 40
      0.3000
 1
1
  0
CIRCLE
  8
1
 62
7
 10
     12.2402
 20
     11.2564
 30
      0.0000
 40
      0.0885
  0
CIRCLE
  8
1
 62
7
 10
     12.2402
 20
     11.2564
 30
      0.0000
 40
      0.2500
  0
TEXT
  8
251
 62
13
 10
     12.0902
 20
     11.2064
 30
      0.0000
 40
      0.3000
 1
2
  0
CIRCLE
  8
1
 62
7
 10
     12.4337
 20
     11.7162
 30
      0.0000
 40
      0.0885
  0
CIRCLE
  8
1
 62
7
 10
     12.4337
 20
     11.7162
 30
      0.0000
 40
      0.1875
  0
TEXT
  8
251
 62
13
 10
     12.2837
 20
     11.6037
 30
      0.0000
 40
      0.3000
 1
1
  0
CIRCLE
  8
1
 62
7
 10
     12.9156
 20
     11.5138
 30
      0.0000
 40
      0.0885
  0
CIRCLE
  8
1
 62
7
 10
     12.9156
 20
     11.5138
 30
      0.0000
 40
      0.2500
  0
TEXT
  8
251
 62
13
 10
     12.7656
 20
     11.4638
 30
      0.0000
 40
      0.3000
 1
2
  0
CIRCLE
  8
1
 62
7
 10
     14.9847
 20
      6.8802
 30
      0.0000
 40
      0.0885
  0
CIRCLE
  8
1
 62
7
 10
     14.9847
 20
      6.8802
 30
      0.0000
 40
      0.1875
  0
TEXT
  8
251
 62
13
 10
     14.8347
 20
      6.7677
 30
      0.0000
 40
      0.3000
 1
1
  0
LINE
  8
1
 62
7
 10
     15.5199
 20
      6.2500
 30
      0.0000
 11
     15.5199
 21
      4.1875
 31
      0.0000
  0
LINE
  8
1
 62
7
 10
     15.5199
 20
      4.1875
 30
      0.0000
 11
     15.6449
 21
      4.1250
 31
      0.0000
  0
LINE
  8
1
 62
7
 10
     15.6449
 20
      4.1250
 30
      0.0000
 11
     15.6449
 21
      6.1875
 31
      0.0000
  0
LINE
  8
1
 62
7
 10
     15.6449
 20
      6.1875
 30
      0.0000
 11
     15.5199
 21
      6.2500
 31
      0.0000
  0
LINE
  8
1
 62
7
 10
     14.6574
 20
      4.7125
 30
      0.0000
 11
     15.5316
 21
      6.4609
 31
      0.0000
  0
LINE
  8
1
 62
7
 10
     15.5316
 20
      6.4609
 30
      0.0000
 11
     15.4066
 21
      6.7734
 31
      0.0000
  0
LINE
  8
1
 62
7
 10
     15.4066
 20
      6.7734
 30
      0.0000
 11
     14.2074
 21
      4.3750
 31
      0.0000
  0
LINE
  8
1
 62
7
 10
     14.2074
 20
      4.3750
 30
      0.0000
 11
     14.3324
 21
      4.0625
 31
      0.0000
  0
LINE
  8
1
 62
7
 10
     14.3324
 20
      4.0625
 30
      0.0000
 11
     14.5824
 21
      4.5625
 31
      0.0000
  0
ARC
  8
1
 62
7
 10
     14.7699
 20
      4.5625
 30
      0.0000
 40
      0.1875
 50
 126.8697
 51
 180.0000
  0
LINE
  8
1
 62
7
 10
     15.6449
 20
      6.6875
 30
      0.0000
 11
     15.6449
 21
      7.2500
 31
      0.0000
  0
LINE
  8
1
 62
7
 10
     15.6449
 20
      7.2500
 30
      0.0000
 11
     15.5199
 21
      7.0000
 31
      0.0000
  0
LINE
  8
1
 62
7
 10
     15.5199
 20
      7.0000
 30
      0.0000
 11
     15.6449
 21
      6.6875
 31
      0.0000
  0
LINE
  8
1
 62
7
 10
     14.5824
 20
      7.2500
 30
      0.0000
 11
     14.5824
 21
      6.9893
 31
      0.0000
  0
ARC
  8
1
 62
7
 10
     14.5199
 20
      6.8125
 30
      0.0000
 40
      0.1875
 50
 289.4713
 51
  70.5288
  0
LINE
  8
1
 62
7
 10
     14.5824
 20
      6.6357
 30
      0.0000
 11
     14.5824
 21
      5.5000
 31
      0.0000
  0
LINE
  8
1
 62
7
 10
     14.5824
 20
      5.5000
 30
      0.0000
 11
     15.3026
 21
      6.9403
 31
      0.0000
  0
LINE
  8
1
 62
7
 10
     15.3026
 20
      6.9403
 30
      0.0000
 11
     15.3026
 21
      7.2500
 31
      0.0000
  0
LINE
  8
1
 62
7
 10
     15.3026
 20
      7.2500
 30
      0.0000
 11
     14.5824
 21
      7.2500
 31
      0.0000
  0
LINE
  8
1
 62
7
 10
     14.0199
 20
      4.0000
 30
      0.0000
 11
     14.1449
 21
      3.6875
 31
      0.0000
  0
LINE
  8
1
 62
7
 10
     14.1449
 20
      3.6875
 30
      0.0000
 11
     14.2387
 21
      3.8750
 31
      0.0000
  0
LINE
  8
1
 62
7
 10
     14.2387
 20
      3.8750
 30
      0.0000
 11
     14.1137
 21
      4.1875
 31
      0.0000
  0
LINE
  8
1
 62
7
 10
     14.1137
 20
      4.1875
 30
      0.0000
 11
     14.0199
 21
      4.0000
 31
      0.0000
  0
LINE
  8
1
 62
7
 10
     14.9211
 20
      3.4516
 30
      0.0000
 11
     15.3324
 21
      2.9375
 31
      0.0000
  0
LINE
  8
1
 62
7
 10
     15.3324
 20
      2.9375
 30
      0.0000
 11
     14.8559
 21
      4.3750
 31
      0.0000
  0
LINE
  8
1
 62
7
 10
     14.8559
 20
      4.3750
 30
      0.0000
 11
     14.5824
 21
      3.8750
 31
      0.0000
  0
LINE
  8
1
 62
7
 10
     14.5824
 20
      3.8750
 30
      0.0000
 11
     14.6949
 21
      3.7344
 31
      0.0000
  0
ARC
  8
1
 62
7
 10
     14.7699
 20
      3.5625
 30
      0.0000
 40
      0.1875
 50
 323.7471
 51
 113.5724
  0
CIRCLE
  8
1
 62
7
 10
     14.7699
 20
      3.5625
 30
      0.0000
 40
      0.0860
  0
ARC
  8
1
 62
7
 10
     14.6193
 20
      1.7620
 30
      0.0000
 40
      0.0625
 50
 307.0489
 51
  38.6601
  0
LINE
  8
1
 62
7
 10
     14.6681
 20
      1.8011
 30
      0.0000
 11
     14.5559
 21
      1.9413
 31
      0.0000
  0
LINE
  8
1
 62
7
 10
     14.5559
 20
      1.9413
 30
      0.0000
 11
     14.4606
 21
      2.5141
 31
      0.0000
  0
LINE
  8
1
 62
7
 10
     14.4606
 20
      2.5141
 30
      0.0000
 11
     14.7587
 21
      3.3753
 31
      0.0000
  0
ARC
  8
1
 62
7
 10
     14.7699
 20
      3.5625
 30
      0.0000
 40
      0.1875
 50
 205.9754
 51
 266.5755
  0
LINE
  8
1
 62
7
 10
     14.6014
 20
      3.4804
 30
      0.0000
 11
     14.4122
 21
      3.5638
 31
      0.0000
  0
LINE
  8
1
 62
7
 10
     14.4122
 20
      3.5638
 30
      0.0000
 11
     14.0488
 21
      2.5141
 31
      0.0000
  0
LINE
  8
1
 62
7
 10
     14.0488
 20
      2.5141
 30
      0.0000
 11
     14.1606
 21
      1.6250
 31
      0.0000
  0
LINE
  8
1
 62
7
 10
     14.1606
 20
      1.6250
 30
      0.0000
 11
     14.4606
 21
      1.2500
 31
      0.0000
  0
LINE
  8
1
 62
7
 10
     14.4606
 20
      1.2500
 30
      0.0000
 11
     14.6066
 21
      1.3669
 31
      0.0000
  0
ARC
  8
1
 62
7
 10
     14.5676
 20
      1.4157
 30
      0.0000
 40
      0.0625
 50
 308.6596
 51
  35.9671
  0
ARC
  8
1
 62
7
 10
     14.7699
 20
      1.5625
 30
      0.0000
 40
      0.1875
 50
 127.0487
 51
 215.9677
  0
LINE
  8
1
 62
7
 10
     13.9262
 20
      3.8125
 30
      0.0000
 11
     13.9262
 21
      3.2500
 31
      0.0000
  0
LINE
  8
1
 62
7
 10
     13.9262
 20
      3.2500
 30
      0.0000
 11
     14.0512
 21
      3.5000
 31
      0.0000
  0
LINE
  8
1
 62
7
 10
     14.0512
 20
      3.5000
 30
      0.0000
 11
     13.9262
 21
      3.8125
 31
      0.0000
  0
CIRCLE
  8
1
 62
7
 10
     14.7699
 20
      4.5625
 30
      0.0000
 40
      0.0860
  0
CIRCLE
  8
1
 62
7
 10
     14.7694
 20
      1.0625
 30
      0.0000
 40
      0.0860
  0
CIRCLE
  8
1
 62
7
 10
     14.5199
 20
      6.8125
 30
      0.0000
 40
      0.0860
  0
POINT
  8
1
 62
7
 10
     14.8558
 20
      1.5662
 30
      0.0000
  0
POINT
  8
1
 62
7
 10
     14.8559
 20
      1.5663
 30
      0.0000
  0
CIRCLE
  8
1
 62
7
 10
     14.7699
 20
      1.5625
 30
      0.0000
 40
      0.0860
  0
LINE
  8
1
 62
7
 10
     14.2299
 20
      0.0625
 30
      0.0000
 11
     13.7074
 21
      0.0625
 31
      0.0000
  0
LINE
  8
1
 62
7
 10
     13.7074
 20
      0.0625
 30
      0.0000
 11
     13.7074
 21
      7.3125
 31
      0.0000
  0
ARC
  8
1
 62
7
 10
     14.0824
 20
      7.3125
 30
      0.0000
 40
      0.3750
 50
  90.0000
 51
 180.0000
  0
LINE
  8
1
 62
7
 10
     14.0824
 20
      7.6875
 30
      0.0000
 11
     15.2699
 21
      7.6875
 31
      0.0000
  0
LINE
  8
1
 62
7
 10
     15.2699
 20
      7.6875
 30
      0.0000
 11
     15.7699
 21
      7.2500
 31
      0.0000
  0
LINE
  8
1
 62
7
 10
     15.7699
 20
      7.2500
 30
      0.0000
 11
     15.7699
 21
      0.0625
 31
      0.0000
  0
LINE
  8
1
 62
7
 10
     15.7699
 20
      0.0625
 30
      0.0000
 11
     15.6449
 21
      0.0625
 31
      0.0000
  0
LINE
  8
1
 62
7
 10
     15.6449
 20
      0.0625
 30
      0.0000
 11
     15.6449
 21
      0.5800
 31
      0.0000
  0
LINE
  8
1
 62
7
 10
     15.6449
 20
      0.5800
 30
      0.0000
 11
     15.1090
 21
      1.2500
 31
      0.0000
  0
LINE
  8
1
 62
7
 10
     15.1090
 20
      1.2500
 30
      0.0000
 11
     15.0038
 21
      1.1659
 31
      0.0000
  0
ARC
  8
1
 62
7
 10
     15.0819
 20
      1.0682
 30
      0.0000
 40
      0.1250
 50
 128.6599
 51
 181.0542
  0
ARC
  8
1
 62
7
 10
     14.7694
 20
      1.0625
 30
      0.0000
 40
      0.1875
 50
 271.7354
 51
   1.0541
  0
LINE
  8
1
 62
7
 10
     14.7751
 20
      0.8751
 30
      0.0000
 11
     15.4252
 21
      0.0625
 31
      0.0000
  0
LINE
  8
1
 62
7
 10
     15.4252
 20
      0.0625
 30
      0.0000
 11
     14.7266
 21
      0.0625
 31
      0.0000
  0
LINE
  8
1
 62
7
 10
     14.7266
 20
      0.0625
 30
      0.0000
 11
     14.2299
 21
      0.6834
 31
      0.0000
  0
LINE
  8
1
 62
7
 10
     14.2299
 20
      0.6834
 30
      0.0000
 11
     14.2299
 21
      0.0625
 31
      0.0000
  0
TEXT
  8
251
 62
13
 10
     13.8187
 20
      0.0625
 30
      0.0000
 40
      0.3000
 1
3
  0
CIRCLE
  8
1
 62
7
 10
     13.9146
 20
      9.3570
 30
      0.0000
 40
      0.0848
  0
CIRCLE
  8
1
 62
7
 10
     13.1027
 20
      7.9508
 30
      0.0000
 40
      0.0847
  0
CIRCLE
  8
1
 62
7
 10
     14.7265
 20
      7.9508
 30
      0.0000
 40
      0.0848
  0
ARC
  8
1
 62
7
 10
     13.9146
 20
      8.4195
 30
      0.0000
 40
      0.2705
 50
 112.4359
 51
 127.5643
  0
LINE
  8
1
 62
7
 10
     13.7497
 20
      8.6339
 30
      0.0000
 11
     13.6465
 21
      8.4551
 31
      0.0000
  0
ARC
  8
1
 62
7
 10
     13.9146
 20
      8.4195
 30
      0.0000
 40
      0.2705
 50
 172.4357
 51
 187.5645
  0
LINE
  8
1
 62
7
 10
     13.6465
 20
      8.3839
 30
      0.0000
 11
     13.7497
 21
      8.2051
 31
      0.0000
  0
ARC
  8
1
 62
7
 10
     13.9146
 20
      8.4195
 30
      0.0000
 40
      0.2705
 50
 232.4357
 51
 247.5641
  0
LINE
  8
1
 62
7
 10
     13.8114
 20
      8.1695
 30
      0.0000
 11
     14.0178
 21
      8.1695
 31
      0.0000
  0
ARC
  8
1
 62
7
 10
     13.9146
 20
      8.4195
 30
      0.0000
 40
      0.2705
 50
 292.4357
 51
 307.5643
  0
LINE
  8
1
 62
7
 10
     14.0795
 20
      8.2051
 30
      0.0000
 11
     14.1827
 21
      8.3839
 31
      0.0000
  0
ARC
  8
1
 62
7
 10
     13.9146
 20
      8.4195
 30
      0.0000
 40
      0.2705
 50
 352.4355
 51
   7.5643
  0
LINE
  8
1
 62
7
 10
     14.1827
 20
      8.4551
 30
      0.0000
 11
     14.0795
 21
      8.6339
 31
      0.0000
  0
ARC
  8
1
 62
7
 10
     13.9146
 20
      8.4195
 30
      0.0000
 40
      0.2705
 50
  52.4357
 51
  67.5643
  0
LINE
  8
1
 62
7
 10
     14.0178
 20
      8.6695
 30
      0.0000
 11
     13.8114
 21
      8.6695
 31
      0.0000
  0
ARC
  8
1
 62
7
 10
     13.9146
 20
      4.8664
 30
      0.0000
 40
      3.0019
 50
  75.2525
 51
 104.7475
  0
ARC
  8
1
 62
7
 10
     13.1027
 20
      7.9508
 30
      0.0000
 40
      0.1875
 50
 135.2525
 51
 284.7477
  0
ARC
  8
1
 62
7
 10
     10.8375
 20
     10.1961
 30
      0.0000
 40
      3.0019
 50
 315.2525
 51
 344.7475
  0
ARC
  8
1
 62
7
 10
     13.9146
 20
      9.3570
 30
      0.0000
 40
      0.1875
 50
  15.2524
 51
 164.7475
  0
ARC
  8
1
 62
7
 10
     16.9917
 20
     10.1961
 30
      0.0000
 40
      3.0019
 50
 195.2525
 51
 224.7475
  0
ARC
  8
1
 62
7
 10
     14.7265
 20
      7.9508
 30
      0.0000
 40
      0.1875
 50
 255.2526
 51
  44.7473
  0
TEXT
  8
251
 62
13
 10
     13.7646
 20
      7.8684
 30
      0.0000
 40
      0.3000
 1
4
  0
CIRCLE
  8
1
 62
7
 10
     14.8346
 20
      8.6233
 30
      0.0000
 40
      0.0885
  0
CIRCLE
  8
1
 62
7
 10
     14.8346
 20
      8.6233
 30
      0.0000
 40
      0.2500
  0
TEXT
  8
251
 62
13
 10
     14.6846
 20
      8.5733
 30
      0.0000
 40
      0.3000
 1
2
  0
CIRCLE
  8
1
 62
7
 10
     15.2240
 20
      7.9982
 30
      0.0000
 40
      0.0885
  0
CIRCLE
  8
1
 62
7
 10
     15.2240
 20
      7.9982
 30
      0.0000
 40
      0.2500
  0
TEXT
  8
251
 62
13
 10
     15.0740
 20
      7.9482
 30
      0.0000
 40
      0.3000
 1
2
  0
CIRCLE
  8
1
 62
7
 10
     15.7261
 20
      7.7032
 30
      0.0000
 40
      0.0885
  0
CIRCLE
  8
1
 62
7
 10
     15.7261
 20
      7.7032
 30
      0.0000
 40
      0.2500
  0
TEXT
  8
251
 62
13
 10
     15.5761
 20
      7.6532
 30
      0.0000
 40
      0.3000
 1
2
  0
CIRCLE
  8
1
 62
7
 10
     15.6417
 20
      8.2711
 30
      0.0000
 40
      0.0885
  0
CIRCLE
  8
1
 62
7
 10
     15.6417
 20
      8.2711
 30
      0.0000
 40
      0.1875
  0
TEXT
  8
251
 62
13
 10
     15.4917
 20
      8.1586
 30
      0.0000
 40
      0.3000
 1
1
  0
CIRCLE
  8
1
 62
7
 10
     15.7185
 20
      8.7514
 30
      0.0000
 40
      0.0848
  0
CIRCLE
  8
1
 62
7
 10
     15.7468
 20
     10.3750
 30
      0.0000
 40
      0.0848
  0
CIRCLE
  8
1
 62
7
 10
     14.3266
 20
      9.5877
 30
      0.0000
 40
      0.0848
  0
ARC
  8
1
 62
7
 10
     15.2640
 20
      9.5714
 30
      0.0000
 40
      0.2705
 50
 321.4357
 51
 336.5643
  0
LINE
  8
1
 62
7
 10
     15.5121
 20
      9.4638
 30
      0.0000
 11
     15.5157
 21
      9.6702
 31
      0.0000
  0
ARC
  8
1
 62
7
 10
     15.2640
 20
      9.5714
 30
      0.0000
 40
      0.2705
 50
  21.4357
 51
  36.5642
  0
LINE
  8
1
 62
7
 10
     15.4812
 20
      9.7325
 30
      0.0000
 11
     15.3042
 21
      9.8388
 31
      0.0000
  0
ARC
  8
1
 62
7
 10
     15.2640
 20
      9.5714
 30
      0.0000
 40
      0.2705
 50
  81.4357
 51
  96.5643
  0
LINE
  8
1
 62
7
 10
     15.2330
 20
      9.8401
 30
      0.0000
 11
     15.0525
 21
      9.7400
 31
      0.0000
  0
ARC
  8
1
 62
7
 10
     15.2640
 20
      9.5714
 30
      0.0000
 40
      0.2705
 50
 141.4356
 51
 156.5644
  0
LINE
  8
1
 62
7
 10
     15.0158
 20
      9.6789
 30
      0.0000
 11
     15.0122
 21
      9.4725
 31
      0.0000
  0
ARC
  8
1
 62
7
 10
     15.2640
 20
      9.5714
 30
      0.0000
 40
      0.2705
 50
 201.4357
 51
 216.5645
  0
LINE
  8
1
 62
7
 10
     15.0467
 20
      9.4102
 30
      0.0000
 11
     15.2237
 21
      9.3039
 31
      0.0000
  0
ARC
  8
1
 62
7
 10
     15.2640
 20
      9.5714
 30
      0.0000
 40
      0.2705
 50
 261.4357
 51
 276.5643
  0
LINE
  8
1
 62
7
 10
     15.2949
 20
      9.3027
 30
      0.0000
 11
     15.4754
 21
      9.4028
 31
      0.0000
  0
ARC
  8
1
 62
7
 10
     13.5414
 20
     12.6790
 30
      0.0000
 40
      3.0019
 50
 284.2525
 51
 313.7475
  0
ARC
  8
1
 62
7
 10
     15.7468
 20
     10.3750
 30
      0.0000
 40
      0.1875
 50
 344.2526
 51
 133.7474
  0
ARC
  8
1
 62
7
 10
     18.8165
 20
      9.5094
 30
      0.0000
 40
      3.0019
 50
 164.2525
 51
 193.7475
  0
ARC
  8
1
 62
7
 10
     15.7185
 20
      8.7514
 30
      0.0000
 40
      0.1875
 50
 224.2526
 51
  13.7476
  0
ARC
  8
1
 62
7
 10
     13.4340
 20
      6.5258
 30
      0.0000
 40
      3.0019
 50
  44.2525
 51
  73.7475
  0
ARC
  8
1
 62
7
 10
     14.3266
 20
      9.5877
 30
      0.0000
 40
      0.1875
 50
 104.2524
 51
 253.7474
  0
TEXT
  8
251
 62
13
 10
     14.9195
 20
      9.7723
 30
      0.0000
 40
      0.3000
 1
4
  0
CIRCLE
  8
1
 62
7
 10
     14.4473
 20
     10.8684
 30
      0.0000
 40
      0.0885
  0
CIRCLE
  8
1
 62
7
 10
     14.4473
 20
     10.8684
 30
      0.0000
 40
      0.2500
  0
TEXT
  8
251
 62
13
 10
     14.2973
 20
     10.8184
 30
      0.0000
 40
      0.3000
 1
2
  0
CIRCLE
  8
1
 62
7
 10
     14.6322
 20
     10.2664
 30
      0.0000
 40
      0.0847
  0
CIRCLE
  8
1
 62
7
 10
     13.2119
 20
     11.0536
 30
      0.0000
 40
      0.0847
  0
CIRCLE
  8
1
 62
7
 10
     13.2403
 20
      9.4301
 30
      0.0000
 40
      0.0847
  0
ARC
  8
1
 62
7
 10
     13.6948
 20
     10.2501
 30
      0.0000
 40
      0.2705
 50
  23.4355
 51
  38.5642
  0
LINE
  8
1
 62
7
 10
     13.9063
 20
     10.4187
 30
      0.0000
 11
     13.7257
 21
     10.5188
 31
      0.0000
  0
ARC
  8
1
 62
7
 10
     13.6948
 20
     10.2501
 30
      0.0000
 40
      0.2705
 50
  83.4357
 51
  98.5643
  0
LINE
  8
1
 62
7
 10
     13.6545
 20
     10.5175
 30
      0.0000
 11
     13.4776
 21
     10.4112
 31
      0.0000
  0
ARC
  8
1
 62
7
 10
     13.6948
 20
     10.2501
 30
      0.0000
 40
      0.2705
 50
 143.4357
 51
 158.5644
  0
LINE
  8
1
 62
7
 10
     13.4430
 20
     10.3489
 30
      0.0000
 11
     13.4466
 21
     10.1425
 31
      0.0000
  0
ARC
  8
1
 62
7
 10
     13.6948
 20
     10.2501
 30
      0.0000
 40
      0.2705
 50
 203.4358
 51
 218.5643
  0
LINE
  8
1
 62
7
 10
     13.4833
 20
     10.0814
 30
      0.0000
 11
     13.6639
 21
      9.9814
 31
      0.0000
  0
ARC
  8
1
 62
7
 10
     13.6948
 20
     10.2501
 30
      0.0000
 40
      0.2705
 50
 263.4357
 51
 278.5642
  0
LINE
  8
1
 62
7
 10
     13.7351
 20
      9.9826
 30
      0.0000
 11
     13.9120
 21
     10.0889
 31
      0.0000
  0
ARC
  8
1
 62
7
 10
     13.6948
 20
     10.2501
 30
      0.0000
 40
      0.2705
 50
 323.4355
 51
 338.5644
  0
LINE
  8
1
 62
7
 10
     13.9466
 20
     10.1512
 30
      0.0000
 11
     13.9430
 21
     10.3576
 31
      0.0000
  0
ARC
  8
1
 62
7
 10
     10.1422
 20
     10.1880
 30
      0.0000
 40
      3.0019
 50
 346.2525
 51
  15.7475
  0
ARC
  8
1
 62
7
 10
     13.2119
 20
     11.0536
 30
      0.0000
 40
      0.1875
 50
  46.2526
 51
 195.7475
  0
ARC
  8
1
 62
7
 10
     15.4174
 20
     13.3577
 30
      0.0000
 40
      3.0019
 50
 226.2525
 51
 255.7475
  0
ARC
  8
1
 62
7
 10
     14.6322
 20
     10.2664
 30
      0.0000
 40
      0.1875
 50
 286.2522
 51
  75.7478
  0
ARC
  8
1
 62
7
 10
     15.5248
 20
      7.2044
 30
      0.0000
 40
      3.0019
 50
 106.2525
 51
 135.7475
  0
ARC
  8
1
 62
7
 10
     13.2403
 20
      9.4301
 30
      0.0000
 40
      0.1875
 50
 166.2524
 51
 315.7476
  0
TEXT
  8
251
 62
13
 10
     13.1437
 20
     10.0931
 30
      0.0000
 40
      0.3000
 1
4
  0
CIRCLE
  8
1
 62
7
 10
     13.4965
 20
     11.4658
 30
      0.0000
 40
      0.0885
  0
CIRCLE
  8
1
 62
7
 10
     13.4965
 20
     11.4658
 30
      0.0000
 40
      0.2500
  0
TEXT
  8
251
 62
13
 10
     13.3465
 20
     11.4158
 30
      0.0000
 40
      0.3000
 1
2
  0
CIRCLE
  8
1
 62
7
 10
     13.9707
 20
     11.1637
 30
      0.0000
 40
      0.0885
  0
CIRCLE
  8
1
 62
7
 10
     13.9707
 20
     11.1637
 30
      0.0000
 40
      0.2500
  0
TEXT
  8
251
 62
13
 10
     13.8208
 20
     11.1137
 30
      0.0000
 40
      0.3000
 1
2
  0
CIRCLE
  8
1
 62
7
 10
     13.9754
 20
     11.6680
 30
      0.0000
 40
      0.0885
  0
CIRCLE
  8
1
 62
7
 10
     13.9754
 20
     11.6680
 30
      0.0000
 40
      0.1875
  0
TEXT
  8
251
 62
13
 10
     13.8254
 20
     11.5555
 30
      0.0000
 40
      0.3000
 1
1
  0
CIRCLE
  8
1
 62
7
 10
     14.4735
 20
     11.4581
 30
      0.0000
 40
      0.0885
  0
CIRCLE
  8
1
 62
7
 10
     14.4735
 20
     11.4581
 30
      0.0000
 40
      0.2500
  0
TEXT
  8
251
 62
13
 10
     14.3235
 20
     11.4081
 30
      0.0000
 40
      0.3000
 1
2
  0
CIRCLE
  8
1
 62
7
 10
     14.9768
 20
     10.6746
 30
      0.0000
 40
      0.0885
  0
CIRCLE
  8
1
 62
7
 10
     14.9768
 20
     10.6746
 30
      0.0000
 40
      0.2500
  0
TEXT
  8
251
 62
13
 10
     14.8268
 20
     10.6246
 30
      0.0000
 40
      0.3000
 1
2
  0
CIRCLE
  8
1
 62
7
 10
     15.0055
 20
     11.2520
 30
      0.0000
 40
      0.0885
  0
CIRCLE
  8
1
 62
7
 10
     15.0055
 20
     11.2520
 30
      0.0000
 40
      0.2500
  0
TEXT
  8
251
 62
13
 10
     14.8555
 20
     11.2020
 30
      0.0000
 40
      0.3000
 1
2
  0
CIRCLE
  8
1
 62
7
 10
     15.1468
 20
     11.7422
 30
      0.0000
 40
      0.0885
  0
CIRCLE
  8
1
 62
7
 10
     15.1468
 20
     11.7422
 30
      0.0000
 40
      0.1875
  0
TEXT
  8
251
 62
13
 10
     14.9968
 20
     11.6297
 30
      0.0000
 40
      0.3000
 1
1
  0
CIRCLE
  8
1
 62
7
 10
     15.5124
 20
     10.8375
 30
      0.0000
 40
      0.0885
  0
CIRCLE
  8
1
 62
7
 10
     15.5124
 20
     10.8375
 30
      0.0000
 40
      0.2500
  0
TEXT
  8
251
 62
13
 10
     15.3624
 20
     10.7875
 30
      0.0000
 40
      0.3000
 1
2
  0
CIRCLE
  8
1
 62
7
 10
     15.5628
 20
     11.4252
 30
      0.0000
 40
      0.0885
  0
CIRCLE
  8
1
 62
7
 10
     15.5628
 20
     11.4252
 30
      0.0000
 40
      0.2500
  0
TEXT
  8
251
 62
13
 10
     15.4128
 20
     11.3752
 30
      0.0000
 40
      0.3000
 1
2
  0
TEXT
  8
251
 62
13
 10
     -0.8000
 20
     -1.2000
 30
      0.0000
 40
      0.3200
 1
1)washer_thin(50)
  0
TEXT
  8
251
 62
13
 10
     15.8400
 20
     -1.2000
 30
      0.0000
 40
      0.3200
 1
2)washer_thick(50)
  0
TEXT
  8
251
 62
13
 10
     -0.8000
 20
     -1.8000
 30
      0.0000
 40
      0.3200
 1
3)sideplate(4)
  0
TEXT
  8
251
 62
13
 10
     15.5200
 20
     -1.8000
 30
      0.0000
 40
      0.3200
 1
4)flex_wheel_hub(8)
  0
TEXT
  8
251
 62
13
 10
     -0.8000
 20
     -2.4000
 30
      0.0000
 40
      0.3200
 1
5)sled(4)
  0
ENDSEC
  0
EOF
