0
SECTION
  2
HEADER
  9
$EXTMAX
 10
   30.2400
 20
   12.8000
  9
$EXTMIN
 10
   -0.8000
 20
   -2.4000
  9
$LIMMAX
 10
   30.2400
 20
   12.8000
  9
$LIMMIN
 10
   -0.8000
 20
   -2.4000
  0
ENDSEC
0
SECTION
  2
TABLES
  0
TABLE
  2
LTYPE
 70
     1
  0
LTYPE
  2
CONTINUOUS
 70
    64
  3
Solid line
 72
   65
 73
    0
 40
0.0
  0
ENDTAB
  0
TABLE
  2
LAYER
 70
       2
  0
LAYER
  2
251
 70
    0
 62
251
  6
CONTINUOUS
  0
LAYER
  2
1
 70
    0
 62
1
  6
CONTINUOUS
  0
ENDTAB
  0
ENDSEC
0
SECTION
  2
ENTITIES
  0
LINE
  8
251
 62
11
 10
     24.0000
 20
     12.0000
 30
      0.0000
 11
     24.0000
 21
      0.0000
 31
      0.0000
  0
LINE
  8
251
 62
11
 10
     24.0000
 20
      0.0000
 30
      0.0000
 11
     15.3386
 21
      0.0000
 31
      0.0000
  0
LINE
  8
251
 62
11
 10
     15.3386
 20
      0.0000
 30
      0.0000
 11
     15.3386
 21
     12.0000
 31
      0.0000
  0
LINE
  8
251
 62
11
 10
     15.3386
 20
     12.0000
 30
      0.0000
 11
     24.0000
 21
     12.0000
 31
      0.0000
  0
LINE
  8
251
 62
9
 10
      0.0000
 20
      0.0000
 30
      0.0000
 11
      0.0000
 21
     12.0000
 31
      0.0000
  0
LINE
  8
251
 62
9
 10
      0.0000
 20
     12.0000
 30
      0.0000
 11
     24.0000
 21
     12.0000
 31
      0.0000
  0
LINE
  8
251
 62
9
 10
     24.0000
 20
     12.0000
 30
      0.0000
 11
     24.0000
 21
      0.0000
 31
      0.0000
  0
LINE
  8
251
 62
9
 10
     24.0000
 20
      0.0000
 30
      0.0000
 11
      0.0000
 21
      0.0000
 31
      0.0000
  0
TEXT
  8
251
 62
12
 10
      6.4693
 20
     -0.6000
 30
      0.0000
 40
      0.4000
 1
15.339
  0
POLYLINE
  8
251
 62
12
 10
      0.0000
 20
      0.0000
 30
      0.0000
 66
  1
 70
  0
  0
VERTEX
  8
251
 62
12
 10
      6.2693
 20
     -0.4000
 30
      0.0000
  0
VERTEX
  8
251
 62
12
 10
      0.0000
 20
     -0.4000
 30
      0.0000
  0
VERTEX
  8
251
 62
12
 10
      0.4000
 20
     -0.6000
 30
      0.0000
  0
VERTEX
  8
251
 62
12
 10
      0.4000
 20
     -0.2000
 30
      0.0000
  0
VERTEX
  8
251
 62
12
 10
      0.0000
 20
     -0.4000
 30
      0.0000
  0
VERTEX
  8
251
 62
12
 10
      0.0000
 20
     -0.8000
 30
      0.0000
  0
VERTEX
  8
251
 62
12
 10
      0.0000
 20
      0.0000
 30
      0.0000
  0
SEQEND
  8
251
 62
12
  0
POLYLINE
  8
251
 62
12
 10
      0.0000
 20
      0.0000
 30
      0.0000
 66
  1
 70
  0
  0
VERTEX
  8
251
 62
12
 10
      9.0693
 20
     -0.4000
 30
      0.0000
  0
VERTEX
  8
251
 62
12
 10
     15.3386
 20
     -0.4000
 30
      0.0000
  0
VERTEX
  8
251
 62
12
 10
     14.9386
 20
     -0.2000
 30
      0.0000
  0
VERTEX
  8
251
 62
12
 10
     14.9386
 20
     -0.6000
 30
      0.0000
  0
VERTEX
  8
251
 62
12
 10
     15.3386
 20
     -0.4000
 30
      0.0000
  0
VERTEX
  8
251
 62
12
 10
     15.3386
 20
      0.0000
 30
      0.0000
  0
VERTEX
  8
251
 62
12
 10
     15.3386
 20
     -0.8000
 30
      0.0000
  0
SEQEND
  8
251
 62
12
  0
TEXT
  8
251
 62
12
 10
     10.8000
 20
     12.2000
 30
      0.0000
 40
      0.4000
 1
24.000
  0
POLYLINE
  8
251
 62
12
 10
      0.0000
 20
      0.0000
 30
      0.0000
 66
  1
 70
  0
  0
VERTEX
  8
251
 62
12
 10
     10.6000
 20
     12.4000
 30
      0.0000
  0
VERTEX
  8
251
 62
12
 10
      0.0000
 20
     12.4000
 30
      0.0000
  0
VERTEX
  8
251
 62
12
 10
      0.4000
 20
     12.2000
 30
      0.0000
  0
VERTEX
  8
251
 62
12
 10
      0.4000
 20
     12.6000
 30
      0.0000
  0
VERTEX
  8
251
 62
12
 10
      0.0000
 20
     12.4000
 30
      0.0000
  0
VERTEX
  8
251
 62
12
 10
      0.0000
 20
     12.0000
 30
      0.0000
  0
VERTEX
  8
251
 62
12
 10
      0.0000
 20
     12.8000
 30
      0.0000
  0
SEQEND
  8
251
 62
12
  0
POLYLINE
  8
251
 62
12
 10
      0.0000
 20
      0.0000
 30
      0.0000
 66
  1
 70
  0
  0
VERTEX
  8
251
 62
12
 10
     13.4000
 20
     12.4000
 30
      0.0000
  0
VERTEX
  8
251
 62
12
 10
     24.0000
 20
     12.4000
 30
      0.0000
  0
VERTEX
  8
251
 62
12
 10
     23.6000
 20
     12.6000
 30
      0.0000
  0
VERTEX
  8
251
 62
12
 10
     23.6000
 20
     12.2000
 30
      0.0000
  0
VERTEX
  8
251
 62
12
 10
     24.0000
 20
     12.4000
 30
      0.0000
  0
VERTEX
  8
251
 62
12
 10
     24.0000
 20
     12.8000
 30
      0.0000
  0
VERTEX
  8
251
 62
12
 10
     24.0000
 20
     12.0000
 30
      0.0000
  0
SEQEND
  8
251
 62
12
  0
TEXT
  8
251
 62
12
 10
     -0.2000
 20
      4.8000
 30
      0.0000
 40
      0.4000
 1
12.000
 50
     90.0000
  0
POLYLINE
  8
251
 62
12
 10
      0.0000
 20
      0.0000
 30
      0.0000
 66
  1
 70
  0
  0
VERTEX
  8
251
 62
12
 10
     -0.4000
 20
      4.6000
 30
      0.0000
  0
VERTEX
  8
251
 62
12
 10
     -0.4000
 20
      0.0000
 30
      0.0000
  0
VERTEX
  8
251
 62
12
 10
     -0.2000
 20
      0.4000
 30
      0.0000
  0
VERTEX
  8
251
 62
12
 10
     -0.6000
 20
      0.4000
 30
      0.0000
  0
VERTEX
  8
251
 62
12
 10
     -0.4000
 20
      0.0000
 30
      0.0000
  0
VERTEX
  8
251
 62
12
 10
      0.0000
 20
      0.0000
 30
      0.0000
  0
VERTEX
  8
251
 62
12
 10
     -0.8000
 20
      0.0000
 30
      0.0000
  0
SEQEND
  8
251
 62
12
  0
POLYLINE
  8
251
 62
12
 10
      0.0000
 20
      0.0000
 30
      0.0000
 66
  1
 70
  0
  0
VERTEX
  8
251
 62
12
 10
     -0.4000
 20
      7.4000
 30
      0.0000
  0
VERTEX
  8
251
 62
12
 10
     -0.4000
 20
     12.0000
 30
      0.0000
  0
VERTEX
  8
251
 62
12
 10
     -0.6000
 20
     11.6000
 30
      0.0000
  0
VERTEX
  8
251
 62
12
 10
     -0.2000
 20
     11.6000
 30
      0.0000
  0
VERTEX
  8
251
 62
12
 10
     -0.4000
 20
     12.0000
 30
      0.0000
  0
VERTEX
  8
251
 62
12
 10
     -0.8000
 20
     12.0000
 30
      0.0000
  0
VERTEX
  8
251
 62
12
 10
      0.0000
 20
     12.0000
 30
      0.0000
  0
SEQEND
  8
251
 62
12
  0
CIRCLE
  8
1
 62
7
 10
      0.5111
 20
      0.4195
 30
      0.0000
 40
      0.0825
  0
CIRCLE
  8
1
 62
7
 10
      1.0111
 20
      1.8732
 30
      0.0000
 40
      0.0825
  0
CIRCLE
  8
1
 62
7
 10
      8.2611
 20
      0.6695
 30
      0.0000
 40
      0.0825
  0
CIRCLE
  8
1
 62
7
 10
      5.2611
 20
      0.6695
 30
      0.0000
 40
      0.0825
  0
ARC
  8
1
 62
7
 10
      3.2839
 20
      0.9155
 30
      0.0000
 40
      3.0668
 50
 131.9984
 51
 190.1412
  0
ARC
  8
1
 62
7
 10
      1.5664
 20
      2.8230
 30
      0.0000
 40
      0.5000
 50
  62.1188
 51
 131.9983
  0
LINE
  8
1
 62
7
 10
      1.8003
 20
      3.2650
 30
      0.0000
 11
      5.7611
 21
      1.1695
 31
      0.0000
  0
LINE
  8
1
 62
7
 10
      5.7611
 20
      1.1695
 30
      0.0000
 11
      9.1361
 21
      1.1695
 31
      0.0000
  0
ARC
  8
1
 62
7
 10
      9.1361
 20
      1.0445
 30
      0.0000
 40
      0.1250
 50
   0.0000
 51
  90.0000
  0
LINE
  8
1
 62
7
 10
      9.2611
 20
      1.0445
 30
      0.0000
 11
      9.2611
 21
      0.2945
 31
      0.0000
  0
ARC
  8
1
 62
7
 10
      9.1361
 20
      0.2945
 30
      0.0000
 40
      0.1250
 50
 270.0000
 51
 360.0000
  0
LINE
  8
1
 62
7
 10
      9.1361
 20
      0.1695
 30
      0.0000
 11
      0.5111
 21
      0.1695
 31
      0.0000
  0
ARC
  8
1
 62
7
 10
      0.5111
 20
      0.4195
 30
      0.0000
 40
      0.2500
 50
 190.1412
 51
 270.0000
  0
TEXT
  8
251
 62
13
 10
      0.3749
 20
      1.7117
 30
      0.0000
 40
      0.3000
 1
1
  0
CIRCLE
  8
1
 62
7
 10
      3.3325
 20
      3.9182
 30
      0.0000
 40
      0.0860
  0
CIRCLE
  8
1
 62
7
 10
      3.0825
 20
     10.6682
 30
      0.0000
 40
      0.0860
  0
LINE
  8
1
 62
7
 10
      3.5825
 20
     10.7932
 30
      0.0000
 11
      3.5825
 21
      3.2932
 31
      0.0000
  0
ARC
  8
1
 62
7
 10
      3.4575
 20
      3.2932
 30
      0.0000
 40
      0.1250
 50
 270.0000
 51
 360.0000
  0
LINE
  8
1
 62
7
 10
      3.4575
 20
      3.1682
 30
      0.0000
 11
      2.5825
 21
      3.1682
 31
      0.0000
  0
LINE
  8
1
 62
7
 10
      2.5825
 20
      3.1682
 30
      0.0000
 11
      0.4790
 21
      3.8101
 31
      0.0000
  0
ARC
  8
1
 62
7
 10
      0.6250
 20
      4.2884
 30
      0.0000
 40
      0.5000
 50
 180.0000
 51
 253.0281
  0
LINE
  8
1
 62
7
 10
      0.1250
 20
      4.2884
 30
      0.0000
 11
      0.1250
 21
      9.4269
 31
      0.0000
  0
ARC
  8
1
 62
7
 10
      1.1250
 20
      9.4269
 30
      0.0000
 40
      1.0000
 50
 125.0000
 51
 180.0000
  0
LINE
  8
1
 62
7
 10
      0.5514
 20
     10.2461
 30
      0.0000
 11
      1.3328
 21
     10.7932
 31
      0.0000
  0
LINE
  8
1
 62
7
 10
      1.3328
 20
     10.7932
 30
      0.0000
 11
      3.5825
 21
     10.7932
 31
      0.0000
  0
TEXT
  8
251
 62
13
 10
      3.2825
 20
      6.8932
 30
      0.0000
 40
      0.3000
 1
2
  0
CIRCLE
  8
1
 62
7
 10
      3.8950
 20
     10.0432
 30
      0.0000
 40
      0.0860
  0
CIRCLE
  8
1
 62
7
 10
      4.1450
 20
      3.2932
 30
      0.0000
 40
      0.0860
  0
LINE
  8
1
 62
7
 10
      3.6450
 20
      3.1682
 30
      0.0000
 11
      3.6450
 21
     10.6682
 31
      0.0000
  0
ARC
  8
1
 62
7
 10
      3.7700
 20
     10.6682
 30
      0.0000
 40
      0.1250
 50
  90.0000
 51
 180.0000
  0
LINE
  8
1
 62
7
 10
      3.7700
 20
     10.7932
 30
      0.0000
 11
      4.6450
 21
     10.7932
 31
      0.0000
  0
LINE
  8
1
 62
7
 10
      4.6450
 20
     10.7932
 30
      0.0000
 11
      6.7484
 21
     10.1513
 31
      0.0000
  0
ARC
  8
1
 62
7
 10
      6.6024
 20
      9.6730
 30
      0.0000
 40
      0.5000
 50
   0.0000
 51
  73.0281
  0
LINE
  8
1
 62
7
 10
      7.1024
 20
      9.6730
 30
      0.0000
 11
      7.1024
 21
      4.5345
 31
      0.0000
  0
ARC
  8
1
 62
7
 10
      6.1024
 20
      4.5345
 30
      0.0000
 40
      1.0000
 50
 305.0000
 51
 360.0000
  0
LINE
  8
1
 62
7
 10
      6.6760
 20
      3.7153
 30
      0.0000
 11
      5.8946
 21
      3.1682
 31
      0.0000
  0
LINE
  8
1
 62
7
 10
      5.8946
 20
      3.1682
 30
      0.0000
 11
      3.6450
 21
      3.1682
 31
      0.0000
  0
TEXT
  8
251
 62
13
 10
      3.6450
 20
      6.7682
 30
      0.0000
 40
      0.3000
 1
2
  0
CIRCLE
  8
1
 62
7
 10
      6.7853
 20
      2.0500
 30
      0.0000
 40
      0.0825
  0
CIRCLE
  8
1
 62
7
 10
      8.3205
 20
      2.1300
 30
      0.0000
 40
      0.0825
  0
CIRCLE
  8
1
 62
7
 10
      7.5821
 20
      9.3637
 30
      0.0000
 40
      0.0835
  0
CIRCLE
  8
1
 62
7
 10
      8.1669
 20
     10.4964
 30
      0.0000
 40
      0.0825
  0
CIRCLE
  8
1
 62
7
 10
      9.1618
 20
      9.4309
 30
      0.0000
 40
      0.0825
  0
CIRCLE
  8
1
 62
7
 10
      8.3349
 20
      6.5471
 30
      0.0000
 40
      0.0825
  0
LINE
  8
1
 62
7
 10
      7.3599
 20
      9.4784
 30
      0.0000
 11
      7.9448
 21
     10.6111
 31
      0.0000
  0
ARC
  8
1
 62
7
 10
      8.1669
 20
     10.4964
 30
      0.0000
 40
      0.2500
 50
  73.9999
 51
 152.6900
  0
LINE
  8
1
 62
7
 10
      8.2358
 20
     10.7367
 30
      0.0000
 11
      9.7979
 21
     10.2888
 31
      0.0000
  0
ARC
  8
1
 62
7
 10
      9.7634
 20
     10.1686
 30
      0.0000
 40
      0.1250
 50
 343.9998
 51
  73.9997
  0
LINE
  8
1
 62
7
 10
      9.8836
 20
     10.1342
 30
      0.0000
 11
      8.9533
 21
      6.8899
 31
      0.0000
  0
LINE
  8
1
 62
7
 10
      8.9533
 20
      6.8899
 30
      0.0000
 11
      9.8759
 21
      2.5049
 31
      0.0000
  0
ARC
  8
1
 62
7
 10
      9.3866
 20
      2.4020
 30
      0.0000
 40
      0.5000
 50
 302.0016
 51
  11.8812
  0
ARC
  8
1
 62
7
 10
      8.0263
 20
      4.5787
 30
      0.0000
 40
      3.0668
 50
 243.8588
 51
 302.0016
  0
ARC
  8
1
 62
7
 10
      6.7853
 20
      2.0500
 30
      0.0000
 40
      0.2500
 50
 164.0000
 51
 243.8588
  0
LINE
  8
1
 62
7
 10
      6.5449
 20
      2.1189
 30
      0.0000
 11
      8.2677
 21
      8.1268
 31
      0.0000
  0
LINE
  8
1
 62
7
 10
      8.2677
 20
      8.1268
 30
      0.0000
 11
      7.3883
 21
      9.2058
 31
      0.0000
  0
ARC
  8
1
 62
7
 10
      7.5821
 20
      9.3637
 30
      0.0000
 40
      0.2500
 50
 152.6900
 51
 219.1821
  0
TEXT
  8
251
 62
13
 10
      7.6356
 20
      9.8259
 30
      0.0000
 40
      0.3000
 1
3
  0
CIRCLE
  8
1
 62
7
 10
     10.3540
 20
      1.4382
 30
      0.0000
 40
      0.0860
  0
CIRCLE
  8
1
 62
7
 10
      9.8556
 20
      3.8880
 30
      0.0000
 40
      0.0860
  0
CIRCLE
  8
1
 62
7
 10
     11.1484
 20
      4.6612
 30
      0.0000
 40
      0.0825
  0
CIRCLE
  8
1
 62
7
 10
     10.9490
 20
      5.6412
 30
      0.0000
 40
      0.0825
  0
LINE
  8
1
 62
7
 10
     10.1829
 20
      1.2559
 30
      0.0000
 11
      9.6319
 21
      3.9641
 31
      0.0000
  0
ARC
  8
1
 62
7
 10
      9.7544
 20
      3.9890
 30
      0.0000
 40
      0.1250
 50
 164.7540
 51
 191.5000
  0
LINE
  8
1
 62
7
 10
      9.6338
 20
      4.0219
 30
      0.0000
 11
     10.4779
 21
      4.1936
 31
      0.0000
  0
LINE
  8
1
 62
7
 10
     10.4779
 20
      4.1936
 30
      0.0000
 11
     10.3021
 21
      5.0578
 31
      0.0000
  0
ARC
  8
1
 62
7
 10
     10.4246
 20
      5.0827
 30
      0.0000
 40
      0.1250
 50
 146.1891
 51
 191.5000
  0
LINE
  8
1
 62
7
 10
     10.3207
 20
      5.1523
 30
      0.0000
 11
     10.7413
 21
      5.7803
 31
      0.0000
  0
ARC
  8
1
 62
7
 10
     10.9490
 20
      5.6412
 30
      0.0000
 40
      0.2500
 50
  17.6226
 51
 146.1894
  0
LINE
  8
1
 62
7
 10
     11.1873
 20
      5.7169
 30
      0.0000
 11
     11.7271
 21
      4.0176
 31
      0.0000
  0
ARC
  8
1
 62
7
 10
     10.7740
 20
      3.7148
 30
      0.0000
 40
      1.0000
 50
 337.2453
 51
  17.6228
  0
LINE
  8
1
 62
7
 10
     11.6962
 20
      3.3280
 30
      0.0000
 11
     10.8889
 21
      1.4034
 31
      0.0000
  0
ARC
  8
1
 62
7
 10
     10.6584
 20
      1.5001
 30
      0.0000
 40
      0.2500
 50
 281.4998
 51
 337.2452
  0
LINE
  8
1
 62
7
 10
     10.7082
 20
      1.2551
 30
      0.0000
 11
     10.4039
 21
      1.1932
 31
      0.0000
  0
ARC
  8
1
 62
7
 10
     10.3540
 20
      1.4382
 30
      0.0000
 40
      0.2500
 50
 226.8136
 51
 281.5000
  0
TEXT
  8
251
 62
13
 10
      9.9044
 20
      2.4899
 30
      0.0000
 40
      0.3000
 1
4
  0
CIRCLE
  8
1
 62
7
 10
     10.6911
 20
      9.0448
 30
      0.0000
 40
      0.0860
  0
CIRCLE
  8
1
 62
7
 10
     10.9524
 20
      6.5585
 30
      0.0000
 40
      0.0860
  0
CIRCLE
  8
1
 62
7
 10
      9.5915
 20
      5.9127
 30
      0.0000
 40
      0.0825
  0
CIRCLE
  8
1
 62
7
 10
      9.6960
 20
      4.9182
 30
      0.0000
 40
      0.0825
  0
LINE
  8
1
 62
7
 10
     10.8789
 20
      9.2098
 30
      0.0000
 11
     11.1677
 21
      6.4613
 31
      0.0000
  0
ARC
  8
1
 62
7
 10
     11.0434
 20
      6.4482
 30
      0.0000
 40
      0.1250
 50
 339.2536
 51
   6.0002
  0
LINE
  8
1
 62
7
 10
     11.1603
 20
      6.4039
 30
      0.0000
 11
     10.3037
 21
      6.3139
 31
      0.0000
  0
LINE
  8
1
 62
7
 10
     10.3037
 20
      6.3139
 30
      0.0000
 11
     10.3959
 21
      5.4369
 31
      0.0000
  0
ARC
  8
1
 62
7
 10
     10.2716
 20
      5.4238
 30
      0.0000
 40
      0.1250
 50
 320.6889
 51
   6.0002
  0
LINE
  8
1
 62
7
 10
     10.3683
 20
      5.3446
 30
      0.0000
 11
      9.8894
 21
      4.7598
 31
      0.0000
  0
ARC
  8
1
 62
7
 10
      9.6960
 20
      4.9182
 30
      0.0000
 40
      0.2500
 50
 192.1228
 51
 320.6893
  0
LINE
  8
1
 62
7
 10
      9.4516
 20
      4.8657
 30
      0.0000
 11
      9.0771
 21
      6.6088
 31
      0.0000
  0
ARC
  8
1
 62
7
 10
     10.0548
 20
      6.8189
 30
      0.0000
 40
      1.0000
 50
 151.7453
 51
 192.1228
  0
LINE
  8
1
 62
7
 10
      9.1740
 20
      7.2922
 30
      0.0000
 11
     10.1620
 21
      9.1307
 31
      0.0000
  0
ARC
  8
1
 62
7
 10
     10.3822
 20
      9.0123
 30
      0.0000
 40
      0.2500
 50
  95.9997
 51
 151.7452
  0
LINE
  8
1
 62
7
 10
     10.3561
 20
      9.2609
 30
      0.0000
 11
     10.6650
 21
      9.2934
 31
      0.0000
  0
ARC
  8
1
 62
7
 10
     10.6911
 20
      9.0448
 30
      0.0000
 40
      0.2500
 50
  41.3136
 51
  95.9999
  0
TEXT
  8
251
 62
13
 10
     10.7241
 20
      7.6699
 30
      0.0000
 40
      0.3000
 1
4
  0
CIRCLE
  8
1
 62
7
 10
     10.2013
 20
      9.5830
 30
      0.0000
 40
      0.0825
  0
CIRCLE
  8
1
 62
7
 10
      8.6595
 20
     10.9515
 30
      0.0000
 40
      0.0825
  0
CIRCLE
  8
1
 62
7
 10
     11.8521
 20
     10.7121
 30
      0.0000
 40
      0.0825
  0
CIRCLE
  8
1
 62
7
 10
     10.2740
 20
     11.2481
 30
      0.0000
 40
      0.0825
  0
CIRCLE
  8
1
 62
7
 10
     11.0631
 20
     10.9801
 30
      0.0000
 40
      0.0825
  0
CIRCLE
  8
1
 62
7
 10
     10.6140
 20
      9.8653
 30
      0.0000
 40
      0.0825
  0
CIRCLE
  8
1
 62
7
 10
      9.4849
 20
     11.5160
 30
      0.0000
 40
      0.0825
  0
ARC
  8
1
 62
7
 10
      8.6595
 20
     10.9515
 30
      0.0000
 40
      0.2500
 50
 124.3716
 51
 304.3714
  0
LINE
  8
1
 62
7
 10
      8.5184
 20
     11.1578
 30
      0.0000
 11
      9.5231
 21
     11.8450
 31
      0.0000
  0
ARC
  8
1
 62
7
 10
      9.5584
 20
     11.7934
 30
      0.0000
 40
      0.0625
 50
  68.9991
 51
 124.3715
  0
LINE
  8
1
 62
7
 10
      9.5808
 20
     11.8518
 30
      0.0000
 11
     11.9417
 21
     10.9455
 31
      0.0000
  0
ARC
  8
1
 62
7
 10
     11.8521
 20
     10.7121
 30
      0.0000
 40
      0.2500
 50
 304.3717
 51
  69.0000
  0
LINE
  8
1
 62
7
 10
     11.9933
 20
     10.5057
 30
      0.0000
 11
     10.3425
 21
      9.3766
 31
      0.0000
  0
ARC
  8
1
 62
7
 10
     10.2014
 20
      9.5830
 30
      0.0000
 40
      0.2500
 50
 124.3864
 51
 304.3568
  0
ARC
  8
1
 62
7
 10
      9.9191
 20
      9.9957
 30
      0.0000
 40
      0.2500
 50
 304.3714
 51
  34.3714
  0
LINE
  8
1
 62
7
 10
     10.1254
 20
     10.1368
 30
      0.0000
 11
      9.7020
 21
     10.7559
 31
      0.0000
  0
ARC
  8
1
 62
7
 10
      9.2893
 20
     10.4736
 30
      0.0000
 40
      0.5000
 50
  34.3716
 51
 124.3715
  0
LINE
  8
1
 62
7
 10
      9.0070
 20
     10.8863
 30
      0.0000
 11
      8.8007
 21
     10.7451
 31
      0.0000
  0
TEXT
  8
251
 62
13
 10
      8.4270
 20
     10.7450
 30
      0.0000
 40
      0.3000
 1
5
  0
CIRCLE
  8
1
 62
7
 10
     13.3047
 20
      4.4577
 30
      0.0000
 40
      0.0860
  0
CIRCLE
  8
1
 62
7
 10
     13.3047
 20
      1.9577
 30
      0.0000
 40
      0.0860
  0
CIRCLE
  8
1
 62
7
 10
     11.8837
 20
      1.4577
 30
      0.0000
 40
      0.0825
  0
CIRCLE
  8
1
 62
7
 10
     11.8837
 20
      0.4577
 30
      0.0000
 40
      0.0825
  0
LINE
  8
1
 62
7
 10
     13.5087
 20
      4.6022
 30
      0.0000
 11
     13.5087
 21
      1.8385
 31
      0.0000
  0
ARC
  8
1
 62
7
 10
     13.3837
 20
      1.8385
 30
      0.0000
 40
      0.1250
 50
 333.2537
 51
 360.0000
  0
LINE
  8
1
 62
7
 10
     13.4954
 20
      1.7822
 30
      0.0000
 11
     12.6340
 21
      1.7822
 31
      0.0000
  0
LINE
  8
1
 62
7
 10
     12.6340
 20
      1.7822
 30
      0.0000
 11
     12.6340
 21
      0.9004
 31
      0.0000
  0
ARC
  8
1
 62
7
 10
     12.5090
 20
      0.9004
 30
      0.0000
 40
      0.1250
 50
 314.6893
 51
 360.0000
  0
LINE
  8
1
 62
7
 10
     12.5969
 20
      0.8115
 30
      0.0000
 11
     12.0596
 21
      0.2799
 31
      0.0000
  0
ARC
  8
1
 62
7
 10
     11.8837
 20
      0.4577
 30
      0.0000
 40
      0.2500
 50
 186.1228
 51
 314.6891
  0
LINE
  8
1
 62
7
 10
     11.6352
 20
      0.4310
 30
      0.0000
 11
     11.4450
 21
      2.2038
 31
      0.0000
  0
ARC
  8
1
 62
7
 10
     12.4393
 20
      2.3105
 30
      0.0000
 40
      1.0000
 50
 145.7453
 51
 186.1228
  0
LINE
  8
1
 62
7
 10
     11.6128
 20
      2.8733
 30
      0.0000
 11
     12.7875
 21
      4.5984
 31
      0.0000
  0
ARC
  8
1
 62
7
 10
     12.9942
 20
      4.4577
 30
      0.0000
 40
      0.2500
 50
  90.0000
 51
 145.7453
  0
LINE
  8
1
 62
7
 10
     12.9942
 20
      4.7077
 30
      0.0000
 11
     13.3047
 21
      4.7077
 31
      0.0000
  0
ARC
  8
1
 62
7
 10
     13.3047
 20
      4.4577
 30
      0.0000
 40
      0.2500
 50
  35.3136
 51
  90.0000
  0
TEXT
  8
251
 62
13
 10
     13.2087
 20
      3.0703
 30
      0.0000
 40
      0.3000
 1
4
  0
CIRCLE
  8
1
 62
7
 10
     13.7183
 20
      5.3890
 30
      0.0000
 40
      0.0825
  0
CIRCLE
  8
1
 62
7
 10
     11.9683
 20
      4.2994
 30
      0.0000
 40
      0.0825
  0
CIRCLE
  8
1
 62
7
 10
     13.1046
 20
      7.2925
 30
      0.0000
 40
      0.0825
  0
CIRCLE
  8
1
 62
7
 10
     12.1424
 20
      5.9316
 30
      0.0000
 40
      0.0825
  0
CIRCLE
  8
1
 62
7
 10
     12.6235
 20
      6.6120
 30
      0.0000
 40
      0.0825
  0
CIRCLE
  8
1
 62
7
 10
     13.5649
 20
      5.8649
 30
      0.0000
 40
      0.0825
  0
CIRCLE
  8
1
 62
7
 10
     11.6614
 20
      5.2511
 30
      0.0000
 40
      0.0825
  0
ARC
  8
1
 62
7
 10
     11.9683
 20
      4.2994
 30
      0.0000
 40
      0.2500
 50
 197.8716
 51
  17.8716
  0
LINE
  8
1
 62
7
 10
     11.7303
 20
      4.2226
 30
      0.0000
 11
     11.3568
 21
      5.3811
 31
      0.0000
  0
ARC
  8
1
 62
7
 10
     11.4163
 20
      5.4003
 30
      0.0000
 40
      0.0625
 50
 142.4997
 51
 197.8714
  0
LINE
  8
1
 62
7
 10
     11.3667
 20
      5.4383
 30
      0.0000
 11
     12.9062
 21
      7.4447
 31
      0.0000
  0
ARC
  8
1
 62
7
 10
     13.1046
 20
      7.2925
 30
      0.0000
 40
      0.2500
 50
  17.8716
 51
 142.5000
  0
LINE
  8
1
 62
7
 10
     13.3425
 20
      7.3692
 30
      0.0000
 11
     13.9563
 21
      5.4657
 31
      0.0000
  0
ARC
  8
1
 62
7
 10
     13.7183
 20
      5.3891
 30
      0.0000
 40
      0.2500
 50
 197.8865
 51
  17.8566
  0
ARC
  8
1
 62
7
 10
     13.2425
 20
      5.2356
 30
      0.0000
 40
      0.2500
 50
  17.8716
 51
 107.8718
  0
LINE
  8
1
 62
7
 10
     13.1657
 20
      5.4735
 30
      0.0000
 11
     12.4519
 21
      5.2433
 31
      0.0000
  0
ARC
  8
1
 62
7
 10
     12.6054
 20
      4.7675
 30
      0.0000
 40
      0.5000
 50
 107.8715
 51
 197.8716
  0
LINE
  8
1
 62
7
 10
     12.1295
 20
      4.6140
 30
      0.0000
 11
     12.2062
 21
      4.3761
 31
      0.0000
  0
TEXT
  8
251
 62
13
 10
     11.8490
 20
      4.0542
 30
      0.0000
 40
      0.3000
 1
5
  0
CIRCLE
  8
1
 62
7
 10
     11.3950
 20
      6.3916
 30
      0.0000
 40
      0.0860
  0
CIRCLE
  8
1
 62
7
 10
     11.1771
 20
      8.8820
 30
      0.0000
 40
      0.0860
  0
CIRCLE
  8
1
 62
7
 10
     12.5491
 20
      9.5040
 30
      0.0000
 40
      0.0825
  0
CIRCLE
  8
1
 62
7
 10
     12.4619
 20
     10.5002
 30
      0.0000
 40
      0.0825
  0
LINE
  8
1
 62
7
 10
     11.2043
 20
      6.2298
 30
      0.0000
 11
     10.9635
 21
      8.9830
 31
      0.0000
  0
ARC
  8
1
 62
7
 10
     11.0880
 20
      8.9939
 30
      0.0000
 40
      0.1250
 50
 158.2534
 51
 184.9998
  0
LINE
  8
1
 62
7
 10
     10.9719
 20
      9.0402
 30
      0.0000
 11
     11.8300
 21
      9.1153
 31
      0.0000
  0
LINE
  8
1
 62
7
 10
     11.8300
 20
      9.1153
 30
      0.0000
 11
     11.7531
 21
      9.9938
 31
      0.0000
  0
ARC
  8
1
 62
7
 10
     11.8776
 20
     10.0047
 30
      0.0000
 40
      0.1250
 50
 139.6893
 51
 185.0002
  0
LINE
  8
1
 62
7
 10
     11.7823
 20
     10.0855
 30
      0.0000
 11
     12.2713
 21
     10.6619
 31
      0.0000
  0
ARC
  8
1
 62
7
 10
     12.4619
 20
     10.5002
 30
      0.0000
 40
      0.2500
 50
  11.1228
 51
 139.6891
  0
LINE
  8
1
 62
7
 10
     12.7072
 20
     10.5484
 30
      0.0000
 11
     13.0512
 21
      8.7990
 31
      0.0000
  0
ARC
  8
1
 62
7
 10
     12.0700
 20
      8.6060
 30
      0.0000
 40
      1.0000
 50
 330.7453
 51
  11.1227
  0
LINE
  8
1
 62
7
 10
     12.9424
 20
      8.1173
 30
      0.0000
 11
     11.9225
 21
      6.2965
 31
      0.0000
  0
ARC
  8
1
 62
7
 10
     11.7044
 20
      6.4186
 30
      0.0000
 40
      0.2500
 50
 274.9999
 51
 330.7452
  0
LINE
  8
1
 62
7
 10
     11.7261
 20
      6.1696
 30
      0.0000
 11
     11.4167
 21
      6.1425
 31
      0.0000
  0
ARC
  8
1
 62
7
 10
     11.3950
 20
      6.3916
 30
      0.0000
 40
      0.2500
 50
 220.3138
 51
 274.9999
  0
TEXT
  8
251
 62
13
 10
     11.0833
 20
      7.4695
 30
      0.0000
 40
      0.3000
 1
4
  0
CIRCLE
  8
1
 62
7
 10
     13.2373
 20
      1.4514
 30
      0.0000
 40
      0.0825
  0
CIRCLE
  8
1
 62
7
 10
     13.8432
 20
      3.4219
 30
      0.0000
 40
      0.0825
  0
CIRCLE
  8
1
 62
7
 10
     14.9493
 20
      0.4175
 30
      0.0000
 40
      0.0825
  0
CIRCLE
  8
1
 62
7
 10
     14.7825
 20
      2.0758
 30
      0.0000
 40
      0.0825
  0
CIRCLE
  8
1
 62
7
 10
     14.8659
 20
      1.2466
 30
      0.0000
 40
      0.0825
  0
CIRCLE
  8
1
 62
7
 10
     13.6653
 20
      1.1929
 30
      0.0000
 40
      0.0825
  0
CIRCLE
  8
1
 62
7
 10
     14.6992
 20
      2.9049
 30
      0.0000
 40
      0.0825
  0
ARC
  8
1
 62
7
 10
     13.8432
 20
      3.4219
 30
      0.0000
 40
      0.2500
 50
  58.8715
 51
 238.8716
  0
LINE
  8
1
 62
7
 10
     13.9724
 20
      3.6359
 30
      0.0000
 11
     15.0143
 21
      3.0066
 31
      0.0000
  0
ARC
  8
1
 62
7
 10
     14.9820
 20
      2.9531
 30
      0.0000
 40
      0.0625
 50
   3.4996
 51
  58.8709
  0
LINE
  8
1
 62
7
 10
     15.0444
 20
      2.9570
 30
      0.0000
 11
     15.1988
 21
      0.4327
 31
      0.0000
  0
ARC
  8
1
 62
7
 10
     14.9493
 20
      0.4175
 30
      0.0000
 40
      0.2500
 50
 238.8715
 51
   3.5000
  0
LINE
  8
1
 62
7
 10
     14.8200
 20
      0.2035
 30
      0.0000
 11
     13.1080
 21
      1.2374
 31
      0.0000
  0
ARC
  8
1
 62
7
 10
     13.2373
 20
      1.4514
 30
      0.0000
 40
      0.2500
 50
  58.8863
 51
 238.8568
  0
ARC
  8
1
 62
7
 10
     13.4957
 20
      1.8794
 30
      0.0000
 40
      0.2500
 50
 238.8716
 51
 328.8715
  0
LINE
  8
1
 62
7
 10
     13.7097
 20
      1.7502
 30
      0.0000
 11
     14.0975
 21
      2.3922
 31
      0.0000
  0
ARC
  8
1
 62
7
 10
     13.6695
 20
      2.6506
 30
      0.0000
 40
      0.5000
 50
 328.8715
 51
  58.8715
  0
LINE
  8
1
 62
7
 10
     13.9279
 20
      3.0786
 30
      0.0000
 11
     13.7139
 21
      3.2079
 31
      0.0000
  0
TEXT
  8
251
 62
13
 10
     13.6076
 20
      3.3236
 30
      0.0000
 40
      0.3000
 1
5
  0
CIRCLE
  8
1
 62
7
 10
     14.6206
 20
     11.0955
 30
      0.0000
 40
      0.0825
  0
CIRCLE
  8
1
 62
7
 10
     14.6173
 20
      9.0340
 30
      0.0000
 40
      0.0825
  0
CIRCLE
  8
1
 62
7
 10
     12.6811
 20
     11.5837
 30
      0.0000
 40
      0.0825
  0
CIRCLE
  8
1
 62
7
 10
     13.3254
 20
     10.0466
 30
      0.0000
 40
      0.0825
  0
CIRCLE
  8
1
 62
7
 10
     13.0032
 20
     10.8152
 30
      0.0000
 40
      0.0825
  0
CIRCLE
  8
1
 62
7
 10
     14.1357
 20
     11.2176
 30
      0.0000
 40
      0.0825
  0
CIRCLE
  8
1
 62
7
 10
     13.6475
 20
      9.2781
 30
      0.0000
 40
      0.0825
  0
ARC
  8
1
 62
7
 10
     14.6173
 20
      9.0340
 30
      0.0000
 40
      0.2500
 50
 255.8716
 51
  75.8714
  0
LINE
  8
1
 62
7
 10
     14.5563
 20
      8.7915
 30
      0.0000
 11
     13.3759
 21
      9.0887
 31
      0.0000
  0
ARC
  8
1
 62
7
 10
     13.3911
 20
      9.1493
 30
      0.0000
 40
      0.0625
 50
 200.4998
 51
 255.8717
  0
LINE
  8
1
 62
7
 10
     13.3326
 20
      9.1274
 30
      0.0000
 11
     12.4469
 21
     11.4962
 31
      0.0000
  0
ARC
  8
1
 62
7
 10
     12.6811
 20
     11.5837
 30
      0.0000
 40
      0.2500
 50
  75.8714
 51
 200.5000
  0
LINE
  8
1
 62
7
 10
     12.7421
 20
     11.8262
 30
      0.0000
 11
     14.6816
 21
     11.3380
 31
      0.0000
  0
ARC
  8
1
 62
7
 10
     14.6205
 20
     11.0955
 30
      0.0000
 40
      0.2500
 50
 255.8863
 51
  75.8567
  0
ARC
  8
1
 62
7
 10
     14.4985
 20
     10.6107
 30
      0.0000
 40
      0.2500
 50
  75.8719
 51
 165.8715
  0
LINE
  8
1
 62
7
 10
     14.2561
 20
     10.6717
 30
      0.0000
 11
     14.0730
 21
      9.9444
 31
      0.0000
  0
ARC
  8
1
 62
7
 10
     14.5579
 20
      9.8223
 30
      0.0000
 40
      0.5000
 50
 165.8714
 51
 255.8715
  0
LINE
  8
1
 62
7
 10
     14.4359
 20
      9.3374
 30
      0.0000
 11
     14.6783
 21
      9.2764
 31
      0.0000
  0
TEXT
  8
251
 62
13
 10
     14.5643
 20
      8.8596
 30
      0.0000
 40
      0.3000
 1
5
  0
TEXT
  8
251
 62
13
 10
     -0.8000
 20
     -1.2000
 30
      0.0000
 40
      0.3200
 1
1)gusset_no_motor
  0
TEXT
  8
251
 62
13
 10
     14.5600
 20
     -1.2000
 30
      0.0000
 40
      0.3200
 1
2)wing(2)
  0
TEXT
  8
251
 62
13
 10
     -0.8000
 20
     -1.8000
 30
      0.0000
 40
      0.3200
 1
3)gusset
  0
TEXT
  8
251
 62
13
 10
     14.5600
 20
     -1.8000
 30
      0.0000
 40
      0.3200
 1
4)sled(4)
  0
TEXT
  8
251
 62
13
 10
     -0.8000
 20
     -2.4000
 30
      0.0000
 40
      0.3200
 1
5)gusset(4)
  0
ENDSEC
  0
EOF
